<?xml version="1.0" encoding="UTF-8"?>
<svg xmlns="http://www.w3.org/2000/svg" xmlns:xlink="http://www.w3.org/1999/xlink" width="59px" height="59px" viewBox="0 0 59 59" version="1.1">
<g id="surface1">
<path style=" stroke:none;fill-rule:nonzero;fill:rgb(80%,56.078431%,23.137255%);fill-opacity:1;" d="M 59 29.5 C 59 45.792969 45.792969 59 29.5 59 C 13.207031 59 0 45.792969 0 29.5 C 0 13.207031 13.207031 0 29.5 0 C 45.792969 0 59 13.207031 59 29.5 Z M 59 29.5 "/>
<path style=" stroke:none;fill-rule:nonzero;fill:rgb(100%,100%,100%);fill-opacity:1;" d="M 10.503906 16.074219 L 29.246094 9.417969 L 48.496094 15.957031 L 45.378906 40.675781 L 29.25 49.582031 L 13.371094 40.796875 L 10.507812 16.074219 Z M 10.503906 16.074219 "/>
<path style=" stroke:none;fill-rule:nonzero;fill:rgb(93.72549%,84.313725%,74.901961%);fill-opacity:1;" d="M 48.496094 15.957031 L 29.25 9.417969 L 29.25 49.582031 L 45.378906 40.691406 Z M 48.496094 15.957031 "/>
<path style=" stroke:none;fill-rule:nonzero;fill:rgb(80%,56.078431%,23.137255%);fill-opacity:1;" d="M 29.277344 14.105469 L 17.601562 40.011719 L 21.964844 39.9375 L 24.308594 34.09375 L 34.785156 34.09375 L 37.355469 40.011719 L 41.523438 40.085938 Z M 29.308594 22.40625 L 33.253906 30.628906 L 25.835938 30.628906 Z M 29.308594 22.40625 "/>
</g>
</svg>
