<?xml version="1.0" encoding="UTF-8"?>
<svg xmlns="http://www.w3.org/2000/svg" viewBox="0 0 500 500">
  <defs>
    <style>
      .cls-1 {
        opacity: .1;
      }

      .cls-2 {
        fill: #f7a9a0;
      }

      .cls-3 {
        fill: #ebebeb;
      }

      .cls-4 {
        fill: #ff9abb;
      }

      .cls-5, .cls-6 {
        fill: #fff;
      }

      .cls-7 {
        fill: #ffc727;
      }

      .cls-8 {
        fill: #a6a6a6;
      }

      .cls-9, .cls-10 {
        fill: #ca8d3b;
      }

      .cls-11 {
        fill: #c7c7c7;
      }

      .cls-12 {
        fill: #dbdbdb;
      }

      .cls-13 {
        fill: #37474f;
      }

      .cls-14 {
        fill: #3f3f3f;
      }

      .cls-15 {
        fill: #455a64;
      }

      .cls-16 {
        fill: #263238;
      }

      .cls-17 {
        fill: #272726;
      }

      .cls-18 {
        fill: none;
        stroke: #ebebeb;
        stroke-miterlimit: 10;
      }

      .cls-19 {
        opacity: .3;
      }

      .cls-20 {
        isolation: isolate;
      }

      .cls-10 {
        opacity: .5;
      }

      .cls-6 {
        opacity: .4;
      }
    </style>
  </defs>
  <g id="Background_Complete" data-name="Background Complete">
    <g>
      <rect class="cls-3" x="62.77" y="59.04" width="35.16" height="11.19"/>
      <rect class="cls-18" x="402.07" y="147.56" width="35.16" height="11.19"/>
      <path class="cls-3" d="M78.32,44.93c-5.84,.1-20.81,.35-26.45,.41l-8.71,.04,.46-.46,.04,11.19-.5-.5c5.84,.02,20.73,.07,26.37,.15l8.79,.11-.24,.24,.24-11.19h0Zm0,0l.24,11.19v.23s-.24,0-.24,0c-4.39,.06-13.19,.16-17.58,.19l-17.58,.07h-.5s0-.5,0-.5l.04-11.19v-.46s.46,0,.46,0l8.87,.04c5.6,.06,20.51,.31,26.29,.41h0Z"/>
      <path class="cls-3" d="M137.08,311.75c-5.84,.1-20.81,.35-26.45,.41l-8.71,.04,.46-.46,.04,11.19-.5-.5c5.84,.02,20.73,.07,26.37,.15l8.79,.11-.24,.24,.24-11.19h0Zm0,0l.24,11.19v.23s-.24,0-.24,0c-4.39,.06-13.19,.16-17.58,.19,0,0-17.58,.07-17.58,.07h-.5s0-.5,0-.5l.04-11.19v-.46s.46,0,.46,0l8.87,.04c5.6,.06,20.51,.31,26.29,.41h0Z"/>
      <path class="cls-3" d="M117.46,297.64c-5.84,.1-20.81,.35-26.45,.41l-8.71,.04,.46-.46,.04,11.19-.5-.5c5.84,.02,20.73,.07,26.37,.15l8.79,.11-.24,.24,.24-11.19h0Zm0,0l.24,11.19v.23s-.24,0-.24,0c-4.39,.06-13.19,.16-17.58,.19,0,0-17.58,.07-17.58,.07h-.5s0-.5,0-.5l.04-11.19v-.46s.46,0,.46,0l8.87,.04c5.6,.06,20.51,.31,26.29,.41h0Z"/>
      <rect class="cls-3" x="62.77" y="311.75" width="35.16" height="11.19"/>
      <rect class="cls-3" x="421.68" y="44.93" width="35.16" height="11.19"/>
      <rect class="cls-3" x="402.07" y="436.89" width="35.16" height="11.19"/>
      <path class="cls-3" d="M456.84,422.78c-5.84,.1-20.81,.35-26.45,.41l-8.71,.04,.46-.46,.04,11.19-.5-.5c5.84,.02,20.73,.07,26.37,.15l8.79,.11-.24,.24,.24-11.19h0Zm0,0l.24,11.19v.23s-.24,0-.24,0c-4.39,.06-13.19,.16-17.58,.19,0,0-17.58,.07-17.58,.07h-.5s0-.5,0-.5l.04-11.19v-.46s.46,0,.46,0l8.87,.04c5.6,.06,20.51,.31,26.29,.41h0Z"/>
      <path class="cls-3" d="M78.32,436.89c-5.84,.1-20.81,.35-26.45,.41l-8.71,.04,.46-.46,.04,11.19-.5-.5c5.84,.02,20.73,.07,26.37,.15,0,0,8.79,.11,8.79,.11l-.24,.24,.24-11.19h0Zm0,0l.24,11.19v.23s-.24,0-.24,0c-4.39,.06-13.19,.16-17.58,.19l-17.58,.07h-.5s0-.5,0-.5l.04-11.19v-.46s.46,0,.46,0l8.87,.04c5.6,.06,20.51,.31,26.29,.41h0Z"/>
    </g>
  </g>
  <g id="Floor">
    <path class="cls-16" d="M44.54,460.05c131.63-.61,279.29-.62,410.92,0-131.63,.62-279.29,.61-410.92,0h0Z"/>
  </g>
  <g id="Device">
    <g>
      <rect class="cls-17" x="52.07" y="113.05" width="395.86" height="264.85" rx="12.89" ry="12.89" transform="translate(495.47 -4.53) rotate(90)"/>
      <rect class="cls-5" x="129.06" y="75.25" width="242.19" height="340.69"/>
      <g>
        <rect class="cls-14" x="247.94" y="34.8" width="4.12" height="57.64" rx="1.25" ry="1.25" transform="translate(313.62 -186.38) rotate(90)"/>
        <circle class="cls-14" cx="250" cy="429.32" r="7.45" transform="translate(-230.35 302.52) rotate(-45)"/>
      </g>
      <g>
        <rect class="cls-5" x="129.06" y="75.25" width="242.19" height="340.69"/>
        <g>
          <rect class="cls-14" x="129.06" y="75.25" width="242.19" height="8.32"/>
          <g>
            <path class="cls-11" d="M136.5,79.41c0,.96-.78,1.75-1.74,1.75s-1.75-.78-1.75-1.75,.78-1.74,1.75-1.74,1.74,.78,1.74,1.74Z"/>
            <path class="cls-5" d="M143.63,79.41c0,.96-.78,1.75-1.74,1.75s-1.74-.78-1.74-1.75,.78-1.74,1.74-1.74,1.74,.78,1.74,1.74Z"/>
            <path class="cls-7" d="M150.75,79.41c0,.96-.78,1.75-1.74,1.75s-1.74-.78-1.74-1.75,.78-1.74,1.74-1.74,1.74,.78,1.74,1.74Z"/>
          </g>
        </g>
        <g>
          <g>
            <path class="cls-14" d="M283.85,151.58c-2.56,1.41-5.52,2.22-8.66,2.22-9.93,0-17.98-8.06-17.98-17.98s8.05-17.98,17.98-17.98v17.98l8.66,15.76Z"/>
            <path class="cls-9" d="M285.85,121.34l-10.66,14.47v-17.98c3.99,0,7.68,1.3,10.66,3.51Z"/>
            <path class="cls-12" d="M293.16,135.81c0,4.71-1.81,8.99-4.77,12.19l-13.21-12.19,10.66-14.47c4.44,3.27,7.32,8.54,7.32,14.47Z"/>
            <path class="cls-17" d="M294.86,156.34c-1.31,1.43-2.85,2.63-4.55,3.57l-8.66-15.76,13.21,12.19Z"/>
          </g>
          <g>
            <path class="cls-12" d="M226.65,118.52l-4.94,17.29v17.98c-9.93,0-17.98-8.06-17.98-17.98s8.05-17.98,17.98-17.98c1.72,0,3.37,.25,4.94,.69Z"/>
            <path class="cls-14" d="M232.36,150.3c-2.98,2.2-6.66,3.5-10.65,3.5v-17.98l10.65,14.48Z"/>
            <path class="cls-17" d="M239.69,135.81c0,5.94-2.89,11.21-7.33,14.48l-10.65-14.48,13.98-11.3c2.5,3.09,4,7.02,4,11.3Z"/>
            <path class="cls-9" d="M239.69,118.68l-13.98,11.3,4.94-17.29c3.6,1.03,6.75,3.15,9.04,5.99Z"/>
          </g>
          <g>
            <path class="cls-17" d="M168.24,117.83v17.98l-12.11,13.29c-3.61-3.29-5.87-8.03-5.87-13.29,0-9.93,8.05-17.98,17.98-17.98Z"/>
            <path class="cls-9" d="M181.11,123.26l-12.88,12.55v-17.98c5.05,0,9.61,2.08,12.88,5.43Z"/>
            <path class="cls-12" d="M186.22,135.81c0,5.62-2.58,10.64-6.62,13.94l-11.36-13.94,12.88-12.55c3.16,3.24,5.11,7.67,5.11,12.55Z"/>
            <path class="cls-14" d="M179.6,154.47c-3.09,2.53-7.05,4.05-11.36,4.05-4.67,0-8.91-1.78-12.11-4.69l12.11-13.29,11.36,13.94Z"/>
          </g>
          <g>
            <path class="cls-9" d="M328.66,117.83v35.97c-9.93,0-17.98-8.06-17.98-17.98s8.04-17.98,17.98-17.98Z"/>
            <path class="cls-14" d="M333.2,118.41l-4.54,17.4v-17.98c1.57,0,3.09,.21,4.54,.58Z"/>
            <path class="cls-17" d="M349.74,134.78c0,2.32-.44,4.55-1.25,6.59l-16.73-6.59,4.54-17.4c7.73,2.01,13.44,9.04,13.44,17.4Z"/>
            <path class="cls-12" d="M345.39,142.41c-2.63,6.67-9.13,11.39-16.73,11.39v-17.98l16.73,6.59Z"/>
          </g>
          <g>
            <g>
              <rect class="cls-3" x="162.59" y="166.49" width="20.99" height="2.02"/>
              <rect class="cls-3" x="162.59" y="170.7" width="13.93" height="2.02"/>
            </g>
            <rect class="cls-15" x="152.9" y="166.46" width="6.28" height="6.28"/>
          </g>
          <g>
            <g>
              <rect class="cls-3" x="216.06" y="166.49" width="20.99" height="2.02"/>
              <rect class="cls-3" x="216.06" y="170.7" width="13.93" height="2.02"/>
            </g>
            <rect class="cls-12" x="206.37" y="166.46" width="6.28" height="6.28"/>
          </g>
          <g>
            <g>
              <rect class="cls-3" x="270.38" y="166.49" width="20.99" height="2.02"/>
              <rect class="cls-3" x="270.38" y="170.7" width="13.93" height="2.02"/>
            </g>
            <rect class="cls-14" x="260.7" y="166.46" width="6.28" height="6.28"/>
          </g>
          <g>
            <g>
              <rect class="cls-3" x="324.56" y="166.49" width="20.99" height="2.02"/>
              <rect class="cls-3" x="324.56" y="170.7" width="13.93" height="2.02"/>
            </g>
            <rect class="cls-7" x="314.87" y="166.46" width="6.28" height="6.28"/>
          </g>
        </g>
        <g>
          <g>
            <path class="cls-9" d="M206.91,336.06c0,11-6.68,20.46-16.23,24.52l-10.41-24.52h26.64Z"/>
            <path class="cls-7" d="M176.87,334.24l10.41,24.52s-.03,.03-.05,.03c-.82,.33-1.63,.64-2.45,.89-2.58,.79-5.23,1.2-7.91,1.2s-5.41-.43-7.91-1.2c-8.34-2.6-14.93-9.19-17.5-17.53-.77-2.5-1.2-5.15-1.2-7.91s.43-5.41,1.2-7.91c2.58-8.34,9.16-14.93,17.5-17.5,2.5-.77,5.15-1.2,7.91-1.2s5.41,.43,7.91,1.2c8.37,2.58,14.93,9.16,17.53,17.5,.77,2.5,1.2,5.15,1.2,7.91h-26.64Z"/>
            <path class="cls-12" d="M176.87,334.24l10.41,24.52s-.03,.03-.05,.03c-.82,.33-1.63,.64-2.45,.89-2.58,.79-5.23,1.2-7.91,1.2s-5.41-.43-7.91-1.2c-8.29-2.63-14.87-9.24-17.5-17.53-.77-2.5-1.2-5.15-1.2-7.91s.43-5.41,1.2-7.91c2.63-8.29,9.21-14.87,17.5-17.5,2.5-.77,5.15-1.2,7.91-1.2s5.41,.43,7.91,1.2c8.29,2.63,14.9,9.21,17.53,17.5,.77,2.5,1.2,5.15,1.2,7.91h-26.64Z"/>
            <path class="cls-17" d="M176.88,334.24l-17.35,20.19c-5.88-5.05-9.27-12.43-9.27-20.19,0-14.6,12.02-26.62,26.62-26.62s26.62,12.02,26.62,26.62h-26.62Z"/>
          </g>
          <g>
            <polygon class="cls-16" points="220.69 369.52 200.57 369.52 175.66 344.61 176.03 344.25 200.78 369.01 220.69 369.01 220.69 369.52"/>
            <rect class="cls-16" x="174.44" y="343.03" width="2.8" height="2.8"/>
          </g>
          <g>
            <polygon class="cls-16" points="220.69 350.25 198.02 350.25 187.26 339.49 187.62 339.13 198.23 349.74 220.69 349.74 220.69 350.25"/>
            <rect class="cls-16" x="186.04" y="337.91" width="2.8" height="2.8"/>
          </g>
          <g>
            <rect class="cls-16" x="186.41" y="331.18" width="34.27" height=".51"/>
            <rect class="cls-16" x="184.64" y="330.04" width="2.8" height="2.8"/>
          </g>
          <g>
            <rect class="cls-3" x="228.48" y="328.63" width="24.9" height="2.32"/>
            <rect class="cls-3" x="228.48" y="333.46" width="32.31" height="2.32"/>
            <rect class="cls-3" x="228.48" y="338.3" width="17.27" height="2.32"/>
            <rect class="cls-17" x="217.87" y="328.63" width="5.62" height="5.62"/>
          </g>
          <g>
            <rect class="cls-3" x="228.48" y="347.34" width="27.93" height="2.32"/>
            <rect class="cls-3" x="228.48" y="352.18" width="23.29" height="2.32"/>
            <rect class="cls-3" x="228.48" y="357.01" width="32.31" height="2.32"/>
            <rect class="cls-9" x="217.87" y="347.34" width="5.62" height="5.62"/>
          </g>
          <g>
            <rect class="cls-3" x="228.48" y="366.05" width="27.93" height="2.32"/>
            <rect class="cls-3" x="228.48" y="370.89" width="23.29" height="2.32"/>
            <rect class="cls-3" x="228.48" y="375.73" width="32.31" height="2.32"/>
            <rect class="cls-12" x="217.87" y="366.05" width="5.62" height="5.62"/>
          </g>
        </g>
        <g>
          <g>
            <path class="cls-12" d="M150.26,193.84l67.79-.16c22.6,.06,45.2,.02,67.79,.16-22.6,.14-45.2,.11-67.79,.16l-67.79-.16Z"/>
            <path class="cls-12" d="M150.26,198.91l67.79-.16c22.6,.06,45.2,.02,67.79,.16-22.6,.14-45.2,.11-67.79,.16l-67.79-.16Z"/>
            <path class="cls-12" d="M150.26,203.97l67.79-.16c22.6,.06,45.2,.02,67.79,.16-22.6,.14-45.2,.11-67.79,.16l-67.79-.16Z"/>
            <path class="cls-12" d="M150.26,209.04l67.79-.16c22.6,.06,45.2,.02,67.79,.16-22.6,.14-45.2,.11-67.79,.16l-67.79-.16Z"/>
            <path class="cls-12" d="M150.26,214.1l67.79-.16c22.6,.06,45.2,.02,67.79,.16-22.6,.14-45.2,.11-67.79,.16l-67.79-.16Z"/>
            <path class="cls-12" d="M150.26,219.16l67.79-.16c22.6,.06,45.2,.02,67.79,.16-22.6,.14-45.2,.11-67.79,.16l-67.79-.16Z"/>
            <path class="cls-12" d="M150.26,224.23l67.79-.16c22.6,.06,45.2,.02,67.79,.16-22.6,.14-45.2,.11-67.79,.16l-67.79-.16Z"/>
            <path class="cls-12" d="M150.26,229.29l67.79-.16c22.6,.06,45.2,.02,67.79,.16-22.6,.14-45.2,.11-67.79,.16l-67.79-.16Z"/>
            <path class="cls-12" d="M150.26,234.36l67.79-.16c22.6,.06,45.2,.02,67.79,.16-22.6,.14-45.2,.11-67.79,.16l-67.79-.16Z"/>
            <path class="cls-12" d="M150.26,239.42l67.79-.16c22.6,.06,45.2,.02,67.79,.16-22.6,.14-45.2,.11-67.79,.16l-67.79-.16Z"/>
            <path class="cls-12" d="M150.26,244.49l67.79-.16c22.6,.06,45.2,.02,67.79,.16-22.6,.14-45.2,.11-67.79,.16l-67.79-.16Z"/>
            <path class="cls-12" d="M150.26,249.55l67.79-.16c22.6,.06,45.2,.02,67.79,.16-22.6,.14-45.2,.11-67.79,.16l-67.79-.16Z"/>
            <path class="cls-12" d="M150.26,254.61l67.79-.16c22.6,.06,45.2,.02,67.79,.16-22.6,.14-45.2,.11-67.79,.16l-67.79-.16Z"/>
            <path class="cls-12" d="M150.26,259.68l67.79-.16c22.6,.06,45.2,.02,67.79,.16-22.6,.14-45.2,.11-67.79,.16l-67.79-.16Z"/>
            <path class="cls-12" d="M150.26,264.74l67.79-.16c22.6,.06,45.2,.02,67.79,.16-22.6,.14-45.2,.11-67.79,.16l-67.79-.16Z"/>
            <rect class="cls-9" x="164.6" y="229.29" width="10.28" height="41.35"/>
            <rect class="cls-14" x="183.67" y="211.8" width="10.28" height="58.84"/>
            <rect class="cls-12" x="202.74" y="224.4" width="10.28" height="46.24"/>
            <rect class="cls-9" x="221.82" y="209.04" width="10.28" height="61.61"/>
            <rect class="cls-14" x="240.89" y="217.3" width="10.28" height="53.35"/>
            <rect class="cls-12" x="259.97" y="247.52" width="10.28" height="23.12"/>
            <path class="cls-12" d="M153.94,190.29l.28,20.09,.19,20.09c.13,13.39,.17,26.78,.19,40.18l-.67-.61,32.98-.03,32.98,.07,32.98,.2,32.98,.36-32.98,.36-32.98,.2-32.98,.07-32.98-.03h-.67s0-.61,0-.61c.02-13.39,.06-26.78,.2-40.18l.19-20.09,.28-20.09Z"/>
            <rect class="cls-12" x="164.6" y="274.89" width="10.28" height=".85"/>
            <rect class="cls-12" x="183.67" y="274.89" width="10.28" height=".85"/>
            <rect class="cls-12" x="202.74" y="274.89" width="10.28" height=".85"/>
            <rect class="cls-12" x="221.82" y="274.89" width="10.28" height=".85"/>
            <rect class="cls-12" x="240.89" y="274.89" width="10.28" height=".85"/>
            <rect class="cls-12" x="259.97" y="274.89" width="10.28" height=".85"/>
          </g>
          <g>
            <g>
              <rect class="cls-3" x="311.32" y="196.98" width="37.11" height="2.02"/>
              <rect class="cls-3" x="311.32" y="201.19" width="30.05" height="2.02"/>
            </g>
            <rect class="cls-7" x="300.57" y="196.95" width="6.28" height="6.28"/>
          </g>
          <g>
            <g>
              <rect class="cls-3" x="311.32" y="217.65" width="37.11" height="2.02"/>
              <rect class="cls-3" x="311.32" y="221.86" width="30.05" height="2.02"/>
            </g>
            <rect class="cls-14" x="300.57" y="217.62" width="6.28" height="6.28"/>
          </g>
          <g>
            <g>
              <rect class="cls-3" x="311.32" y="238.32" width="37.11" height="2.02"/>
              <rect class="cls-3" x="311.32" y="242.53" width="30.05" height="2.02"/>
            </g>
            <rect class="cls-12" x="300.57" y="238.29" width="6.28" height="6.28"/>
          </g>
        </g>
        <g>
          <g>
            <g>
              <path class="cls-17" d="M310.27,311.29c0,.58-.04,1.15-.13,1.71-.82,5.64-5.68,9.96-11.54,9.96-6.45,0-11.67-5.23-11.67-11.67s5.23-11.67,11.67-11.67c4.33,0,8.11,2.36,10.13,5.87,.98,1.71,1.54,3.69,1.54,5.8Z"/>
              <path class="cls-9" d="M310.27,311.29c0,.58-.04,1.15-.13,1.71l-11.54-1.71v-11.67c4.33,0,8.11,2.36,10.13,5.87,.98,1.71,1.54,3.69,1.54,5.8Z"/>
            </g>
            <circle class="cls-5" cx="298.6" cy="311.29" r="8.07"/>
            <rect class="cls-14" x="295.24" y="309.5" width="6.72" height=".95"/>
            <rect class="cls-8" x="293.57" y="312.14" width="10.05" height=".95"/>
          </g>
          <g>
            <g>
              <path class="cls-17" d="M310.27,341.43c0,4.97-3.11,9.22-7.49,10.9-1.3,.5-2.71,.77-4.18,.77-6.45,0-11.67-5.23-11.67-11.67s5.23-11.67,11.67-11.67c4.33,0,8.12,2.36,10.13,5.87,.98,1.71,1.54,3.69,1.54,5.8Z"/>
              <path class="cls-9" d="M310.27,341.43c0,4.97-3.11,9.22-7.49,10.9l-4.18-10.9v-11.67c4.33,0,8.12,2.36,10.13,5.87,.98,1.71,1.54,3.69,1.54,5.8Z"/>
            </g>
            <circle class="cls-5" cx="298.6" cy="341.43" r="8.07"/>
            <rect class="cls-14" x="295.24" y="339.64" width="6.72" height=".95"/>
            <rect class="cls-8" x="293.57" y="342.28" width="10.05" height=".95"/>
          </g>
          <g>
            <g>
              <path class="cls-17" d="M310.27,371.58c0,2.48-.77,4.78-2.1,6.67-2.11,3.02-5.61,5-9.58,5-2.89,0-5.54-1.05-7.58-2.8-2.51-2.14-4.1-5.32-4.1-8.88,0-6.45,5.23-11.67,11.67-11.67,4.33,0,8.11,2.36,10.13,5.87,.98,1.71,1.54,3.69,1.54,5.8Z"/>
              <path class="cls-9" d="M310.27,371.58c0,2.48-.77,4.78-2.1,6.67-2.11,3.02-5.61,5-9.58,5-2.89,0-5.54-1.05-7.58-2.8l7.58-8.88v-11.67c4.33,0,8.11,2.36,10.13,5.87,.98,1.71,1.54,3.69,1.54,5.8Z"/>
            </g>
            <circle class="cls-5" cx="298.6" cy="371.58" r="8.07" transform="translate(-106.62 622.63) rotate(-83)"/>
            <rect class="cls-14" x="295.24" y="369.78" width="6.72" height=".95"/>
            <rect class="cls-8" x="293.57" y="372.42" width="10.05" height=".95"/>
          </g>
          <g>
            <rect class="cls-3" x="317.38" y="307.7" width="32.36" height=".9"/>
            <rect class="cls-3" x="317.38" y="310.85" width="32.36" height=".9"/>
            <rect class="cls-3" x="317.38" y="313.99" width="32.36" height=".9"/>
          </g>
          <g>
            <rect class="cls-3" x="317.38" y="337.84" width="32.36" height=".9"/>
            <rect class="cls-3" x="317.38" y="340.99" width="32.36" height=".9"/>
            <rect class="cls-3" x="317.38" y="344.13" width="32.36" height=".9"/>
          </g>
          <g>
            <rect class="cls-3" x="317.38" y="367.98" width="32.36" height=".9"/>
            <rect class="cls-3" x="317.38" y="371.13" width="32.36" height=".9"/>
            <rect class="cls-3" x="317.38" y="374.27" width="32.36" height=".9"/>
          </g>
        </g>
      </g>
    </g>
  </g>
  <g id="Plant">
    <g>
      <g>
        <g>
          <path class="cls-9" d="M98.53,373.57c-.99,4.21-2.04,8.35-2.24,12.67,.11,.21,.09,1-.03,.78-.03,.7-1.08,.57-1.08-.12,.01-.45,.02-.9,.04-1.33-2.47-3.07-6.07-5.02-8.97-7.69-2.35-2.16-4.03-4.74-4.92-7.83-2.41-8.3-.15-17.1-3.05-25.39-2.5-7.14-6.98-13.35-10.77-19.82-4-6.84-6.96-14.03-7.25-22.05-.24-6.14,.5-14.32,5.17-18.91,4.95-4.88,11.1-1.22,14.89,3.13,11,12.62,16.09,28.58,18.15,44.89,1.13,9.03,2.31,18.11,2.04,27.22-.15,4.9-.86,9.69-1.97,14.44Z"/>
          <path class="cls-16" d="M96.34,389.55c.57-8.53,.53-17.08-.3-25.58,.01-.03,.04-.05,.04-.09,.14-6.91,.69-13.8,.42-20.72-.29-7.52-1.4-14.89-3.04-22.23-.02-.08-.15-.06-.13,.02,1.36,7.16,2.14,14.46,2.41,21.74,.14,3.91,.11,7.81-.09,11.72-.07,1.27-.18,2.55-.27,3.83,0,0,0,0,0-.01-2.79-19.46-9.97-37.91-20.57-54.43-.14-.22-.54,.02-.4,.25,7.63,12.46,13.26,26.15,16.74,40.36-5.29-9.8-13.28-17.86-19.21-27.27-.03-.05-.12,0-.09,.06,5.32,10.48,14.12,18.75,19.73,29.08,.97,4.21,1.77,8.46,2.36,12.73,.81,5.87,1.2,11.78,1.28,17.69-3.22-6.02-6.57-11.78-9.2-18.15-.07-.17-.31-.05-.26,.12,2.24,6.62,5.26,13.74,9.48,19.39,.02,4.19-.1,8.38-.35,12.56-.66,11.17-2.56,22.18-3.45,33.31-.03,.33,.44,.37,.51,.06,2.32-11.23,3.64-22.97,4.4-34.41Z"/>
          <path class="cls-16" d="M84.48,303.44c-.03-.08-.15-.03-.12,.06,2.04,5.64,3.19,11.35,4.67,17.14,.07,.26,.45,.21,.42-.07-.6-5.86-2.69-11.72-4.96-17.12Z"/>
        </g>
        <g>
          <path class="cls-9" d="M136.27,327.08c-1.32,3.31-2.96,6.52-4.69,9.64-3.67,6.67-7.5,12.78-8.2,20.55-.31,3.47-.42,6.95-1.48,10.29-.91,2.89-2.4,5.56-4.1,8.06-3.98,5.8-8.96,10.79-12.64,16.81-3.84,6.25-6.67,13.13-8.4,20.26-.09,.39-.71,.29-.62-.1,.01-.03,.02-.06,.02-.09-.01-.02-.04-.04-.04-.08-.58-16.65,.74-33.43,5.82-49.38,2.22-6.97,4.96-13.91,8.07-20.54,2.72-5.78,6.11-11.35,10.89-15.67,3.1-2.79,9.82-8.08,14.23-5.28,2.12,1.35,1.96,3.47,1.13,5.55Z"/>
          <path class="cls-16" d="M119.54,364.83c-2.86,4.88-6.24,9.43-9.68,13.91-1.61,2.1-3.25,4.19-4.86,6.3-.76,1-1.61,1.99-2.31,3.06,.44-1.75,.87-3.5,1.32-5.25,2.15-8.41,4.21-16.9,7.41-24.99,3.13-7.91,7.29-15.33,11.56-22.66,.11-.19-.2-.33-.31-.15-3.52,5.79-7.09,11.57-10.05,17.67-1.65,3.41-3.04,6.91-4.26,10.48,1.44-7.65,3.16-14.99,5.68-22.4,.02-.07-.07-.11-.1-.05-3.07,7.26-5.28,15.43-5.89,23.3,0,.02,0,.03,.01,.04-.72,2.16-1.38,4.35-2,6.55-2.62,9.32-4.93,18.73-7.06,28.17,.04-6.24,.43-12.36,1.61-18.52,.03-.14-.18-.17-.22-.04-1.55,6.34-2.25,13.01-1.61,19.52-.81,3.59-1.59,7.19-2.36,10.79-1.64,7.68-3.65,15.49-4.6,23.28-.02,.2,.26,.24,.31,.05,1.14-4.2,1.83-8.56,2.77-12.81,.94-4.27,1.9-8.53,2.9-12.78,1.45-6.19,2.96-12.37,4.5-18.55,1.03-2.26,3.03-4.27,4.52-6.17,1.64-2.08,3.28-4.17,4.87-6.28,2.97-3.94,5.7-8.04,8.01-12.4,.05-.09-.1-.16-.15-.07Z"/>
          <path class="cls-16" d="M120.25,357.7c-3.61,4.64-6.89,9.77-9.47,15.05-.03,.07,.07,.14,.11,.07,3.19-4.99,6.32-10.03,9.5-15.03,.05-.08-.09-.17-.15-.09Z"/>
        </g>
        <g>
          <path class="cls-9" d="M49.37,342.86c2.16,3.72,4.62,8.18,3.69,12.64-.59,2.82-2.65,5.12-3.03,8-.84,6.36,5.5,10.56,10.09,13.57,11.43,7.5,27.11,14.19,29.19,29.51,.08,.54,1.02,.41,.95-.12,0-.03-.01-.07-.02-.1,.02-.03,.06-.05,.06-.09,1.48-7.76,1.45-15.67-.21-23.4-1.71-7.9-5.15-14.99-9.22-21.93-6.88-11.74-14.17-23.76-24.57-32.75-2.88-2.49-8.78-6.96-11.07-1.34-2.23,5.46,1.5,11.49,4.15,16.02Z"/>
          <path class="cls-16" d="M59.83,367.75c7.58,8.21,19.63,12.81,26.16,22-3.87-14.09-10.27-26.76-20.1-37.76-.25-.28,.14-.68,.42-.42,7.2,6.92,12.54,15.01,16.43,23.79-1.75-6.27-4.2-12.2-7.07-18.09-.11-.22,.21-.41,.34-.2,3.67,6.25,6.1,13.26,7.63,20.34,8.6,20.81,9.39,45.23,7.59,67.17-.03,.31-.5,.32-.49,0,.49-17.29,.21-34.88-3.93-51.77-.09-.35-.18-.7-.27-1.05-7.1-9.9-19.1-14.48-26.81-23.88-.07-.09,.05-.22,.13-.13Z"/>
          <path class="cls-16" d="M58.07,360.7c3.98,3.65,7.9,7.38,11.88,11.03,.04,.04-.01,.11-.06,.08-4.34-2.94-8.74-6.81-12.06-10.87-.13-.16,.08-.39,.24-.24Z"/>
          <path class="cls-16" d="M57.45,344.89c3.61,5.79,7.4,11.23,11.91,16.38,.06,.07-.03,.16-.1,.1-4.83-4.65-9.13-10.28-12.02-16.35-.07-.14,.13-.26,.21-.12Z"/>
        </g>
      </g>
      <g>
        <g>
          <polygon class="cls-17" points="75.36 460.05 110.22 460.05 105.52 413.15 80.73 413.15 75.36 460.05"/>
          <polygon class="cls-14" points="79.86 420.78 106.29 420.78 105.52 413.15 80.73 413.15 79.86 420.78"/>
        </g>
        <rect class="cls-17" x="76.45" y="407.96" width="32.67" height="7.49" transform="translate(185.58 823.4) rotate(180)"/>
      </g>
    </g>
  </g>
  <g id="Chart_2" data-name="Chart 2">
    <g>
      <g>
        <rect class="cls-5" x="326.18" y="253.73" width="93.47" height="90.52"/>
        <path class="cls-16" d="M419.65,253.73c0,.25,.24,90.54,.25,90.76-.05,.13-93.6,.03-93.72,.12,0,0-.37,0-.37,0v-.37c.01-.26,.11-90.53,.12-90.77,.12-.19,93.55,.38,93.72,.25h0Zm0,0l-93.47,.25c.62-1.56,.19,90.62,.37,90.27,0,0-.37-.37-.37-.37l93.47,.12c-.59,1.52,.15-90.6,0-90.28h0Z"/>
      </g>
      <g>
        <rect class="cls-14" x="326.18" y="253.73" width="93.47" height="5.74"/>
        <g>
          <path class="cls-11" d="M331.6,256.6c0,.6-.49,1.09-1.09,1.09s-1.09-.49-1.09-1.09,.49-1.09,1.09-1.09,1.09,.49,1.09,1.09Z"/>
          <path class="cls-5" d="M336.05,256.6c0,.6-.49,1.09-1.09,1.09s-1.09-.49-1.09-1.09,.49-1.09,1.09-1.09,1.09,.49,1.09,1.09Z"/>
          <path class="cls-7" d="M340.49,256.6c0,.6-.49,1.09-1.09,1.09s-1.09-.49-1.09-1.09,.49-1.09,1.09-1.09,1.09,.49,1.09,1.09Z"/>
        </g>
      </g>
      <g>
        <path class="cls-9" d="M376.53,273.89l-6.15,21.52v22.38c-12.35,0-22.37-10.02-22.37-22.38s10.02-22.38,22.37-22.38c2.13,0,4.2,.31,6.15,.86Z"/>
        <path class="cls-11" d="M383.64,313.43c-3.71,2.74-8.29,4.36-13.25,4.36v-22.38l13.25,18.02Z"/>
        <path class="cls-13" d="M392.76,295.41c0,7.4-3.59,13.95-9.12,18.02l-13.25-18.02,17.4-14.07c3.11,3.84,4.98,8.74,4.98,14.07Z"/>
        <path class="cls-16" d="M392.76,274.1l-17.4,14.07,6.15-21.52c4.48,1.28,8.4,3.92,11.25,7.45Z"/>
      </g>
      <g>
        <rect class="cls-16" x="347.55" y="328.64" width="3.61" height="3.61"/>
        <rect class="cls-15" x="353.67" y="328.64" width="39.56" height="1.07"/>
        <rect class="cls-15" x="353.67" y="331.18" width="25.56" height="1.07"/>
      </g>
    </g>
  </g>
  <g id="Chart_1" data-name="Chart 1">
    <g>
      <g>
        <rect class="cls-5" x="44.54" y="143.26" width="116.45" height="90.52"/>
        <path class="cls-16" d="M160.99,143.26c0,.25,.24,90.54,.25,90.76-.03,.11-116.59,.04-116.7,.12,0,0-.37,0-.37,0v-.37c.01-.26,.11-90.53,.12-90.77,.11-.17,116.54,.37,116.7,.25h0Zm0,0l-116.45,.25c.6-1.56,.21,90.62,.37,90.27,0,0-.37-.37-.37-.37l116.45,.12c-.56,1.52,.14-90.6,0-90.28h0Z"/>
      </g>
      <g>
        <g>
          <rect class="cls-9" x="79.93" y="218.11" width="3.61" height="3.61"/>
          <rect class="cls-17" x="86.05" y="218.11" width="39.56" height="1.07"/>
          <rect class="cls-17" x="86.05" y="220.65" width="25.56" height="1.07"/>
        </g>
        <g>
          <path class="cls-15" d="M57.53,167.29c15.08-.09,30.16-.07,45.24-.11,15.08,.04,30.16,.01,45.24,.11-15.08,.09-30.16,.07-45.24,.11-15.08-.04-30.16-.01-45.24-.11Z"/>
          <path class="cls-15" d="M57.53,176.06c15.08-.09,30.16-.07,45.24-.11,15.08,.04,30.16,.01,45.24,.11-15.08,.09-30.16,.07-45.24,.11-15.08-.04-30.16-.02-45.24-.11Z"/>
          <path class="cls-15" d="M57.53,184.83c15.08-.09,30.16-.07,45.24-.11,15.08,.04,30.16,.01,45.24,.11-15.08,.09-30.16,.07-45.24,.11-15.08-.04-30.16-.02-45.24-.11Z"/>
          <path class="cls-15" d="M57.53,193.61c15.08-.09,30.16-.07,45.24-.11,15.08,.04,30.16,.01,45.24,.11-15.08,.09-30.16,.07-45.24,.11-15.08-.04-30.16-.02-45.24-.11Z"/>
          <path class="cls-15" d="M57.53,202.38c15.08-.09,30.16-.07,45.24-.11,15.08,.04,30.16,.01,45.24,.11-15.08,.09-30.16,.07-45.24,.11-15.08-.04-30.16-.02-45.24-.11Z"/>
          <path class="cls-15" d="M75.74,161.58c.13,8.2,.1,16.39,.15,24.59-.05,8.2-.02,16.39-.15,24.59-.13-8.2-.1-16.39-.15-24.59,.06-8.2,.02-16.39,.15-24.59Z"/>
          <path class="cls-15" d="M91.39,161.58c.13,8.2,.1,16.39,.15,24.59-.05,8.2-.02,16.39-.15,24.59-.13-8.2-.1-16.39-.15-24.59,.06-8.2,.02-16.39,.15-24.59Z"/>
          <path class="cls-15" d="M107.04,161.58c.13,8.2,.1,16.39,.15,24.59-.05,8.2-.02,16.39-.15,24.59-.13-8.2-.1-16.39-.15-24.59,.06-8.2,.02-16.39,.15-24.59Z"/>
          <path class="cls-15" d="M122.69,161.58c.13,8.2,.1,16.39,.15,24.59-.05,8.2-.02,16.39-.15,24.59-.13-8.2-.1-16.39-.15-24.59,.06-8.2,.02-16.39,.15-24.59Z"/>
          <path class="cls-15" d="M138.33,161.58c.13,8.2,.1,16.39,.15,24.59-.05,8.2-.02,16.39-.15,24.59-.13-8.2-.1-16.39-.15-24.59,.06-8.2,.02-16.39,.15-24.59Z"/>
          <g>
            <path class="cls-10" d="M59.8,196.02c2.76,0,4.41-8.91,8.32-8.91s4.32,6.5,7.62,6.5,3.19-11.42,7.62-11.42,3.4,4.63,8.03,4.63,2.88-10.76,7.72-10.76,2.88,14.82,7.93,14.82c3.19,0,4.43-4.71,8.24-4.71,2.52,0,4.01,2.36,7.31,2.36s4.02-9.05,8.14-9.05,4.59,5.36,7.62,5.36,4.12-8.77,9.68-8.77v34.71H59.8v-14.75Z"/>
            <path class="cls-9" d="M59.8,196.44v-.86c.84,0,1.99-2.08,2.83-3.6,1.44-2.61,2.94-5.31,5.49-5.31s3.67,1.98,4.74,3.72c.84,1.37,1.71,2.78,2.88,2.78,1.03,0,1.92-2.74,2.57-4.75,1.07-3.28,2.17-6.68,5.04-6.68,2.56,0,3.57,1.33,4.46,2.51,.86,1.14,1.61,2.13,3.57,2.13,1.78,0,2.48-2.51,3.15-4.94,.79-2.86,1.61-5.81,4.57-5.81s3.68,3.72,4.48,7.66c.64,3.19,1.44,7.16,3.45,7.16,1.2,0,2.18-.98,3.22-2.01,1.27-1.26,2.7-2.69,5.01-2.69,1.39,0,2.47,.58,3.52,1.15,1.1,.59,2.24,1.2,3.78,1.2,1.14,0,2.18-2.15,3.02-3.88,1.23-2.54,2.5-5.17,5.11-5.17s3.87,1.71,5,3.22c.82,1.1,1.6,2.14,2.62,2.14,.87,0,1.86-1.67,2.73-3.14,1.49-2.51,3.34-5.64,6.95-5.64v.86c-2.78,0-4.39,2.71-5.8,5.1-1.21,2.05-2.17,3.67-3.87,3.67s-2.72-1.26-3.72-2.6c-1.01-1.35-2.06-2.75-3.9-2.75-1.72,0-2.9,2.44-3.94,4.58-1.16,2.4-2.16,4.47-4.2,4.47s-3.34-.74-4.54-1.39c-.96-.52-1.8-.97-2.76-.97-1.66,0-2.85,1.18-4,2.33-1.17,1.17-2.39,2.38-4.24,2.38-3.09,0-3.86-3.84-4.68-7.9-.62-3.09-1.39-6.93-3.25-6.93s-2.69,2.72-3.35,5.12c-.8,2.9-1.56,5.64-4.37,5.64s-3.75-1.37-4.67-2.59c-.83-1.1-1.55-2.05-3.36-2.05s-2.97,3.33-3.84,6.01c-.98,3.02-1.76,5.41-3.78,5.41s-2.97-1.6-4.02-3.3c-.97-1.57-1.97-3.2-3.6-3.2s-3.16,2.64-4.34,4.76c-1.28,2.32-2.3,4.15-3.99,4.15Z"/>
          </g>
          <path class="cls-15" d="M59.8,162.12c.1,8.11,.19,16.22,.2,24.32l.09,24.32-.29-.2,44.1,.05,22.05,.04,22.05,.11-22.05,.11-22.05,.04-44.1,.05h-.29s0-.2,0-.2l.09-24.32c0-8.11,.1-16.22,.2-24.32Z"/>
        </g>
      </g>
      <g>
        <rect class="cls-14" x="44.54" y="143.26" width="116.45" height="5.74"/>
        <g>
          <path class="cls-11" d="M49.96,146.13c0,.6-.49,1.09-1.09,1.09s-1.09-.49-1.09-1.09,.49-1.09,1.09-1.09,1.09,.49,1.09,1.09Z"/>
          <path class="cls-5" d="M54.41,146.13c0,.6-.49,1.09-1.09,1.09s-1.09-.49-1.09-1.09,.49-1.09,1.09-1.09,1.09,.49,1.09,1.09Z"/>
          <path class="cls-7" d="M58.86,146.13c0,.6-.49,1.09-1.09,1.09s-1.09-.49-1.09-1.09,.49-1.09,1.09-1.09,1.09,.49,1.09,1.09Z"/>
        </g>
      </g>
    </g>
  </g>
  <g id="Character">
    <g>
      <g>
        <g>
          <g>
            <path class="cls-2" d="M448.84,392.19s.69,43.77,.7,43.8c-.11,8.2-.35,15.39-.82,19.1,0,.02,0,.04,0,.06-.18,1.4-.38,2.29-.64,2.53-.02,.02-.03,.04-.05,.05-2.46,1.62-68.04,2.68-70.34,1.95-2.31-.72-.39-7.34,2.12-9.42,2.53-2.07,27.45-13.71,27.45-13.71l-.28-44.36h41.87Z"/>
            <path class="cls-5" d="M449.7,427.19s-.16,8.78-.16,8.81c-.11,8.2-.35,15.39-.82,19.1,0,.02,0,.04,0,.06-.26,1.38-.48,2.29-.64,2.53-.02,.02-.03,.04-.05,.05-2.46,1.62-68.04,2.68-70.34,1.95-2.31-.72-.39-7.34,2.12-9.42,2.53-2.07,27.45-13.71,27.45-13.71l.04-8.94,42.4-.43Z"/>
            <g>
              <g>
                <path class="cls-16" d="M403.24,436.54c4.37-.68,9.67,.16,12.9,3.36,.12,.12-.05,.3-.19,.25-4.25-1.49-8.23-2.48-12.7-3.06-.32-.04-.31-.5,0-.55Z"/>
                <path class="cls-16" d="M400.04,438.33c4.37-.68,9.67,.16,12.9,3.36,.13,.12-.05,.3-.19,.25-4.25-1.49-8.23-2.48-12.7-3.06-.32-.04-.31-.5,0-.55Z"/>
                <path class="cls-16" d="M396.85,440.13c4.37-.68,9.67,.16,12.9,3.36,.13,.12-.05,.3-.19,.25-4.25-1.49-8.23-2.48-12.7-3.06-.32-.04-.31-.5,0-.55Z"/>
              </g>
              <path class="cls-9" d="M377.69,459.68c2.3,.74,67.85,.88,70.31-.75,.95-.6,1.38-11.37,1.54-22.94,0-.12,0-.24,0-.36l-42.31,.21,.03,.72s-24.92,11.63-27.45,13.71c-2.51,2.07-4.43,8.69-2.12,9.41Z"/>
              <path class="cls-16" d="M378.39,457.12c11.05-.45,55.66-1.22,66.61-.83,.09,0,.09,.06,0,.07-10.94,.68-55.55,1.09-66.61,.94-.23,0-.24-.17,0-.18Z"/>
              <path class="cls-1" d="M410.58,435.95l-24.62,24.09c-4.69-.09-7.81-.22-8.28-.37-2.3-.73-.38-7.34,2.12-9.42,2.53-2.07,27.45-13.71,27.45-13.71l-.03-.71,3.23-.02,.13,.13Z"/>
            </g>
          </g>
          <g>
            <path class="cls-17" d="M451.05,435.44l-47.81,.56s-1.1-80.91-1.05-106.67c.05-29.42,4.46-117.22,4.46-117.22l35.47,.35s5.62,12.45,7.72,27.71c.56,4.1-.08,16.05-1.49,21.51l-1.27,71.51,3.97,102.25Z"/>
            <path class="cls-14" d="M409.83,384.34c-.43-12.78-.67-28.46-.9-41.25-.45-25.57-.37-51.14,.2-76.7,.32-14.34,.85-28.68,1.41-43.01,0-.16-.24-.16-.25,0-1.61,25.66-2.38,51.37-2.66,77.07-.28,25.57-.04,54.05,.98,79.6,.57,14.34,1.3,28.69,2.51,43,.01,.12,.2,.12,.19,0-.45-12.9-1.05-25.8-1.48-38.71Z"/>
            <path class="cls-14" d="M409.54,426.77c9.53-.64,19.12-.66,28.67-.48,2.7,.05,5.4,.13,8.09,.26,.1,0,.09,.15,0,.15-9.53,.58-19.12,.7-28.67,.51-2.7-.05-5.4-.13-8.09-.29-.1,0-.1-.15,0-.16Z"/>
          </g>
        </g>
        <g>
          <g>
            <path class="cls-2" d="M383.91,395.42s-.16,41.17-.16,41.2c-.11,8.2-.35,15.39-.82,19.1,0,.02,0,.04,0,.06-.18,1.4-.38,2.29-.64,2.53-.02,.02-.03,.04-.05,.05-2.46,1.62-68.04,2.68-70.34,1.95-2.31-.72-.39-7.34,2.12-9.42,2.53-2.07,27.45-13.71,27.45-13.71l2.41-41.64,40.03-.12Z"/>
            <path class="cls-5" d="M383.91,427.82s-.16,8.78-.16,8.81c-.11,8.2-.35,15.39-.82,19.1,0,.02,0,.04,0,.06-.26,1.38-.48,2.29-.64,2.53-.02,.02-.03,.04-.05,.05-2.46,1.62-68.04,2.68-70.34,1.95-2.31-.72-.39-7.34,2.12-9.42,2.53-2.07,27.45-13.71,27.45-13.71l.04-8.94,42.4-.43Z"/>
            <g>
              <g>
                <path class="cls-16" d="M337.45,437.17c4.37-.68,9.67,.16,12.9,3.36,.13,.12-.05,.3-.19,.25-4.25-1.49-8.23-2.48-12.7-3.06-.32-.04-.31-.5,0-.55Z"/>
                <path class="cls-16" d="M334.25,438.96c4.37-.68,9.67,.16,12.9,3.36,.13,.12-.05,.3-.19,.25-4.25-1.49-8.23-2.48-12.7-3.06-.32-.04-.31-.5,0-.55Z"/>
                <path class="cls-16" d="M331.06,440.76c4.37-.68,9.67,.16,12.9,3.36,.13,.12-.05,.3-.19,.25-4.25-1.49-8.23-2.48-12.7-3.06-.32-.04-.31-.5,0-.55Z"/>
              </g>
              <path class="cls-9" d="M311.9,460.31c2.3,.74,68.1,1.14,70.57-.48,.95-.6,1.12-11.63,1.28-23.2,0-.12,0-.24,0-.36l-42.31,.21,.03,.72s-24.92,11.63-27.45,13.71c-2.51,2.07-4.43,8.69-2.12,9.41Z"/>
              <path class="cls-16" d="M312.6,457.55c11.05-.38,55.66-.89,66.62-.43,.09,0,.09,.06,0,.07-10.95,.62-55.56,.76-66.61,.54-.23,0-.23-.17,0-.18Z"/>
            </g>
          </g>
          <g>
            <path class="cls-17" d="M421.09,257.66s-26.21,62.07-28.53,71.99c-2.19,9.36-6.07,106.97-6.07,106.97l-46.73-.36s6.87-98.66,7.74-108.67c1.14-13.15,12.59-43.12,24.72-75.17,5.14-13.58,12.05-26.89,15.68-40.49l53.11,.52s-.7,23.98-11.78,41.23c0,0-4.96,2.24-8.14,3.99Z"/>
            <g>
              <path class="cls-14" d="M344.08,427.5c9.54-.46,19.13-.3,28.67,.07,2.7,.1,5.39,.23,8.09,.42,.1,0,.09,.15,0,.15-9.54,.4-19.13,.34-28.67-.04-2.7-.11-5.4-.24-8.09-.44-.1,0-.09-.15,0-.16Z"/>
              <g>
                <path class="cls-14" d="M408.9,258.72c2.45-.02,4.9-.16,7.32-.59,2.44-.43,4.73-1.22,7.11-1.9,2.26-.64,4.65-.72,6.96-1.07,2.34-.35,4.69-.94,6.83-1.96,.1-.05,.18,.1,.08,.15-2.13,1.06-4.27,2.07-6.56,2.77-2.34,.71-4.79,.79-7.16,1.35-2.44,.57-4.8,1.34-7.31,1.61-2.43,.26-4.89,.22-7.3-.2-.1-.02-.06-.16,.03-.16Z"/>
                <path class="cls-14" d="M404.33,297.49c.51-1.45,1-2.91,1.54-4.35,1.1-2.92,2.21-5.85,3.42-8.75,2.41-5.76,4.69-11.55,7.24-17.28,1.44-3.25,2.74-6.54,4.43-9.72,.04-.08,.19-.04,.17,.04-.86,2.97-2.07,5.88-3.16,8.81-1.08,2.93-2.24,5.84-3.4,8.75-2.31,5.78-4.57,11.58-7.08,17.32-.7,1.61-1.43,3.21-2.19,4.81-.78,1.63-1.39,3.31-2.32,4.89-.05,.09-.21,.05-.19-.04,.37-1.52,1.01-2.99,1.53-4.48Z"/>
              </g>
            </g>
            <path class="cls-14" d="M394.6,215.18c.03-.16,.17-.06,.16,.06-.41,4.29-1.15,8.92-2.65,12.98,0,0-4.51,12.51-4.51,12.51l-9.05,25.01c-6.71,18.78-13.7,37.47-19.92,56.41-.75,2.09-1,4.21-1.17,6.43-2.14,24.06-5.27,68.16-7.31,92.76,0,.09-.23,.19-.23,0,0-.39,1.74-26.52,1.74-26.52,1.1-15.79,2.53-37.55,3.79-53.07,.35-4.42,.69-8.84,1.1-13.26,.16-2.22,.43-4.5,1.19-6.62,8.81-26.59,19.65-54.93,29.43-81.31,0,0,4.73-12.43,4.73-12.43,1.61-4.13,2.23-8.58,2.71-12.96h0Z"/>
          </g>
        </g>
      </g>
      <g>
        <g>
          <g>
            <path class="cls-2" d="M401.93,152.1c-3.9,11.44-14.21,35.08-23.47,38.11-11.05,3.6-41.31-16.45-51.36-27.43-3.65-3.99,13.24-20.25,17.57-17.97,4.34,2.28,28.77,21.54,30.24,20.74,2.49-1.35,7.83-6.95,17.27-16.09,9.49-9.18,11.63-2.83,9.76,2.64Z"/>
            <g>
              <path class="cls-2" d="M336.36,168.59c3.13,.53,14.71-16.24,13.22-19.14-1.34-2.62-3.83-10.74-3.54-17.15,.24-5.39,1.2-13.36-1.69-13.59-4.22-.35-6.65,9.58-7.7,15.37-2.46-2.04-4.77-3.57-6.44-3.96-5.55-1.31-14.57,22.72-11,27.3,3.44,4.41,14.01,10.66,17.15,11.19Z"/>
              <g>
                <rect class="cls-11" x="333.07" y="129.8" width="5.37" height="23.61" transform="translate(574.54 416.86) rotate(-153.81)"/>
                <g class="cls-20">
                  <path class="cls-14" d="M346.47,129.69c-.73-.13-1.43-.33-2.1-.59-.16-.06-.32-.13-.48-.2-.15-.06-.29-.13-.43-.2-.1-.04-.2-.09-.29-.14l-4.28-2.22c.39,.2,.79,.38,1.2,.54,.35,.13,.7,.25,1.06,.35,.33,.1,.68,.18,1.04,.25,8.82,1.66,18.82-6.26,22.31-17.69,2.7-8.81,.77-17.12-4.31-21.24-.63-.51-1.3-.96-2.03-1.33l4.29,2.22s.02,0,.03,.02c.18,.09,.37,.19,.54,.3,.16,.09,.31,.18,.45,.28,.07,.04,.14,.09,.2,.14,.11,.07,.22,.15,.33,.24,.06,.04,.13,.09,.18,.14,3.19,2.44,5.21,6.5,5.69,11.3,.03,.25,.05,.49,.06,.73,.2,2.95-.16,6.15-1.17,9.42-3.5,11.43-13.49,19.35-22.32,17.68Z"/>
                  <path class="cls-14" d="M329.78,103.27c-3.56,11.61-.24,22.5,7.44,26.47l4.28,2.21c-7.68-3.96-11-14.85-7.44-26.47,4.11-13.39,15.84-22.69,26.19-20.75,.86,.16,1.68,.39,2.46,.69,.48,.19,.95,.39,1.4,.63l-4.28-2.21c-.46-.23-.92-.44-1.41-.63-.78-.3-1.6-.53-2.45-.69-10.36-1.94-22.08,7.35-26.19,20.75Z"/>
                  <g>
                    <path class="cls-17" d="M371.56,112.52c3.57-11.65,.22-22.58-7.52-26.51-.17-.09-.35-.17-.52-.25-.05-.03-.1-.05-.15-.07-.22-.1-.43-.18-.65-.27-.39-.15-.79-.28-1.2-.4-.41-.11-.83-.22-1.26-.29-10.35-1.94-22.08,7.36-26.19,20.75-1.27,4.15-1.66,8.21-1.29,11.9,.05,.57,.13,1.12,.22,1.67,.09,.55,.2,1.09,.33,1.62,.13,.52,.27,1.04,.44,1.54,.08,.25,.17,.5,.26,.75,.26,.74,.57,1.44,.92,2.12,0,0,0,0,0,0,.22,.45,.47,.89,.73,1.31,1.17,1.91,2.67,3.52,4.44,4.71,.13,.09,.25,.18,.39,.26,.22,.14,.44,.27,.66,.39,.02,.01,.04,.02,.05,.03,.54,.3,1.11,.56,1.69,.79,.79,.3,1.6,.53,2.46,.69,10.36,1.95,22.09-7.35,26.19-20.76Zm-25.08,17.17c-.73-.13-1.43-.33-2.1-.59-.16-.06-.32-.13-.48-.2-.15-.06-.29-.13-.43-.2-.83-.4-1.61-.9-2.32-1.47-5.07-4.11-7.01-12.42-4.32-21.23,3.5-11.42,13.5-19.34,22.33-17.69,.35,.06,.7,.14,1.04,.24,.36,.1,.71,.21,1.06,.34,.41,.16,.81,.33,1.2,.54,.01,0,.02,0,.03,.02,.18,.09,.37,.19,.54,.3,.16,.09,.31,.18,.45,.28,.07,.04,.14,.09,.2,.14,.11,.07,.22,.15,.33,.24,.06,.04,.13,.09,.18,.14,3.19,2.44,5.21,6.5,5.69,11.3,.03,.25,.05,.49,.06,.73,.2,2.95-.16,6.15-1.17,9.42-3.5,11.43-13.49,19.35-22.32,17.68Z"/>
                    <path class="cls-6" d="M342.19,127.48c-.36-.07-.71-.15-1.04-.25-5.07-4.11-7.01-12.42-4.32-21.23,3.5-11.42,13.5-19.34,22.33-17.69,.35,.06,.7,.14,1.04,.24,5.07,4.11,7.01,12.43,4.31,21.24-3.5,11.43-13.49,19.35-22.31,17.69Z"/>
                    <g class="cls-19">
                      <path class="cls-3" d="M365.25,97.36l-25.61,2.27c.78-1.31,1.64-2.54,2.58-3.67l21.98-1.95c.44,1.04,.8,2.16,1.05,3.35Z"/>
                      <path class="cls-3" d="M361.78,90.09l-14.61,1.29c3.76-2.61,8-3.82,11.99-3.08,.35,.06,.7,.14,1.04,.24,.57,.46,1.1,.98,1.58,1.54Z"/>
                      <path class="cls-3" d="M365.65,100.03l-27.48,2.43c.28-.62,.58-1.22,.89-1.8l26.37-2.33c.09,.56,.16,1.12,.21,1.7Z"/>
                      <path class="cls-3" d="M356.93,122.16c-.74,.71-1.51,1.35-2.31,1.93l-15.27,1.35c-.42-.5-.81-1.05-1.16-1.62l18.74-1.66Z"/>
                      <path class="cls-3" d="M361.72,116.11l-25.64,2.27c-.47-2.2-.59-4.6-.33-7.12l29.06-2.58c-.09,.36-.2,.73-.31,1.1-.69,2.26-1.64,4.38-2.78,6.32Z"/>
                    </g>
                  </g>
                </g>
                <polygon class="cls-14" points="319.7 165.05 326.99 168.63 326.99 168.63 336.22 149.85 328.94 146.27 328.94 146.27 319.7 165.05"/>
              </g>
              <g>
                <path class="cls-2" d="M338.35,133.84c.35,2.94-3.32,1.68-3.32,1.68,0,0,4.85,3.1,4.04,6.27-.79,3.06-5.17,1.37-5.48,1.26,.25,.17,4.63,3.13,3.49,6.24-1.19,3.23-5.3,.78-5.56,.62,.19,.23,2.67,3.35,1.27,5.51-2.41,3.72-8.97-4.07-12.56-4.23,0,0-.96,6.05-1.02,6.22,0,0-6.39-7.29-5.91-12.11,.25-2.54,2.67-2.81,2.67-2.81,0,0-2.32-2.12-1.5-4.6,.42-1.27,2.83-1.72,2.83-1.72,0,0-1.79-1.78-.92-3.93,.69-1.72,3-1.91,3-1.91,0,0-.92-2.5,.35-4.03,2.56-3.1,17.86,1.25,18.63,7.55Z"/>
                <g>
                  <path class="cls-16" d="M319.74,130.24c-.05-.01-.05-.09,0-.08,5.38,.2,11.23,2.07,15.5,5.41,.14,.11,.02,.38-.15,.29-5.05-2.6-9.75-4.5-15.35-5.62Z"/>
                  <path class="cls-16" d="M317.23,136.11c-.06-.01-.04-.11,.02-.11,5.54,.24,12.07,2.52,16.54,6.95,.15,.15,.14,.44-.05,.28-3.19-2.72-11.46-6.14-16.51-7.12Z"/>
                  <path class="cls-16" d="M331.73,150.32c-4.44-4.08-9.75-6.32-15.53-7.84-.08-.02-.04-.12,.03-.12,3.03-.03,6.61,1.33,9.31,2.62,2.58,1.24,4.67,2.87,6.33,5.2,.06,.09-.05,.24-.14,.16Z"/>
                </g>
                <path class="cls-16" d="M335.13,135.49c.17,.13-.21,.23-.05,.37,.69,.58,4.53,4.4,3.64,6.11-.72,1.37-3.06,1.36-3.96,1l-2.26-.9,1.81,1.63c.79,.71,1.52,1.58,2.03,2.5,.51,.92,.78,1.98,.45,2.87-.33,.94-1.11,1.54-2.09,1.47-.97-.03-2.03-.48-2.9-1.03l-2.44-1.53,1.8,2.24c.49,.61,.93,1.32,1.25,2.03,.31,.72,.51,1.5,.37,2.19-.13,.68-.63,1.29-1.28,1.45-.67,.17-1.49-.04-2.24-.31-1.53-.58-2.96-1.49-4.42-2.33-.73-.42-1.46-.85-2.21-1.24-.75-.38-1.54-.78-2.39-.81,.84,.12,1.56,.6,2.28,1.01,.71,.44,1.4,.92,2.1,1.4,1.39,.96,2.79,1.91,4.39,2.61,.8,.32,1.68,.64,2.68,.46,1.03-.2,1.77-1.1,1.97-2.06,.2-.98-.06-1.91-.39-2.73-.35-.83-.8-1.57-1.35-2.28l-.64,.7c1.03,.66,2.11,1.17,3.42,1.25,.64,.04,1.36-.13,1.91-.56,.56-.42,.92-.99,1.13-1.61,.44-1.29,.02-2.62-.56-3.64-.61-1.05-1.37-1.93-2.28-2.72l-.45,.73c1.16,.42,3.77,.72,5.16-1.27,1.42-2.86-3.5-6.42-4.45-7.01Z"/>
                <path class="cls-16" d="M335.04,135.51c.64,.07,1.27,.08,1.82-.03,.55-.11,.94-.44,1.09-.87,.16-.43,.06-1.02-.1-1.59-.18-.57-.39-1.16-.64-1.76,.51,.41,.93,.92,1.24,1.52,.3,.59,.53,1.31,.28,2.1-.15,.38-.4,.71-.73,.93-.34,.21-.72,.31-1.07,.31-.72,.02-1.36-.24-1.89-.61Z"/>
              </g>
            </g>
          </g>
          <g>
            <path class="cls-9" d="M352.31,148.16l-20.62,24.11s31.69,24.75,47.48,19.27c3.64-1.26,16.33-16.03,23.2-37.8,1.97-6.24,.19-17.62-12.23-4.47-12.42,13.15-15.09,15.27-15.64,15.29-.55,.02-22.19-16.41-22.19-16.41Z"/>
            <path class="cls-1" d="M342.26,161.44c-1,.1-1.74,1-1.64,2.01s1,1.75,2.01,1.65,1.75-1,1.65-2.01-1.01-1.75-2.02-1.65Zm.3,2.94c-.62,.07-1.17-.39-1.23-1s.39-1.16,1.01-1.22c.61-.07,1.16,.38,1.22,1,.06,.61-.39,1.16-1,1.22Zm13.4-4.3c-1.01,.1-1.75,1-1.65,2.01s1.01,1.75,2.02,1.65c1-.1,1.74-1.01,1.64-2.02-.1-1-1-1.74-2.01-1.64Zm.29,2.94c-.61,.06-1.16-.39-1.22-1-.06-.62,.39-1.17,1-1.23,.62-.06,1.17,.39,1.23,1.01,.06,.61-.39,1.16-1.01,1.22Zm13.98-1.43c-.09,.04-.18,.06-.28,.07-.61,.06-1.16-.39-1.22-1-.01-.06-.01-.12,0-.18-.21-.15-.42-.31-.64-.47-.08,.22-.1,.47-.08,.72,.1,1.01,1,1.74,2.01,1.64,.32-.03,.6-.14,.85-.31-.21-.15-.42-.31-.64-.47Zm13.13-4.24c-1.01,.1-1.75,1-1.65,2.01s1,1.75,2.01,1.65,1.75-1,1.65-2.01-1-1.75-2.01-1.65Zm.29,2.95c-.61,.06-1.16-.39-1.23-1.01-.06-.61,.39-1.16,1.01-1.22,.61-.06,1.16,.39,1.22,1,.06,.62-.39,1.17-1,1.23Zm13.4-4.31c-1,.1-1.74,1-1.64,2.01s1,1.75,2.01,1.65,1.75-1,1.65-2.01-1.01-1.75-2.02-1.65Zm.3,2.94c-.62,.06-1.17-.39-1.23-1s.39-1.16,1.01-1.22c.61-.07,1.16,.38,1.22,1,.06,.61-.39,1.16-1,1.22Zm-47.44-7.97l-.58,.69c-.02,.51-.4,.94-.9,1.05l-.6,.7c.17,.04,.36,.05,.55,.03,1.01-.1,1.75-1,1.65-2.01-.02-.16-.05-.32-.12-.46Zm53-3.69c-.53-.03-.97-.46-1.03-1-.04-.4,.14-.77,.43-1-.09-.23-.21-.44-.34-.64-.55,.36-.88,1.01-.81,1.71,.09,.95,.91,1.65,1.84,1.65-.02-.25-.05-.49-.09-.72Zm-66.34,26.45c-.67,.06-1.23,.48-1.48,1.06,.19,.14,.39,.28,.6,.43,.13-.41,.5-.73,.95-.78,.61-.06,1.16,.39,1.22,1.01,.05,.4-.13,.77-.43,.99,.2,.13,.41,.27,.62,.41,.38-.37,.59-.91,.53-1.47-.1-1.01-1-1.75-2.01-1.65Zm21.64,8.94c-1.01,.1-1.75,1-1.65,2.01s1,1.75,2.01,1.65,1.75-1.01,1.65-2.02c-.1-1-1-1.74-2.01-1.64Zm.29,2.94c-.61,.06-1.16-.39-1.22-1-.07-.62,.38-1.17,1-1.23,.61-.06,1.16,.39,1.22,1.01,.06,.61-.39,1.16-1,1.22Zm13.41-4.31c-1.01,.11-1.75,1.01-1.65,2.02s1,1.74,2.01,1.64,1.75-1,1.65-2.01-1.01-1.75-2.01-1.65Zm.29,2.95c-.62,.06-1.17-.39-1.23-1.01-.06-.61,.39-1.16,1.01-1.22,.61-.06,1.16,.39,1.22,1,.06,.62-.39,1.17-1,1.23Zm13.4-4.31c-1.01,.1-1.74,1-1.64,2.01s1,1.75,2.01,1.65,1.74-1,1.64-2.01-1-1.75-2.01-1.65Zm.3,2.95c-.62,.06-1.17-.39-1.23-1.01-.06-.61,.39-1.16,1-1.22,.62-.06,1.17,.39,1.23,1s-.39,1.16-1,1.23Zm-35.63-10.52c-1.01,.1-1.75,1-1.65,2.01s1,1.74,2.01,1.64,1.75-1,1.65-2.01-1-1.74-2.01-1.64Zm.29,2.94c-.62,.06-1.16-.39-1.23-1-.06-.62,.39-1.17,1.01-1.23,.61-.06,1.16,.39,1.22,1,.06,.62-.39,1.17-1,1.23Zm13.4-4.31c-1,.1-1.74,1.01-1.64,2.01,.1,1.01,1,1.75,2.01,1.65s1.75-1,1.65-2.01-1.01-1.75-2.02-1.65Zm.3,2.95c-.62,.06-1.17-.39-1.23-1.01-.06-.61,.39-1.16,1.01-1.22,.61-.06,1.16,.39,1.22,1,.06,.62-.39,1.17-1,1.23Zm13.4-4.31c-1.01,.1-1.75,1-1.65,2.01s1.01,1.75,2.02,1.65c1-.1,1.74-1,1.64-2.01s-1-1.75-2.01-1.65Zm.29,2.94c-.61,.06-1.16-.39-1.22-1s.39-1.16,1-1.22c.62-.07,1.17,.38,1.23,1,.06,.61-.39,1.16-1.01,1.22Zm13.41-4.3c-1.01,.1-1.75,1-1.65,2.01s1,1.75,2.01,1.65,1.75-1.01,1.65-2.02c-.1-1-1-1.74-2.01-1.64Zm.29,2.94c-.61,.06-1.16-.39-1.22-1-.06-.62,.39-1.17,1-1.23s1.16,.39,1.23,1.01c.06,.61-.39,1.16-1.01,1.22Z"/>
            <path class="cls-16" d="M338.98,175.26c1.34-1.99,2.97-3.8,4.51-5.64,1.51-1.82,3.03-3.62,4.57-5.42,3.1-3.62,6.13-7.35,9.45-10.77,.08-.08,.2,.01,.14,.11-2.75,3.94-5.92,7.62-9.01,11.29-1.55,1.84-3.13,3.66-4.74,5.46-1.54,1.73-3.06,3.54-4.79,5.09-.08,.07-.18-.05-.13-.13Z"/>
            <path class="cls-1" d="M402.38,153.74c-6.88,21.78-19.57,36.54-23.21,37.8-3.67,1.27-8.76,.94-14.25-.75,10.14-14.39,26.44-37.37,33.97-47.56,4.43-.48,4.84,6.23,3.49,10.51Z"/>
          </g>
        </g>
        <g>
          <g>
            <path class="cls-2" d="M394.32,156.99c2.96,.23,9.3-5.11,11.85-9.71,.17-.32-.29-3.65-.66-7.73-.22-2.47-.4-5.24-.38-7.77l-15.9,3.75s1.53,5.32,1.47,9.73c0,.37-.05,.71-.12,1.04,0,.05-.02,.11-.02,.17-.33,1.97-.87,10.15,3.76,10.51Z"/>
            <path class="cls-14" d="M390.56,146.48c.49,.08,1.04,.11,1.63,.1,8.81-.14,11.31-10.8,11.93-14.55l-14.89,3.52s1.53,5.31,1.47,9.73c0,.36-.05,.71-.12,1.03,0,.05-.02,.11-.02,.17Z"/>
          </g>
          <g>
            <path class="cls-2" d="M405.55,110.34c2.35,5.4,1.25,21.89-2.31,25.95-5.17,5.88-14.55,7.47-19.78,1.05-5.07-6.22-3.26-27.69,.8-31.48,5.99-5.57,17.82-3.49,21.29,4.48Z"/>
            <path class="cls-2" d="M406.46,125.43c-.52,4.71-1.62,9.04-3.22,10.85-5.16,5.89-14.54,7.47-19.78,1.05-3.55-4.36-3.73-16.18-2.12-24.18,0,0,0,0,0-.02,.69-3.42,1.7-6.15,2.92-7.28,5.99-5.57,17.82-3.49,21.29,4.48,1.3,2.98,1.54,9.32,.91,15.09Z"/>
            <g>
              <g>
                <path class="cls-16" d="M392.93,121.56s.08,.06,.07,.11c-.15,1.1-.14,2.39,.82,2.87,.03,.01,.02,.07-.02,.06-1.2-.3-1.2-2.01-.88-3.03Z"/>
                <path class="cls-16" d="M394.04,120.51c1.79,.05,1.56,3.64-.1,3.59-1.64-.05-1.4-3.63,.1-3.59Z"/>
              </g>
              <g>
                <path class="cls-16" d="M386.47,120.86s-.09,.05-.09,.09c-.04,1.11-.27,2.38-1.3,2.68-.03,0-.03,.07,0,.06,1.24-.09,1.53-1.78,1.39-2.84Z"/>
                <path class="cls-16" d="M385.56,119.64c-1.78-.25-2.15,3.32-.51,3.56,1.62,.23,2-3.34,.51-3.56Z"/>
              </g>
              <path class="cls-16" d="M395.52,119.06c-.48-.16-.9-.38-1.36-.58-.52-.23-.95-.36-1.27-.86-.17-.27-.06-.72,.18-.91,.57-.44,1.27-.32,1.91-.07,.69,.27,1.15,.66,1.51,1.3,.35,.62-.34,1.32-.98,1.12Z"/>
              <path class="cls-16" d="M384.38,117.97c.5-.05,.96-.18,1.45-.28,.56-.11,1.01-.14,1.42-.56,.22-.23,.22-.69,.02-.93-.46-.55-1.17-.58-1.85-.48-.73,.12-1.26,.39-1.76,.94-.48,.53,.05,1.36,.71,1.3Z"/>
              <path class="cls-16" d="M393.09,131.75c-.28,.24-.57,.58-.98,.59-.39,0-.83-.2-1.18-.36-.03-.02-.07,.02-.05,.05,.26,.45,.85,.75,1.37,.7,.51-.05,.79-.47,.94-.92,.02-.06-.06-.09-.1-.06Z"/>
              <path class="cls-16" d="M392.14,128.35c-.69,.92-1.63,1.39-2.64,1.52-.45,.06-.91,.04-1.36-.03-.09,0-.18-.02-.26-.05-.08-.02-.15-.03-.24-.05-.13-.03-.19-.14-.21-.26h0s0-.08,.02-.12h0s0-.11,0-.11c.03-.86,.2-2.15,.2-2.15-.32,.14-1.96,.75-1.91,.3,.47-3.68,.98-7.78,2.22-11.35,.03-.12,.22-.08,.2,.04-.31,3.56-1.24,7.04-1.6,10.61,.52-.16,1.37-.46,1.82-.42,.12,.04-.37,2.5-.36,2.88,0,0,0,.02,0,.04,1.42,.28,2.54-.08,4-.96,.09-.06,.17,.02,.1,.11Z"/>
              <g>
                <path class="cls-16" d="M388.68,129.43s.69,1.07,1.7,1.51c.37,.16,.78,.24,1.22,.16,.9-.17,.98-.99,.86-1.69-.09-.58-.33-1.09-.33-1.09,0,0-1.38,1.13-3.46,1.12Z"/>
                <path class="cls-4" d="M390.38,130.95c.37,.16,.78,.24,1.22,.16,.9-.17,.98-.99,.86-1.69-.96,.03-1.94,.62-2.08,1.54Z"/>
              </g>
            </g>
            <path class="cls-14" d="M406.46,125.43c-.16,.15-3.75-1.33-4.25-9.76-.24-4.09-1.74-8.01-5.15-7.89-3.41,.11-5.75,2.71-8.37,2.37-2.61-.34-2.94-3.28-4.28-2.6-1.7,.86-2.99,5.32-3.07,5.58,.69-3.42,1.7-6.15,2.92-7.28,5.99-5.57,19.34-5.08,22.81,2.89,1.3,2.98,.78,13.08-.61,16.68Z"/>
            <g>
              <path class="cls-17" d="M393.58,127.72c-2.65-.51-4.39-3.08-3.88-5.73h0c.51-2.65,3.08-4.39,5.73-3.88,2.65,.51,4.39,3.08,3.88,5.73-.43,2.24-2.34,3.83-4.52,3.96-.4,.02-.8,0-1.21-.08Zm-3.24-5.61c-.44,2.3,1.07,4.52,3.36,4.97,2.29,.44,4.52-1.07,4.96-3.36,.44-2.3-1.07-4.52-3.36-4.97-.35-.07-.71-.09-1.05-.07-1.89,.11-3.54,1.49-3.91,3.43Z"/>
              <path class="cls-17" d="M383.26,127.09c-2-.12-3.51-2.4-3.35-5.1,.07-1.29,.51-2.48,1.23-3.36,.74-.91,1.7-1.38,2.69-1.32,.99,.06,1.89,.63,2.52,1.62,.61,.95,.91,2.19,.84,3.48-.15,2.55-1.73,4.56-3.6,4.68-.11,0-.21,0-.32,0Zm-1.62-8.04c-.63,.77-1.02,1.83-1.08,2.98-.13,2.33,1.09,4.31,2.74,4.4,1.65,.1,3.09-1.73,3.23-4.06,.07-1.15-.19-2.24-.73-3.08-.52-.81-1.23-1.28-2.01-1.32-.08,0-.17,0-.25,0-.69,.04-1.36,.42-1.9,1.08Z"/>
              <path class="cls-17" d="M389.83,122.56l.45-.48c-.71-.66-2.37-1.6-3.64-.39l.45,.47c1.13-1.08,2.67,.34,2.74,.4Z"/>
              <path class="cls-17" d="M411.53,125.08l.6-.27c-.12-.28-1.26-2.73-2.7-3.05-1.35-.3-10.16,.02-10.53,.03l.02,.65c2.52-.09,9.32-.28,10.36-.05,.95,.21,1.94,2.01,2.25,2.68Z"/>
            </g>
            <g>
              <path class="cls-2" d="M403.61,123.9s3.16-5.58,5.66-4.5c2.5,1.08,.46,8.93-2.23,10.23-2.69,1.3-3.94-1.16-3.94-1.16l.51-4.57Z"/>
              <path class="cls-16" d="M408.64,121.64s.06,.05,.02,.07c-1.88,.98-2.74,2.89-3.28,4.84,.51-.78,1.27-1.25,2.3-.65,.05,.03,.01,.12-.04,.11-.82-.1-1.38,.1-1.86,.79-.34,.49-.55,1.09-.77,1.64-.07,.18-.4,.12-.35-.09,0-.02,0-.03,.01-.05-.29-2.49,1.32-6.16,3.97-6.66Z"/>
            </g>
          </g>
          <path class="cls-3" d="M388.51,154.6l.11-8.66,17.36-7.15,1.87,6.13s-2.12,5.55-6.43,9.51-9.45,4.13-12.91,.17Z"/>
        </g>
        <g>
          <path class="cls-7" d="M447.67,226.06c-.14,.2-67.04,6.46-67.77,5.83-1.02-.89,.11-65.38,9.41-81.95,2.33-4.14,13.11-8.3,18.1-5.55,17.44,9.63,40.75,80.93,40.26,81.67Z"/>
          <path class="cls-9" d="M447.67,226.06c-.14,.2-67.04,6.46-67.77,5.83-.52-.45-.48-17.43,.91-36.16,.02-.3,.04-.6,.07-.9,.03-.47,.07-.95,.11-1.43h0c.02-.31,.05-.62,.07-.93,1.41-17.08,3.96-34.89,8.25-42.53,.12-.21,.26-.43,.43-.64h.01c.35-.47,.8-.93,1.34-1.38,3.94-3.3,12.15-5.83,16.32-3.53,8.51,4.7,18.42,24.1,26.29,42.8,.1,.24,.2,.49,.3,.73,.24,.6,.49,1.19,.74,1.78,.1,.24,.19,.48,.3,.72,4.79,11.71,8.69,22.79,10.84,29.4,.3,.94,.57,1.78,.8,2.53,.7,2.27,1.06,3.61,.99,3.71Z"/>
          <path class="cls-1" d="M397.05,155.99c-1,.1-1.74,1-1.64,2.01s1,1.75,2.01,1.65,1.75-1,1.65-2.01-1.01-1.75-2.02-1.65Zm.3,2.94c-.62,.06-1.17-.39-1.23-1s.39-1.16,1.01-1.22c.61-.07,1.16,.38,1.22,1,.06,.61-.39,1.16-1,1.22Zm13.4-4.3c-1.01,.1-1.75,1-1.65,2.01s1.01,1.75,2.02,1.65,1.74-1.01,1.64-2.02c-.1-1-1-1.74-2.01-1.64Zm.3,2.94c-.62,.06-1.17-.39-1.23-1-.06-.62,.39-1.17,1-1.23,.62-.06,1.17,.39,1.23,1.01,.06,.61-.39,1.16-1,1.22Zm-21.3-8.27c.68-.17,1.19-.72,1.34-1.38-.54,.45-.99,.91-1.34,1.38Zm13.06-4.98c-1.01,.11-1.75,1.01-1.65,2.02s1.01,1.74,2.01,1.64c1.01-.1,1.75-1,1.65-2.01s-1-1.75-2.01-1.65Zm.29,2.95c-.61,.06-1.16-.39-1.22-1-.06-.62,.39-1.17,1-1.23,.62-.06,1.17,.39,1.23,1,.06,.62-.39,1.17-1.01,1.23Zm-17.5,32.66c-1.01,.1-1.74,1-1.64,2.01s1,1.75,2.01,1.65,1.74-1,1.64-2.01-1-1.75-2.01-1.65Zm.3,2.95c-.62,.06-1.17-.39-1.23-1.01-.06-.61,.39-1.16,1-1.22,.62-.06,1.17,.39,1.23,1s-.39,1.16-1,1.23Zm13.4-4.31c-1.01,.1-1.75,1-1.65,2.01s1.01,1.75,2.01,1.65c1.01-.1,1.75-1,1.65-2.01s-1-1.75-2.01-1.65Zm.29,2.94c-.61,.06-1.16-.39-1.22-1s.39-1.16,1-1.23c.62-.06,1.17,.39,1.23,1.01,.06,.61-.39,1.16-1.01,1.22Zm13.41-4.3c-1.01,.1-1.75,1-1.65,2.01s1,1.75,2.01,1.65,1.75-1.01,1.65-2.02c-.1-1-1-1.74-2.01-1.64Zm.29,2.94c-.61,.06-1.16-.39-1.22-1-.07-.62,.39-1.17,1-1.23s1.16,.39,1.22,1.01c.07,.61-.38,1.16-1,1.22Zm13.41-4.31c-1.01,.1-1.75,1.01-1.65,2.02,.1,1,1,1.74,2.01,1.64s1.75-1,1.65-2.01-1.01-1.75-2.01-1.65Zm.29,2.95c-.62,.06-1.17-.39-1.23-1.01-.06-.61,.39-1.16,1.01-1.22,.61-.06,1.16,.39,1.22,1,.06,.62-.39,1.17-1,1.23Zm-35.63-10.52c-1.01,.1-1.75,1-1.65,2.01s1,1.75,2.01,1.65,1.75-1.01,1.65-2.02c-.1-1-1-1.74-2.01-1.64Zm.29,2.94c-.61,.06-1.16-.39-1.22-1-.06-.62,.39-1.17,1-1.23s1.16,.39,1.23,1.01c.06,.61-.39,1.16-1.01,1.22Zm13.41-4.31c-1.01,.11-1.75,1.01-1.65,2.02s1,1.74,2.01,1.64,1.75-1,1.65-2.01-1-1.75-2.01-1.65Zm.29,2.95c-.61,.06-1.16-.39-1.23-1-.06-.62,.39-1.17,1.01-1.23,.61-.06,1.16,.39,1.22,1,.06,.62-.39,1.17-1,1.23Zm13.4-4.31c-1,.1-1.74,1-1.64,2.01s1,1.75,2.01,1.65,1.75-1,1.65-2.01-1.01-1.75-2.02-1.65Zm.3,2.95c-.62,.06-1.17-.39-1.23-1.01-.06-.61,.39-1.16,1.01-1.22,.61-.06,1.16,.39,1.22,1,.06,.62-.39,1.16-1,1.23Zm-31.2,34.02c-1.01,.1-1.75,1-1.65,2.01s1,1.75,2.01,1.65,1.75-1,1.65-2.01-1-1.75-2.01-1.65Zm.29,2.95c-.61,.06-1.16-.39-1.22-1.01-.06-.61,.39-1.16,1-1.22s1.16,.39,1.23,1c.06,.61-.39,1.16-1.01,1.23Zm13.41-4.31c-1.01,.1-1.75,1-1.65,2.01s1,1.75,2.01,1.65,1.75-1,1.65-2.01-1-1.75-2.01-1.65Zm.29,2.94c-.61,.06-1.16-.39-1.23-1-.06-.61,.39-1.16,1.01-1.23,.61-.06,1.16,.39,1.22,1.01,.06,.61-.39,1.16-1,1.22Zm13.4-4.3c-1,.1-1.74,1-1.64,2.01s1,1.75,2.01,1.65,1.75-1.01,1.65-2.02-1.01-1.74-2.02-1.64Zm.3,2.94c-.62,.06-1.17-.39-1.23-1-.06-.62,.39-1.17,1.01-1.23,.61-.06,1.16,.39,1.22,1.01,.06,.61-.39,1.16-1,1.22Zm13.4-4.31c-1.01,.1-1.75,1.01-1.65,2.02,.1,1,1.01,1.74,2.02,1.64s1.74-1,1.64-2.01-1-1.75-2.01-1.65Zm.29,2.95c-.61,.06-1.16-.39-1.22-1.01-.06-.61,.39-1.16,1-1.22,.62-.06,1.17,.39,1.23,1,.06,.62-.39,1.17-1.01,1.23Zm-48.17-8.9c-.02,.31-.05,.62-.07,.92h0c.12,.16,.19,.34,.21,.54,.04,.34-.09,.67-.32,.9-.03,.3-.05,.6-.07,.9,.72-.3,1.19-1.05,1.11-1.87-.06-.59-.39-1.09-.86-1.39Zm12.55-1.62c-1.01,.1-1.75,1-1.65,2.01s1,1.75,2.01,1.65,1.75-1.01,1.65-2.02c-.1-1-1.01-1.74-2.01-1.64Zm.29,2.94c-.62,.06-1.17-.39-1.23-1-.06-.62,.39-1.17,1.01-1.23,.61-.06,1.16,.39,1.22,1.01,.06,.61-.39,1.16-1,1.22Zm13.4-4.31c-1.01,.11-1.74,1.01-1.64,2.02s1,1.74,2.01,1.64,1.74-1,1.64-2.01-1-1.75-2.01-1.65Zm.3,2.95c-.62,.06-1.17-.39-1.23-1.01-.06-.61,.39-1.16,1-1.22,.62-.06,1.17,.39,1.23,1,.06,.62-.39,1.17-1,1.23Zm13.4-4.31c-1.01,.1-1.75,1-1.65,2.01s1.01,1.75,2.01,1.65c1.01-.1,1.75-1,1.65-2.01s-1-1.75-2.01-1.65Zm.29,2.95c-.61,.06-1.16-.39-1.22-1.01-.06-.61,.39-1.16,1-1.22,.62-.06,1.17,.39,1.23,1s-.39,1.17-1.01,1.23Zm13.45-1.37c-.5-.06-.92-.48-.97-1-.03-.29,.06-.57,.23-.78-.1-.24-.2-.49-.3-.73-.45,.37-.71,.95-.65,1.58,.1,1,.99,1.74,1.99,1.65-.11-.24-.2-.48-.3-.72Zm-44.64,35.39c-1.01,.1-1.75,1-1.65,2.01s1,1.75,2.01,1.65,1.75-1,1.65-2.01-1.01-1.75-2.01-1.65Zm.29,2.95c-.62,.06-1.17-.39-1.23-1.01-.06-.61,.39-1.16,1.01-1.22,.61-.06,1.16,.39,1.22,1,.06,.62-.39,1.16-1,1.23Zm13.4-4.31c-1.01,.1-1.74,1-1.64,2.01s1,1.75,2.01,1.65,1.75-1,1.65-2.01c-.11-1.01-1.01-1.75-2.02-1.65Zm.3,2.94c-.62,.06-1.17-.39-1.23-1s.39-1.16,1-1.23c.62-.06,1.17,.39,1.23,1.01,.06,.61-.39,1.16-1,1.22Zm13.4-4.3c-1.01,.1-1.75,1-1.65,2.01s1.01,1.75,2.02,1.65c1-.1,1.74-1.01,1.64-2.02-.1-1-1-1.74-2.01-1.64Zm.29,2.94c-.61,.06-1.16-.39-1.22-1-.06-.62,.39-1.17,1-1.23,.62-.06,1.17,.39,1.23,1.01,.06,.61-.39,1.16-1.01,1.22Zm13.41-4.31c-1.01,.1-1.75,1.01-1.65,2.02,.1,1,1,1.74,2.01,1.64s1.75-1,1.65-2.01-1-1.75-2.01-1.65Zm.29,2.95c-.61,.06-1.16-.39-1.22-1.01-.06-.61,.39-1.16,1-1.22s1.16,.39,1.22,1c.07,.62-.38,1.17-1,1.23Zm14.4-4.13c-.3-.15-.64-.22-.99-.18-1.01,.1-1.75,1-1.65,2.01s1,1.75,2.01,1.65c.63-.06,1.15-.43,1.43-.95-.23-.75-.5-1.59-.8-2.53Zm-.7,2.77c-.62,.06-1.17-.39-1.23-1.01-.06-.61,.39-1.16,1.01-1.22,.61-.06,1.16,.39,1.22,1s-.39,1.16-1,1.23Zm-63.03-7.8c-1.01,.1-1.74,1-1.64,2.01s1,1.75,2.01,1.65,1.75-1,1.65-2.01-1.01-1.75-2.02-1.65Zm.3,2.94c-.62,.07-1.17-.39-1.23-1s.39-1.16,1.01-1.22c.61-.07,1.16,.38,1.22,1,.06,.61-.39,1.16-1,1.22Zm13.4-4.3c-1.01,.1-1.75,1-1.65,2.01s1.01,1.75,2.02,1.65,1.74-1.01,1.64-2.02c-.1-1-1-1.74-2.01-1.64Zm.29,2.94c-.61,.06-1.16-.39-1.22-1-.06-.62,.39-1.17,1-1.23,.62-.06,1.17,.39,1.23,1.01,.06,.61-.39,1.16-1.01,1.22Zm13.41-4.31c-1.01,.1-1.75,1.01-1.65,2.02s1,1.74,2.01,1.64,1.75-1,1.65-2.01-1-1.75-2.01-1.65Zm.29,2.95c-.61,.06-1.16-.39-1.22-1.01-.06-.61,.39-1.16,1-1.22s1.16,.39,1.23,1c.06,.62-.39,1.17-1.01,1.23Zm13.41-4.31c-1.01,.1-1.75,1-1.65,2.01s1,1.75,2.01,1.65,1.75-1,1.65-2.01-1-1.75-2.01-1.65Zm.29,2.95c-.61,.06-1.16-.39-1.23-1.01-.06-.61,.39-1.16,1.01-1.22,.61-.06,1.16,.39,1.22,1s-.39,1.16-1,1.23Zm13.4-4.31c-1,.1-1.74,1-1.64,2.01s1,1.75,2.01,1.65,1.75-1,1.65-2.01-1.01-1.75-2.02-1.65Zm.3,2.94c-.62,.06-1.17-.39-1.23-1s.39-1.16,1.01-1.23c.61-.06,1.16,.39,1.22,1.01,.06,.61-.39,1.16-1,1.22Z"/>
        </g>
        <g>
          <g>
            <path class="cls-9" d="M391.09,155.89c-2.68,5.41-21.67,47.77-20.99,51.53,1.06,5.96,8.18,20.84,19.28,14.67,8.18-4.54,14.55-48.98,12.95-65.25-.73-7.47-5.62-12.31-11.24-.95Z"/>
            <path class="cls-1" d="M397.05,155.99c-1,.1-1.74,1-1.64,2.01s1,1.75,2.01,1.65,1.75-1,1.65-2.01-1.01-1.75-2.02-1.65Zm.3,2.94c-.62,.06-1.17-.39-1.23-1s.39-1.16,1.01-1.22c.61-.07,1.16,.38,1.22,1,.06,.61-.39,1.16-1,1.22Zm-11.75,21c-1.01,.1-1.74,1-1.64,2.01s1,1.75,2.01,1.65,1.74-1,1.64-2.01-1-1.75-2.01-1.65Zm.3,2.95c-.62,.06-1.17-.39-1.23-1.01-.06-.61,.39-1.16,1-1.22,.62-.06,1.17,.39,1.23,1s-.39,1.16-1,1.23Zm13.4-4.31c-1.01,.1-1.75,1-1.65,2.01s1.01,1.75,2.01,1.65c1.01-.1,1.75-1,1.65-2.01s-1-1.75-2.01-1.65Zm.29,2.94c-.61,.06-1.16-.39-1.22-1s.39-1.16,1-1.23c.62-.06,1.17,.39,1.23,1.01,.06,.61-.39,1.16-1.01,1.22Zm-8.23-13.24c-1.01,.1-1.75,1-1.65,2.01s1,1.75,2.01,1.65,1.75-1.01,1.65-2.02c-.1-1-1-1.74-2.01-1.64Zm.29,2.94c-.61,.06-1.16-.39-1.22-1-.06-.62,.39-1.17,1-1.23s1.16,.39,1.23,1.01c.06,.61-.39,1.16-1.01,1.22Zm-17.5,32.66c-1.01,.1-1.75,1.01-1.65,2.02s1.01,1.74,2.02,1.64c1-.1,1.74-1,1.64-2.01s-1-1.75-2.01-1.65Zm.29,2.95c-.61,.06-1.16-.39-1.22-1.01-.06-.61,.39-1.16,1-1.22,.62-.06,1.17,.39,1.23,1,.06,.62-.39,1.17-1.01,1.23Zm13.41-4.31c-1.01,.1-1.75,1-1.65,2.01s1,1.75,2.01,1.65,1.75-1,1.65-2.01-1-1.75-2.01-1.65Zm.29,2.95c-.61,.06-1.16-.39-1.22-1.01-.06-.61,.39-1.16,1-1.22s1.16,.39,1.23,1c.06,.61-.39,1.16-1.01,1.23Zm-8.23-13.25c-1.01,.1-1.75,1-1.65,2.01s1,1.75,2.01,1.65,1.75-1,1.65-2.01-1-1.75-2.01-1.65Zm.29,2.94c-.61,.07-1.16-.39-1.22-1-.07-.61,.38-1.16,1-1.22,.61-.07,1.16,.38,1.22,1,.07,.61-.39,1.16-1,1.22Zm13.41-4.3c-1.01,.1-1.75,1-1.65,2.01s1,1.75,2.01,1.65,1.75-1.01,1.65-2.02c-.1-1-1.01-1.74-2.01-1.64Zm.29,2.94c-.62,.06-1.17-.39-1.23-1-.06-.62,.39-1.17,1.01-1.23,.61-.06,1.16,.39,1.22,1.01,.06,.61-.39,1.16-1,1.22Zm-11.75,21c-1.01,.1-1.74,1-1.64,2.01s1,1.75,2.01,1.65,1.75-1,1.65-2.01-1.01-1.75-2.02-1.65Zm.3,2.94c-.62,.07-1.17-.39-1.23-1s.39-1.16,1.01-1.22c.61-.07,1.16,.38,1.22,1,.06,.61-.39,1.16-1,1.22Z"/>
          </g>
          <g>
            <g>
              <path class="cls-2" d="M359.4,188.51c-3.38-.46-19.17,19.21-15.01,22,19.58,13.13,37.26,12.15,41.86,11.35,6.02-1.05,8.69-8.21,7.46-12.01-1.79-5.52-30.96-20.89-34.31-21.34Z"/>
              <g>
                <polygon class="cls-16" points="337.19 202.37 300.98 203.41 292.68 152.36 328.89 151.33 337.19 202.37"/>
                <polygon class="cls-17" points="335.41 202.43 299.2 203.46 290.9 152.41 327.11 151.38 335.41 202.43"/>
                <path class="cls-5" d="M308.34,175.31c.23,1.94,1.99,3.47,3.93,3.41,1.94-.06,3.34-1.67,3.11-3.61-.23-1.94-1.99-3.47-3.93-3.41-1.94,.06-3.34,1.67-3.11,3.61Z"/>
              </g>
              <g>
                <path class="cls-2" d="M360.89,190.26s-5.77-8.94-10.26-12.7c-6.01-5.03-13.27-6.9-16.36-7.5-6.45-1.25-22.91,.18-23.32,4.99-.38,4.36,16.37,2.04,16.37,2.04,0,0-17.47-.46-16.95,4.87,.51,5.33,19.8,1.54,19.8,1.54,0,0-17.96-.07-16.56,5.34,1.06,4.09,18.72,1.64,18.72,1.64,0,0-15.43,.05-14.53,4.3,1,4.7,17.45,3.46,17.45,3.46,4.12,10.42,10.56,13.6,15.27,15.4,1.14,.44,10.37-23.38,10.37-23.38Z"/>
                <g>
                  <path class="cls-16" d="M333.38,176.87c-2.05-.13-4.12-.27-6.18-.22-2.05,.05-4.11,.18-6.15,.43-5,.6-8.04,1.76-7.85,1.71,4.62-1.21,11.97-1.52,14.03-1.57,2.05-.05,4.1-.21,6.15-.27,.05,0,.04-.08,0-.08Z"/>
                  <path class="cls-16" d="M333.71,184.29c-2.62-.05-5.23-.2-7.85-.13-2.61,.07-5.09,.36-7.69,.6-.2,.02-.12,.12,.08,.11,2.61-.14,5.04-.07,7.65-.18,2.6-.11,5.22-.32,7.83-.34,.04,0,.04-.06,0-.06Z"/>
                  <path class="cls-16" d="M335.14,190.6c-4.01-.28-8.06,.17-12.03,.72-.2,.03-.08,.15,.12,.13,3.99-.31,7.12-.59,11.9-.71,.07,0,.09-.13,0-.14Z"/>
                </g>
              </g>
            </g>
            <g>
              <path class="cls-9" d="M362.53,188.34l-18.37,25.96s30.8,12.52,42.16,8.91c5.31-1.69,10.71-11.24,8.22-15.3-4.46-7.26-32.01-19.57-32.01-19.57Z"/>
              <path class="cls-1" d="M348.69,207.9l-1.68,2.37s.07,0,.11-.01c1.01-.1,1.75-1,1.65-2.01-.01-.13-.04-.24-.08-.35Zm11.76-2.66c-1.01,.1-1.74,1-1.64,2.01s1,1.75,2.01,1.65,1.75-1.01,1.65-2.02c-.1-1-1.01-1.74-2.02-1.64Zm.3,2.94c-.62,.06-1.17-.39-1.23-1-.06-.62,.39-1.17,1.01-1.23,.61-.06,1.16,.39,1.22,1.01,.06,.61-.39,1.16-1,1.22Zm13.4-4.31c-1.01,.1-1.75,1.01-1.65,2.02s1.01,1.74,2.02,1.64c1-.1,1.74-1,1.64-2.01s-1-1.75-2.01-1.65Zm.29,2.95c-.61,.06-1.16-.39-1.22-1.01-.06-.61,.39-1.16,1-1.22,.62-.06,1.17,.39,1.23,1,.06,.62-.39,1.17-1.01,1.23Zm13.41-4.31c-1.01,.1-1.75,1-1.65,2.01s1,1.75,2.01,1.65,1.75-1,1.65-2.01-1-1.75-2.01-1.65Zm.29,2.95c-.61,.06-1.16-.39-1.22-1.01-.06-.61,.39-1.16,1-1.22s1.16,.39,1.23,1c.06,.61-.39,1.16-1.01,1.23Zm-21.93-11.89c-1.01,.1-1.75,1.01-1.65,2.01,.1,1.01,1.01,1.75,2.01,1.65,1.01-.1,1.75-1,1.65-2.01s-1-1.75-2.01-1.65Zm.29,2.95c-.61,.06-1.16-.39-1.22-1.01-.06-.61,.39-1.16,1-1.22,.62-.06,1.17,.39,1.23,1,.06,.62-.39,1.17-1.01,1.23Zm-11.74,21c-.34,.03-.64,.15-.89,.34,.35,.11,.71,.23,1.07,.36h.02c.22,0,.43,.08,.6,.2,.37,.12,.75,.24,1.13,.37-.25-.82-1.05-1.37-1.93-1.27Zm13.7-1.37c-1.01,.1-1.75,1-1.65,2.01s1,1.75,2.01,1.65,1.75-1,1.65-2.01-1-1.75-2.01-1.65Zm.29,2.95c-.61,.06-1.16-.39-1.23-1.01-.06-.61,.39-1.16,1.01-1.22,.61-.06,1.16,.39,1.22,1,.06,.62-.39,1.17-1,1.23Zm13.4-4.31c-1.01,.1-1.74,1-1.64,2.01s1,1.75,2.01,1.65,1.75-1,1.65-2.01-1.01-1.75-2.02-1.65Zm.3,2.94c-.62,.07-1.17-.39-1.23-1s.39-1.16,1.01-1.22c.61-.07,1.16,.38,1.22,1,.06,.61-.39,1.16-1,1.22Z"/>
              <g>
                <path class="cls-16" d="M351.66,215.74c1.19-2.08,2.68-4.01,4.07-5.96,1.37-1.92,2.75-3.84,4.15-5.75,2.81-3.85,5.56-7.79,8.62-11.44,.07-.09,.2,0,.15,.1-2.44,4.14-5.33,8.04-8.14,11.94-1.41,1.95-2.85,3.89-4.31,5.8-1.41,1.84-2.78,3.76-4.39,5.44-.08,.08-.19-.04-.14-.12Z"/>
                <path class="cls-16" d="M389.59,202.8c-1.23-1.04-2.54-2-3.88-2.91,.35,.09,.71,.19,1.06,.29,.67,.18,1.32,.41,1.98,.62,.05,.02,.11-.06,.05-.09-.61-.35-1.29-.6-1.96-.79-.5-.14-1.01-.22-1.53-.28-.98-.65-1.98-1.27-3-1.85-1.24-.71-2.5-1.37-3.78-1.99-1.32-.64-2.69-1.36-4.1-1.77-.06-.02-.12,.07-.06,.11,1.18,.75,2.5,1.33,3.74,1.99,1.32,.71,2.63,1.44,3.92,2.2,2.53,1.47,5.01,3.03,7.51,4.55,.04,.03,.09-.03,.05-.07Z"/>
              </g>
            </g>
          </g>
          <path class="cls-16" d="M403.76,173.9c-.19,.96-.41,1.92-.69,2.86-.24,.8-.55,1.59-.8,2.38,.45-3.46,.84-6.92,1.22-10.39,0-.06-.09-.07-.1-.01-.67,4.23-1.37,8.45-2,12.69-.63,4.23-1.33,8.45-2.13,12.66-.8,4.23-1.69,8.44-2.77,12.61-.53,2.07-1.11,4.12-1.73,6.16-.53,1.75-1.05,3.53-1.84,5.18-.91,1.9-2.26,3.48-4.15,4.46-1.97,1.02-7.68,2.12-19.91-.36-.08-.02-.06,.1,.02,.12,12.01,3.09,17.57,1.82,19.42,1.17,1.74-.62,3.04-1.73,4.14-3.23,1.05-1.43,1.74-3.11,2.3-4.78,.68-2,1.24-4.06,1.79-6.1,2.27-8.48,3.82-17.1,5.13-25.77,.2-1.33,.38-2.66,.56-3.98,.02,0,.04,0,.05-.02,.49-.83,.8-1.81,1.05-2.73,.26-.95,.45-1.91,.55-2.89,0-.07-.1-.08-.11-.01Z"/>
          <g>
            <path class="cls-16" d="M374.43,194.02c3.97-10.9,8.38-21.68,13.79-31.95-3.91,9.28-9.55,22.96-13.79,31.95h0Z"/>
            <path class="cls-16" d="M386.51,163.54c-.19,1.64-.75,3.1-1.06,4.71-.39-1.61,.24-3.32,1.06-4.71h0Z"/>
          </g>
        </g>
      </g>
    </g>
  </g>
</svg>