<svg xmlns="http://www.w3.org/2000/svg" xmlns:xlink="http://www.w3.org/1999/xlink" width="328.82" height="944.207" viewBox="0 0 328.82 944.207">
  <defs>
    <clipPath id="clip-path">
      <rect id="Rectangle_3" data-name="Rectangle 3" width="944.207" height="328.82" fill="none" stroke="#cc8f3b" stroke-width="3"/>
    </clipPath>
  </defs>
  <g id="Groupe_4" data-name="Groupe 4" transform="translate(932.307 728.693)">
    <g id="Groupe_3" data-name="Groupe 3" transform="translate(-603.486 -728.693) rotate(90)" clip-path="url(#clip-path)">
      <path id="Tracé_1" data-name="Tracé 1" d="M943.708,308.745c-62.578,6.435-123.4-23.962-165.593-63.485s-70.474-87.947-105.138-132.377S593.986,25.974,534.384,8.64C468.229-10.6,393.68,4.824,333.3,34.668S227.814,119.5,187.658,167.849C131.172,235.872,65.584,267.076.136,287.968" transform="translate(0.182 0.181)" fill="none" stroke="#cc8f3b" stroke-linecap="round" stroke-miterlimit="10" stroke-width="2"/>
      <path id="Tracé_2" data-name="Tracé 2" d="M623.7,254.875c-15.3-37.006-72.467-128.687-99.044-160.833S458.671,35.256,412.68,29.735c-53.43-6.412-106.725,16.642-145.3,48.488S201.7,150.211,171.651,188.032s-65.027,74.881-113,95.74" transform="translate(78.398 38.309)" fill="none" stroke="#cc8f3b" stroke-linecap="round" stroke-miterlimit="10" stroke-width="2"/>
      <path id="Tracé_3" data-name="Tracé 3" d="M495.837,257.211c-78.479-41.422-84.55-119.128-138.062-175.605-13.859-14.625-34.926-29.07-60.788-28.236-25.731.83-44.371,16.235-58.55,30.62-47.1,47.775-84.7,99.729-111.515,154.07" transform="translate(169.652 71.291)" fill="none" stroke="#cc8f3b" stroke-linecap="round" stroke-miterlimit="10" stroke-width="2"/>
    </g>
  </g>
</svg>
