<svg xmlns="http://www.w3.org/2000/svg" width="59" height="59" viewBox="0 0 59 59"><g transform="translate(-328 -1490)"><g transform="translate(6 346)"><circle cx="29.5" cy="29.5" r="29.5" transform="translate(322 1144)" fill="#cc8f3b"/></g><path d="M24.385,23.711l-2.592,6.625-9.556-.127-2.644-6.5a64.009,64.009,0,0,0,5.767-13.356l1.259.135-.049,11.685a1.213,1.213,0,1,0,.756-.033l.041-11.576,1.441-.065a54.4,54.4,0,0,0,5.577,13.218ZM14.518,0h4.995a.666.666,0,0,1,.666.669V2.294h7.877A2.709,2.709,0,0,1,28.7,1.276h0a2.709,2.709,0,0,1,3.833,0h0a2.709,2.709,0,0,1,0,3.833h0a2.709,2.709,0,0,1-3.838,0l-.049-.054a2.676,2.676,0,0,1-.593-.967H23.987a14.843,14.843,0,0,1,3.521,2.847,15.78,15.78,0,0,1,3.879,8.012h1.083a.813.813,0,0,1,.813.813v3.659a.813.813,0,0,1-.813.813H28.876a.813.813,0,0,1-.813-.813V15.758a.813.813,0,0,1,.813-.813h.837a14.139,14.139,0,0,0-3.421-6.885,12.809,12.809,0,0,0-6.113-3.768v1.43a.669.669,0,0,1-.666.669H14.518a.672.672,0,0,1-.655-.669V4.3a12.768,12.768,0,0,0-6.23,3.922,14.285,14.285,0,0,0-3.3,6.736h.813a.813.813,0,0,1,.813.813v3.651a.813.813,0,0,1-.813.813H1.536a.813.813,0,0,1-.813-.813V15.758a.813.813,0,0,1,.813-.813H2.646a15.981,15.981,0,0,1,3.735-7.83A14.778,14.778,0,0,1,10.071,4.1H5.325a2.709,2.709,0,0,1-.642,1.016h0a2.709,2.709,0,0,1-3.822.005h0a2.709,2.709,0,0,1,0-3.833h0a2.709,2.709,0,0,1,3.833,0h0A2.668,2.668,0,0,1,5.339,2.3h8.524V.68A.669.669,0,0,1,14.518,0ZM21.56,33.166H12.292V31.319h9.274v1.847Z" transform="translate(340.804 1502.917)" fill="#fff" fill-rule="evenodd"/></g></svg>