<?xml version="1.0" encoding="UTF-8"?>
<svg xmlns="http://www.w3.org/2000/svg" viewBox="0 0 500 500">
  <defs>
    <style>
      .cls-1 {
        opacity: .1;
      }

      .cls-2 {
        fill: #ebebeb;
      }

      .cls-3 {
        fill: #fff;
      }

      .cls-4 {
        fill: #ff9cbd;
      }

      .cls-5, .cls-6 {
        fill: #ffc727;
      }

      .cls-7 {
        fill: #a6a6a6;
      }

      .cls-8, .cls-9, .cls-10, .cls-11 {
        fill: #ca8d3b;
      }

      .cls-12 {
        fill: #c7c7c7;
      }

      .cls-13 {
        fill: #d3766a;
      }

      .cls-14 {
        fill: #dbdbdb;
      }

      .cls-15 {
        fill: #444;
      }

      .cls-16 {
        fill: #455a64;
      }

      .cls-17 {
        fill: #263238;
      }

      .cls-18 {
        fill: #272726;
      }

      .cls-6 {
        opacity: .2;
      }

      .cls-9 {
        opacity: .6;
      }

      .cls-10 {
        opacity: .8;
      }

      .cls-11 {
        opacity: .46;
      }
    </style>
  </defs>
  <g id="Background_Complete" data-name="Background Complete">
    <g>
      <g>
        <g>
          <polygon class="cls-2" points="430.8 161.36 429.3 161.36 429.3 160.36 429.8 160.36 429.8 159.86 430.8 159.86 430.8 161.36"/>
          <path class="cls-2" d="M427.28,161.36h-2.02v-1h2.02v1Zm-4.05,0h-2.02v-1h2.02v1Zm-4.05,0h-2.02v-1h2.02v1Zm-4.05,0h-2.02v-1h2.02v1Zm-4.05,0h-2.02v-1h2.02v1Zm-4.05,0h-2.02v-1h2.02v1Zm-4.05,0h-2.02v-1h2.02v1Zm-4.05,0h-2.02v-1h2.02v1Zm-4.05,0h-2.02v-1h2.02v1Zm-4.05,0h-2.02v-1h2.02v1Zm-4.05,0h-2.02v-1h2.02v1Zm-4.05,0h-2.02v-1h2.02v1Zm-4.05,0h-2.02v-1h2.02v1Z"/>
          <polygon class="cls-2" points="374.67 161.36 373.17 161.36 373.17 159.86 374.17 159.86 374.17 160.36 374.67 160.36 374.67 161.36"/>
          <path class="cls-2" d="M374.17,157.83h-1v-2.02h1v2.02Zm0-4.05h-1v-2.02h1v2.02Zm0-4.05h-1v-2.02h1v2.02Zm0-4.05h-1v-2.02h1v2.02Zm0-4.05h-1v-2.02h1v2.02Zm0-4.05h-1v-2.02h1v2.02Zm0-4.05h-1v-2.02h1v2.02Zm0-4.05h-1v-2.02h1v2.02Zm0-4.05h-1v-2.02h1v2.02Zm0-4.05h-1v-2.02h1v2.02Zm0-4.05h-1v-2.02h1v2.02Zm0-4.05h-1v-2.02h1v2.02Zm0-4.05h-1v-2.02h1v2.02Z"/>
          <polygon class="cls-2" points="374.17 105.22 373.17 105.22 373.17 103.72 374.67 103.72 374.67 104.72 374.17 104.72 374.17 105.22"/>
          <path class="cls-2" d="M427.28,104.72h-2.02v-1h2.02v1Zm-4.05,0h-2.02v-1h2.02v1Zm-4.05,0h-2.02v-1h2.02v1Zm-4.05,0h-2.02v-1h2.02v1Zm-4.05,0h-2.02v-1h2.02v1Zm-4.05,0h-2.02v-1h2.02v1Zm-4.05,0h-2.02v-1h2.02v1Zm-4.05,0h-2.02v-1h2.02v1Zm-4.05,0h-2.02v-1h2.02v1Zm-4.05,0h-2.02v-1h2.02v1Zm-4.05,0h-2.02v-1h2.02v1Zm-4.05,0h-2.02v-1h2.02v1Zm-4.05,0h-2.02v-1h2.02v1Z"/>
          <polygon class="cls-2" points="430.8 105.22 429.8 105.22 429.8 104.72 429.3 104.72 429.3 103.72 430.8 103.72 430.8 105.22"/>
          <path class="cls-2" d="M430.8,157.83h-1v-2.02h1v2.02Zm0-4.05h-1v-2.02h1v2.02Zm0-4.05h-1v-2.02h1v2.02Zm0-4.05h-1v-2.02h1v2.02Zm0-4.05h-1v-2.02h1v2.02Zm0-4.05h-1v-2.02h1v2.02Zm0-4.05h-1v-2.02h1v2.02Zm0-4.05h-1v-2.02h1v2.02Zm0-4.05h-1v-2.02h1v2.02Zm0-4.05h-1v-2.02h1v2.02Zm0-4.05h-1v-2.02h1v2.02Zm0-4.05h-1v-2.02h1v2.02Zm0-4.05h-1v-2.02h1v2.02Z"/>
        </g>
        <g>
          <rect class="cls-3" x="370.14" y="157.33" width="7.06" height="7.06"/>
          <path class="cls-2" d="M377.69,164.88h-8.06v-8.06h8.06v8.06Zm-7.06-1h6.06v-6.06h-6.06v6.06Z"/>
        </g>
        <g>
          <rect class="cls-3" x="370.14" y="129.01" width="7.06" height="7.06"/>
          <path class="cls-2" d="M377.69,136.57h-8.06v-8.06h8.06v8.06Zm-7.06-1h6.06v-6.06h-6.06v6.06Z"/>
        </g>
        <g>
          <rect class="cls-3" x="370.14" y="100.69" width="7.06" height="7.06"/>
          <path class="cls-2" d="M377.69,108.25h-8.06v-8.06h8.06v8.06Zm-7.06-1h6.06v-6.06h-6.06v6.06Z"/>
        </g>
        <g>
          <rect class="cls-3" x="426.77" y="157.33" width="7.06" height="7.06"/>
          <path class="cls-2" d="M434.33,164.88h-8.06v-8.06h8.06v8.06Zm-7.06-1h6.06v-6.06h-6.06v6.06Z"/>
        </g>
        <g>
          <rect class="cls-3" x="426.77" y="129.01" width="7.06" height="7.06"/>
          <path class="cls-2" d="M434.33,136.57h-8.06v-8.06h8.06v8.06Zm-7.06-1h6.06v-6.06h-6.06v6.06Z"/>
        </g>
        <g>
          <rect class="cls-3" x="426.77" y="100.69" width="7.06" height="7.06"/>
          <path class="cls-2" d="M434.33,108.25h-8.06v-8.06h8.06v8.06Zm-7.06-1h6.06v-6.06h-6.06v6.06Z"/>
        </g>
        <g>
          <rect class="cls-3" x="398.45" y="100.69" width="7.06" height="7.06"/>
          <path class="cls-2" d="M406.01,108.25h-8.06v-8.06h8.06v8.06Zm-7.06-1h6.06v-6.06h-6.06v6.06Z"/>
        </g>
        <g>
          <rect class="cls-3" x="398.45" y="157.33" width="7.06" height="7.06"/>
          <path class="cls-2" d="M406.01,164.88h-8.06v-8.06h8.06v8.06Zm-7.06-1h6.06v-6.06h-6.06v6.06Z"/>
        </g>
        <path class="cls-14" d="M402.67,139.27h-11.3l-4.39,12.33h4.28v1.08h-8.73v-1.08h2.68l14.55-39.21h4.68l14.38,39.21h2.63v1.08h-18.66v-1.08h4.05l-4.17-12.33Zm-10.79-1.26h10.33l-4.97-14.95-5.36,14.95Z"/>
      </g>
      <g>
        <g>
          <path class="cls-2" d="M115.96,78.62s-.2,11.12-7.32,23.74h-10.03c-7.12-12.62-7.32-23.74-7.32-23.74,10.3-5.76,10.57-18.66,10.57-18.66h1.04v20.42c-1.4,.33-2.42,1.57-2.42,3.07,0,1.74,1.41,3.14,3.14,3.14s3.15-1.41,3.15-3.14c0-1.51-1.03-2.74-2.42-3.07v-20.42h1.04s.27,12.9,10.57,18.66Z"/>
          <rect class="cls-12" x="96.21" y="101.14" width="14.83" height="6.24"/>
        </g>
        <path class="cls-2" d="M138.04,93.35h-1c0-18.43-14.99-33.42-33.42-33.42s-33.42,14.99-33.42,33.42h-1c0-18.98,15.44-34.42,34.42-34.42s34.42,15.44,34.42,34.42Z"/>
        <rect class="cls-2" x="68.92" y="58.51" width="68.62" height="1"/>
        <g>
          <rect class="cls-3" x="66.17" y="89.82" width="7.06" height="7.06"/>
          <path class="cls-2" d="M73.73,97.37h-8.06v-8.06h8.06v8.06Zm-7.06-1h6.06v-6.06h-6.06v6.06Z"/>
        </g>
        <g>
          <rect class="cls-3" x="66.17" y="55.48" width="7.06" height="7.06"/>
          <path class="cls-2" d="M73.73,63.04h-8.06v-8.06h8.06v8.06Zm-7.06-1h6.06v-6.06h-6.06v6.06Z"/>
        </g>
        <g>
          <rect class="cls-3" x="134.01" y="89.82" width="7.06" height="7.06"/>
          <path class="cls-2" d="M141.57,97.37h-8.06v-8.06h8.06v8.06Zm-7.06-1h6.06v-6.06h-6.06v6.06Z"/>
        </g>
        <g>
          <rect class="cls-3" x="134.01" y="55.48" width="7.06" height="7.06"/>
          <path class="cls-2" d="M141.57,63.04h-8.06v-8.06h8.06v8.06Zm-7.06-1h6.06v-6.06h-6.06v6.06Z"/>
        </g>
      </g>
    </g>
    <g>
      <path class="cls-2" d="M414.79,332.89l13.36-.28,6.58-.11c2.19-.05,4.36-.04,6.55-.06l-.45,.45-.05-11.19,.5,.5-13.24-.06c-4.41,0-8.83-.11-13.24-.16l.27-.27c-.02,1.83-.09,3.67-.13,5.54l-.14,5.65Zm0,0l-.14-5.54c-.05-1.87-.11-3.76-.13-5.65v-.27s.27,0,.27,0c4.41-.05,8.83-.16,13.24-.16l13.24-.06h.5s0,.5,0,.5l-.05,11.19v.45s-.45,0-.45,0c-2.23-.02-4.47,0-6.69-.06l-6.66-.11-13.12-.28Z"/>
      <path class="cls-2" d="M429.56,347l13.36-.28,6.58-.11c2.19-.05,4.36-.04,6.55-.06l-.45,.45-.05-11.19,.5,.5-13.24-.06c-4.41,0-8.83-.11-13.24-.16l.27-.27c-.02,1.83-.09,3.67-.13,5.54l-.14,5.65Zm0,0l-.14-5.54c-.05-1.87-.11-3.76-.13-5.65v-.27s.27,0,.27,0c4.41-.05,8.83-.16,13.24-.16l13.24-.06h.5s0,.5,0,.5l-.05,11.19v.45s-.45,0-.45,0c-2.23-.02-4.47,0-6.69-.06l-6.66-.11-13.12-.28Z"/>
      <path class="cls-2" d="M400.02,347l13.36-.28,6.58-.11c2.19-.05,4.36-.04,6.55-.06l-.45,.45-.05-11.19,.5,.5-13.24-.06c-4.41,0-8.83-.11-13.24-.16l.27-.27c-.02,1.83-.09,3.67-.13,5.54l-.14,5.65Zm0,0l-.14-5.54c-.05-1.87-.11-3.76-.13-5.65v-.27s.27,0,.27,0c4.41-.05,8.83-.16,13.24-.16l13.24-.06h.5s0,.5,0,.5l-.05,11.19v.45s-.45,0-.45,0c-2.23-.02-4.47,0-6.69-.06l-6.66-.11-13.12-.28Z"/>
      <path class="cls-2" d="M58.73,347l13.36-.28,6.58-.11c2.19-.05,4.36-.04,6.55-.06l-.45,.45-.05-11.19,.5,.5-13.24-.06c-4.41,0-8.83-.11-13.24-.16l.27-.27c-.02,1.83-.09,3.67-.13,5.54l-.14,5.65Zm0,0l-.14-5.54c-.05-1.87-.11-3.76-.13-5.65v-.27s.27,0,.27,0c4.41-.05,8.83-.16,13.24-.16l13.24-.06h.5s0,.5,0,.5l-.05,11.19v.45s-.45,0-.45,0c-2.23-.02-4.47,0-6.69-.06l-6.66-.11-13.12-.28Z"/>
      <path class="cls-2" d="M58.73,85.77l13.36-.28,6.58-.11c2.19-.05,4.36-.04,6.55-.06l-.45,.45-.05-11.19,.5,.5-13.24-.06c-4.41,0-8.83-.11-13.24-.16l.27-.27c-.02,1.83-.09,3.67-.13,5.54l-.14,5.65Zm0,0l-.14-5.54c-.05-1.87-.11-3.76-.13-5.65v-.27s.27,0,.27,0c4.41-.05,8.83-.16,13.24-.16l13.24-.06h.5s0,.5,0,.5l-.05,11.19v.45s-.45,0-.45,0c-2.23-.02-4.47,0-6.69-.06l-6.66-.11-13.12-.28Z"/>
      <path class="cls-2" d="M43.96,99.88l13.36-.28,6.58-.11c2.19-.05,4.36-.04,6.55-.06l-.45,.45-.05-11.19,.5,.5-13.24-.06c-4.41,0-8.83-.11-13.24-.16l.27-.27c-.02,1.83-.09,3.67-.13,5.54l-.14,5.65Zm0,0l-.14-5.54c-.05-1.87-.11-3.76-.13-5.65v-.27s.27,0,.27,0c4.41-.05,8.83-.16,13.24-.16l13.24-.06h.5s0,.5,0,.5l-.05,11.19v.45s-.45,0-.45,0c-2.23-.02-4.47,0-6.69-.06l-6.66-.11-13.12-.28Z"/>
      <path class="cls-2" d="M429.56,85.78l13.36-.28,6.58-.11c2.19-.05,4.36-.04,6.55-.05l-.45,.45-.05-11.19,.5,.5-13.24-.06c-4.41,0-8.83-.11-13.24-.16l.27-.27c-.02,1.83-.09,3.67-.13,5.54l-.14,5.65Zm0,0l-.14-5.54c-.05-1.87-.11-3.76-.13-5.65v-.27s.27,0,.27,0c4.41-.05,8.83-.16,13.24-.16l13.24-.06h.5s0,.5,0,.5l-.05,11.19v.45s-.45,0-.45,0c-2.23-.02-4.47,0-6.69-.06l-6.66-.11-13.12-.28Z"/>
      <path class="cls-2" d="M193.79,272.2l-13.36,.28-6.58,.11c-2.19,.05-4.36,.04-6.55,.06l.45-.45,.05,11.19-.5-.5,13.24,.06c4.41,0,8.83,.11,13.24,.16l-.27,.27c.02-1.83,.09-3.67,.13-5.54l.14-5.65Zm0,0l.14,5.54c.05,1.87,.11,3.75,.13,5.65v.27s-.27,0-.27,0c-4.41,.05-8.83,.16-13.24,.16l-13.24,.06h-.5s0-.5,0-.5l.05-11.19v-.45s.45,0,.45,0c2.23,.02,4.47,0,6.69,.06l6.66,.11,13.12,.28Z"/>
      <path class="cls-2" d="M179.01,258.09l-13.36,.28-6.58,.11c-2.19,.05-4.36,.04-6.55,.06l.45-.45,.05,11.19-.5-.5,13.24,.06c4.41,0,8.83,.11,13.24,.16l-.27,.27c.02-1.83,.09-3.67,.13-5.54l.14-5.65Zm0,0l.14,5.54c.05,1.87,.11,3.75,.13,5.65v.27s-.27,0-.27,0c-4.41,.05-8.83,.16-13.24,.16l-13.24,.06h-.5s0-.5,0-.5l.05-11.19v-.45s.45,0,.45,0c2.23,.02,4.47,0,6.69,.06l6.66,.11,13.12,.28Z"/>
    </g>
  </g>
  <g id="Floor">
    <polygon class="cls-17" points="44.35 388.23 95.76 387.98 147.18 387.9 250 387.73 352.83 387.9 404.24 387.98 455.65 388.23 404.24 388.47 352.83 388.56 250 388.73 147.18 388.56 95.76 388.47 44.35 388.23"/>
  </g>
  <g id="Plant">
    <g>
      <g>
        <path class="cls-17" d="M110.68,288.63c-3.15-3.09-7.22-6.82-12.04-5.49-4.53,1.25-6.27,6.2-7.08,10.32-1.05,5.31-1.86,10.68-2.7,16.02-.85,5.4-1.65,10.81-2.43,16.22-.44,3.05-.87,6.11-1.3,9.16-.21,1.53-.43,3.06-.64,4.58-.21,1.5-.46,3-.54,4.51-.03,.48,.73,.55,.83,.09,.58-2.55,.83-5.2,1.2-7.78,.38-2.6,.75-5.2,1.13-7.8,.76-5.17,1.54-10.33,2.32-15.49,.78-5.16,1.58-10.33,2.41-15.48,.7-4.37,1.03-9.81,4.91-12.69,2.13-1.58,4.84-1.6,7.25-.68,2.55,.97,4.59,2.8,6.59,4.61,.06,.06,.15-.04,.09-.1Z"/>
        <g>
          <path class="cls-8" d="M106.37,285.48s-6.44-2.32-9.62,2.38c-3.18,4.7,.62,16.66,29.95,23.4,0,0-.77-12.8-7.06-26.51-6.29-13.71-17.49-8.52-13.27,.73Z"/>
          <g>
            <path class="cls-17" d="M125.01,309.3c-.4-.83-.97-1.6-1.48-2.38-.49-.76-.99-1.51-1.49-2.26-.38-.56-.76-1.12-1.15-1.68,.03-.14,.04-.28,.05-.42,.03-.25,.07-.51,.1-.76,.07-.55,.15-1.1,.23-1.65,.08-.55,.17-1.09,.28-1.64,.11-.56,.16-1.21,.38-1.73,.04-.09-.12-.13-.13-.03-.04,.33-.17,.66-.26,.97-.07,.25-.13,.49-.2,.74-.14,.56-.28,1.11-.4,1.67-.12,.52-.21,1.04-.3,1.56-.04,.25-.08,.5-.11,.75-.52-.75-1.06-1.48-1.61-2.21-1.56-2.05-3.2-4.02-4.91-5.95,0-.02,.02-.03,.03-.05,.15-3.08,.08-6.13,.76-9.16,.02-.08-.11-.13-.12-.04-.64,2.84-1.28,5.83-1.1,8.77-.61-.68-1.23-1.36-1.85-2.03-1.43-1.54-2.88-3.05-4.37-4.53-.06-.06-.16,.03-.1,.09,2.47,2.66,4.82,5.43,7.1,8.25-1.78-.06-3.59,.07-5.36,.2-1.99,.15-3.96,.4-5.94,.67-.08,.01-.06,.14,.03,.13,1.96-.29,3.95-.45,5.93-.53,1.91-.08,3.82,0,5.73,0,1.23,1.53,2.46,3.07,3.66,4.63-.09,0-.18,0-.27,0-.45,0-.9-.02-1.35,0-.89,.02-1.78,.08-2.67,.15-1.82,.16-3.63,.41-5.42,.81-.08,.02-.06,.14,.03,.13,1.8-.2,3.61-.37,5.42-.44,.86-.03,1.73-.03,2.59-.03,.45,0,.9,0,1.35,0,.27,0,.51,.03,.74-.07,.79,1.02,1.58,2.05,2.36,3.08,.62,.82,1.24,1.65,1.84,2.48,.62,.85,1.17,1.78,1.86,2.58,.05,.06,.14-.01,.11-.08Z"/>
            <path class="cls-17" d="M109.17,292.14c-1.03-.17-2.1-.15-3.14-.15-1.05,0-2.09,.03-3.14,.07-.1,0-.09,.14,0,.13,1.06-.08,2.12-.09,3.18-.08,1.03,.02,2.05,.11,3.08,.09,.03,0,.04-.05,0-.05Z"/>
            <path class="cls-17" d="M118.38,294.5c.12-1,.25-2.01,.46-2.99,.02-.09-.11-.12-.13-.03-.15,.99-.34,1.96-.49,2.95-.07,.49-.14,.99-.2,1.48-.06,.45-.16,.94-.12,1.4,0,.09,.15,.1,.17,.01,.12-.44,.11-.94,.15-1.4,.05-.48,.1-.95,.15-1.43Z"/>
            <path class="cls-17" d="M116.45,283.4c-.26,.97-.51,1.96-.69,2.95-.09,.5-.17,1.01-.24,1.52-.07,.48-.15,.99-.1,1.48,0,.04,.06,.04,.08,0,.14-.45,.17-.94,.23-1.41,.06-.49,.14-.97,.22-1.46,.18-1.02,.36-2.04,.62-3.04,.02-.08-.1-.13-.12-.04Z"/>
          </g>
        </g>
      </g>
      <g>
        <path class="cls-17" d="M78.26,342.88c-.16-1.85-.34-3.69-.54-5.53-.39-3.65-.83-7.3-1.32-10.94-.49-3.63-.95-7.27-1.54-10.88-.27-1.66-.54-3.36-1.12-4.94-.49-1.36-1.31-2.6-2.74-3.09-3.45-1.19-5.78,2.39-7.17,4.92-.04,.08,.07,.13,.12,.06,.83-1.2,3.14-4.56,5.76-4.41,1.76,.11,3.17,1.35,4.02,5.74,2.11,10.94,4.01,33.15,4.23,34.6,.12,.77,.66,.74,.67-.09,.01-1.82-.2-3.63-.36-5.44Z"/>
        <path class="cls-8" d="M64.77,311.05s3.02-10.65-3.65-5.32c-11.1,8.86-11.49,28.14-11.49,28.14,0,0,19.73-11.46,22.18-19.02,3.65-11.26-7.04-3.8-7.04-3.8Z"/>
        <g>
          <path class="cls-17" d="M68.51,316.28c-1.55,.31-3.12,.52-4.68,.74-.74,.11-1.48,.21-2.22,.31-.5,.07-1.01,.12-1.51,.18,1.47-2.02,2.95-4.04,4.36-6.11,.05-.08-.07-.16-.13-.1-1.17,1.19-2.26,2.48-3.3,3.8-.29-.82-.58-1.65-.87-2.47-.34-.95-.7-1.9-.94-2.89-.02-.08-.15-.04-.13,.04,.27,.98,.46,1.97,.72,2.95,.25,.95,.54,1.88,.87,2.8-.72,.94-1.42,1.9-2.09,2.87-.34-.96-.76-1.89-1.06-2.87-.02-.08-.15-.04-.13,.04,.35,1.08,.54,2.2,.88,3.29-.45,.66-.91,1.32-1.34,1.99-.8,1.23-1.55,2.48-2.28,3.75-.11,.07-.19,.16-.17,.3-1.25,2.16-2.43,4.34-3.6,6.55-.04,.08,.08,.14,.12,.06,1.17-2.18,2.47-4.3,3.83-6.39,0,0,.01,0,.01,0,.14-.08,.47-.09,.65-.12,.23-.05,.45-.1,.68-.15,.51-.11,1.02-.24,1.52-.37,1-.25,1.99-.48,3.01-.66,.08-.01,.05-.14-.04-.13-1.19,.23-2.39,.36-3.6,.5-.57,.07-1.14,.14-1.7,.23-.02,0-.05,0-.08,.01,.71-1.08,1.43-2.15,2.16-3.21,.72-1.04,1.45-2.07,2.19-3.09,.68-.1,1.36-.28,2.04-.41,.76-.15,1.53-.29,2.29-.45,1.53-.3,3.05-.64,4.58-.9,.08-.01,.05-.14-.04-.13Z"/>
          <path class="cls-17" d="M56.65,317.33c-.09-.28-.18-.56-.27-.85-.19-.59-.33-1.18-.45-1.79-.02-.08-.14-.04-.13,.04,.13,.6,.27,1.2,.41,1.8,.14,.59,.28,1.21,.51,1.77,.06,.14,.27,.08,.23-.07-.08-.31-.2-.6-.3-.91Z"/>
          <path class="cls-17" d="M70.52,313.81c-.9,.14-1.81,.2-2.71,.28-.91,.08-1.81,.21-2.71,.34-.05,0-.05,.08,0,.08,.91-.06,1.81-.13,2.71-.25,.9-.12,1.8-.25,2.71-.31,.09,0,.08-.14,0-.13Z"/>
        </g>
      </g>
      <g>
        <path class="cls-17" d="M92.78,329.4c-.35-7.84-.85-15.67-1.64-23.48-.39-3.89-.83-7.78-1.38-11.65-.54-3.79-1.19-7.58-2.25-11.27-.81-2.82-1.87-5.66-3.75-7.95-1.86-2.26-4.6-3.68-7.58-3.31-3.43,.42-6.19,2.59-8.58,4.93-2.68,2.63-5.14,5.51-7.62,8.33-.63,.71-1.25,1.43-1.87,2.15-.06,.06,.04,.16,.1,.09,2.43-2.79,4.95-5.5,7.59-8.09,2.44-2.39,4.95-5.01,8.33-6,1.57-.46,3.26-.59,4.84-.11,1.28,.38,2.39,1.14,3.31,2.09,1.9,1.98,2.97,4.66,3.73,7.25,2.11,7.21,2.86,14.76,3.65,22.21,.8,7.56,1.33,15.14,1.71,22.74,.38,7.63,.68,15.28,1.42,22.89,.09,.94,.21,1.88,.33,2.81,.08,.63,1.06,.63,1.01-.02-.62-7.86-.99-15.73-1.34-23.61Z"/>
        <g>
          <path class="cls-8" d="M67.17,277.53s4.48-8.29-.81-10.94c-5.29-2.66-23,17.11-28.17,46.01,0,0,28.6-12.65,38.31-25.26,9.71-12.61-1.3-15.38-9.33-9.8Z"/>
          <g>
            <path class="cls-17" d="M71.38,284.27c-3.21,0-6.42-.24-9.63-.22,.6-.69,1.2-1.38,1.81-2.07,.84-.95,1.8-1.87,2.51-2.92,.05-.07-.05-.16-.12-.11-.89,.7-1.66,1.61-2.43,2.44-.81,.85-1.61,1.71-2.4,2.58-1.23,1.33-2.43,2.68-3.63,4.03,0-.13,0-.26,0-.39,0-.56,0-1.13,0-1.69,0-1.09,.02-2.18,.03-3.27,.02-2.21,.02-4.43,.17-6.64,0-.08-.13-.08-.13,0-.15,2.22-.38,4.42-.49,6.64-.05,1.09-.08,2.18-.09,3.27,0,.56-.02,1.13-.01,1.69,0,.31,0,.63,.01,.95-.19,.21-.38,.42-.57,.63-2.57,2.93-5,5.96-7.38,9.05,0-.17-.03-.34-.04-.51-.03-.34-.07-.68-.11-1.02-.08-.74-.18-1.47-.29-2.21-.1-.69-.21-1.38-.33-2.07-.13-.77-.32-1.56-.38-2.34,0-.09-.15-.07-.13,.02,.16,.77,.2,1.58,.27,2.35,.07,.71,.13,1.41,.2,2.12,.06,.71,.13,1.42,.2,2.12,.03,.34,.07,.68,.1,1.02,.02,.17,.04,.34,.06,.51,.03,.22,.07,.25,.14,.4-.41,.53-.82,1.06-1.22,1.6-1.62,2.15-3.21,4.32-4.81,6.48-.05,.07,.04,.16,.1,.09,1.51-1.97,3.06-3.9,4.63-5.81,1.18,.05,2.38-.04,3.55-.06,1.24-.02,2.48-.03,3.72-.03,.09,0,.08-.13,0-.13-1.24,.02-2.48,.04-3.72,.05-1.13,0-2.28-.05-3.41,.01,1.38-1.68,2.78-3.35,4.18-5.02,.51-.61,1.02-1.21,1.54-1.82,.46,.1,.96,.05,1.44,.05,.56,0,1.13,0,1.69,0,1.06,0,2.11-.03,3.17-.04,2.18-.03,4.37-.11,6.55-.11,.09,0,.08-.13,0-.13-2.19-.03-4.37-.12-6.56-.18-1.06-.03-2.11-.06-3.17-.08-.56,0-1.13-.01-1.69-.02-.32,0-.65-.03-.98-.01,1.2-1.42,2.4-2.85,3.6-4.27,.03-.02,.05-.04,.07-.08,1.17-1.38,2.34-2.76,3.53-4.14,.16-.19,.33-.37,.49-.56,3.33,.1,6.66-.12,9.99-.05,.09,0,.08-.13,0-.13Z"/>
            <path class="cls-17" d="M69.73,289.96c-.26,0-.52,0-.78,0-.08,0-.07,.12,0,.12,.26,0,.52,0,.78,0,.09,0,.08-.13,0-.13Z"/>
            <path class="cls-17" d="M68,289.96c-1.03-.01-2.06-.04-3.09-.06-.51-.01-1.03-.03-1.54-.05-.46-.02-.99-.09-1.44,.02-.05,.01-.04,.08,0,.1,.45,.13,.98,.09,1.44,.1,.51,0,1.03,.02,1.54,.02,1.03,.01,2.06,.01,3.09,.01,.09,0,.08-.13,0-.13Z"/>
            <path class="cls-17" d="M59.01,299.62c-2.09-.29-4.21-.59-6.32-.57-.03,0-.03,.04,0,.05,2.1,.2,4.21,.31,6.29,.65,.08,.01,.12-.12,.03-.13Z"/>
            <path class="cls-17" d="M50.41,290.42c-.02-.18-.04-.37-.07-.55-.05-.41-.12-.83-.18-1.24-.12-.79-.26-1.57-.41-2.35-.01-.07-.14-.05-.13,.02,.1,.81,.19,1.62,.26,2.43,.04,.4,.07,.8,.1,1.19,.03,.36,0,.81,.16,1.13,.06,.12,.25,.07,.28-.04,.05-.2,.01-.39-.01-.59Z"/>
          </g>
        </g>
      </g>
      <g>
        <path class="cls-17" d="M92.5,266.89c-1.02-1.91-2.33-4.42-4.88-4.26-2.11,.13-3.06,2.28-3.51,4.06-1.39,5.5-1.49,11.31-1.76,16.95-.57,11.92-1.09,23.85-1.16,35.79-.02,3.31,0,6.62,.02,9.92,.03,3.37,.02,6.77,.24,10.13,.02,.32,.49,.31,.5-.01,.02-2.89-.08-5.77-.1-8.66-.01-2.82,.01-5.63,.06-8.45,.09-5.7,.25-11.41,.46-17.11,.21-5.67,.46-11.33,.7-17,.12-2.83,.24-5.66,.37-8.49,.12-2.74,.24-5.49,.56-8.22,.18-1.53,.4-3.06,.72-4.56,.23-1.07,.55-2.23,1.32-3.06,1.01-1.09,2.53-1.01,3.73-.27,1.24,.77,1.99,2.04,2.64,3.3,.04,.08,.15,0,.11-.07Z"/>
        <g>
          <path class="cls-8" d="M91.81,265.98s-2.1-7.42,2.54-3.71c7.73,6.17,8,19.6,8,19.6,0,0-13.74-7.98-15.45-13.25-2.55-7.84,4.9-2.65,4.9-2.65Z"/>
          <g>
            <path class="cls-17" d="M99.46,276.37c-.13-.21-.26-.4-.39-.61,.03-.2,0-.43,0-.63,0-.32,0-.64,0-.96,.01-.63,.04-1.25,.07-1.88,0-.09-.13-.08-.13,0-.03,.61-.06,1.23-.07,1.84,0,.31-.02,.62-.03,.92,0,.12-.02,.26-.03,.4-.54-.84-1.09-1.67-1.67-2.48-.17-.24-.34-.47-.51-.7-.13-.79-.05-1.63-.04-2.42,.01-.86,.02-1.72,.05-2.59,0-.09-.13-.08-.13,0-.03,.9-.07,1.79-.12,2.69-.03,.63-.09,1.28-.05,1.92-1.33-1.8-2.73-3.54-4.16-5.27-.05-.06-.15,.02-.1,.08,.88,1.12,1.73,2.26,2.56,3.42-1.62-.38-3.26-.59-4.9-.83-.08-.01-.12,.12-.03,.13,1.74,.26,3.45,.7,5.16,1.08,.01,0,.02,0,.03,0,.66,.93,1.31,1.86,1.96,2.79,.26,.38,.52,.77,.78,1.15-.02,0-.05,0-.07,0-.18-.03-.36-.05-.53-.07-.38-.05-.76-.08-1.14-.11-.79-.06-1.59-.1-2.38-.15-.08,0-.08,.13,0,.13,.78,.02,1.56,.08,2.34,.16,.41,.04,.82,.1,1.23,.15,.18,.02,.36,.04,.54,.06,.05,0,.11,.01,.16,.02,.44,.65,.88,1.3,1.32,1.95,.78,1.15,1.47,2.38,2.3,3.48,.05,.07,.14,0,.11-.07-.58-1.25-1.38-2.44-2.1-3.61Z"/>
            <path class="cls-17" d="M96.04,267.99c0-.29,0-.58,0-.87,0-.6,0-1.22,.07-1.82,.01-.1-.13-.11-.13-.01,0,.6-.07,1.2-.09,1.8-.01,.3-.01,.6-.02,.9,0,.14,0,.28,0,.42,0,.14-.02,.3,.03,.43,.02,.06,.1,.05,.11,0,.04-.13,.02-.27,.02-.4,0-.15,0-.3,0-.45Z"/>
            <path class="cls-17" d="M94.34,271.07c-.51-.09-1.03-.11-1.55-.16-.57-.05-1.13-.1-1.7-.17-.09-.01-.11,.12-.01,.13,1.08,.07,2.16,.26,3.25,.3,.06,0,.07-.09,.01-.1Z"/>
          </g>
        </g>
        <path class="cls-17" d="M98.66,271.11c.04,.06,.01,.22,.01,.29v.24c0,.17,0,.35,0,.52,0,.17,0,.35,0,.52,0,.14-.04,.33,.03,.45,0,.02,.04,.02,.05,0,.03-.07,.03-.14,.03-.22,0-.08,0-.16,0-.24,0-.17,0-.35,0-.52,0-.17,0-.35,0-.52v-.24c0-.07-.03-.23,.01-.29,.08-.12-.2-.12-.11,0Z"/>
      </g>
      <g>
        <path class="cls-17" d="M92.82,306.47c-2.89-2.17-5.49-5.29-9.37-5.44-3.21-.13-5.46,2.29-6.74,4.98-.68,1.42-1.14,2.92-1.57,4.43-.58,2.03-1.13,4.07-1.64,6.12-1.01,4.03-1.87,8.1-2.57,12.19-.39,2.28-.75,4.57-1.04,6.87-.29,2.32-.67,4.7-.67,7.03,0,.41,.63,.49,.72,.08,.39-1.92,.56-3.91,.84-5.85,.28-1.95,.58-3.9,.91-5.85,.66-3.89,1.42-7.77,2.3-11.62,.83-3.64,1.64-7.33,2.82-10.87,.84-2.54,2.19-5.5,4.93-6.41,4.17-1.39,7.96,2.14,11.01,4.43,.07,.05,.16-.04,.09-.1Z"/>
        <g>
          <path class="cls-8" d="M89.83,304.4s-2.66-7.61,1.19-9.1c5.77-2.24,20.89,14.79,17.93,40.87,0,0-11.68-6.43-20.3-13.67-8.62-7.24-10.83-16.69-7.03-19.13,3.8-2.44,8.21,1.03,8.21,1.03Z"/>
          <g>
            <path class="cls-17" d="M107.2,330.58c-.34-.92-.93-1.78-1.4-2.63-.49-.89-.99-1.78-1.51-2.66-1-1.72-2-3.44-3.03-5.14-.17-.28-.34-.55-.51-.82,.02-.1,.04-.2,.06-.31l.17-.75c.13-.57,.23-1.14,.33-1.71,.21-1.12,.4-2.25,.7-3.34,.02-.08-.11-.11-.13-.02-.24,1.12-.59,2.21-.92,3.3-.16,.54-.34,1.07-.48,1.62-.05,.19-.1,.37-.15,.56-1.24-2.03-2.5-4.06-3.87-6.02,.11-.26,.1-.54,.14-.84,.04-.38,.09-.76,.13-1.14,.1-.86,.2-1.72,.33-2.57,.25-1.68,.5-3.35,.91-5,.02-.08-.11-.11-.13-.02-.42,1.64-.87,3.28-1.18,4.95-.15,.82-.3,1.64-.41,2.46-.05,.41-.1,.83-.14,1.24-.01,.12-.03,.25-.05,.37-.42-.59-.84-1.18-1.28-1.76-1.33-1.75-2.72-3.47-4.11-5.17-.05-.07-.16,0-.11,.08,2.45,3,4.52,6.31,6.57,9.59,.38,.61,.76,1.23,1.14,1.84-.13-.02-.25-.03-.38-.05-.49-.06-.98-.09-1.47-.14-.98-.09-1.97-.18-2.95-.26-1.97-.16-3.94-.28-5.9-.49-.08,0-.11,.12-.02,.13,1.99,.23,3.97,.55,5.95,.83,.97,.14,1.95,.27,2.92,.39,.67,.09,1.52,.29,2.25,.23,.77,1.26,1.55,2.51,2.32,3.77-.17-.02-.35-.02-.52-.02-.33,0-.66,0-.98,0-.61,0-1.22,0-1.83,0-1.27,0-2.53,.03-3.8,.02-.09,0-.07,.13,.01,.13,1.28,.02,2.56,.08,3.85,.15,.61,.03,1.22,.07,1.82,.11,.3,.02,.61,.05,.91,.07,.27,.02,.55,.07,.8-.03,.66,1.07,1.32,2.13,1.97,3.2,.6,.99,1.21,1.97,1.84,2.94,.63,.98,1.21,2.1,1.98,2.97,.05,.06,.16,.02,.13-.07Z"/>
            <path class="cls-17" d="M101.64,309.5c-.09,.83-.32,1.67-.52,2.48-.21,.85-.46,1.68-.73,2.51-.04,.11,.12,.17,.16,.05,.26-.82,.49-1.65,.69-2.49,.2-.84,.33-1.69,.54-2.53,.02-.08-.12-.11-.13-.02Z"/>
            <path class="cls-17" d="M93.06,314.59c-.18-.18-.39-.2-.64-.24-.37-.05-.74-.1-1.1-.15-.68-.09-1.37-.17-2.05-.25-1.42-.17-2.85-.3-4.27-.48-.08-.01-.11,.12-.02,.13,1.34,.16,2.68,.37,4.02,.54,.66,.09,1.31,.18,1.97,.26,.32,.04,.63,.07,.95,.11,.35,.04,.76,.03,1.08,.19,.06,.03,.11-.05,.06-.1Z"/>
            <path class="cls-17" d="M101.62,326.06c-.67-.06-1.35-.08-2.02-.1-.34-.01-.68-.02-1.02-.03-.16,0-.33-.01-.49-.02-.21,0-.44,.01-.64-.04-.09-.02-.1,.15,0,.13,.19-.03,.41,0,.6,.02,.18,.01,.35,.02,.53,.03l1.02,.06c.67,.04,1.35,.08,2.02,.08,.08,0,.09-.14,0-.14Z"/>
            <path class="cls-17" d="M105.73,323.14c.08-.38,.15-.76,.22-1.15,.14-.75,.28-1.5,.41-2.26,.02-.08-.11-.11-.13-.02-.17,.73-.33,1.46-.5,2.2-.08,.37-.16,.73-.24,1.1-.04,.17-.07,.34-.11,.51-.04,.18-.09,.36-.06,.54,.01,.06,.1,.11,.15,.05,.18-.27,.19-.65,.25-.96Z"/>
          </g>
        </g>
      </g>
      <g>
        <g>
          <polygon class="cls-15" points="100.06 345.62 99.41 356.4 97.49 388.23 64.85 388.23 62.93 356.4 62.28 345.62 100.06 345.62"/>
          <polygon class="cls-18" points="100.06 345.62 99.41 356.4 62.93 356.4 62.28 345.62 100.06 345.62"/>
        </g>
        <rect class="cls-15" x="59.27" y="338" width="43.79" height="10.79"/>
      </g>
    </g>
  </g>
  <g id="Shadow">
    <ellipse class="cls-2" cx="250" cy="435.47" rx="180.13" ry="15.73"/>
  </g>
  <g id="Screens">
    <g>
      <g>
        <rect class="cls-7" x="161" y="55.88" width="168.83" height="168.48"/>
        <rect class="cls-18" x="161" y="55.88" width="168.94" height="10.18"/>
        <g>
          <path class="cls-12" d="M169.03,60.97c0,1.17-.95,2.12-2.12,2.12s-2.12-.95-2.12-2.12,.95-2.12,2.12-2.12,2.12,.95,2.12,2.12Z"/>
          <path class="cls-3" d="M177.67,60.97c0,1.17-.95,2.12-2.12,2.12s-2.12-.95-2.12-2.12,.95-2.12,2.12-2.12,2.12,.95,2.12,2.12Z"/>
          <path class="cls-5" d="M186.31,60.97c0,1.17-.95,2.12-2.12,2.12s-2.12-.95-2.12-2.12,.95-2.12,2.12-2.12,2.12,.95,2.12,2.12Z"/>
        </g>
        <rect class="cls-3" x="183.74" y="83.3" width="123.45" height="123.45"/>
        <g>
          <path class="cls-8" d="M245.39,186.55v-.96c23.67,0,42.92-19.26,42.92-42.92s-19.25-42.92-42.92-42.92-42.92,19.26-42.92,42.92h-.96c0-24.2,19.69-43.89,43.89-43.89s43.88,19.69,43.88,43.89-19.69,43.89-43.88,43.89Z"/>
          <g>
            <path class="cls-3" d="M204.34,142.67c0,1.3-1.05,2.36-2.36,2.36s-2.36-1.05-2.36-2.36,1.05-2.36,2.36-2.36,2.36,1.05,2.36,2.36Z"/>
            <path class="cls-8" d="M201.99,145.5c-1.56,0-2.84-1.27-2.84-2.84s1.27-2.84,2.84-2.84,2.84,1.27,2.84,2.84-1.27,2.84-2.84,2.84Zm0-4.71c-1.03,0-1.87,.84-1.87,1.87s.84,1.87,1.87,1.87,1.87-.84,1.87-1.87-.84-1.87-1.87-1.87Z"/>
          </g>
          <path class="cls-8" d="M232.21,133.61c0,2.83-2.29,5.12-5.12,5.12s-5.12-2.29-5.12-5.12,2.29-5.12,5.12-5.12,5.12,2.29,5.12,5.12Z"/>
          <circle class="cls-8" cx="263.69" cy="133.61" r="5.12"/>
          <g>
            <circle class="cls-3" cx="288.8" cy="142.67" r="2.36"/>
            <path class="cls-8" d="M288.8,145.5c-1.56,0-2.84-1.27-2.84-2.84s1.27-2.84,2.84-2.84,2.84,1.27,2.84,2.84-1.27,2.84-2.84,2.84Zm0-4.71c-1.03,0-1.87,.84-1.87,1.87s.84,1.87,1.87,1.87,1.87-.84,1.87-1.87-.84-1.87-1.87-1.87Z"/>
          </g>
          <g>
            <path class="cls-3" d="M247.75,99.26c0,1.3-1.05,2.36-2.36,2.36s-2.36-1.05-2.36-2.36,1.05-2.36,2.36-2.36,2.36,1.05,2.36,2.36Z"/>
            <path class="cls-8" d="M245.39,102.1c-1.56,0-2.84-1.27-2.84-2.84s1.27-2.84,2.84-2.84,2.84,1.27,2.84,2.84-1.27,2.84-2.84,2.84Zm0-4.71c-1.03,0-1.87,.84-1.87,1.87s.84,1.87,1.87,1.87,1.87-.84,1.87-1.87-.84-1.87-1.87-1.87Z"/>
          </g>
          <path class="cls-5" d="M247.75,186.05c0,1.3-1.05,2.36-2.36,2.36s-2.36-1.05-2.36-2.36,1.05-2.36,2.36-2.36,2.36,1.05,2.36,2.36Z"/>
          <g>
            <g>
              <path class="cls-17" d="M254.76,191.57s2.29,4.9,1.87,11.93l-4.38,2.14c-5.8-3.99-8.26-8.81-8.26-8.81,3.27-4.72,.64-10.41,.64-10.41l.45-.22,4.36,8.92c-.54,.44-.72,1.2-.4,1.86,.37,.76,1.29,1.07,2.05,.7,.76-.37,1.07-1.29,.7-2.05-.32-.66-1.03-.98-1.71-.82l-4.36-8.92,.45-.22s2.87,5.58,8.6,5.9Z"/>
              <rect class="cls-17" x="251.24" y="203.89" width="7.21" height="3.03" transform="translate(-64.3 132.69) rotate(-26.03)"/>
            </g>
            <g>
              <rect class="cls-17" x="262.38" y="203.29" width=".56" height="5.4"/>
              <rect class="cls-17" x="259.96" y="205.71" width="5.4" height=".56"/>
              <rect class="cls-17" x="259.96" y="205.71" width="5.4" height=".56" transform="translate(-68.72 246.06) rotate(-45)"/>
              <rect class="cls-17" x="262.38" y="203.29" width=".56" height="5.4" transform="translate(-68.72 246.06) rotate(-45)"/>
            </g>
            <path class="cls-17" d="M262.65,194.27c-4.25-.11-5.68-2.88-6.94-5.34-.7-1.36-1.36-2.64-2.42-3.26-3.4-1.98-6.61,.91-6.74,1.03l-.76-.82s3.95-3.58,8.07-1.18c1.35,.79,2.08,2.21,2.85,3.71,1.23,2.39,2.39,4.64,5.98,4.73l-.03,1.12Z"/>
          </g>
          <path class="cls-8" d="M255,132.45c0,5.31-4.3,9.61-9.61,9.61s-9.62-4.3-9.62-9.61h19.22Z"/>
        </g>
      </g>
      <g>
        <rect class="cls-15" x="116.11" y="91.3" width="29.44" height="110.72"/>
        <g>
          <rect class="cls-2" x="118.38" y="92.24" width=".24" height="2.57" transform="translate(-31.43 111.18) rotate(-45)"/>
          <rect class="cls-2" x="117.21" y="93.41" width="2.57" height=".24" transform="translate(-31.42 111.19) rotate(-45)"/>
        </g>
        <g>
          <g>
            <rect class="cls-2" x="142.38" y="93.22" width=".24" height="1.53" transform="translate(-24.71 128.33) rotate(-45.01)"/>
            <rect class="cls-2" x="141.73" y="92.96" width="1.53" height=".24" transform="translate(-24.08 128.02) rotate(-45)"/>
          </g>
          <g>
            <rect class="cls-2" x="143.57" y="93.22" width=".24" height="1.53" transform="translate(-24.37 129.13) rotate(-45)"/>
            <rect class="cls-2" x="142.93" y="92.96" width="1.53" height=".24" transform="translate(-23.73 128.86) rotate(-45)"/>
          </g>
        </g>
        <path class="cls-2" d="M124.24,109.72l-1.26-3.06-2.26,1.75v-9.82l6.87,6.94-2.87,.43,1.26,3.04-1.73,.72Zm-1.06-3.82l1.32,3.19,.84-.35-1.31-3.17,2.54-.38-5.38-5.43v7.67l1.98-1.54Z"/>
        <polygon class="cls-2" points="139.91 105.77 141.2 108.88 139.91 109.41 138.62 106.28 136.5 107.93 136.5 99.18 142.62 105.37 139.91 105.77"/>
        <g>
          <rect class="cls-2" x="119.16" y="121.48" width="9.72" height=".72" transform="translate(-48.31 144.81) rotate(-52.08)"/>
          <polygon class="cls-2" points="123.45 118.75 121.99 119.02 121.66 120.56 121.33 119.02 119.87 118.75 121.33 118.39 121.66 116.94 121.99 118.39 123.45 118.75"/>
          <polygon class="cls-2" points="126.69 116.31 125.83 116.47 125.64 117.38 125.45 116.47 124.59 116.31 125.45 116.1 125.64 115.25 125.84 116.1 126.69 116.31"/>
          <polygon class="cls-2" points="127.7 121.17 127.21 121.26 127.1 121.77 126.99 121.26 126.51 121.17 126.99 121.05 127.1 120.56 127.22 121.05 127.7 121.17"/>
        </g>
        <rect class="cls-2" x="133.36" y="148.93" width="9.72" height=".72" transform="translate(-64.49 166.59) rotate(-52.08)"/>
        <g>
          <polygon class="cls-2" points="139.91 123.19 141.2 126.3 139.91 126.83 138.62 123.7 136.5 125.35 136.5 116.6 142.62 122.79 139.91 123.19"/>
          <path class="cls-2" d="M135.9,122c-1.26,0-2.25-.44-2.59-1.1-.51-1-.12-3.1,3.01-4.81,2.49-1.36,4.97-.8,5.59,.18,.26,.42,.3,1.02,.1,1.67-.34,1.09-1.42,2.57-3.44,3.46h0c-.94,.41-1.86,.59-2.66,.59Zm3.48-6.24c-.84,0-1.84,.22-2.83,.76-2.81,1.53-3.21,3.37-2.81,4.17,.41,.79,2.36,1.29,4.63,.29h0c1.88-.83,2.89-2.22,3.18-3.17,.16-.52,.14-.97-.05-1.27-.28-.45-1.08-.77-2.12-.77Z"/>
          <path class="cls-2" d="M134.54,122.62c-.34,0-.68-.14-.92-.46h0c-.27-.36-.32-.75-.14-1.11,.21-.43,.72-.74,1.25-.75,.44,0,.8,.2,1,.56,.34,.64,.03,1.23-.44,1.53-.22,.14-.48,.22-.75,.22Zm-.53-.75c.27,.36,.72,.31,1.02,.12,.27-.17,.48-.5,.27-.89-.14-.26-.39-.32-.57-.31-.34,0-.69,.21-.82,.48-.09,.19-.06,.4,.09,.61h0Z"/>
          <path class="cls-2" d="M135.9,123.91l-.29-.39c.14-.11,.31-.27,.29-.43-.04-.28-.57-.58-.82-.68l.18-.45c.11,.04,1.04,.42,1.12,1.06,.04,.32-.12,.61-.48,.88Z"/>
        </g>
        <g>
          <path class="cls-2" d="M120.94,134.57s1.73-1.67,4.74-2.5l1.53,1.53c-.84,3.01-2.5,4.74-2.5,4.74-2.45-.69-4.46,1.23-4.46,1.23l-.16-.16,3.11-3.11c.26,.16,.61,.13,.84-.1,.26-.27,.26-.69,0-.96-.26-.27-.69-.27-.96,0-.23,.23-.26,.57-.1,.84l-3.11,3.11-.16-.16s1.93-2.01,1.23-4.46Z"/>
          <rect class="cls-2" x="125.13" y="131.87" width="3.2" height="1.35" transform="translate(122.62 315.87) rotate(-135)"/>
        </g>
        <rect class="cls-18" x="131.79" y="129.43" width="11.78" height="11.01"/>
        <g>
          <g>
            <path class="cls-2" d="M136.06,134.57s1.73-1.67,4.74-2.5l1.53,1.53c-.84,3.01-2.5,4.74-2.5,4.74-2.45-.69-4.46,1.23-4.46,1.23l-.16-.16,3.11-3.11c.26,.16,.61,.13,.84-.1,.26-.27,.26-.69,0-.96s-.69-.27-.96,0c-.23,.23-.26,.57-.1,.84l-3.11,3.11-.16-.16s1.93-2.01,1.23-4.46Z"/>
            <rect class="cls-2" x="140.25" y="131.87" width="3.2" height="1.35" transform="translate(148.43 326.56) rotate(-135)"/>
          </g>
          <path class="cls-2" d="M134.99,139.42c-.72,0-1.32-.3-1.64-.81-.34-.54-.55-1.57,.36-3.47,.32-.67,.37-1.23,.14-1.64-.4-.71-1.48-.84-1.49-.84l.05-.48c.05,0,1.34,.16,1.86,1.09,.31,.56,.27,1.26-.13,2.09-.81,1.69-.66,2.57-.39,3,.32,.51,.91,.59,1.24,.59v.48Z"/>
        </g>
        <path class="cls-2" d="M126.9,144.82v1.96h-.65c-.15,0-.24-.08-.28-.22-.01-.07-.03-.22-.06-.47h-1.69v5.89c.14,.02,.25,.05,.33,.06,.08,.01,.14,.03,.17,.03s.06,.01,.07,.01c.2,.05,.3,.16,.3,.36v.68h-3.29v-.68c0-.2,.09-.31,.29-.36,.01,0,.03-.01,.07-.01s.09-.02,.17-.03c.08-.01,.19-.03,.33-.06v-5.9h-1.69c-.02,.25-.05,.41-.06,.48-.03,.14-.12,.22-.26,.22h-.67v-1.96h6.9Z"/>
        <path class="cls-2" d="M128.06,169.13h-8.43v-8.43h8.43v8.43Zm-7.71-.72h6.98v-6.98h-6.98v6.98Z"/>
        <g>
          <path class="cls-2" d="M141.35,194.25h-7.28v-6.51h7.28v6.51Zm-6.55-.72h5.83v-5.07h-5.83v5.07Z"/>
          <path class="cls-2" d="M137.35,196.18h-5.07v-4.56h5.07v4.56Zm-4.35-.72h3.63v-3.12h-3.63v3.12Z"/>
          <rect class="cls-2" x="137.7" y="189.93" width="2.59" height=".48" transform="translate(-93.76 153.98) rotate(-45)"/>
          <polygon class="cls-2" points="140.26 190.34 139.78 190.34 139.78 189.38 138.86 189.38 138.86 188.9 140.26 188.9 140.26 190.34"/>
        </g>
        <g>
          <path class="cls-2" d="M141.75,169.13h-8.43v-8.43h3.94c.21-1.58,1.54-2.77,3.17-2.77,1.76,0,3.2,1.43,3.2,3.2,0,1.25-.74,2.39-1.87,2.91v5.09Zm-7.71-.72h6.99v-4.86l.24-.09c.98-.36,1.63-1.3,1.63-2.33,0-1.36-1.11-2.47-2.47-2.47s-2.44,1.06-2.47,2.42v.35h-3.91v6.99Z"/>
          <path class="cls-2" d="M138.65,163.06c-1.26-.21-1.43,1.11-1.45,1.63-.02,.52-.64,1.04-1.02,1.11,0,0,1.95,.54,2.93-.46,.92-.94,.38-2.15-.46-2.29Z"/>
          <path class="cls-2" d="M142.95,159.02l-3.15,4.45c-.2-.39-.56-.68-.98-.75-.08,0-.15-.02-.22-.02l2.61-3.69h1.73Z"/>
        </g>
        <g>
          <rect class="cls-2" x="121.77" y="176.23" width="3.13" height="6.38" transform="translate(163 -34.66) rotate(45)"/>
          <rect class="cls-2" x="124.88" y="175.64" width="3.13" height="1.35" transform="translate(161.71 -37.77) rotate(45)"/>
          <polygon class="cls-2" points="119.78 182.98 119.96 180.63 120.44 180.66 120.3 182.46 122.1 182.33 122.14 182.81 119.78 182.98"/>
        </g>
        <g>
          <g>
            <path class="cls-2" d="M140.17,179.23c-.94,0-1.7-.76-1.7-1.7s.76-1.7,1.7-1.7,1.7,.76,1.7,1.7-.76,1.7-1.7,1.7Zm0-2.68c-.54,0-.98,.44-.98,.98s.44,.98,.98,.98,.98-.44,.98-.98-.44-.98-.98-.98Z"/>
            <path class="cls-2" d="M132.36,181.89l6.66-3.67,1.14,.65s-4.85,2.97-5.71,3.28-2.1-.26-2.1-.26Z"/>
          </g>
          <g>
            <path class="cls-2" d="M140.14,183.01c-.94,0-1.7-.76-1.7-1.7s.76-1.7,1.7-1.7,1.7,.76,1.7,1.7-.76,1.7-1.7,1.7Zm0-2.68c-.54,0-.98,.44-.98,.98s.44,.98,.98,.98,.98-.44,.98-.98-.44-.98-.98-.98Z"/>
            <path class="cls-2" d="M132.33,176.96l6.66,3.67,1.14-.65s-4.85-2.97-5.71-3.28c-.86-.31-2.1,.26-2.1,.26Z"/>
          </g>
        </g>
        <g>
          <path class="cls-2" d="M119.68,195.08v-6.25l3.99,3.12-3.99,3.12Zm.72-4.77v3.28l2.09-1.64-2.09-1.64Z"/>
          <polygon class="cls-2" points="128.01 188.93 128.01 194.99 124.15 191.96 128.01 188.93"/>
          <path class="cls-2" d="M124.05,195.28h-.24v-.96h.24v.96Zm0-1.92h-.24v-.96h.24v.96Zm0-1.92h-.24v-.96h.24v.96Zm0-1.92h-.24v-.96h.24v.96Z"/>
        </g>
      </g>
      <g>
        <rect class="cls-15" x="333.98" y="63.87" width="60.64" height="35.98"/>
        <g>
          <polygon class="cls-2" points="337.19 67.09 335.37 65.27 335.54 65.1 337.36 66.92 337.19 67.09"/>
          <polygon class="cls-2" points="335.54 67.09 335.37 66.92 337.19 65.1 337.36 65.27 335.54 67.09"/>
        </g>
        <g>
          <g>
            <rect class="cls-2" x="391.3" y="65.79" width=".24" height="1.53" transform="translate(67.54 296.21) rotate(-44.99)"/>
            <rect class="cls-2" x="390.66" y="65.53" width="1.53" height=".24" transform="translate(68.22 295.99) rotate(-45)"/>
          </g>
          <g>
            <rect class="cls-2" x="392.49" y="65.79" width=".24" height="1.53" transform="translate(67.89 297.05) rotate(-44.99)"/>
            <rect class="cls-2" x="391.85" y="65.53" width="1.53" height=".24" transform="translate(68.64 296.94) rotate(-45.02)"/>
          </g>
        </g>
        <rect class="cls-2" x="344.69" y="69.59" width=".24" height="23.64"/>
        <rect class="cls-2" x="353.41" y="69.59" width=".24" height="23.64"/>
        <g>
          <path class="cls-2" d="M340.38,71.77c-1.75,0-2.53,1.43-2.53,1.43,0,0,.85,1.44,2.53,1.44s2.56-1.44,2.56-1.44c0,0-.82-1.43-2.56-1.43Zm0,2.61c-.65,0-1.18-.52-1.18-1.17s.52-1.18,1.18-1.18,1.17,.52,1.17,1.18-.52,1.17-1.17,1.17Z"/>
          <path class="cls-2" d="M341.28,73.21c0,.5-.41,.91-.91,.91s-.91-.41-.91-.91,.41-.91,.91-.91,.91,.41,.91,.91Z"/>
        </g>
        <g>
          <path class="cls-2" d="M340.38,80c-1.75,0-2.53,1.43-2.53,1.43,0,0,.85,1.44,2.53,1.44s2.56-1.44,2.56-1.44c0,0-.82-1.43-2.56-1.43Zm0,2.61c-.65,0-1.18-.52-1.18-1.17s.52-1.18,1.18-1.18,1.17,.52,1.17,1.18-.52,1.17-1.17,1.17Z"/>
          <path class="cls-2" d="M341.28,81.43c0,.5-.41,.91-.91,.91s-.91-.41-.91-.91,.41-.91,.91-.91,.91,.41,.91,.91Z"/>
        </g>
        <g>
          <path class="cls-2" d="M340.38,87.85c-1.75,0-2.53,1.43-2.53,1.43,0,0,.85,1.44,2.53,1.44s2.56-1.44,2.56-1.44c0,0-.82-1.43-2.56-1.43Zm0,2.61c-.65,0-1.18-.52-1.18-1.17s.52-1.18,1.18-1.18,1.17,.52,1.17,1.18-.52,1.17-1.17,1.17Z"/>
          <path class="cls-2" d="M341.28,89.29c0,.5-.41,.91-.91,.91s-.91-.41-.91-.91,.41-.91,.91-.91,.91,.41,.91,.91Z"/>
        </g>
        <rect class="cls-2" x="336.48" y="77.37" width="55.63" height=".24"/>
        <rect class="cls-2" x="336.48" y="85.26" width="55.63" height=".24"/>
        <g>
          <path class="cls-2" d="M360.11,74.92h-.01c-.07,0-.14-.06-.14-.14v-3.74c0-.07,.06-.14,.14-.14,.08,0,.14,.06,.14,.14v3.6h1.92c.08,0,.14,.06,.14,.14,0,.07-.06,.14-.14,.14h-2.06Z"/>
          <path class="cls-2" d="M365.49,72.24v2.54c0,.07-.06,.14-.14,.14s-.14-.06-.14-.14v-.42c-.24,.33-.63,.56-1.06,.56-.74,0-1.33-.64-1.33-1.41s.59-1.41,1.33-1.41c.43,0,.81,.22,1.06,.55v-.41c0-.08,.06-.14,.14-.14s.14,.06,.14,.14Zm-.28,1.27c0-.63-.48-1.14-1.06-1.14s-1.06,.51-1.06,1.14,.48,1.13,1.06,1.13,1.06-.5,1.06-1.13Z"/>
          <path class="cls-2" d="M366.63,72.24c0-.07,.06-.13,.13-.13,.08,0,.14,.06,.14,.13v1.53c0,.48,.38,.87,.86,.87s.87-.38,.87-.87v-1.53s0-.05,.02-.07c0,0,0-.01,0-.02,0,0,0,0,.01,0,.01-.02,.03-.03,.05-.03h.01s.01,0,.02,0h.03s.05,.02,.07,.03c.01,.01,.03,.03,.03,.05,.01,.02,.02,.04,.02,.06v2.46c0,.73-.6,1.32-1.34,1.32-.21,0-.4-.05-.58-.13-.06-.04-.09-.12-.06-.18,.03-.07,.11-.09,.18-.07,.14,.07,.3,.11,.46,.11,.59,0,1.06-.46,1.06-1.05v-.18c-.21,.24-.52,.4-.87,.4-.63,0-1.14-.52-1.14-1.15v-1.53Z"/>
          <path class="cls-2" d="M369.86,73.52c0-.78,.61-1.41,1.37-1.41s1.3,.57,1.36,1.31h0v.02c0,.07-.06,.13-.14,.13h-2.31c.03,.61,.51,1.08,1.09,1.08,.37,0,.72-.2,.91-.51,.04-.07,.13-.08,.18-.05,.06,.05,.09,.13,.05,.2-.24,.38-.66,.64-1.14,.64-.76,0-1.37-.63-1.37-1.4Zm.29-.22h2.13c-.09-.53-.54-.91-1.06-.91s-.97,.38-1.07,.91Z"/>
          <path class="cls-2" d="M373.44,72.25c0-.08,.06-.14,.14-.14,.07,0,.13,.06,.13,.14v.62s.02-.05,.04-.07c.21-.33,.59-.69,1.13-.69,.07,0,.14,.06,.14,.14,0,.07-.06,.14-.14,.14-.37,0-.62,.21-.82,.46-.19,.25-.3,.54-.34,.65-.01,.02-.01,.03-.01,.05v1.23c0,.08-.06,.14-.13,.14-.08,0-.14-.06-.14-.14v-2.53Z"/>
          <path class="cls-2" d="M378.12,71.31l-.57,.33s-.05,.02-.07,.02c-.05,0-.1-.03-.12-.07-.04-.07-.02-.15,.05-.19l.78-.47c.06-.03,.16-.01,.19,.05,.02,.03,.02,.07,.02,.1v3.69c0,.07-.06,.14-.14,.14-.07,0-.14-.06-.14-.14v-3.47Z"/>
        </g>
        <g>
          <path class="cls-2" d="M360.11,83.2h-.01c-.07,0-.14-.06-.14-.14v-3.74c0-.07,.06-.14,.14-.14,.08,0,.14,.06,.14,.14v3.6h1.92c.08,0,.14,.06,.14,.14,0,.07-.06,.14-.14,.14h-2.06Z"/>
          <path class="cls-2" d="M365.49,80.52v2.54c0,.07-.06,.14-.14,.14s-.14-.06-.14-.14v-.42c-.24,.33-.63,.56-1.06,.56-.74,0-1.33-.64-1.33-1.41s.59-1.41,1.33-1.41c.43,0,.81,.22,1.06,.55v-.41c0-.08,.06-.14,.14-.14s.14,.06,.14,.14Zm-.28,1.27c0-.63-.48-1.14-1.06-1.14s-1.06,.51-1.06,1.14,.48,1.13,1.06,1.13,1.06-.5,1.06-1.13Z"/>
          <path class="cls-2" d="M366.63,80.52c0-.07,.06-.13,.13-.13,.08,0,.14,.06,.14,.13v1.53c0,.48,.38,.87,.86,.87s.87-.38,.87-.87v-1.53s0-.05,.02-.07c0,0,0-.01,0-.02,0,0,0,0,.01,0,.01-.02,.03-.03,.05-.03h.01s.01,0,.02,0h.03s.05,.02,.07,.03c.01,.01,.03,.03,.03,.05,.01,.02,.02,.04,.02,.06v2.46c0,.73-.6,1.32-1.34,1.32-.21,0-.4-.05-.58-.13-.06-.04-.09-.12-.06-.18,.03-.07,.11-.09,.18-.07,.14,.07,.3,.11,.46,.11,.59,0,1.06-.46,1.06-1.05v-.18c-.21,.24-.52,.4-.87,.4-.63,0-1.14-.52-1.14-1.15v-1.53Z"/>
          <path class="cls-2" d="M369.86,81.8c0-.78,.61-1.41,1.37-1.41s1.3,.57,1.36,1.31h0v.02c0,.07-.06,.13-.14,.13h-2.31c.03,.61,.51,1.08,1.09,1.08,.37,0,.72-.2,.91-.51,.04-.07,.13-.08,.18-.05,.06,.05,.09,.13,.05,.2-.24,.38-.66,.64-1.14,.64-.76,0-1.37-.63-1.37-1.4Zm.29-.22h2.13c-.09-.53-.54-.91-1.06-.91s-.97,.38-1.07,.91Z"/>
          <path class="cls-2" d="M373.44,80.53c0-.08,.06-.14,.14-.14,.07,0,.13,.06,.13,.14v.62s.02-.05,.04-.07c.21-.33,.59-.69,1.13-.69,.07,0,.14,.06,.14,.14,0,.07-.06,.14-.14,.14-.37,0-.62,.21-.82,.46-.19,.25-.3,.54-.34,.65-.01,.02-.01,.03-.01,.05v1.23c0,.08-.06,.14-.13,.14-.08,0-.14-.06-.14-.14v-2.53Z"/>
          <path class="cls-2" d="M377.46,82.95l1.88-1.69c.22-.21,.34-.48,.34-.77,0-.25-.09-.49-.27-.69-.2-.22-.48-.34-.76-.34-.25,0-.5,.09-.7,.26l-.2,.18c-.06,.06-.15,.05-.19,0-.06-.06-.05-.15,0-.2l.2-.18c.25-.22,.57-.34,.89-.34,.35,0,.71,.14,.96,.43,.23,.25,.34,.57,.34,.88,0,.36-.14,.71-.43,.98l-1.61,1.45h1.9c.07,0,.14,.06,.14,.14,0,.07-.06,.14-.14,.14h-2.26s-.08-.01-.1-.04c-.05-.06-.05-.15,0-.21Z"/>
        </g>
        <g>
          <path class="cls-2" d="M360.11,91.48h-.01c-.07,0-.14-.06-.14-.14v-3.74c0-.07,.06-.14,.14-.14,.08,0,.14,.06,.14,.14v3.6h1.92c.08,0,.14,.06,.14,.14,0,.07-.06,.14-.14,.14h-2.06Z"/>
          <path class="cls-2" d="M365.49,88.8v2.54c0,.07-.06,.14-.14,.14s-.14-.06-.14-.14v-.42c-.24,.33-.63,.56-1.06,.56-.74,0-1.33-.64-1.33-1.41s.59-1.41,1.33-1.41c.43,0,.81,.22,1.06,.55v-.41c0-.08,.06-.14,.14-.14s.14,.06,.14,.14Zm-.28,1.27c0-.63-.48-1.14-1.06-1.14s-1.06,.51-1.06,1.14,.48,1.13,1.06,1.13,1.06-.5,1.06-1.13Z"/>
          <path class="cls-2" d="M366.63,88.8c0-.07,.06-.13,.13-.13,.08,0,.14,.06,.14,.13v1.53c0,.48,.38,.87,.86,.87s.87-.38,.87-.87v-1.53s0-.05,.02-.07c0,0,0-.01,0-.02,0,0,0,0,.01,0,.01-.02,.03-.03,.05-.03h.01s.01,0,.02,0h.03s.05,.02,.07,.03c.01,.01,.03,.03,.03,.05,.01,.02,.02,.04,.02,.06v2.46c0,.73-.6,1.32-1.34,1.32-.21,0-.4-.05-.58-.13-.06-.04-.09-.12-.06-.18,.03-.07,.11-.09,.18-.07,.14,.07,.3,.11,.46,.11,.59,0,1.06-.46,1.06-1.05v-.18c-.21,.24-.52,.4-.87,.4-.63,0-1.14-.52-1.14-1.15v-1.53Z"/>
          <path class="cls-2" d="M369.86,90.08c0-.78,.61-1.41,1.37-1.41s1.3,.57,1.36,1.31h0v.02c0,.07-.06,.13-.14,.13h-2.31c.03,.61,.51,1.08,1.09,1.08,.37,0,.72-.2,.91-.51,.04-.07,.13-.08,.18-.05,.06,.05,.09,.13,.05,.2-.24,.38-.66,.64-1.14,.64-.76,0-1.37-.63-1.37-1.4Zm.29-.22h2.13c-.09-.53-.54-.91-1.06-.91s-.97,.38-1.07,.91Z"/>
          <path class="cls-2" d="M373.44,88.81c0-.08,.06-.14,.14-.14,.07,0,.13,.06,.13,.14v.62s.02-.05,.04-.07c.21-.33,.59-.69,1.13-.69,.07,0,.14,.06,.14,.14,0,.07-.06,.14-.14,.14-.37,0-.62,.21-.82,.46-.19,.25-.3,.54-.34,.65-.01,.02-.01,.03-.01,.05v1.23c0,.08-.06,.14-.13,.14-.08,0-.14-.06-.14-.14v-2.53Z"/>
          <path class="cls-2" d="M379.89,87.71l-1.04,1.07c.25,.05,.49,.17,.69,.37,.26,.26,.4,.61,.4,.96s-.13,.7-.4,.96c-.26,.26-.61,.4-.96,.4s-.69-.13-.96-.4c-.06-.05-.06-.14,0-.2,.05-.06,.14-.06,.2,0,.21,.21,.48,.31,.76,.31s.55-.1,.76-.31c.21-.21,.32-.49,.32-.76s-.1-.55-.32-.76c-.21-.21-.48-.32-.76-.32-.05,0-.09-.02-.11-.06h0c-.06-.06-.06-.15,0-.21l1-1.03h-1.54c-.08,0-.14-.06-.14-.14s.06-.14,.14-.14h1.88c.08,0,.14,.06,.14,.14,0,.02,0,.05-.02,.06,0,.02-.02,.03-.03,.05Z"/>
        </g>
        <rect class="cls-3" x="354.25" y="78.02" width="1.8" height="6.83"/>
        <rect class="cls-18" x="354.25" y="85.88" width="1.8" height="6.83"/>
        <rect class="cls-8" x="354.25" y="69.8" width="1.8" height="6.83"/>
        <rect class="cls-2" x="336.48" y="96.94" width="10.57" height=".24"/>
        <g>
          <rect class="cls-2" x="347.36" y="72.79" width="3.66" height="3.08"/>
          <path class="cls-2" d="M350.58,73.13h-.43v-.81c0-.89-.31-1.34-.93-1.34-1.01,0-1.02,1.19-1.02,1.24v.91h-.43v-.91c0-.8,.45-1.67,1.44-1.67,.88,0,1.36,.63,1.36,1.77v.81Z"/>
        </g>
        <path class="cls-2" d="M387.24,75.08c-1.03,0-1.87-.84-1.87-1.87s.84-1.87,1.87-1.87,1.87,.84,1.87,1.87-.84,1.87-1.87,1.87Zm0-3.5c-.9,0-1.63,.73-1.63,1.63s.73,1.63,1.63,1.63,1.63-.73,1.63-1.63-.73-1.63-1.63-1.63Z"/>
        <path class="cls-2" d="M387.24,83.3c-1.03,0-1.87-.84-1.87-1.87s.84-1.87,1.87-1.87,1.87,.84,1.87,1.87-.84,1.87-1.87,1.87Zm0-3.5c-.9,0-1.63,.73-1.63,1.63s.73,1.63,1.63,1.63,1.63-.73,1.63-1.63-.73-1.63-1.63-1.63Z"/>
        <path class="cls-2" d="M387.24,91.53c-1.03,0-1.87-.84-1.87-1.87s.84-1.87,1.87-1.87,1.87,.84,1.87,1.87-.84,1.87-1.87,1.87Zm0-3.5c-.9,0-1.63,.73-1.63,1.63s.73,1.63,1.63,1.63,1.63-.73,1.63-1.63-.73-1.63-1.63-1.63Z"/>
      </g>
    </g>
  </g>
  <g id="Character">
    <g>
      <g>
        <polygon class="cls-12" points="281.72 311.43 279.14 326.94 261.62 421.55 258.79 421.55 271.53 326.94 273.42 311.43 281.72 311.43"/>
        <polygon class="cls-7" points="273.42 311.43 281.72 311.43 279.14 326.94 271.53 326.94 273.42 311.43"/>
      </g>
      <g>
        <polygon class="cls-12" points="336.74 421.55 333.91 421.55 316.39 326.94 313.81 311.43 322.11 311.43 324 326.94 336.74 421.55"/>
        <polygon class="cls-7" points="322.11 311.43 324 326.94 316.39 326.94 313.81 311.43 322.11 311.43"/>
      </g>
      <g>
        <polygon class="cls-12" points="389.28 421.55 386.46 421.55 368.94 326.94 366.35 311.43 374.66 311.43 376.54 326.94 389.28 421.55"/>
        <polygon class="cls-7" points="376.54 326.94 368.94 326.94 366.35 311.43 374.66 311.43 376.54 326.94"/>
      </g>
      <polygon class="cls-12" points="384.8 318.72 256.43 318.72 256.43 305.19 304.49 305.19 320.64 191.22 379.91 191.22 384.8 318.72"/>
      <polygon class="cls-14" points="377.33 305.19 256.43 305.19 256.43 318.72 377.81 318.72 377.33 305.19"/>
      <polygon class="cls-14" points="384.8 318.72 377.81 318.72 373.25 191.22 379.91 191.22 384.8 318.72"/>
    </g>
    <g>
      <g>
        <g>
          <g>
            <path class="cls-13" d="M254.22,439.24c2.49,.23,70.15-15.96,72.28-18.15,.26-.24-1.08-6.39-3.04-14.78l-.04-.16c-1.23-5.32-20.99-48.31-20.99-48.31l-43.86,12.28,19.97,39.89s-8.25,5.97-15.32,11.64c0,.01-.02,.01-.01,.02-4.37,3.48-8.13,6.61-8.93,7.62-2.07,2.64-2.54,9.75-.06,9.97Z"/>
            <path class="cls-3" d="M254.22,439.24c2.48,.24,70.14-15.96,72.28-18.15,.26-.25-1.08-6.39-3.04-14.78l-.04-.16c-.45-1.98-3.49-9.21-7.12-17.49-7.22,1.95-33.09,8.97-42.49,11.88l4.73,9.45s-8.25,5.97-15.32,11.64c0,0,0,0,0,.02-4.37,3.48-8.14,6.61-8.93,7.62-2.07,2.65-2.55,9.76-.06,9.97Z"/>
            <g>
              <path class="cls-8" d="M254,439.56c2.56,.22,70.27-16.16,72.46-18.41,.83-.85-.68-11.54-4.39-22.86l-43.64,10.61s-22.28,17.67-24.41,20.4c-2.12,2.73-2.57,10.04-.01,10.26Z"/>
              <g>
                <g>
                  <path class="cls-18" d="M254.31,436.62c11.28-3.02,57.08-14.16,68.46-16.29,.09-.02,.11,.04,.02,.07-11.12,3.24-57,14-68.43,16.4-.24,.05-.28-.12-.04-.19Z"/>
                  <path class="cls-18" d="M257.77,425.82c2.67-.76,5.61-.12,7.46,1.13,1.78,1.2,3.51,3.07,4,5.45,.01,.07-.11,.1-.14,.03-1.72-4.29-6.71-7.21-11.29-6.47-.09,.01-.13-.12-.03-.14Z"/>
                  <path class="cls-18" d="M275.13,410.9c4.53-1.16,10.18-.83,13.9,2.2,.14,.12-.02,.32-.18,.28-4.62-1.12-8.9-1.76-13.67-1.91-.34-.01-.38-.49-.06-.58Z"/>
                  <path class="cls-18" d="M271.95,413.12c4.53-1.16,10.18-.83,13.91,2.2,.14,.12-.03,.32-.18,.28-4.62-1.12-8.9-1.76-13.67-1.91-.34-.01-.38-.49-.06-.58Z"/>
                  <path class="cls-18" d="M268.78,415.33c4.53-1.16,10.18-.83,13.9,2.2,.14,.12-.03,.32-.18,.28-4.62-1.12-8.9-1.76-13.67-1.91-.34-.01-.38-.49-.06-.58Z"/>
                  <path class="cls-18" d="M265.6,417.55c4.53-1.16,10.18-.83,13.9,2.2,.14,.12-.02,.32-.18,.28-4.62-1.12-8.9-1.76-13.67-1.91-.34-.01-.38-.49-.06-.58Z"/>
                  <path class="cls-18" d="M317.28,410.25c5.1-1.22,7,6.71,1.89,7.93-5.1,1.22-7-6.71-1.89-7.93Z"/>
                </g>
                <path class="cls-18" d="M269.26,406.54c3.22,2.57,7.43,3.66,11.21,5.11,.39,.15,.71-.22,.73-.56,.08-.01,.14-.07,.11-.16-1.2-3.85-3.87-7.97-6.94-10.62-1.9-1.64-5.24-2.8-7.08-.34-1.74,2.33,.09,5.07,1.97,6.57Zm-1.12-3.71c-.74-5.05,4.63-2.33,5.98-1.07,.87,.81,1.65,1.74,2.4,2.66,1.57,1.93,2.83,4.05,4.19,6.11-1.81-.83-3.68-1.49-5.52-2.26-2.19-.91-6.65-2.66-7.06-5.45Z"/>
                <path class="cls-18" d="M296.74,404.12c-1.07-2.88-4.61-2.7-6.89-1.66-3.69,1.68-7.4,4.88-9.64,8.25-.05,.08,0,.16,.06,.19-.08,.34,.12,.78,.54,.75,4.03-.34,8.39-.2,12.19-1.76,2.22-.91,4.75-3.03,3.74-5.75Zm-9.92,5.75c-1.98,.21-3.96,.33-5.93,.62,1.88-1.6,3.69-3.28,5.74-4.69,.98-.67,1.99-1.35,3.05-1.88,1.65-.83,7.57-1.93,5.44,2.71-1.17,2.56-5.94,2.99-8.3,3.25Z"/>
              </g>
            </g>
          </g>
          <g>
            <path class="cls-18" d="M273.59,406.35l46.99-14.09s-38.73-80.71-37.51-84.82c.82-2.74,58.88-2.93,75.9-18.21,17.61-15.82,3.9-46.88,3.9-46.88l-48.82-.25s.84,10.19-1.03,11.77c-1.23,1.06-67.98,6.93-80.76,31.47-11.6,22.28,41.33,121.01,41.33,121.01Z"/>
            <path class="cls-18" d="M283.06,307.44c-.21,.69,.73,3.59,2.45,7.93l-35.09,43.11c-12.51-28.53-24.28-61.42-18.17-73.14,12.79-24.54,79.53-30.42,80.77-31.47,1.85-1.58,1.02-11.78,1.02-11.78l30.99,.16-51.5,63.26c-6.2,.68-10.26,1.22-10.47,1.93Z"/>
            <g>
              <path class="cls-15" d="M272.42,396.41c1.22-.61,2.55-.99,3.83-1.42,1.35-.46,2.71-.93,4.07-1.36,2.68-.86,5.37-1.69,8.08-2.45,5.46-1.54,10.92-3.06,16.42-4.45,2.86-.73,9-2.32,9.38-2.26,.18,.03,.22,.33,.06,.39-5.31,1.9-10.7,3.53-16.1,5.17-5.38,1.64-10.78,3.26-16.23,4.64-1.51,.38-3.03,.72-4.55,1.08-1.59,.38-3.19,.89-4.83,1.03-.16,.01-.31-.29-.14-.37Z"/>
              <path class="cls-15" d="M360.24,251.64c-.15-1.63-.33-3.26-.52-4.88-.02-.19-.32-.19-.3,0,.65,6.6,1.32,13.36,.1,19.94-1.14,6.15-4.15,11.54-8.72,15.8-9.69,9.03-23.23,11.69-35.85,13.84-7.23,1.23-14.5,2.18-21.8,2.89-3.57,.35-7.15,.64-10.74,.86-3.55,.22-7.11,.26-10.66,.45-1.12,.06-2.12,.58-1.95,1.86,.11,.78,.54,1.53,.85,2.24,.38,.86,.76,1.73,1.14,2.59,1.43,3.22,2.86,6.44,4.3,9.66,2.97,6.63,5.99,13.24,9.04,19.83,6.07,13.09,12.36,26.07,18.88,38.94,.81,1.6,1.62,3.19,2.43,4.79,.05,.1,.2,0,.15-.09-6.23-13.03-12.39-26.1-18.46-39.21-3.01-6.51-6.03-13.01-9.01-19.53-1.49-3.26-2.97-6.52-4.44-9.79-.74-1.63-1.47-3.27-2.2-4.9-.37-.82-.73-1.64-1.1-2.45-.3-.68-1.41-2.31-.65-2.95,.51-.42,1.57-.28,2.18-.3,.94-.03,1.89-.06,2.83-.09,1.79-.06,3.59-.13,5.38-.22,3.63-.18,7.26-.43,10.88-.74,7.1-.61,14.17-1.51,21.2-2.65,12.54-2.02,26.18-4.29,36.21-12.71,4.43-3.71,7.91-8.49,9.63-14.04,1.91-6.17,1.73-12.77,1.14-19.13Z"/>
            </g>
          </g>
        </g>
        <g>
          <g>
            <path class="cls-13" d="M150.98,377.38c1.77,1.77,64.21,32.45,67.25,32.11,.36-.02,3.25-5.61,7.09-13.32l.08-.15c2.45-4.88,24.66-45.9,24.66-45.9l-38.85-19.67-22.83,39.93s-10.16-.66-19.22-.81c-.01,0-.02,0-.03,0-5.58-.11-10.48-.1-11.74,.17-3.28,.72-8.18,5.89-6.41,7.64Z"/>
            <path class="cls-3" d="M150.98,377.38c1.77,1.77,64.21,32.45,67.26,32.12,.35-.02,3.25-5.61,7.08-13.32l.08-.15c.17-.34,.35-.69,.53-1.03,.12-.25,.25-.5,.39-.74,.19-.36,.38-.73,.58-1.1,1.69-3.21,4.47-8.4,7.53-14.08l-39.61-19.97-6.44,11.26s-10.16-.66-19.22-.81c-.01,0-.02,0-.03,0-5.58-.1-10.48-.1-11.73,.17-3.28,.72-8.19,5.89-6.41,7.64Z"/>
            <g>
              <path class="cls-8" d="M150.6,377.49c1.83,1.8,64.43,32.37,67.55,32.03,1.19-.12,6.84-9.32,11.19-20.41l-40.38-19.66s-28.43-.6-31.81,.15c-3.37,.75-8.38,6.1-6.55,7.89Z"/>
              <g>
                <g>
                  <path class="cls-18" d="M152.72,375.42c10.62,4.87,52.99,25.5,63.12,31.12,.08,.05,.05,.1-.03,.07-10.63-4.59-52.84-25.57-63.17-31.01-.22-.11-.14-.27,.08-.17Z"/>
                  <path class="cls-18" d="M162.28,369.31c2.54,1.11,4.39,3.48,5.03,5.63,.61,2.06,.75,4.61-.39,6.75-.03,.06-.15,0-.13-.06,1.41-4.4-.57-9.83-4.57-12.18-.08-.05-.02-.17,.06-.13Z"/>
                  <path class="cls-18" d="M185.16,368.89c4.23,1.99,8.37,5.85,9.31,10.56,.04,.18-.22,.23-.32,.11-2.84-3.81-5.74-7.03-9.31-10.19-.25-.22,.02-.62,.32-.48Z"/>
                  <path class="cls-18" d="M181.3,368.57c4.23,1.99,8.37,5.85,9.31,10.56,.04,.18-.22,.23-.32,.11-2.84-3.81-5.74-7.03-9.31-10.19-.25-.22,.02-.62,.32-.48Z"/>
                  <path class="cls-18" d="M177.44,368.25c4.23,1.99,8.37,5.85,9.31,10.56,.04,.18-.22,.23-.32,.11-2.84-3.81-5.74-7.03-9.31-10.19-.25-.22,.02-.62,.32-.48Z"/>
                  <path class="cls-18" d="M173.58,367.93c4.23,1.99,8.37,5.85,9.31,10.56,.04,.18-.22,.23-.32,.11-2.84-3.81-5.74-7.03-9.31-10.19-.25-.22,.02-.62,.32-.48Z"/>
                  <path class="cls-18" d="M218.04,395.26c4.71,2.31,1.12,9.63-3.6,7.31-4.71-2.32-1.12-9.63,3.6-7.31Z"/>
                </g>
                <path class="cls-18" d="M183.43,361.78c.84,4.03,3.39,7.56,5.37,11.09,.21,.37,.68,.29,.92,.03,.07,.04,.15,.04,.19-.06,1.53-3.73,2.1-8.6,1.43-12.6-.42-2.47-2.25-5.5-5.24-4.78-2.82,.69-3.16,3.97-2.67,6.32Zm1.5-3.57c2.65-4.37,5.06,1.16,5.29,2.99,.15,1.18,.16,2.4,.15,3.58-.02,2.49-.4,4.92-.67,7.38-.87-1.79-1.88-3.5-2.81-5.25-1.11-2.1-3.42-6.29-1.96-8.7Z"/>
                <path class="cls-18" d="M206.13,377.45c1.01-2.9-1.83-5.02-4.25-5.68-3.92-1.06-8.82-.96-12.68,.2-.1,.03-.11,.11-.07,.18-.28,.21-.4,.68-.06,.92,3.32,2.31,6.58,5.2,10.52,6.42,2.3,.71,5.59,.7,6.55-2.05Zm-11.31-1.9c-1.66-1.1-3.26-2.27-4.96-3.31,2.47-.03,4.93-.17,7.41,.04,1.18,.1,2.39,.23,3.55,.5,1.8,.41,7.07,3.34,2.47,5.56-2.54,1.22-6.49-1.48-8.47-2.79Z"/>
              </g>
            </g>
          </g>
          <g>
            <path class="cls-18" d="M188.57,363.91l46.85,23.41s36.57-74.34,40.58-79.13c5.35-6.39,75,2.63,91.43-17.99,16.99-21.33,2.43-47.82,2.43-47.82l-53.02-.03s-.16,5.88,2.9,14.48c0,0-60.63-3.61-77.79,13.07-13.17,12.8-53.38,94.02-53.38,94.02Z"/>
            <g>
              <path class="cls-16" d="M329.4,262.18c-2.74-1.85-5.51-3.6-8.43-5.15-1.48-.78-4.5-2.12-6.39-2.58-1.55-.38-2.22-.49-.77,.2,.83,.39,2.42,1.15,3.9,1.85-.28,0-.55-.02-.82-.03-1.04-.05-2.08-.09-3.13-.12-2.04-.05-4.08-.04-6.12-.05-4.14-.02-8.23,.37-12.36,.57-.11,0-.11,.17,0,.17,4.12-.13,8.26,.08,12.38,.07,2.04,0,4.08,.05,6.12,.09,1,.02,1.99,.04,2.99,.05,.82,.01,1.7,.08,2.53,0,.44,.21,.84,.4,1.14,.54,3,1.41,5.99,2.89,8.88,4.52,.09,.05,.17-.07,.09-.13Z"/>
              <path class="cls-16" d="M315.58,240.36c.54,2.5,1,5.02,1.63,7.5,.29,1.14,.57,2.3,.96,3.41,.33,.94,.84,2.01,1.9,2.25,1.22,.28,1.61-.76,1.55-1.78-.07-1.14-.33-2.29-.51-3.41-.22-1.3-.43-2.59-.62-3.89-.1-.65-.2-1.3-.28-1.95-.02-.16-.1-1.41-.18-1.76-.01,.03-.03,.06-.07,.05-.01,0-.03,0-.04,0-.03,0-.07-.03-.07-.07,0-.1,0-.12,.07-.18,.03-.03,.08-.03,.11,0,.23,.14,.24,.46,.31,.7,.18,.63,.36,1.27,.52,1.91,.3,1.2,.6,2.39,.86,3.6,.26,1.2,.51,2.41,.77,3.62,.19,.9,.42,1.85,.15,2.76-.3,1-1.12,1.47-2,1.52,.04,.08,.09,.16,.12,.25,.1,.25,.17,.51,.25,.76,.09,.26,.16,.52,.23,.78,.03,.13,.05,.26,.06,.39,.01,.14-.02,.28,0,.43,.02,.22-.28,.35-.39,.13-.06-.13-.15-.23-.22-.35-.07-.13-.12-.28-.16-.42-.08-.25-.14-.5-.19-.76-.05-.25-.12-.51-.16-.76-.02-.15-.02-.31-.03-.46-.5-.07-1-.26-1.41-.59-.72-.58-1.13-1.45-1.41-2.32-.34-1.05-.59-2.12-.85-3.19-.63-2.64-1.15-5.33-1.31-8.05-.02-.29,.39-.38,.45-.08Z"/>
              <path class="cls-16" d="M341.15,247.49c.18,1.24,.28,2.49,.53,3.72,.24,1.2,.52,2.41,.88,3.58,.34,1.12,.76,2.26,1.41,3.25,.62,.96,1.46,1.8,2.33,2.53,1.7,1.45,3.64,2.62,5.72,3.44,1.05,.42,2.12,.77,3.21,1.06,.57,.15,1.14,.27,1.72,.36,.48,.08,.96,.11,1.38,.37,.18,.11,.14,.4-.04,.48-.75,.34-1.79,.1-2.58,0-.92-.13-1.84-.31-2.74-.58-1.81-.53-3.55-1.35-5.13-2.37-1.55-1-3.11-2.23-4.23-3.7-1.16-1.53-1.78-3.31-2.15-5.18-.45-2.24-.72-4.67-.53-6.95,.01-.13,.22-.15,.24-.01Z"/>
              <path class="cls-15" d="M198.08,355.39c1.31,.39,2.53,1.03,3.76,1.59,1.3,.6,2.61,1.19,3.9,1.8,2.54,1.21,5.07,2.46,7.56,3.77,5.03,2.62,10.04,5.28,14.99,8.04,2.58,1.44,8.14,4.5,8.37,4.8,.11,.15-.07,.4-.23,.33-5.17-2.26-10.21-4.78-15.25-7.29-5.04-2.5-10.08-5.03-14.99-7.77-1.36-.76-2.7-1.56-4.05-2.34-1.41-.81-2.93-1.55-4.22-2.56-.12-.1-.03-.42,.15-.37Z"/>
              <path class="cls-15" d="M369.82,254.71c0-.23-.35-.22-.35,0,.1,11.51-1.68,24.39-10.54,32.64-9.72,9.06-23.73,10.14-36.35,10.03-7.24-.06-14.47-.25-21.71-.02-7.27,.23-14.62,.59-21.84,1.51-2.92,.37-5.36,1.42-7.42,3.55-2,2.07-3.44,4.62-4.92,7.07-3.64,6.03-7.17,12.14-10.58,18.3-6.78,12.26-13.06,24.79-18.83,37.55-.72,1.59-1.43,3.17-2.13,4.77-.05,.11,.11,.19,.16,.09,5.86-12.81,12.21-25.41,18.94-37.79,3.37-6.19,6.85-12.32,10.44-18.38,1.69-2.85,3.33-5.77,5.21-8.49,1.66-2.41,3.75-4.68,6.63-5.55,1.74-.53,3.59-.62,5.39-.78,1.85-.17,3.7-.32,5.55-.46,3.61-.26,7.22-.46,10.84-.59,7.3-.27,14.59-.18,21.89-.04,12.67,.23,26.52-.21,37.03-8.28,4.55-3.49,7.82-8.27,9.77-13.64,1.98-5.47,2.69-11.35,2.82-17.14,.03-1.45,.03-2.9,0-4.35Z"/>
              <path class="cls-15" d="M293.94,305.14c-2.59,.05-5.17,.15-7.76,.24-2.15,.07-4.31,.05-6.42,.57-1.96,.49-3.51,.72-5.11,2.91-2,2.73-12.88,23.76-17.45,33.07-1.27,2.58-2.52,5.17-3.75,7.77-1.27,2.69-2.39,5.44-3.65,8.13-.05,.1,.1,.18,.15,.08,1.12-2.25,2.37-4.43,3.52-6.66,1.16-2.23,2.28-4.48,3.4-6.73,2.27-4.54,4.53-9.08,6.82-13.61,2.26-4.49,5.01-8.87,7.3-13.35,1.93-3.76,4.56-8.89,6.4-9.66,2.16-.9,5.69-1.78,8-1.94,2.85-.2,5.7-.37,8.55-.62,.13-.01,.13-.21,0-.2Z"/>
            </g>
          </g>
        </g>
      </g>
      <g>
        <g>
          <path class="cls-18" d="M350.93,170.41c2.43,9.61,6.97,20.74,4.75,30.77-1.75,7.86-7.54,14.1-13.92,18.65-14.04,10.01-35.47,15.34-49.44,2.23-5.58-5.24-8.94-17.84-2.73-23.98,3.19-3.15,7.45-4.6,11.38-6.58,5.18-2.6,8.51-6.49,10-12.12,2.91-10.97,.43-18.05-.84-29.01-.23-2.03-.16-4.1,1.46-6.19,1.31-2.06,3.33-3.71,5.66-4.86,1.91-1.27,4.01-2.2,6.32-2.42,4.87-.48,10.35,2.97,14.6,4.95,4.3,2.01,6.61,4.55,7.86,9.17,1.73,6.43,3.28,12.9,4.92,19.36Z"/>
          <path class="cls-18" d="M353.07,174.74c-2.8-8.67-5.76-17.27-8.67-25.89-.02-.05-.1-.03-.08,.02,2.19,7.17,4.27,14.36,6.56,21.5,2.24,7,5.02,14.04,6.63,21.21,3.63,16.09-11.64,26.09-25.54,28.12-.63,.09-.41,1.09,.22,.98,12.15-2.17,25.72-9.26,26.67-23.14,.52-7.59-3.5-15.7-5.79-22.79Z"/>
          <path class="cls-18" d="M310.72,149.39c-.04-.17-.29-.11-.27,.06,1.42,8.97,3.92,19.29,.45,28.07-1.7,4.3-4.7,8.05-8.55,10.62-3.06,2.04-6.57,2.89-9.92,4.29-13.09,5.48-9.44,23.93,1.95,29.08,.24,.11,.43-.3,.2-.42-8.12-4.13-12.5-13.76-8.33-22.35,3.34-6.89,12.5-6.81,18.07-11.3,11.53-9.31,9.32-25.21,6.4-38.06Z"/>
        </g>
        <g>
          <g>
            <path class="cls-13" d="M334.88,185.66c-6.01,12.99-26.54,43.11-36.43,44.49-8.75,1.22-30.42-3.82-37.72-7.83-3.35-1.84,5.09-26.71,10.72-25.53,7.04,1.48,16.56,4.95,23.09,5.35,2.31,.14,13.43-7.8,33.02-20.7,7.29-4.8,10.7-3.1,7.32,4.22Z"/>
            <g>
              <g>
                <path class="cls-13" d="M260.11,199.89s-17.43-2.69-18.32-2.53c-.9,.18-.71,1.45-.6,2.46,.02,.24,.36,.86,.76,1.68,1.31,2.59,3.52,7.21,0,8.26-4.62,1.38-9.61-9-10.13-10.74-.14-.47-.09-1.35,.14-2.4,.63-2.84,2.6-6.99,5.96-8.06,4.6-1.47,9.86-.83,14.46-.6l7.73,11.94Z"/>
                <path class="cls-18" d="M260.11,199.89s-17.43-2.69-18.32-2.53c-.9,.18-.71,1.45-.6,2.46,.02,.24,.36,.86,.76,1.68-3.56-1.73-7.49-3.65-9.98-4.89,.63-2.84,2.6-6.99,5.96-8.06,4.6-1.47,9.86-.83,14.46-.6l7.73,11.94Z"/>
              </g>
              <path class="cls-13" d="M260.73,222.32c-.91-.49-5.6-1.87-11.93-4.06-1.7-4.89-6.23-14.24-7.42-16.72-.85-2.99-4.37-8.88-4.64-8.75-.51,.25-2.33,1.13-4.62,2.02-3.02,1.17-6.87,2.38-9.62,2.2-1.5-.1-2.66-.6-3.21-1.72-.99-2.02,3.35-4.37,8.25-7.6,6.67-4.41,15.09-9.46,19.22-8.24,6.1,1.8,12.11,9.25,14.16,11.26,2.06,2.01,10.53,6.09,10.53,6.09-1.74,9.14-9.5,26.17-10.72,25.53Z"/>
              <path class="cls-17" d="M240.69,199.68c-.07-.12-.15-.06-.09,.09,.18,.48,.93,2.63,.46,2.86-.81,.41-5.69-2.23-7.93-2.97-.12-.04-.19,.12-.07,.15,.61,.16,2.76,1.31,3.29,1.57,1.03,.51,4.04,2.29,5.07,1.78,.69-.34-.43-3.01-.72-3.49Z"/>
              <g>
                <path class="cls-17" d="M216.81,211.4c-.6,.59-1.27,1.07-1.55,.79h0c-.26-.3,.23-.95,.83-1.54l.73,.75Z"/>
                <path class="cls-15" d="M223.78,210.57c-.63,.61-5.4,1.1-7.17,1.01-.34-.02-.73-.4-.73-.73-.04-1.74,.57-6.54,1.2-7.15,.43-.42,2.41-1.45,4.35-2.66,2.53-1.57,29.7-26.74,30.14-26.86,.45-.12,1.26,.55,1.66,.97,.41,.42,1.07,1.26,.94,1.7-.14,.43-25.99,26.96-27.62,29.45-1.26,1.9-2.34,3.86-2.77,4.28Z"/>
                <path class="cls-7" d="M223.78,210.58s-.13,.1-.24,.14c-1.76-1.12-3.09-2.26-4.1-3.3-1.36-1.4-2.13-2.61-2.54-3.38,.05-.16,.12-.27,.19-.33,.07-.07,.17-.15,.31-.25,.58,1.18,2.32,4.03,6.66,6.78-.11,.16-.2,.28-.27,.34Z"/>
                <g>
                  <rect class="cls-18" x="226.7" y="194.01" width="1.98" height="12.1" rx=".73" ry=".73" transform="translate(212.04 -102.63) rotate(45.74)"/>
                  <rect class="cls-7" x="225.92" y="197.39" width="1.15" height="7.68" rx=".43" ry=".43" transform="translate(212.46 -101.42) rotate(45.73)"/>
                  <rect class="cls-17" x="225.51" y="201.45" width=".34" height="1.15" transform="translate(-76.94 214.84) rotate(-44.26)"/>
                </g>
              </g>
              <path class="cls-13" d="M248.8,218.26c-2.17-.74-4.1-1.38-5.43-1.78-5.23-1.56-7.62-4.13-9.72-7.19-2.08-3.06-12.73-6.34-7.55-9.56,5.19-3.22,14.46,4.66,15.36,3.3,.17-.26,.12-.8-.08-1.49,1.19,2.48,5.72,11.83,7.42,16.72Z"/>
            </g>
          </g>
          <g>
            <path class="cls-8" d="M305.07,193.5l21.53,8.63s6.8-9.47,9.82-15.24c4-7.64,2.1-10.91-7.75-7.09-6.59,2.56-23.6,13.71-23.6,13.71Z"/>
            <path class="cls-17" d="M323.97,201.08c.25,.05,2.49,.86,2.63,.97,.77-1.13,1.53-2.28,2.31-3.4,.39-.56,.79-1.12,1.2-1.67,.45-.61,.93-1.32,1.33-1.85,.06-.08,.17-.01,.12,.08-.45,.75-.81,1.29-1.2,1.94-.35,.58-.72,1.15-1.09,1.71-.8,1.19-1.6,2.48-2.45,3.63-.07,.09-2.68-1.18-2.89-1.31-.04-.02,0-.08,.03-.08Z"/>
            <path class="cls-17" d="M308.07,192.33c3.22,1.04,6.42,2.12,9.57,3.35,1.57,.61,3.14,1.25,4.69,1.91,1.55,.66,3.04,1.48,4.6,2.11,.09,.03,.02,.17-.06,.13-1.52-.72-3.16-1.23-4.72-1.86-1.56-.63-3.13-1.26-4.7-1.88-3.14-1.23-6.28-2.47-9.44-3.63-.09-.03-.03-.16,.06-.13Z"/>
          </g>
        </g>
        <g>
          <path class="cls-8" d="M312.26,244.81l61.17,4.94s-15.66-53.37-28.26-66.84c-5.74-6.13-11.35-5.19-16.1-1.25-1.19,.99-15.89,19.64-17.13,26.15-1.1,5.75,3.57,12.13,3.57,12.13l-3.25,24.87Z"/>
          <path class="cls-17" d="M321.31,191.56c-1.84,2.94-3.85,5.78-5.7,8.7-.94,1.45-1.84,2.92-2.58,4.47-.75,1.54-1.25,3.2-1.26,4.95-.1-.86-.07-1.74,.1-2.62,.16-.86,.44-1.7,.78-2.51,.68-1.62,1.6-3.11,2.51-4.59,.88-1.33,1.79-2.66,2.72-3.95,.15-.46,.34-.9,.51-1.35,.29-.64,.58-1.3,.96-1.9-.17,.69-.45,1.34-.71,1.99-.09,.19-.16,.36-.24,.54,.94-1.28,1.91-2.53,2.91-3.75Z"/>
          <path class="cls-3" d="M361.24,214c-2.43,.93-4.86,1.89-7.45,2.35-.75,.12-1.51,.19-2.28,.09-.76-.08-1.52-.38-2.08-.92-1.13-1.1-1.52-2.68-1.77-4.15-.26-1.77-.35-3.54-.43-5.31,0-.09-.01-.18-.02-.26-.05-1.16-.11-2.32-.23-3.47-.15-1.49-.37-2.99-.8-4.42-.42-1.44-1.06-2.82-2.02-3.96-.93-1.16-2.2-2.05-3.59-2.55-1.41-.5-2.93-.6-4.42-.56-2.07,.08-4.12,.42-6.16,.83-.07,.02-.15,.03-.22,.04-.85,.18-1.69,.36-2.54,.54-2.43,.51-4.86,1.04-7.34,1.32,.05-.07,.1-.14,.14-.21,2.41-.28,4.78-.8,7.16-1.31,.88-.19,1.76-.38,2.65-.56,.07-.02,.14-.03,.21-.04,2-.42,4.03-.76,6.09-.84,1.51-.04,3.06,.06,4.51,.56,1.44,.52,2.74,1.43,3.71,2.62,.98,1.18,1.63,2.59,2.05,4.05,.44,1.46,.65,2.97,.8,4.47,.11,1.09,.17,2.18,.22,3.27,.01,.09,.01,.18,.02,.26,.08,1.84,.15,3.68,.42,5.49,.24,1.46,.63,3,1.7,4.04,1.08,1.06,2.75,1.03,4.19,.79,2.56-.45,4.99-1.39,7.42-2.31l.06,.15Zm-36.25,26.12c-1.11-1.01-2.39-2-3.96-2.16-.78-.08-1.56,.16-2.21,.57-.66,.4-1.21,.93-1.73,1.49-1.34,1.51-2.42,3.19-3.45,4.9l.2,.02c1.02-1.68,2.09-3.33,3.39-4.79,.98-1.08,2.28-2.15,3.78-1.99,1.48,.15,2.75,1.11,3.84,2.11,1.97,1.85,3.64,4,5.49,6l.35,.03c-1.92-2.03-3.64-4.26-5.7-6.18Zm42.62-8.52c-.21,0-.43,.03-.64,.05-3.07,.33-5.76,2.05-7.99,4.06-2.26,2.02-4.18,4.37-6.1,6.7-1.51,1.81-3,3.65-4.67,5.3l.29,.03c1.63-1.64,3.07-3.43,4.54-5.2,1.92-2.33,3.83-4.68,6.06-6.69,2.22-2,4.87-3.71,7.88-4.04,.23-.02,.46-.04,.69-.05-.02-.05-.04-.1-.06-.16Zm-11.95-30.91c-2.89,.5-5.41,2.21-7.5,4.18-.25,.23-.49,.47-.73,.71l-.22,.22c-1.8,1.85-3.4,3.89-5,5.9-1.46,1.84-2.9,3.7-4.53,5.39-.06,.06-.12,.13-.19,.19-.39,.41-.81,.81-1.24,1.2-1.12,.98-2.36,1.87-3.76,2.39-1.39,.5-2.93,.63-4.39,.34-1.46-.28-2.84-.93-4.08-1.77-1.25-.82-2.37-1.84-3.44-2.89-2.16-2.1-4.03-4.49-6.3-6.51-.73-.63-1.54-1.26-2.44-1.66-.01,.07-.02,.15-.03,.22,.85,.37,1.63,.97,2.34,1.59,2.24,2.01,4.11,4.4,6.26,6.53,1.08,1.06,2.21,2.08,3.48,2.92,1.25,.86,2.66,1.53,4.17,1.81,1.5,.3,3.08,.17,4.52-.35,1.44-.54,2.69-1.45,3.82-2.45,.47-.43,.93-.87,1.36-1.32,.07-.06,.13-.13,.19-.19,1.59-1.68,3-3.51,4.43-5.31,1.55-1.98,3.11-3.97,4.85-5.77,.07-.08,.14-.15,.22-.22,.27-.28,.55-.56,.84-.83,2.08-1.97,4.58-3.68,7.43-4.16-.02-.06-.04-.11-.06-.16Zm-6.48,20.05c-.96-1.24-2.49-1.81-3.92-2.22-2.41-.65-4.88-.94-7.31-1.38-.09-.02-.18-.04-.27-.05-.44-.09-.88-.17-1.32-.27-1.47-.32-2.93-.71-4.31-1.3-1.38-.58-2.67-1.37-3.71-2.45-1.04-1.06-1.78-2.42-2.12-3.86-.33-1.45-.26-2.98-.05-4.46,.45-2.97,1.46-5.83,2.41-8.69,.48-1.45,.97-2.91,1.41-4.39,.02-.07,.04-.15,.06-.22,.4-1.35,.74-2.72,.99-4.11,.41-2.31,.52-4.76-.09-7.04l-.15,.09c.58,2.24,.46,4.64,.05,6.91-.25,1.42-.61,2.81-1.01,4.19-.03,.07-.05,.14-.07,.22-.43,1.43-.91,2.86-1.39,4.28-.95,2.86-1.97,5.72-2.44,8.73-.21,1.5-.29,3.04,.05,4.54,.35,1.49,1.1,2.89,2.17,3.98,1.07,1.11,2.4,1.92,3.8,2.5,1.4,.6,2.87,.98,4.35,1.3,.39,.09,.79,.17,1.18,.24,.09,.02,.18,.03,.27,.05,2.49,.46,5.01,.74,7.44,1.39,1.42,.4,2.91,.96,3.82,2.14,.93,1.2,.71,2.86,.31,4.26-.85,2.89-2.35,5.54-3.71,8.23-1.37,2.68-2.77,5.38-3.69,8.27-.44,1.44-.78,2.94-.73,4.46,0,.36,.05,.72,.11,1.08h.14c-.07-.35-.11-.71-.12-1.08-.04-1.5,.29-2.99,.74-4.42,.92-2.87,2.33-5.56,3.7-8.24,1.36-2.69,2.87-5.33,3.74-8.25,.2-.73,.37-1.48,.36-2.25,0-.77-.21-1.56-.69-2.18Z"/>
          <g>
            <path class="cls-17" d="M331.91,218.65c-2.37,.1-4.75,.29-7.08,.74-1.16,.23-2.3,.5-3.44,.81-.57,.15-1.14,.28-1.71,.41-.59,.13-1.22,.25-1.83,.23-.05,0-.06,.08,0,.08,.59,.05,1.15,.1,1.74,.07,.56-.03,1.12-.11,1.68-.21,1.18-.22,2.35-.49,3.52-.72,2.37-.46,4.74-.92,7.14-1.22,.11-.01,.09-.2-.02-.2Z"/>
            <path class="cls-17" d="M337.63,221.08c-1.92-.31-3.89-.54-5.84-.63-.98-.05-1.96-.03-2.94,0-.47,.02-.94,.04-1.4,.08-.51,.03-1.02,.14-1.54,.17-.05,0-.06,.09,0,.08,.49-.01,.98,.06,1.46,.08,.49,.02,.98,.03,1.46,.05,.98,.03,1.95,.08,2.93,.1,1.96,.05,3.91,.12,5.86,.23,.11,0,.11-.14,0-.16Z"/>
          </g>
        </g>
        <g>
          <g>
            <path class="cls-13" d="M337.15,180.12c.06,1.11-2.89,9.27-7.68,10.45-1.56,.38-4.01-8.05-4.01-8.05l-.32-.58-4.52-8.13,8.29-9.58,1.22-1.31s1.09,2.31,2.42,5.19c.06,.13,.12,.27,.19,.41,.08,.16,.16,.31,.22,.47,.2,.43,.41,.87,.61,1.31,.15,.33,.3,.66,.44,1.02,.16,.36,.3,.7,.45,1.06,1.46,3.53,2.65,7.28,2.69,7.75Z"/>
            <path class="cls-17" d="M332.54,168.11c-.45,7.67-5.15,12.13-7.41,13.83l-4.52-8.13,8.29-9.58,1.22-1.31s1.09,2.31,2.42,5.19Z"/>
          </g>
          <g>
            <path class="cls-13" d="M305.33,161.52c.53,16.32,10.36,17.84,13.88,17.73,3.19-.11,14.06-.88,15.22-17.16,1.16-16.29-6.59-21.2-13.91-21.34-7.32-.14-15.71,4.46-15.19,20.78Z"/>
            <g>
              <path class="cls-17" d="M307.54,158.62c.38-.07,.72-.19,1.09-.29,.42-.12,.76-.17,1.05-.51,.16-.18,.12-.54-.04-.71-.38-.4-.93-.38-1.44-.26-.55,.13-.94,.37-1.29,.82-.33,.43,.12,1.04,.62,.95Z"/>
              <path class="cls-17" d="M318.72,157.98c-.38-.02-.74-.11-1.11-.17-.43-.07-.77-.08-1.1-.39-.18-.17-.18-.52-.04-.71,.34-.43,.88-.48,1.4-.41,.56,.07,.98,.27,1.37,.67,.38,.4,0,1.04-.51,1.01Z"/>
              <g>
                <g>
                  <path class="cls-17" d="M316.35,162.12s.09,.05,.09,.1c0,1.11,.19,2.39,1.2,2.72,.03,.01,.03,.07,0,.06-1.23-.13-1.46-1.83-1.28-2.88Z"/>
                  <path class="cls-17" d="M317.31,160.93c1.78-.19,2.03,3.39,.38,3.57-1.63,.17-1.88-3.41-.38-3.57Z"/>
                </g>
                <path class="cls-17" d="M318.02,161.07c.33,.18,.66,.52,1.04,.53,.44,.01,.74-.39,1-.77,.03-.04,.06-.01,.06,.04,.06,.69-.16,1.41-.88,1.56-.66,.14-1.19-.43-1.41-1.11-.04-.13,.06-.32,.19-.25Z"/>
              </g>
              <g>
                <g>
                  <path class="cls-17" d="M310.17,162.32s-.08,.06-.08,.1c.12,1.11,.07,2.39-.9,2.84-.03,.01-.02,.07,.01,.06,1.21-.27,1.26-1.98,.96-3Z"/>
                  <path class="cls-17" d="M309.09,161.24c-1.79,0-1.65,3.59,0,3.59,1.63,0,1.5-3.59,0-3.59Z"/>
                </g>
                <path class="cls-17" d="M308.35,161.51c-.28,.2-.54,.56-.88,.59-.39,.04-.7-.34-.96-.7-.03-.04-.05,0-.05,.04,0,.69,.26,1.39,.93,1.5,.61,.1,1.02-.51,1.16-1.2,.03-.13-.08-.32-.19-.24Z"/>
              </g>
              <path class="cls-17" d="M317.12,171.22c-.23,.29-.46,.68-.85,.76-.38,.08-.85-.04-1.22-.14-.04,0-.07,.03-.04,.06,.34,.39,.97,.59,1.47,.44,.49-.15,.69-.61,.75-1.08,0-.07-.08-.08-.11-.04Z"/>
              <g>
                <path class="cls-17" d="M312.72,169.66s.76,1.04,1.81,1.41c.39,.14,.8,.2,1.24,.08,.9-.23,.92-1.05,.76-1.76-.13-.58-.4-1.08-.4-1.08,0,0-1.31,1.22-3.41,1.34Z"/>
                <path class="cls-4" d="M314.53,171.07c.39,.14,.8,.2,1.24,.08,.9-.23,.92-1.05,.76-1.76-.96,.09-1.91,.74-2,1.68Z"/>
              </g>
              <path class="cls-17" d="M312.24,167.48s-.13,1.67-.09,2.45c0,.07,.2,.1,.46,.1,.01,0,.02,0,.03,0,1.39,.13,2.76-.42,3.53-1.6,.05-.08-.05-.15-.12-.1-.99,.82-2.11,1.08-3.34,1.17-.07-.21,.32-2.85,.2-2.86-.43-.01-1.25,.33-1.75,.51,.17-3.49,.91-6.92,1.03-10.4,0-.12-.18-.15-.21-.04-1.02,3.54-1.31,7.55-1.58,11.15-.04,.45,1.54-.23,1.84-.38Z"/>
            </g>
            <path class="cls-18" d="M333.26,163.38c-1.77-.11-6.38-5.01-6.49-13.59,0,0,.63,7.69,1.2,8.82,.57,1.13-2.57-2.76-2.76-9.67,0,0-3.84,2.75-7.11,3.65-3.27,.9-5.27,.86-5.5,.63-.23-.24,4.58-1.73,5.88-3.23,0,0-8.7,4-12.7,4.29-.46,.03-.98-9.49,5.22-13.51,6.2-4.02,15.99,.38,18.62,2.94,0,0,3.09,.45,6.44,5.04,3.35,4.59-.9,14.74-2.81,14.61Z"/>
            <g>
              <path class="cls-8" d="M318.5,167.43c-2.82-.24-4.91-2.72-4.68-5.53h0c.24-2.82,2.72-4.91,5.53-4.68,2.82,.24,4.91,2.72,4.68,5.53-.2,2.38-2.01,4.25-4.26,4.63-.41,.07-.84,.09-1.27,.05Zm-4-5.48c-.2,2.44,1.61,4.59,4.05,4.79,2.44,.21,4.59-1.61,4.79-4.05,.2-2.44-1.61-4.59-4.05-4.79-.38-.03-.75-.01-1.1,.04-1.95,.33-3.52,1.95-3.69,4.01Z"/>
              <path class="cls-8" d="M307.69,167.92c-2.1,.1-3.92-2.11-4.06-4.93-.07-1.35,.26-2.64,.91-3.63,.67-1.03,1.61-1.62,2.65-1.67,1.04-.05,2.04,.45,2.8,1.41,.74,.93,1.19,2.18,1.26,3.52,.13,2.67-1.29,4.94-3.23,5.27-.11,.02-.22,.03-.33,.04Zm-2.58-8.19c-.57,.87-.85,2.02-.8,3.22,.12,2.44,1.62,4.36,3.34,4.28,1.73-.08,3.03-2.14,2.91-4.59-.06-1.2-.45-2.32-1.11-3.13-.63-.78-1.42-1.19-2.24-1.15-.09,0-.17,.01-.26,.03-.71,.12-1.36,.59-1.85,1.34Z"/>
              <path class="cls-8" d="M314.02,162.48l.41-.55c-.81-.61-2.65-1.4-3.83,0l.52,.44c1.06-1.25,2.82,.05,2.89,.11Z"/>
              <path class="cls-8" d="M336.89,162.68l.59-.34c-.16-.28-1.61-2.7-3.15-2.88-1.44-.16-10.57,1.15-10.96,1.21l.1,.68c2.62-.38,9.67-1.33,10.78-1.2,1.02,.11,2.25,1.87,2.64,2.54Z"/>
            </g>
            <g>
              <g>
                <path class="cls-13" d="M334.65,168.1c-.26,.13-.5,.22-.73,.28-.27,.08-.53,.11-.76,.11-.37,0-.69-.07-.97-.19-.25-.1-.48-.25-.67-.4-.48-.39-.72-.84-.72-.84l.38-4.44s2.94-5.48,5.38-4.49c2.45,.99,.67,8.64-1.91,9.96Z"/>
                <path class="cls-17" d="M336,160.31s.06,.05,.02,.07c-1.8,.99-2.58,2.86-3.06,4.76,.48-.77,1.2-1.24,2.22-.68,.05,.03,.02,.11-.04,.11-.79-.07-1.34,.13-1.79,.81-.32,.48-.5,1.07-.71,1.61-.07,.18-.38,.13-.34-.08,0-.01,0-.03,.01-.05-.34-2.4,1.13-6,3.69-6.55Z"/>
              </g>
              <path class="cls-3" d="M334.35,167.44c-.03,.42-.4,.73-.81,.69-.42-.03-.73-.4-.69-.81,.03-.42,.4-.73,.81-.69,.42,.03,.73,.4,.69,.81Z"/>
              <path class="cls-3" d="M335.75,166.12c-.02,.29-.28,.51-.58,.49-.29-.02-.51-.28-.49-.58,.02-.29,.28-.51,.58-.49,.29,.02,.51,.28,.49,.58Z"/>
            </g>
          </g>
        </g>
        <g>
          <g>
            <path class="cls-13" d="M347.97,185.84c11.12,17.23,25.76,46.06,17.79,51.59-13.1,9.09-49.46,12-57.77,12.32-3.59,.14-8.83-23.66-6.22-26.47,2.61-2.81,40.73-1.87,41.19-4.18,.26-1.31-1.91-12.89-4.48-27.28-2.96-16.6,6.31-10.91,9.49-5.98Z"/>
            <g>
              <path class="cls-13" d="M308.14,221.87s-10.88-.96-18.03-1.26c-3.99-.16-10.85,.16-13.83,1.38-4.46,1.82-21.97,12.3-19.52,16.6,2.22,3.89,16.11-7.02,16.11-7.02,0,0-14.99,9.77-11.46,13.96,3.53,4.19,17.59-10.22,17.59-10.22,0,0-15.18,10.38-10.86,14.13,3.27,2.83,16.74-9.5,16.74-9.5,0,0-12.99,9.01-9.75,12.07,3.58,3.38,16.72-7.23,16.72-7.23,9.53,6.39,16.69,5.53,21.7,4.32,1.21-.29-5.42-27.24-5.42-27.24Z"/>
              <g>
                <path class="cls-17" d="M277.84,227.86c-1.8,1.08-3.63,2.17-5.34,3.41-1.7,1.24-3.36,2.54-4.94,3.93-3.87,3.42-5.76,6.16-5.62,6,3.19-3.71,9.21-8.24,10.91-9.48,1.7-1.24,3.33-2.56,5.03-3.8,.04-.03,0-.09-.05-.06Z"/>
                <path class="cls-17" d="M282.43,233.92c-2.24,1.48-4.52,2.87-6.7,4.46-2.17,1.58-4.08,3.26-6.14,4.98-.16,.13-.03,.17,.13,.05,2.12-1.64,4.21-2.99,6.34-4.6,2.13-1.61,4.22-3.31,6.4-4.84,.03-.02,0-.07-.04-.05Z"/>
                <path class="cls-17" d="M287.31,238.41c-3.54,2.09-6.7,4.83-9.72,7.6-.15,.14,.01,.17,.18,.04,3.18-2.59,5.66-4.64,9.62-7.52,.06-.04,0-.17-.07-.12Z"/>
              </g>
            </g>
            <path class="cls-17" d="M310.21,221.51c-2.53-.21-5.28-.09-7.88-.19-2.27-.08-4.4-.39-6.61-.54-4.53-.3-11.22-.72-15.73,0-3.26,.52-7.31,3.18-9.61,4.27-.1,.05-.02,.19,.08,.15,4.31-1.55,6.91-3.4,10.82-3.96,4.49-.64,16.2,.24,20.72,.5,2.64,.15,5.56-.12,8.2-.02,.13,0,.14-.19,.01-.2Z"/>
          </g>
          <g>
            <path class="cls-8" d="M362.18,207.71l-23.11-1.98s-1.81-11.52-1.91-18.03c-.13-8.62,3.04-10.69,10.12-2.84,4.74,5.25,14.91,22.86,14.91,22.86Z"/>
            <path class="cls-17" d="M341.89,205.98c-.24-.07-2.61-.35-2.79-.32-.18-1.36-.34-2.72-.53-4.08-.1-.68-.21-1.36-.32-2.03-.13-.74-.24-1.6-.36-2.26-.02-.1-.15-.09-.14,.01,.06,.87,.14,1.52,.2,2.27,.05,.67,.12,1.35,.21,2.02,.18,1.42,.31,2.94,.56,4.34,.02,.11,2.92,.15,3.17,.13,.04,0,.04-.07,0-.08Z"/>
            <path class="cls-17" d="M360.03,205.32c-3.34-.52-6.69-.99-10.05-1.32-1.68-.16-3.36-.3-5.05-.41-1.68-.11-3.38-.05-5.06-.18-.09,0-.1,.14,0,.14,1.68,.05,3.37,.32,5.05,.46,1.68,.14,3.36,.28,5.05,.44,3.36,.31,6.72,.62,10.07,1.01,.09,.01,.09-.13,0-.14Z"/>
          </g>
        </g>
      </g>
    </g>
  </g>
  <g id="Table">
    <g>
      <rect class="cls-18" x="81.6" y="246.84" width="336.8" height="11.98"/>
      <rect class="cls-15" x="93.66" y="258.82" width="312.69" height="11.97"/>
      <g>
        <polygon class="cls-15" points="93.68 438.85 88.84 438.85 102.93 270.8 115.29 270.8 93.68 438.85"/>
        <polygon class="cls-18" points="115.29 270.8 113.84 282.04 101.99 282.04 102.93 270.8 115.29 270.8"/>
      </g>
      <g>
        <polygon class="cls-15" points="406.32 438.85 411.16 438.85 397.07 270.8 384.71 270.8 406.32 438.85"/>
        <polygon class="cls-18" points="384.71 270.8 386.16 282.04 398.01 282.04 397.07 270.8 384.71 270.8"/>
      </g>
    </g>
  </g>
  <g id="Devices">
    <g>
      <polygon class="cls-18" points="166.3 246.84 235.77 246.84 218.9 200.48 149.43 200.48 166.3 246.84"/>
      <polygon class="cls-15" points="163.84 246.84 233.31 246.84 216.44 200.48 146.96 200.48 163.84 246.84"/>
      <polygon class="cls-18" points="146.96 200.48 163.84 246.84 191.94 246.84 153.47 200.48 146.96 200.48"/>
      <g>
        <polygon class="cls-15" points="151.46 246.84 159.92 246.84 167.51 233.7 159.05 233.7 151.46 246.84"/>
        <polygon class="cls-15" points="167.51 233.7 167.51 246.84 159.92 246.84 167.51 233.7"/>
      </g>
      <g>
        <polygon class="cls-15" points="198.89 246.84 207.34 246.84 214.93 233.7 206.48 233.7 198.89 246.84"/>
        <polygon class="cls-18" points="214.93 233.7 214.93 246.84 207.34 246.84 214.93 233.7"/>
      </g>
    </g>
    <g>
      <g>
        <rect class="cls-12" x="264.41" y="244.32" width="56.15" height="2.52"/>
        <rect class="cls-7" x="264.41" y="244.32" width="28.26" height="2.52"/>
      </g>
      <g>
        <polygon class="cls-12" points="289.63 246.84 234.9 246.84 227.75 209.67 282.48 209.67 289.63 246.84"/>
        <path class="cls-7" d="M262.02,228.26c.16,1.84-1.2,3.33-3.04,3.33s-3.46-1.49-3.62-3.33c-.16-1.84,1.2-3.33,3.04-3.33s3.46,1.49,3.62,3.33Z"/>
      </g>
    </g>
  </g>
  <g id="Lamp">
    <g>
      <g>
        <polygon class="cls-17" points="122.97 240.69 121.17 240.46 130.44 169.98 164.07 151.52 164.95 153.11 132.12 171.13 122.97 240.69"/>
        <path class="cls-8" d="M128.72,170.55c0,1.41,1.15,2.56,2.56,2.56s2.56-1.15,2.56-2.56-1.15-2.56-2.56-2.56-2.56,1.15-2.56,2.56Z"/>
        <path class="cls-8" d="M161.59,152.32c0,1.41,1.15,2.56,2.56,2.56s2.56-1.15,2.56-2.56-1.15-2.56-2.56-2.56-2.56,1.15-2.56,2.56Z"/>
      </g>
      <g>
        <g>
          <polygon class="cls-8" points="181.36 154.66 169.33 168.09 163.77 161.23 160.39 157.05 169.41 146.99 173.94 149.9 181.36 154.66"/>
          <polygon class="cls-1" points="181.36 154.66 169.33 168.09 163.77 161.23 173.94 149.9 181.36 154.66"/>
        </g>
        <polygon class="cls-8" points="198.8 161.29 177.82 184.7 163.89 166.93 179.61 149.38 198.8 161.29"/>
      </g>
      <polygon class="cls-8" points="138.55 246.84 107.51 246.84 109.41 237.09 136.64 237.09 138.55 246.84"/>
    </g>
  </g>
  <g id="Icons">
    <g>
      <g>
        <path class="cls-2" d="M309.63,71.02l-32.09,31.86c-2.18,2.16-5.71,2.15-7.87-.03-2.17-2.18-2.16-5.71,.03-7.87l32.08-31.87,7.85,7.91Z"/>
        <polygon class="cls-12" points="309.63 71.02 300.51 80.08 294.44 70.4 301.78 63.11 309.63 71.02"/>
        <path class="cls-2" d="M267.57,104.93h0c-.55-.55-.55-1.45,0-1.99l7.26-7.21,1.99,2-7.26,7.21c-.55,.55-1.45,.55-1.99,0Z"/>
        <path class="cls-2" d="M276.83,97.72l-7.27,7.21c-.55,.55-1.44,.54-1.99,0-.55-.55-.54-1.45,0-2l1.22-1.22,6.03-5.99,1.99,2Z"/>
        <rect class="cls-8" x="295.01" y="65.54" width="16.66" height="7.86" transform="translate(138.88 -194.72) rotate(45.2)"/>
        <path class="cls-8" d="M306.86,73.76l-7.85-7.9,6.63-6.58c2.18-2.17,5.71-2.15,7.87,.03h0c2.17,2.18,2.15,5.71-.03,7.87l-6.63,6.58Z"/>
        <path class="cls-8" d="M289.47,91.04l-11.92,11.84c-1.84,1.82-4.62,2.1-6.74,.84l-1.23,1.23c-.55,.55-1.44,.54-1.99,0-.55-.55-.54-1.45,0-2l1.22-1.22c-1.25-2.13-.95-4.91,.88-6.74l4.02-4,15.75,.05Z"/>
      </g>
      <g>
        <rect class="cls-2" x="53.92" y="165.77" width="15.14" height="53.26"/>
        <g>
          <rect class="cls-8" x="55.8" y="167.46" width="11.37" height="7.37"/>
          <rect class="cls-10" x="55.8" y="176.38" width="11.37" height="7.37"/>
          <rect class="cls-9" x="55.8" y="185.31" width="11.37" height="7.37"/>
          <rect class="cls-11" x="55.8" y="194.24" width="11.37" height="7.37"/>
          <rect class="cls-6" x="55.8" y="203.17" width="11.37" height="7.37"/>
        </g>
        <path class="cls-17" d="M63.04,215.41c0,.86-.7,1.56-1.56,1.56s-1.56-.7-1.56-1.56,.7-1.56,1.56-1.56,1.56,.7,1.56,1.56Z"/>
      </g>
      <g>
        <rect class="cls-2" x="69.98" y="173.03" width="15.14" height="53.26" transform="translate(163.89 3.64) rotate(45)"/>
        <g>
          <rect class="cls-8" x="86.9" y="180.94" width="11.37" height="7.37" transform="translate(157.67 -11.39) rotate(45)"/>
          <rect class="cls-10" x="80.58" y="187.26" width="11.37" height="7.37" transform="translate(160.28 -5.08) rotate(45)"/>
          <rect class="cls-9" x="74.27" y="193.57" width="11.37" height="7.37" transform="translate(162.9 1.24) rotate(45)"/>
          <rect class="cls-11" x="67.96" y="199.88" width="11.37" height="7.37" transform="translate(165.51 7.55) rotate(45)"/>
          <rect class="cls-6" x="61.64" y="206.2" width="11.37" height="7.37" transform="translate(168.13 13.86) rotate(45)"/>
        </g>
        <path class="cls-17" d="M62.38,217.03c-.61,.61-1.59,.61-2.2,0s-.61-1.59,0-2.2,1.59-.61,2.2,0c.61,.61,.61,1.59,0,2.2Z"/>
      </g>
      <g>
        <rect class="cls-2" x="78.06" y="188.78" width="15.14" height="53.26" transform="translate(301.04 129.79) rotate(90)"/>
        <g>
          <rect class="cls-8" x="101.2" y="211.73" width="11.37" height="7.37" transform="translate(322.3 108.53) rotate(90)"/>
          <rect class="cls-10" x="92.27" y="211.73" width="11.37" height="7.37" transform="translate(313.37 117.46) rotate(90)"/>
          <rect class="cls-9" x="83.34" y="211.73" width="11.37" height="7.37" transform="translate(304.44 126.39) rotate(90)"/>
          <rect class="cls-11" x="74.41" y="211.73" width="11.37" height="7.37" transform="translate(295.51 135.32) rotate(90)"/>
          <rect class="cls-6" x="65.48" y="211.73" width="11.37" height="7.37" transform="translate(286.58 144.24) rotate(90)"/>
        </g>
        <path class="cls-17" d="M62.61,216.97c-.86,0-1.56-.7-1.56-1.56s.7-1.56,1.56-1.56,1.56,.7,1.56,1.56-.7,1.56-1.56,1.56Z"/>
      </g>
      <g>
        <polygon class="cls-14" points="443.75 223.03 401.91 223.03 401.91 169.32 432.97 169.32 443.75 179.55 443.75 223.03"/>
        <rect class="cls-2" x="401.91" y="207.31" width="41.84" height="15.72"/>
        <polygon class="cls-8" points="401.91 207.31 415.14 194.63 427.14 207.31 401.91 207.31"/>
        <polygon class="cls-8" points="418.9 207.31 434.62 187.45 443.75 198.98 443.75 207.31 418.9 207.31"/>
        <path class="cls-3" d="M415.61,186.27c0,2.59-2.1,4.69-4.69,4.69s-4.69-2.1-4.69-4.69,2.1-4.69,4.69-4.69,4.69,2.1,4.69,4.69Z"/>
        <polygon class="cls-2" points="432.97 169.32 443.75 179.55 432.97 179.55 432.97 169.32"/>
        <g>
          <path class="cls-7" d="M411.63,216.92c.16-.05,.32,.04,.36,.18,.3,.92,1.15,1.58,2.16,1.57,1.25,0,2.27-1.01,2.27-2.25v-5.27c0-.16,.13-.29,.29-.29s.29,.13,.29,.29v5.27c0,1.58-1.27,2.84-2.84,2.84-1.26,0-2.35-.83-2.71-1.97-.05-.16,.04-.32,.19-.37Z"/>
          <path class="cls-7" d="M419.26,211.15c0-.16,.13-.29,.29-.29h2.38c1.32,0,2.39,1.08,2.39,2.4s-1.07,2.39-2.39,2.39l-2.08,.02v3.3c0,.16-.13,.29-.3,.29-.16,0-.29-.13-.29-.29v-7.82Zm2.66,3.93c1-.01,1.81-.83,1.81-1.82s-.82-1.81-1.81-1.81h-2.08v3.63h2.08Z"/>
          <path class="cls-7" d="M430.17,215.48c-.17,0-.3-.12-.3-.29s.13-.3,.3-.3h2.63c.14,.01,.26,.14,.26,.3v2.93c-.01,.08-.05,.17-.11,.22-.74,.59-1.68,.92-2.71,.92-2.41-.01-4.37-1.9-4.37-4.27s1.95-4.25,4.37-4.25c1.04,0,1.97,.36,2.72,.95,.11,.08,.14,.29,.04,.41-.1,.12-.28,.14-.42,.05-.61-.5-1.44-.82-2.34-.82-2.1,0-3.78,1.64-3.78,3.66s1.68,3.68,3.78,3.68c.82,0,1.59-.26,2.22-.72v-2.47h-2.29Z"/>
        </g>
      </g>
    </g>
  </g>
</svg>