<?xml version="1.0" encoding="UTF-8"?>
<svg xmlns="http://www.w3.org/2000/svg" xmlns:xlink="http://www.w3.org/1999/xlink" width="59px" height="59px" viewBox="0 0 59 59" version="1.1">
<g id="surface1">
<path style=" stroke:none;fill-rule:nonzero;fill:rgb(80%,56.078431%,23.137255%);fill-opacity:1;" d="M 59 29.5 C 59 45.792969 45.792969 59 29.5 59 C 13.207031 59 0 45.792969 0 29.5 C 0 13.207031 13.207031 0 29.5 0 C 45.792969 0 59 13.207031 59 29.5 Z M 59 29.5 "/>
<path style=" stroke:none;fill-rule:nonzero;fill:rgb(100%,100%,100%);fill-opacity:1;" d="M 45.21875 18.390625 C 45.21875 16.292969 44.4375 14.578125 43.480469 14.578125 L 15.515625 14.578125 C 14.5625 14.578125 13.78125 16.292969 13.78125 18.390625 L 13.78125 40.554688 C 13.78125 42.707031 14.5625 44.421875 15.515625 44.421875 L 43.457031 44.421875 C 44.414062 44.421875 45.191406 42.707031 45.191406 40.605469 L 45.191406 18.390625 Z M 23.808594 30.242188 C 23.808594 32.011719 24.691406 32.949219 26.40625 32.949219 C 26.792969 32.949219 26.957031 32.949219 27.511719 32.839844 L 27.511719 27.589844 C 26.957031 27.476562 26.847656 27.421875 26.40625 27.421875 C 24.746094 27.421875 23.808594 28.472656 23.808594 30.242188 Z M 20.492188 30.296875 C 20.492188 26.980469 22.703125 24.769531 26.128906 24.769531 C 26.679688 24.769531 27.011719 24.824219 27.566406 24.9375 L 27.566406 20.183594 L 30.882812 20.183594 L 30.882812 35.105469 C 29.222656 35.4375 27.953125 35.546875 26.625 35.546875 C 22.59375 35.546875 20.492188 33.777344 20.492188 30.296875 Z M 35.800781 32.617188 C 35.800781 35.214844 35.6875 36.484375 35.136719 37.589844 C 34.585938 38.640625 33.976562 39.304688 32.539062 40.023438 L 29.5 38.585938 C 30.9375 37.921875 31.546875 37.316406 31.988281 36.375 C 32.429688 35.4375 32.484375 34.332031 32.484375 31.511719 L 32.484375 25.15625 L 35.800781 25.15625 Z M 35.800781 23.5 L 32.484375 23.5 L 32.484375 20.183594 L 35.800781 20.183594 Z M 35.800781 23.5 "/>
</g>
</svg>
