<?xml version="1.0" encoding="UTF-8"?>
<svg xmlns="http://www.w3.org/2000/svg" xmlns:xlink="http://www.w3.org/1999/xlink" width="59px" height="59px" viewBox="0 0 59 59" version="1.1">
<g id="surface1">
<path style=" stroke:none;fill-rule:nonzero;fill:rgb(80%,56.078431%,23.137255%);fill-opacity:1;" d="M 59 29.5 C 59 45.792969 45.792969 59 29.5 59 C 13.207031 59 0 45.792969 0 29.5 C 0 13.207031 13.207031 0 29.5 0 C 45.792969 0 59 13.207031 59 29.5 Z M 59 29.5 "/>
<path style=" stroke:none;fill-rule:nonzero;fill:rgb(100%,100%,100%);fill-opacity:1;" d="M 38.605469 28.703125 L 38.640625 28.039062 L 38.640625 27.839844 L 38.375 27.839844 C 37.976562 27.839844 37.542969 27.9375 37.246094 28.136719 C 36.78125 28.402344 36.511719 28.902344 36.511719 29.601562 C 36.511719 30.597656 37.011719 31.164062 37.875 31.164062 C 38.140625 31.164062 38.308594 31.128906 38.640625 31.027344 L 38.640625 29.601562 C 38.640625 29.601562 38.605469 28.703125 38.605469 28.703125 Z M 13.8125 29.566406 C 13.8125 30.628906 14.34375 31.195312 15.371094 31.195312 C 15.605469 31.195312 15.707031 31.195312 16.039062 31.128906 L 16.039062 27.972656 C 15.703125 27.90625 15.636719 27.871094 15.371094 27.871094 C 14.375 27.871094 13.8125 28.5 13.8125 29.566406 Z M 23.648438 30.863281 C 23.648438 31.261719 23.882812 31.429688 24.414062 31.429688 C 24.714844 31.429688 25.011719 31.394531 25.34375 31.328125 L 25.34375 29.996094 C 24.015625 30.132812 23.648438 30.332031 23.648438 30.863281 Z M 44.589844 27.839844 C 43.828125 27.839844 43.363281 28.46875 43.363281 29.566406 C 43.363281 30.664062 43.792969 31.296875 44.589844 31.296875 C 45.390625 31.296875 45.789062 30.664062 45.789062 29.566406 C 45.789062 28.46875 45.355469 27.839844 44.589844 27.839844 Z M 50.273438 22.820312 C 50.273438 21.554688 49.246094 20.523438 47.980469 20.523438 L 11.019531 20.523438 C 9.757812 20.523438 8.726562 21.554688 8.726562 22.820312 L 8.726562 36.148438 C 8.726562 37.445312 9.753906 38.476562 11.019531 38.476562 L 47.949219 38.476562 C 49.210938 38.476562 50.242188 37.445312 50.242188 36.179688 L 50.242188 22.820312 Z M 11.816406 29.601562 C 11.816406 27.605469 13.144531 26.277344 15.207031 26.277344 C 15.539062 26.277344 15.738281 26.308594 16.070312 26.375 L 16.070312 23.515625 L 18.066406 23.515625 L 18.066406 32.492188 C 17.066406 32.691406 16.304688 32.757812 15.503906 32.757812 C 13.078125 32.757812 11.816406 31.695312 11.816406 29.601562 Z M 21.023438 30.996094 C 21.023438 32.558594 20.957031 33.324219 20.625 33.988281 C 20.292969 34.617188 19.925781 35.019531 19.0625 35.449219 L 17.234375 34.585938 C 18.097656 34.1875 18.464844 33.820312 18.730469 33.257812 C 18.996094 32.691406 19.03125 32.027344 19.03125 30.332031 L 19.03125 26.507812 L 21.023438 26.507812 Z M 21.023438 25.511719 L 19.03125 25.511719 L 19.03125 23.515625 L 21.023438 23.515625 Z M 27.007812 32.589844 C 26.34375 32.726562 25.078125 32.824219 24.25 32.824219 C 22.585938 32.824219 21.890625 32.257812 21.890625 30.964844 C 21.890625 29.566406 22.988281 28.9375 25.3125 28.738281 L 25.3125 28.304688 C 25.3125 27.9375 25.144531 27.804688 24.648438 27.804688 C 23.917969 27.804688 22.988281 28.003906 22.320312 28.402344 L 22.320312 26.875 C 23.316406 26.476562 24.015625 26.277344 24.914062 26.277344 C 25.910156 26.277344 26.507812 26.542969 26.808594 27.074219 C 26.976562 27.375 26.976562 27.738281 26.976562 28.570312 L 26.976562 32.59375 L 27.007812 32.59375 Z M 33.988281 32.824219 L 31.996094 32.824219 L 31.996094 28.902344 C 31.996094 28.136719 31.660156 27.871094 30.964844 27.871094 C 30.699219 27.871094 30.332031 27.90625 30 28.003906 L 30 32.824219 L 28.007812 32.824219 L 28.007812 26.742188 C 29.335938 26.441406 30.167969 26.308594 31.128906 26.308594 C 32.09375 26.308594 32.925781 26.542969 33.355469 26.976562 C 33.789062 27.40625 33.988281 27.839844 33.988281 28.835938 Z M 40.40625 28.96875 L 40.636719 30.828125 L 40.636719 31.394531 C 40.636719 33.089844 40.4375 33.886719 40.003906 34.519531 C 39.40625 35.484375 38.308594 35.949219 36.78125 35.949219 C 36.015625 35.949219 35.285156 35.847656 34.621094 35.546875 L 34.621094 33.722656 C 35.285156 34.085938 36.015625 34.253906 36.75 34.253906 C 38.046875 34.253906 38.609375 33.722656 38.609375 32.492188 L 38.609375 32.457031 C 38.277344 32.65625 37.8125 32.722656 37.3125 32.722656 C 35.585938 32.722656 34.488281 31.59375 34.488281 29.796875 C 34.488281 27.570312 36.117188 26.308594 38.976562 26.308594 C 39.804688 26.308594 40.605469 26.410156 41.535156 26.574219 L 40.769531 28.003906 C 40.238281 27.902344 41.203125 28.003906 40.539062 27.9375 M 44.558594 32.855469 C 42.597656 32.855469 41.371094 31.625 41.371094 29.632812 C 41.371094 27.636719 42.632812 26.273438 44.628906 26.273438 C 46.621094 26.273438 47.785156 27.503906 47.785156 29.53125 C 47.816406 31.558594 46.554688 32.855469 44.5625 32.855469 Z M 44.558594 32.855469 "/>
</g>
</svg>
