<svg xmlns="http://www.w3.org/2000/svg" xmlns:xlink="http://www.w3.org/1999/xlink" width="59" height="59" viewBox="0 0 59 59">
  <defs>
    <clipPath id="clip-path">
      <rect id="Rectangle_19" data-name="Rectangle 19" width="59" height="59" transform="translate(0)" fill="none"/>
    </clipPath>
  </defs>
  <g id="Groupe_100" data-name="Groupe 100" transform="translate(0)">
    <g id="Groupe_99" data-name="Groupe 99" transform="translate(0 0)" clip-path="url(#clip-path)">
      <path id="Tracé_50" data-name="Tracé 50" d="M59,29.5A29.5,29.5,0,1,1,29.5,0,29.5,29.5,0,0,1,59,29.5" transform="translate(0 0)" fill="#cc8f3b"/>
      <path id="Tracé_51" data-name="Tracé 51" d="M113.7,110.886c0-2.769-3.493-5.393-8.848-7.021,1.236-5.419.687-9.73-1.734-11.11a3.785,3.785,0,0,0-1.922-.477v1.9a2,2,0,0,1,.978.222c1.167.665,1.673,3.195,1.279,6.45-.094.8-.249,1.644-.438,2.5a41.884,41.884,0,0,0-5.45-.929A41.635,41.635,0,0,0,94,98.166c2.8-2.582,5.424-4,7.209-4v-1.9c-2.36,0-5.449,1.67-8.573,4.567C89.509,93.957,86.42,92.3,84.06,92.3v1.9c1.776,0,4.411,1.406,7.209,3.97a40.292,40.292,0,0,0-3.544,4.252,40.357,40.357,0,0,0-5.458.937c-.2-.852-.343-1.678-.446-2.471-.4-3.255.094-5.785,1.253-6.458a1.921,1.921,0,0,1,.987-.222v-1.9a3.848,3.848,0,0,0-1.94.477c-2.411,1.38-2.952,5.683-1.708,11.085-5.338,1.636-8.814,4.252-8.814,7.012s3.493,5.393,8.848,7.021c-1.236,5.419-.687,9.73,1.734,11.11a3.794,3.794,0,0,0,1.931.477c2.36,0,5.449-1.67,8.573-4.567,3.124,2.88,6.213,4.533,8.573,4.533a3.848,3.848,0,0,0,1.94-.477c2.411-1.38,2.952-5.683,1.708-11.085C110.226,116.271,113.7,113.647,113.7,110.886ZM102.528,105.2c-.318,1.1-.712,2.232-1.159,3.365-.352-.682-.721-1.363-1.124-2.045s-.815-1.346-1.236-1.994C100.228,104.709,101.4,104.931,102.528,105.2Zm-3.93,9.074c-.669,1.15-1.356,2.241-2.068,3.255-1.279.111-2.575.17-3.879.17s-2.592-.06-3.862-.162q-1.069-1.521-2.077-3.238c-.652-1.116-1.244-2.249-1.785-3.391.532-1.142,1.133-2.283,1.776-3.4.669-1.15,1.356-2.241,2.068-3.255,1.279-.111,2.575-.17,3.879-.17s2.592.06,3.862.162q1.068,1.521,2.077,3.238.978,1.674,1.785,3.391C99.833,112.02,99.241,113.161,98.6,114.277Zm2.772-1.108c.463,1.142.858,2.283,1.184,3.391-1.124.273-2.309.5-3.536.682.421-.656.841-1.329,1.236-2.019S101.018,113.851,101.37,113.17Zm-8.7,9.091a35.154,35.154,0,0,1-2.386-2.726c.772.034,1.562.06,2.36.06s1.6-.017,2.386-.06a33.319,33.319,0,0,1-2.36,2.726m-6.385-5.018c-1.219-.179-2.394-.4-3.519-.673.318-1.1.712-2.232,1.159-3.365.352.682.721,1.363,1.124,2.045s.815,1.346,1.236,1.994m6.342-17.73a35.173,35.173,0,0,1,2.386,2.727c-.772-.034-1.562-.06-2.36-.06s-1.6.017-2.386.06a33.339,33.339,0,0,1,2.36-2.727m-6.351,5.018c-.421.656-.841,1.329-1.236,2.019s-.764,1.363-1.116,2.045c-.463-1.142-.858-2.283-1.184-3.391C83.862,104.939,85.047,104.709,86.274,104.53ZM78.507,115.2c-3.038-1.287-5-2.973-5-4.311s1.965-3.033,5-4.311c.738-.315,1.545-.6,2.377-.86a40.739,40.739,0,0,0,1.931,5.189,40.164,40.164,0,0,0-1.905,5.163C80.061,115.8,79.254,115.513,78.507,115.2Zm4.617,12.175c-1.167-.665-1.673-3.2-1.279-6.45.094-.8.249-1.644.438-2.5a41.847,41.847,0,0,0,5.449.929,41.634,41.634,0,0,0,3.57,4.26c-2.8,2.582-5.424,4-7.209,4A2.06,2.06,0,0,1,83.125,127.373Zm20.356-6.492c.4,3.255-.094,5.785-1.253,6.458a1.921,1.921,0,0,1-.987.221c-1.776,0-4.411-1.406-7.209-3.97a40.321,40.321,0,0,0,3.544-4.252,40.343,40.343,0,0,0,5.458-.937,23.685,23.685,0,0,1,.446,2.479m3.3-5.683c-.738.315-1.545.6-2.377.861a40.739,40.739,0,0,0-1.931-5.189,40.16,40.16,0,0,0,1.905-5.163c.85.264,1.656.554,2.412.869,3.038,1.287,5,2.974,5,4.311S109.823,113.919,106.785,115.2Z" transform="translate(-63.15 -81.382)" fill="#fff"/>
      <path id="Tracé_52" data-name="Tracé 52" d="M220.612,217.039a3.894,3.894,0,1,1-3.922,3.894,3.908,3.908,0,0,1,3.922-3.894" transform="translate(-191.121 -191.428)" fill="#fff"/>
    </g>
  </g>
</svg>
