<svg xmlns="http://www.w3.org/2000/svg" width="59" height="59" viewBox="0 0 59 59"><g transform="translate(-665 -1490)"><g transform="translate(343 346)"><circle cx="29.5" cy="29.5" r="29.5" transform="translate(322 1144)" fill="#cc8f3b"/></g><path d="M4.62,0H23.267a4.659,4.659,0,0,1,4.619,4.629v.213l7.933-3.514a.962.962,0,0,1,1.348.879V21.734a.961.961,0,0,1-1.419.846l-7.863-3.634v.367a4.622,4.622,0,0,1-1.371,3.259l-.006.006a4.608,4.608,0,0,1-3.243,1.363H4.62A4.66,4.66,0,0,1,0,19.312V4.629A4.641,4.641,0,0,1,4.62,0Zm7.863,16.528-3.349.892.485-3.594,2.865,2.7Zm3.268-9.9a.3.3,0,0,1,.387-.058l2.538,2.308a.27.27,0,0,1-.009.388l-5.456,6.448-2.862-2.7,5.4-6.385Zm12.2.288v9.95l7.291,3.37V3.684L27.954,6.913Zm-4.687-4.99H4.62A2.715,2.715,0,0,0,1.9,4.629V19.312a2.68,2.68,0,0,0,.795,1.9,2.719,2.719,0,0,0,1.922.807H23.267a2.752,2.752,0,0,0,2.716-2.706V4.629a2.733,2.733,0,0,0-2.716-2.706Z" transform="translate(675.916 1507.53)" fill="#fff"/></g></svg>