<?xml version="1.0" encoding="UTF-8"?>
<svg xmlns="http://www.w3.org/2000/svg" xmlns:xlink="http://www.w3.org/1999/xlink" width="59px" height="59px" viewBox="0 0 59 59" version="1.1">
<g id="surface1">
<path style=" stroke:none;fill-rule:nonzero;fill:rgb(80%,56.078431%,23.137255%);fill-opacity:1;" d="M 59 29.5 C 59 45.792969 45.792969 59 29.5 59 C 13.207031 59 0 45.792969 0 29.5 C 0 13.207031 13.207031 0 29.5 0 C 45.792969 0 59 13.207031 59 29.5 Z M 59 29.5 "/>
<path style=" stroke:none;fill-rule:nonzero;fill:rgb(93.72549%,84.313725%,74.901961%);fill-opacity:1;" d="M 29.257812 8.839844 C 27.570312 8.847656 25.960938 8.992188 24.546875 9.242188 C 20.375 9.980469 19.617188 11.523438 19.617188 14.367188 L 19.617188 18.125 L 29.476562 18.125 L 29.476562 19.375 L 15.917969 19.375 C 13.050781 19.375 10.542969 21.097656 9.757812 24.375 C 8.855469 28.128906 8.8125 30.472656 9.757812 34.394531 C 10.460938 37.3125 12.132812 39.390625 14.996094 39.390625 L 18.386719 39.390625 L 18.386719 34.886719 C 18.386719 31.632812 21.203125 28.765625 24.546875 28.765625 L 34.390625 28.765625 C 37.132812 28.765625 39.320312 26.507812 39.320312 23.753906 L 39.320312 14.367188 C 39.320312 11.695312 37.066406 9.6875 34.390625 9.242188 C 32.699219 8.957031 30.941406 8.832031 29.257812 8.839844 Z M 23.925781 11.863281 C 24.945312 11.863281 25.777344 12.707031 25.777344 13.746094 C 25.777344 14.78125 24.945312 15.617188 23.925781 15.617188 C 22.902344 15.617188 22.074219 14.78125 22.074219 13.746094 C 22.074219 12.710938 22.902344 11.863281 23.925781 11.863281 Z M 23.925781 11.863281 "/>
<path style=" stroke:none;fill-rule:nonzero;fill:rgb(100%,100%,100%);fill-opacity:1;" d="M 40.550781 19.375 L 40.550781 23.753906 C 40.550781 27.148438 37.675781 30.003906 34.390625 30.003906 L 24.546875 30.003906 C 21.847656 30.003906 19.617188 32.3125 19.617188 35.011719 L 19.617188 44.398438 C 19.617188 47.070312 21.941406 48.644531 24.546875 49.410156 C 27.667969 50.328125 30.65625 50.492188 34.390625 49.410156 C 36.875 48.691406 39.320312 47.246094 39.320312 44.398438 L 39.320312 40.644531 L 29.472656 40.644531 L 29.472656 39.390625 L 44.25 39.390625 C 47.113281 39.390625 48.183594 37.390625 49.179688 34.390625 C 50.207031 31.304688 50.164062 28.335938 49.179688 24.371094 C 48.472656 21.519531 47.117188 19.375 44.25 19.375 Z M 35.011719 43.148438 C 36.035156 43.148438 36.863281 43.984375 36.863281 45.019531 C 36.863281 46.054688 36.035156 46.90625 35.011719 46.90625 C 33.992188 46.90625 33.164062 46.058594 33.164062 45.019531 C 33.164062 43.980469 33.996094 43.148438 35.011719 43.148438 Z M 35.011719 43.148438 "/>
</g>
</svg>
