<?xml version="1.0" encoding="UTF-8"?>
<svg id="Calque_1" data-name="Calque 1" xmlns="http://www.w3.org/2000/svg" viewBox="0 0 500 500">
  <defs>
    <style>
      .cls-1 {
        fill: #fff;
      }

      .cls-2 {
        fill: #cc8f3b;
      }
    </style>
  </defs>
  <circle class="cls-2" cx="250" cy="250" r="250"/>
  <g>
    <path class="cls-1" d="M428.4,250.04c0-23.47-29.6-45.71-74.98-59.5,10.47-45.92,5.82-82.46-14.69-94.15-4.73-2.74-10.25-4.04-16.29-4.04v16.1c3.35,0,6.04,.65,8.29,1.88,9.89,5.63,14.18,27.08,10.84,54.66-.8,6.79-2.11,13.94-3.71,21.23-14.25-3.47-29.82-6.14-46.18-7.87-9.82-13.36-20-25.49-30.25-36.1,23.71-21.88,45.96-33.86,61.09-33.86v-16.1c-20,0-46.18,14.15-72.66,38.7-26.47-24.4-52.65-38.41-72.66-38.41v16.1c15.05,0,37.38,11.91,61.09,33.65-10.18,10.61-20.36,22.67-30.04,36.03-16.44,1.73-32,4.4-46.25,7.94-1.67-7.22-2.91-14.22-3.78-20.94-3.42-27.58,.8-49.03,10.62-54.73,2.18-1.3,5.02-1.88,8.36-1.88v-16.1c-6.11,0-11.64,1.3-16.44,4.04-20.44,11.7-25.02,48.16-14.47,93.94-45.24,13.86-74.69,36.03-74.69,59.42s29.6,45.71,74.98,59.5c-10.47,45.92-5.82,82.46,14.69,94.15,4.73,2.74,10.25,4.04,16.36,4.04,20,0,46.18-14.15,72.66-38.7,26.47,24.4,52.65,38.41,72.66,38.41,6.11,0,11.64-1.3,16.44-4.04,20.44-11.7,25.02-48.16,14.47-93.94,45.09-13.79,74.55-36.03,74.55-59.42h0Zm-94.69-48.16c-2.69,9.31-6.04,18.92-9.82,28.52-2.98-5.78-6.11-11.55-9.53-17.33-3.35-5.78-6.91-11.41-10.47-16.9,10.33,1.52,20.29,3.39,29.82,5.7h0Zm-33.31,76.9c-5.67,9.75-11.49,18.99-17.53,27.58-10.84,.94-21.82,1.44-32.87,1.44s-21.96-.51-32.73-1.37c-6.04-8.59-11.93-17.76-17.6-27.44-5.53-9.46-10.55-19.06-15.13-28.74,4.51-9.68,9.6-19.35,15.05-28.81,5.67-9.75,11.49-18.99,17.53-27.58,10.84-.94,21.82-1.44,32.87-1.44s21.96,.51,32.73,1.37c6.04,8.59,11.93,17.76,17.6,27.44,5.53,9.46,10.55,19.06,15.13,28.74-4.58,9.68-9.6,19.35-15.05,28.81h0Zm23.49-9.39c3.93,9.68,7.27,19.35,10.04,28.74-9.53,2.31-19.56,4.26-29.96,5.78,3.56-5.56,7.13-11.26,10.47-17.11,3.35-5.78,6.47-11.62,9.45-17.4h0Zm-73.75,77.04c-6.76-6.93-13.53-14.66-20.22-23.11,6.55,.29,13.24,.51,20,.51s13.6-.14,20.22-.51c-6.55,8.45-13.31,16.17-20,23.11Zm-54.11-42.53c-10.33-1.52-20.29-3.39-29.82-5.7,2.69-9.31,6.04-18.92,9.82-28.52,2.98,5.78,6.11,11.55,9.53,17.33,3.42,5.78,6.91,11.41,10.47,16.9Zm53.75-150.26c6.76,6.93,13.53,14.66,20.22,23.11-6.55-.29-13.24-.51-20-.51s-13.6,.14-20.22,.51c6.55-8.45,13.31-16.17,20-23.11Zm-53.82,42.53c-3.56,5.56-7.13,11.26-10.47,17.11-3.35,5.78-6.47,11.55-9.45,17.33-3.93-9.68-7.27-19.35-10.04-28.74,9.53-2.24,19.56-4.19,29.96-5.7h0Zm-65.82,90.4c-25.75-10.9-42.4-25.2-42.4-36.54s16.65-25.7,42.4-36.54c6.25-2.67,13.09-5.05,20.15-7.29,4.15,14.15,9.6,28.88,16.36,43.97-6.69,15.02-12.07,29.68-16.15,43.76-7.2-2.24-14.04-4.69-20.36-7.36h0Zm39.13,103.18c-9.89-5.63-14.18-27.08-10.84-54.66,.8-6.79,2.11-13.94,3.71-21.23,14.25,3.47,29.82,6.14,46.18,7.87,9.82,13.36,20,25.49,30.25,36.1-23.71,21.88-45.96,33.86-61.09,33.86-3.27-.07-6.04-.72-8.22-1.95h0Zm172.51-55.02c3.42,27.58-.8,49.03-10.62,54.73-2.18,1.3-5.02,1.88-8.36,1.88-15.05,0-37.38-11.91-61.09-33.65,10.18-10.61,20.36-22.67,30.04-36.03,16.44-1.73,32-4.4,46.25-7.94,1.67,7.29,2.98,14.3,3.78,21.01Zm28-48.16c-6.25,2.67-13.09,5.05-20.15,7.29-4.15-14.15-9.6-28.88-16.36-43.97,6.69-15.02,12.07-29.68,16.15-43.76,7.2,2.24,14.04,4.69,20.44,7.36,25.75,10.9,42.4,25.2,42.4,36.54-.07,11.34-16.73,25.7-42.47,36.54h0Z"/>
    <ellipse class="cls-1" cx="249.93" cy="250.04" rx="33.24" ry="33"/>
  </g>
</svg>