<svg xmlns="http://www.w3.org/2000/svg" width="59" height="59" viewBox="0 0 59 59"><g transform="translate(-1348 -1126)"><g transform="translate(1026 -18)"><circle cx="29.5" cy="29.5" r="29.5" transform="translate(322 1144)" fill="#cc8f3b"/></g><g transform="translate(1360.321 1139.112)"><path d="M2.086,0H31.96a2.074,2.074,0,0,1,1.465.612h0l0,0,0,0,0,0a2.077,2.077,0,0,1,.61,1.465V12.447a2.983,2.983,0,0,0-.527-.379,3.473,3.473,0,0,0-1.355-.45V7.459h0a1.122,1.122,0,0,1-.2.018H2.086a1.074,1.074,0,0,1-.2-.018V30.688a.2.2,0,0,0,.056.142h0l0,0a.194.194,0,0,0,.142.056H17.6a3.239,3.239,0,0,0,.467,1.888H2.089a2.074,2.074,0,0,1-1.468-.612l0,0,0,0,0,0A2.067,2.067,0,0,1,0,30.691V2.08A2.105,2.105,0,0,1,.615.61C.639.586.66.565.683.544A2.085,2.085,0,0,1,2.086,0Zm14.22,14.137a.864.864,0,0,1,0-1.722H28.185a.811.811,0,0,1,.769.648L27.916,14.14H16.306v0Zm0,4.355a.864.864,0,0,1,0-1.722h9.069l-1.663,1.722Zm10.1,10.474-1.82.574c-.607.192-1.213.414-1.82.607-1.438.447-2.234.734-2.4.766s-.062-.607.287-2.012l1.148-4.373.095-.095,4.506,4.533Zm-2.843-6.228L31.6,14.415a.49.49,0,0,1,.607-.095l4.024,3.9a.428.428,0,0,1-.033.639l-8.131,8.418-4.5-4.536ZM34.043,25.2v5.5a2.091,2.091,0,0,1-2.083,2.083H23.593l.151-.047.148-.041c.163-.05.55-.183.935-.317.2-.068.4-.136.811-.266l1.746-.55,0-.006a2.98,2.98,0,0,0,1.133-.66H31.96a.213.213,0,0,0,.2-.2V27.143L34.043,25.2ZM5.772,27.354a.865.865,0,0,1,0-1.722H18.678l-.453,1.722ZM5.459,23.59a.865.865,0,0,1,0-1.722H20.525a3.05,3.05,0,0,0-.473.388l-.015.015a2.986,2.986,0,0,0-.82,1.32H5.459Zm-.58-13.368h8.654v8.731H4.879V10.222Zm9.009-7.536a1.352,1.352,0,1,1-1.352,1.352,1.352,1.352,0,0,1,1.352-1.352Zm-4.728,0A1.352,1.352,0,1,1,7.808,4.039,1.352,1.352,0,0,1,9.16,2.687Zm-4.725,0A1.352,1.352,0,1,1,3.083,4.039,1.352,1.352,0,0,1,4.435,2.687Z" fill="#fff" fill-rule="evenodd"/></g></g></svg>