<svg xmlns="http://www.w3.org/2000/svg" width="59" height="59" viewBox="0 0 59 59"><g transform="translate(-1011 -1490)"><g transform="translate(-337 364)"><g transform="translate(1026 -18)"><circle cx="29.5" cy="29.5" r="29.5" transform="translate(322 1144)" fill="#cc8f3b"/></g></g><path d="M22.894,20l5.4-9.331,3.67,9.282-1.8,2.215a9.286,9.286,0,0,0-1.776,3.023H7.264V23.366l2.267-.11,2.23-5.495L12.894,21.7H16.25l2.925-7.532,3.711,5.846ZM4.089,0H35.72A4.1,4.1,0,0,1,39.81,4.089v6.3l-2.1,2.464-.457.563V4.452A1.542,1.542,0,0,0,35.739,2.94H4.452A1.542,1.542,0,0,0,2.94,4.452V26.6a1.542,1.542,0,0,0,1.512,1.512H27.259a17.529,17.529,0,0,0-.378,2.732l-.026.193H4.089A4.1,4.1,0,0,1,0,26.964V4.089A4.1,4.1,0,0,1,4.089,0ZM36.858,29.8,31.1,31.167l.646-6.2Zm-3.345-6.75,7.558-8.375a.544.544,0,0,1,.378-.189.525.525,0,0,1,.272.064l4.561,4.157a.476.476,0,0,1,.147.329.465.465,0,0,1-.159.378l-7.649,8.462-5.117-4.826ZM11.538,8.416a2.7,2.7,0,1,1-2.7,2.7,2.7,2.7,0,0,1,2.7-2.7Z" transform="translate(1020.007 1503.917)" fill="#fff"/></g></svg>