<svg xmlns="http://www.w3.org/2000/svg" width="59" height="59" viewBox="0 0 59 59"><g transform="translate(-1348 -1490)"><g transform="translate(0 364)"><g transform="translate(1026 -18)"><circle cx="29.5" cy="29.5" r="29.5" transform="translate(322 1144)" fill="#cc8f3b"/></g></g><g transform="translate(-150.652 -422.652)"><path d="M10.674,1.928a8.1,8.1,0,1,0,8.1,8.1,8.1,8.1,0,0,0-8.1-8.1Zm0,15.194a7.067,7.067,0,0,1-2.805-.577l3.69-4.151a.507.507,0,0,0,.128-.336V10.538a.506.506,0,0,0-.506-.506c-1.788,0-3.675-1.859-3.694-1.878a.506.506,0,0,0-.358-.148H5.1a.507.507,0,0,0-.506.506v3.039a.506.506,0,0,0,.28.453l1.746.873v2.974A7.095,7.095,0,0,1,4.266,6.993h1.85a.507.507,0,0,0,.358-.148L8.5,4.819a.507.507,0,0,0,.148-.358V3.235a7.111,7.111,0,0,1,5.133.421c-.066.055-.129.113-.191.175a3.039,3.039,0,0,0,2.147,5.188q.075,0,.151,0a11.894,11.894,0,0,1-.133,5.893.505.505,0,0,0-.013.083,7.069,7.069,0,0,1-5.067,2.131Z" transform="translate(1517.478 1932.12)" fill="#fff"/><g transform="translate(1510 1924)"><path d="M19.784,38.8a4.305,4.305,0,0,1-4.3-4.3v-.135A1.713,1.713,0,0,0,14.356,32.8l-.059-.024a1.722,1.722,0,0,0-1.9.341l-.095.095a4.3,4.3,0,1,1-6.084-6.085l.094-.094a1.715,1.715,0,0,0,.341-1.9l0-.01a1.722,1.722,0,0,0-1.577-1.044H4.8a4.3,4.3,0,0,1,0-8.6h.135A1.713,1.713,0,0,0,6.5,14.356q.011-.03.024-.059a1.715,1.715,0,0,0-.341-1.9l-.095-.095a4.3,4.3,0,1,1,6.085-6.084l.094.094a1.722,1.722,0,0,0,1.9.341,1,1,0,0,1,.3-.079,1.722,1.722,0,0,0,.891-1.5V4.8a4.3,4.3,0,0,1,8.6,0v.149A1.72,1.72,0,0,0,25,6.521l.01,0a1.722,1.722,0,0,0,1.9-.341L27,6.09a4.3,4.3,0,1,1,6.084,6.085l-.094.094a1.715,1.715,0,0,0-.341,1.9,1,1,0,0,1,.079.3,1.722,1.722,0,0,0,1.5.891H34.5a4.3,4.3,0,1,1,0,8.6h-.149A1.721,1.721,0,0,0,32.782,25l0,.01a1.715,1.715,0,0,0,.341,1.9l.095.095a4.3,4.3,0,1,1-6.085,6.084l-.094-.094a1.722,1.722,0,0,0-1.9-.341l-.01,0a1.722,1.722,0,0,0-1.044,1.577V34.5A4.305,4.305,0,0,1,19.784,38.8Zm-4.708-7.868a3.7,3.7,0,0,1,2.407,3.4q0,.012,0,.023V34.5a2.3,2.3,0,1,0,4.6,0v-.281a3.742,3.742,0,0,1,6.353-2.662l.008.008.1.1A2.3,2.3,0,1,0,31.8,28.412l-.1-.1-.008-.008a3.745,3.745,0,0,1,2.658-6.353H34.5a2.3,2.3,0,0,0,0-4.6h-.281A3.722,3.722,0,0,1,30.812,15.1a1,1,0,0,1-.079-.325,3.7,3.7,0,0,1,.827-3.9l.008-.008.1-.1A2.3,2.3,0,1,0,28.412,7.5l-.1.1-.008.008a3.745,3.745,0,0,1-6.353-2.658V4.8a2.3,2.3,0,0,0-4.6,0v.281A3.722,3.722,0,0,1,15.1,8.492a1,1,0,0,1-.326.079,3.723,3.723,0,0,1-3.9-.827l-.008-.008-.1-.1A2.3,2.3,0,1,0,7.5,10.892l.1.1L7.611,11a3.7,3.7,0,0,1,.757,4.077,3.7,3.7,0,0,1-3.4,2.407H4.8a2.3,2.3,0,1,0,0,4.6h.281a3.745,3.745,0,0,1,2.662,6.353l-.008.008-.1.1A2.3,2.3,0,1,0,10.892,31.8l.1-.1L11,31.693a3.722,3.722,0,0,1,4.077-.757Z" transform="translate(-1.5 -1.5)" fill="#fff"/></g></g></g></svg>