<svg xmlns="http://www.w3.org/2000/svg" width="1920" height="250.24" viewBox="0 0 1920 250.24"><g transform="translate(0 -1908.943)"><rect width="1920" height="250.24" transform="translate(0 1908.943)" fill="#0f0f0f"/><g transform="translate(372.13 1855.513)"><path d="M867.926,32.84l16.112,6.476V91.285l-16.215,6.531L841.939,72.177,825.567,84.863l-6.5-3.262V49.062l6.5-3.1,16.372,12.8,25.987-25.905Zm-42.36,22.848V75.432l9.773-10.005-9.773-9.738Zm25.406,9.738L867.824,78.64V52.166L850.973,65.434Z" transform="translate(-20.35 112.469)" fill="#cc8f3b"/><g transform="translate(1329.266 145.309)"><path d="M765.936,183.7a33.307,33.307,0,0,0-10.529,64.905c1.664.308,2.272-.72,2.272-1.6,0-.8-.028-3.419-.042-6.2-9.263,2.013-11.221-3.929-11.221-3.929-1.517-3.852-3.7-4.873-3.7-4.873-3.02-2.069.231-2.027.231-2.027,3.342.238,5.1,3.433,5.1,3.433,2.971,5.09,7.788,3.621,9.69,2.768a7.107,7.107,0,0,1,2.111-4.453c-7.4-.839-15.171-3.7-15.171-16.457a12.893,12.893,0,0,1,3.433-8.942,11.935,11.935,0,0,1,.322-8.816s2.8-.895,9.158,3.412a31.558,31.558,0,0,1,16.681-.007c6.355-4.307,9.151-3.412,9.151-3.412a11.992,11.992,0,0,1,.329,8.816,12.888,12.888,0,0,1,3.426,8.942c0,12.794-7.788,15.6-15.206,16.429,1.2,1.035,2.258,3.062,2.258,6.166,0,4.453-.042,8.04-.042,9.137,0,.888.6,1.923,2.286,1.6a33.311,33.311,0,0,0-10.55-64.905h0Z" transform="translate(-732.63 -183.69)" fill="#cc8f3b" fill-rule="evenodd"/><path d="M750.294,251.87c-.07.168-.336.217-.573.1s-.377-.336-.3-.5.336-.217.573-.1.378.336.294.5h0Zm1.349,1.5c-.161.147-.468.077-.678-.154s-.259-.545-.1-.692.468-.077.685.154.259.545.091.692Zm1.314,1.916c-.2.14-.538.007-.741-.287a.591.591,0,0,1,0-.8c.2-.14.538-.014.741.28a.6.6,0,0,1,0,.8Zm1.8,1.853c-.182.2-.573.147-.853-.126a.641.641,0,0,1-.189-.853c.189-.2.573-.147.86.126s.378.65.182.853Zm2.482,1.077c-.084.259-.454.378-.832.266s-.622-.419-.545-.685.454-.384.832-.266S757.313,257.953,757.237,258.218Zm2.727.2c.007.273-.308.5-.706.51s-.72-.217-.727-.482.315-.5.713-.51.72.217.72.482h0Zm2.538-.433c.049.266-.231.545-.622.615s-.741-.1-.8-.364.231-.552.622-.622.748.091.8.363h0Z" transform="translate(-737.676 -204.037)" fill="#cc8f3b"/></g><g transform="translate(1068.758 145.309)"><path d="M964.734,38.813l20.4-2.143,20.4,2.143,15.794,21.024-36.192,41.809L948.94,59.836l15.794-21.024Z" transform="translate(-948.94 -36.67)" fill="#fdb300"/><path d="M963.606,67.82l21.529,41.8L948.95,67.82Z" transform="translate(-948.943 -44.646)" fill="#7f582d"/><path d="M1019.12,67.82l-21.53,41.8,36.192-41.8Z" transform="translate(-961.398 -44.646)" fill="#7f582d"/><path d="M968.65,67.82h43.059l-21.529,41.8Z" transform="translate(-953.987 -44.646)" fill="#ba803a"/><path d="M990.18,36.67l-20.4,2.143L968.65,59.844Z" transform="translate(-953.987 -36.67)" fill="#cc8f3b"/><path d="M997.59,36.67l20.4,2.143,1.131,21.031Z" transform="translate(-961.398 -36.67)" fill="#cc8f3b"/><path d="M1040.8,60.581,1025.01,39.55l1.131,21.031Z" transform="translate(-968.419 -37.407)" fill="#b57a33"/><path d="M990.18,36.67,968.65,59.844h43.059Z" transform="translate(-953.987 -36.67)" fill="#eda145"/><path d="M948.95,60.581,964.736,39.55l-1.131,21.031Z" transform="translate(-948.943 -37.407)" fill="#b57a33"/></g><path d="M300.09,63.483V94.125h61.285V32.84H300.09Zm49.383-2.451a7.629,7.629,0,0,1,3.832,2.206,10.12,10.12,0,0,1,1.471,1.961c0,.077-2.645,1.871-4.258,2.871-.058.039-.3-.213-.555-.6a3.477,3.477,0,0,0-2.877-1.729c-1.858-.129-3.051.845-3.045,2.451a2.3,2.3,0,0,0,.264,1.148c.406.845,1.168,1.355,3.548,2.38,4.387,1.89,6.264,3.135,7.432,4.9a8.894,8.894,0,0,1,.71,7.47c-.981,2.548-3.38,4.277-6.78,4.851a18.552,18.552,0,0,1-4.671-.052,11.249,11.249,0,0,1-6.219-3.213,10.9,10.9,0,0,1-1.593-2.361,4.31,4.31,0,0,1,.561-.355l2.258-1.3,1.761-1.019.368.542A8.206,8.206,0,0,0,344,83.416c1.961,1.032,4.638.89,5.961-.3a2.663,2.663,0,0,0,.335-3.393c-.49-.684-1.471-1.258-4.213-2.451-3.161-1.361-4.522-2.206-5.774-3.548a8.114,8.114,0,0,1-1.684-3.064,12.311,12.311,0,0,1-.11-3.922,7.456,7.456,0,0,1,6.283-5.819,15.407,15.407,0,0,1,4.651.129v-.013ZM335.087,63.6v2.509h-7.954V88.771h-5.645V66.1h-7.98V63.65a23.6,23.6,0,0,1,.071-2.529c.032-.039,4.9-.058,10.786-.052h10.7l.032,2.522Z" transform="translate(-411.796 112.463)" fill="#cc8f3b"/><g transform="translate(-219.13 145.309)"><path d="M241.947,166.2l17.409-.019-29.211,31.845-7.613,8.254-8.661-9.461L241.947,166.2Zm-.163,28.431c.225-.326.642-.163.958-.206h16.6l-15.13,16.49-8.7-9.437Z" transform="translate(-213.87 -166.18)" fill="#cc8f3b"/><path d="M240.94,249.346l8.681-9.456,8.7,9.437.038.043-8.743,9.447-8.681-9.471h0Z" transform="translate(-227.979 -204.598)" fill="#cc8f3b"/><path d="M259.07,269.137l8.743-9.447,15.1,16.485c-5.688.014-11.371,0-17.059.01-.326.081-.527-.244-.733-.445l-6.052-6.607h0Z" transform="translate(-237.428 -214.918)" fill="#7f582d"/></g><g transform="translate(11.517 145.309)"><path d="M352.786,234.658l-5.2-58.5h57.133l-5.2,58.468-23.419,6.507" transform="translate(-347.59 -176.16)" fill="#7f582d"/><path d="M395.09,239.333v-55.2h23.352l-4.456,49.91" transform="translate(-366.523 -179.337)" fill="#cc8f3b"/><path d="M365.24,196.03h17.952V203.2h-10.11l.662,7.343h9.448V217.7h-16m.313,3.6h7.181l.505,5.731,8,2.147v7.487l-14.674-4.108" transform="translate(-354.625 -184.08)" fill="#222221"/><path d="M412.958,196.03H395.036V203.2H412.3m-.643,7.343H395.036v7.169h8.817l-.836,9.316-7.987,2.147v7.457l14.644-4.078" transform="translate(-366.499 -184.08)" fill="#222221"/></g><g transform="translate(1203.081 145.309)"><path d="M1020.645,181.973a43.972,43.972,0,0,0-7.406.633c-6.556,1.159-7.749,3.585-7.749,8.052v5.9h15.5v1.968H999.675a9.681,9.681,0,0,0-9.683,7.857,28.94,28.94,0,0,0,0,15.748c1.1,4.589,3.733,7.857,8.234,7.857h5.33v-7.082a9.852,9.852,0,0,1,9.683-9.629h15.478a7.808,7.808,0,0,0,7.749-7.877V190.646c0-4.2-3.544-7.352-7.749-8.052a48.037,48.037,0,0,0-8.072-.633Zm-8.383,4.751a2.955,2.955,0,1,1-2.911,2.965A2.941,2.941,0,0,1,1012.262,186.724Z" transform="translate(-988.9 -181.959)" fill="#7f582d"/><path d="M1046.421,206.56v6.88a9.937,9.937,0,0,1-9.683,9.825h-15.478a7.91,7.91,0,0,0-7.749,7.877V245.9c0,4.2,3.652,6.671,7.749,7.877a25.914,25.914,0,0,0,15.478,0c3.9-1.132,7.749-3.4,7.749-7.877V240h-15.478v-1.968h23.227c4.5,0,6.179-3.14,7.749-7.857,1.617-4.852,1.55-9.521,0-15.748-1.112-4.481-3.241-7.857-7.749-7.857h-5.815Zm-8.706,37.372a2.955,2.955,0,1,1-2.911,2.945A2.928,2.928,0,0,1,1037.715,243.932Z" transform="translate(-996.927 -189.983)" fill="#cc8f3b"/></g><g transform="translate(257.373 145.309)"><rect width="64.975" height="64.975" fill="#cc8f3b"/><path d="M533.347,247.058c1.306,2.134,3.009,3.707,6.026,3.707,2.531,0,4.145-1.265,4.145-3.009,0-2.093-1.662-2.838-4.446-4.056l-1.525-.657c-4.4-1.874-7.332-4.227-7.332-9.2,0-4.582,3.488-8.064,8.939-8.064,3.885,0,6.675,1.354,8.686,4.89l-4.753,3.05c-1.046-1.874-2.175-2.62-3.933-2.62a2.673,2.673,0,0,0-2.92,2.62c0,1.833,1.135,2.572,3.755,3.707l1.525.657c5.184,2.223,8.119,4.494,8.119,9.589,0,5.5-4.316,8.508-10.116,8.508s-9.336-2.7-11.128-6.244l4.959-2.879Zm-21.572.527c.957,1.7,1.833,3.139,3.933,3.139s3.269-.787,3.269-3.837V226.129h6.108v20.847c0,6.32-3.707,9.2-9.117,9.2a9.475,9.475,0,0,1-9.158-5.574l4.972-3.009Z" transform="translate(-489.705 -196.295)" fill="#222221"/></g><g transform="translate(933.736 145.309)"><path d="M857.07,182.67h64.975v64.976H857.07V182.67Z" transform="translate(-857.07 -182.67)" fill="#cc8f3b"/><path d="M910.392,215.865a3.97,3.97,0,0,0-1.71-.3c-3.721,0-6.2,2.948-6.2,7.831,0,5.588,2.538,7.831,5.848,7.831a5.362,5.362,0,0,0,2.038-.335V215.865Zm-13.234,7.77c0-7.072,4.432-12.6,11.7-12.6a12.641,12.641,0,0,1,1.539.062v-7.893a.3.3,0,0,1,.294-.3h4.753c.239,0,.294.089.294.246V230.9a21.779,21.779,0,0,0,.151,2.975c0,.212,0,.246-.178.335a17.156,17.156,0,0,1-7.558,1.758c-6.409,0-10.984-4.07-10.984-12.325h0Zm-10.068-4.918,8.269,16.49c.15.246.061.486-.178.486h-5.137a.582.582,0,0,1-.622-.4q-2.832-6.012-5.786-12.482h-.061c-1.772,4.07-3.721,8.5-5.609,12.509a.563.563,0,0,1-.533.335h-4.9c-.294,0-.321-.246-.178-.424l8.091-16-7.825-15.909a.27.27,0,0,1,.205-.458H877.9c.294,0,.445.062.533.335,1.86,4.035,3.748,8.016,5.52,12.085h.062c1.71-4.008,3.6-8.043,5.4-12.024.151-.246.239-.4.534-.4h4.753c.239,0,.321.185.178.458l-7.8,15.4h0Z" transform="translate(-861.873 -189.054)" fill="#222221"/></g><path d="M685.27,27.759c0,.432,1.114,13.157,2.5,28.28,1.352,15.093,2.527,27.909,2.557,28.457l.085.98L702.3,88.716l11.86,3.239,2.381-.633c1.291-.347,6.606-1.79,11.83-3.209,8.1-2.2,9.486-2.661,9.6-3.154.146-.694,5.139-56.421,5.139-57.346V26.98H685.27v.779Zm47.179,12.292c-.116.694-.883,8.907-1.7,18.308-.852,9.37-1.559,17.12-1.613,17.175-.116.146-14.533,4.079-14.947,4.079-.292,0-8.164-2.113-13.534-3.617l-1.5-.432-.353-3.817c-.177-2.113-.414-4.658-.53-5.668l-.177-1.79h3.671c4.14,0,4.024-.055,4.049,2.46a17,17,0,0,0,.177,2.2l.177,1.041,4.024,1.041,3.994,1.041,3.964-1.041c2.174-.578,3.994-1.072,3.994-1.072.03-.03.207-1.735.384-3.787.177-2.082.384-4.1.469-4.566l.146-.779H697.946l-.146-.664c-.085-.347-.262-2.021-.384-3.757l-.207-3.093h26.454l.177-1.967c.116-1.072.292-2.715.384-3.641.116-1.187.085-1.65-.146-1.5-.177.085-6.429.085-13.948-.03L696.479,46l-.177-2.052c-.116-1.126-.262-2.746-.353-3.586l-.177-1.5h36.816l-.146,1.212Z" transform="translate(-20.398 118.329)" fill="#cc8f3b"/><g transform="translate(523.41 145.309)"><path d="M679.968,215.178c0-4.836-6.095-9.412-15.445-12.258,2.155-9.46,1.2-16.984-3.023-19.392a6.581,6.581,0,0,0-3.359-.835v3.318a3.492,3.492,0,0,1,1.71.39c2.038,1.163,2.921,5.575,2.23,11.259-.164,1.4-.438,2.873-.766,4.371a73.232,73.232,0,0,0-9.515-1.621,72.508,72.508,0,0,0-6.232-7.435c4.884-4.508,9.467-6.977,12.586-6.977V182.68c-4.118,0-9.515,2.914-14.966,7.969-5.452-5.028-10.849-7.914-14.966-7.914v3.318c3.1,0,7.7,2.456,12.586,6.929a71.1,71.1,0,0,0-6.19,7.422,70.761,70.761,0,0,0-9.528,1.635c-.342-1.484-.6-2.928-.78-4.316-.7-5.684.164-10.1,2.189-11.273a3.367,3.367,0,0,1,1.724-.39v-3.318a6.7,6.7,0,0,0-3.386.835c-4.207,2.408-5.151,9.918-2.982,19.351-9.316,2.852-15.384,7.422-15.384,12.244s6.095,9.412,15.445,12.258c-2.155,9.46-1.2,16.984,3.023,19.392a6.6,6.6,0,0,0,3.372.835c4.118,0,9.515-2.914,14.966-7.969,5.452,5.028,10.849,7.914,14.966,7.914a6.7,6.7,0,0,0,3.386-.835c4.207-2.408,5.151-9.918,2.982-19.351,9.289-2.839,15.356-7.422,15.356-12.244h0ZM660.46,205.26c-.554,1.915-1.245,3.9-2.025,5.876-.616-1.19-1.259-2.38-1.963-3.571s-1.423-2.353-2.155-3.482c2.127.315,4.179.7,6.143,1.177ZM653.6,221.1c-1.17,2.011-2.367,3.913-3.612,5.684-2.23.192-4.494.294-6.772.294s-4.521-.1-6.745-.28q-1.867-2.657-3.625-5.65-1.7-2.924-3.119-5.917c.93-1.991,1.977-3.988,3.1-5.937,1.17-2.011,2.367-3.913,3.612-5.684,2.23-.192,4.494-.294,6.772-.294s4.521.1,6.745.28q1.867,2.657,3.625,5.65,1.7,2.924,3.119,5.917c-.944,1.991-1.977,3.988-3.1,5.937Zm4.836-1.936c.807,1.99,1.5,3.988,2.066,5.917-1.963.479-4.029.876-6.17,1.19.732-1.142,1.471-2.319,2.155-3.523s1.334-2.394,1.949-3.584Zm-15.192,15.869a61.329,61.329,0,0,1-4.166-4.761c1.347.062,2.729.1,4.118.1s2.8-.027,4.166-.1A59.466,59.466,0,0,1,643.243,235.035ZM632.1,226.273c-2.127-.315-4.179-.7-6.143-1.177.554-1.915,1.245-3.9,2.025-5.876.616,1.19,1.259,2.38,1.963,3.571s1.423,2.353,2.155,3.482Zm11.074-30.952a61.333,61.333,0,0,1,4.166,4.761c-1.348-.062-2.729-.1-4.118-.1s-2.8.027-4.166.1A59.459,59.459,0,0,1,643.175,195.321Zm-11.088,8.762c-.732,1.142-1.471,2.319-2.155,3.523s-1.334,2.38-1.949,3.571c-.807-1.991-1.5-3.988-2.066-5.917,1.963-.458,4.029-.862,6.17-1.177ZM618.529,222.7c-5.3-2.244-8.735-5.192-8.735-7.524s3.434-5.294,8.735-7.524c1.286-.547,2.7-1.04,4.152-1.5a70.862,70.862,0,0,0,3.372,9.057,69.869,69.869,0,0,0-3.324,9.015,43.357,43.357,0,0,1-4.193-1.519h0Zm8.058,21.253c-2.038-1.163-2.921-5.575-2.23-11.259.164-1.4.438-2.873.766-4.371a73.226,73.226,0,0,0,9.515,1.621,72.507,72.507,0,0,0,6.232,7.435c-4.884,4.508-9.467,6.977-12.586,6.977a3.541,3.541,0,0,1-1.69-.4h0Zm35.535-11.334c.7,5.684-.164,10.1-2.189,11.273a3.367,3.367,0,0,1-1.724.39c-3.1,0-7.7-2.456-12.586-6.929a71.117,71.117,0,0,0,6.19-7.422,70.76,70.76,0,0,0,9.528-1.635,42.093,42.093,0,0,1,.78,4.33Zm5.766-9.918c-1.286.547-2.695,1.04-4.152,1.5a70.841,70.841,0,0,0-3.372-9.057,69.852,69.852,0,0,0,3.324-9.015c1.484.458,2.893.964,4.207,1.519,5.3,2.244,8.735,5.192,8.735,7.524s-3.447,5.294-8.749,7.524h0Z" transform="translate(-606.47 -182.68)" fill="#cc8f3b"/><ellipse cx="6.847" cy="6.799" rx="6.847" ry="6.799" transform="translate(29.885 25.699)" fill="#cc8f3b"/></g><g transform="translate(400.603 145.309)"><path d="M570.475,32.84H612.44a11.645,11.645,0,0,1,11.505,11.8V86.016a11.645,11.645,0,0,1-11.505,11.8H570.475a11.645,11.645,0,0,1-11.505-11.8V44.646a11.645,11.645,0,0,1,11.505-11.8Z" transform="translate(-558.97 -32.84)" fill="#cc8f3b"/><path d="M596.548,78.378H586.48L584.421,84.9a.476.476,0,0,1-.513.39h-5.089c-.3,0-.376-.164-.3-.5l8.721-25.74c.082-.28.164-.581.274-.917a9.853,9.853,0,0,0,.164-1.806.278.278,0,0,1,.219-.308h7.011c.219,0,.321.082.349.219l9.884,28.606c.082.308,0,.445-.274.445h-5.657a.4.4,0,0,1-.431-.308l-2.223-6.608Zm-8.5-5.636h6.875c-.164-.581-.376-1.279-.622-2-.246-.752-.486-1.553-.732-2.387-.274-.862-.513-1.7-.787-2.558s-.513-1.669-.732-2.469c-.219-.78-.4-1.5-.6-2.168H591.4a34.468,34.468,0,0,1-.923,3.584c-.4,1.334-.814,2.722-1.245,4.111-.376,1.416-.787,2.722-1.19,3.885h0Zm23.12-11.861a3.309,3.309,0,0,1-2.408-.971,3.656,3.656,0,0,1-.923-2.558,3.278,3.278,0,0,1,.978-2.469,3.446,3.446,0,0,1,2.408-.971,3.207,3.207,0,0,1,2.462.971,3.884,3.884,0,0,1-.055,5.028,3.155,3.155,0,0,1-2.462.971Zm-3.03,24.1V63.6c0-.28.109-.39.349-.39h5.363c.246,0,.349.137.349.39V84.985c0,.308-.109.445-.349.445h-5.308C608.266,85.43,608.136,85.266,608.136,84.985Z" transform="translate(-565.138 -39.498)" fill="#222221"/></g><g transform="translate(146.905 145.309)"><path d="M483.26,70.134a10.834,10.834,0,1,1,10.833,10.834A10.835,10.835,0,0,1,483.26,70.134Z" transform="translate(-461.619 -37.633)" fill="#7f582d"/><path d="M441.17,112.224A10.835,10.835,0,0,1,452,101.39h10.834v10.834a10.834,10.834,0,1,1-21.667,0Z" transform="translate(-441.17 -58.081)" fill="#7f582d"/><path d="M483.26,17.181V38.827h10.833a10.834,10.834,0,1,0,0-21.667H483.26v.026Z" transform="translate(-461.619 -17.16)" fill="#cc8f3b"/><path d="M441.17,28.034A10.835,10.835,0,0,0,452,38.867h10.834V17.2H452A10.818,10.818,0,0,0,441.17,28.034Z" transform="translate(-441.17 -17.179)" fill="#7f582d"/><path d="M441.17,70.134A10.835,10.835,0,0,0,452,80.967h10.834V59.3H452A10.835,10.835,0,0,0,441.17,70.134Z" transform="translate(-441.17 -37.633)" fill="#cc8f3b"/></g></g></g></svg>