<svg xmlns="http://www.w3.org/2000/svg" width="59" height="59" viewBox="0 0 59 59"><g transform="translate(-1025 -1142)"><g transform="translate(703 -2)"><circle cx="29.5" cy="29.5" r="29.5" transform="translate(322 1144)" fill="#cc8f3b"/></g><g transform="translate(1024.138 1444.82)"><path d="M33.545,33.04H38.5v9.574a8.184,8.184,0,0,1-.444,2.68,5.918,5.918,0,0,1-1.388,2.218,5.579,5.579,0,0,1-1.986,1.331,10.031,10.031,0,0,1-3.471.53,22.6,22.6,0,0,1-2.555-.164,6.714,6.714,0,0,1-2.314-.646,5.7,5.7,0,0,1-1.7-1.388,5.044,5.044,0,0,1-1.061-1.851,9.552,9.552,0,0,1-.463-2.719V33.03h4.956v9.8A2.808,2.808,0,0,0,28.8,44.88a3.108,3.108,0,0,0,4.021.01,2.787,2.787,0,0,0,.723-2.063V33.04Zm8.437,0h4.985V49.1H41.982V33.04ZM28.734,56.469h4.811v9.295a7.724,7.724,0,0,1-.434,2.6,5.648,5.648,0,0,1-1.35,2.15,5.386,5.386,0,0,1-1.928,1.292,9.735,9.735,0,0,1-3.375.521,21.346,21.346,0,0,1-2.488-.164,6.384,6.384,0,0,1-2.247-.636,5.521,5.521,0,0,1-1.649-1.34A5.1,5.1,0,0,1,19.044,68.4a9.259,9.259,0,0,1-.444-2.632V56.469h4.811v9.517a2.728,2.728,0,0,0,.7,1.986,2.62,2.62,0,0,0,1.957.723,2.679,2.679,0,0,0,1.948-.7,2.729,2.729,0,0,0,.7-2.006V56.469Zm6.923,0h5.313l2.767,4.8,2.68-4.8h5.255l-4.85,7.559,5.3,8.041H46.7L43.64,67.056,40.555,72.07H35.184l5.38-8.128-4.908-7.472Z" transform="translate(-5 -326)" fill="#fff" fill-rule="evenodd"/></g></g></svg>