<?xml version="1.0" encoding="UTF-8"?>
<svg xmlns="http://www.w3.org/2000/svg" viewBox="0 0 750 500">
  <defs>
    <style>
      .cls-1 {
        opacity: .1;
      }

      .cls-2 {
        fill: #f7a9a0;
      }

      .cls-3 {
        fill: #ebebeb;
      }

      .cls-4 {
        fill: #ff9bbc;
      }

      .cls-5 {
        fill: #fff;
      }

      .cls-6 {
        fill: #ffa0bc;
      }

      .cls-7 {
        fill: #ff9cbd;
      }

      .cls-8 {
        fill: #ffc4c0;
      }

      .cls-9 {
        fill: #ffc727;
      }

      .cls-10 {
        fill: #a6a6a6;
      }

      .cls-11 {
        fill: #ad6359;
      }

      .cls-12 {
        fill: #ca8d3b;
      }

      .cls-13 {
        fill: #c7c7c7;
      }

      .cls-14 {
        fill: #dbdbdb;
      }

      .cls-15 {
        fill: #161616;
      }

      .cls-16 {
        fill: #455a64;
      }

      .cls-17 {
        fill: #2b2b2b;
      }

      .cls-18 {
        fill: #263238;
      }

      .cls-19 {
        stroke-dasharray: 0 0 2.91 2.91;
      }

      .cls-19, .cls-20, .cls-21, .cls-22, .cls-23, .cls-24 {
        fill: none;
      }

      .cls-19, .cls-20, .cls-22, .cls-23, .cls-24 {
        stroke-width: .5px;
      }

      .cls-19, .cls-21, .cls-22, .cls-23, .cls-24 {
        stroke-miterlimit: 10;
      }

      .cls-19, .cls-22, .cls-24 {
        stroke: #263238;
      }

      .cls-20 {
        stroke-linecap: round;
        stroke-linejoin: round;
      }

      .cls-20, .cls-23 {
        stroke: #161616;
      }

      .cls-21 {
        stroke: #fff;
      }

      .cls-25 {
        opacity: .4;
      }

      .cls-26 {
        opacity: .6;
      }

      .cls-27 {
        opacity: .5;
      }

      .cls-22 {
        stroke-dasharray: 0 0 2.95 2.95;
      }
    </style>
  </defs>
  <g id="Background_Complete" data-name="Background Complete">
    <g>
      <path class="cls-3" d="M146,372.68l12.97-20.91-6.44-3.99c-1.88-1.16-2.86-3.3-2.68-5.5,.1-1.19,.14-2.39,.12-3.59-.04-2.23,1.08-4.32,3.05-5.38l6.64-3.56-11.63-21.69-6.64,3.56c-1.91,1.02-4.24,.92-6.01-.33-1.07-.75-2.19-1.44-3.33-2.06-1.91-1.04-3.05-3.08-2.98-5.25l.24-7.53-24.6-.76-.23,7.56c-.07,2.18-1.36,4.12-3.34,5.05-.58,.27-1.15,.56-1.71,.86-.56,.3-1.12,.62-1.66,.95-1.85,1.13-4.18,1.14-6.02,0l-6.45-4-12.97,20.91,6.46,4.01c1.87,1.16,2.85,3.3,2.66,5.5-.1,1.19-.14,2.38-.12,3.58,.04,2.23-1.09,4.32-3.05,5.37l-6.64,3.56,11.63,21.69,6.64-3.56c1.97-1.05,4.33-.84,6.16,.43,.99,.68,2,1.31,3.05,1.88,1.94,1.06,3.17,3.05,3.1,5.26l-.23,7.6,24.6,.76,.23-7.55c.07-2.21,1.42-4.13,3.42-5.07,.55-.26,1.09-.53,1.63-.82,.54-.29,1.06-.59,1.58-.9,1.9-1.15,4.25-1.21,6.14-.04l6.41,3.98Zm-18.59-16.92c-10.84,7.7-25.84,3.17-30.61-9.24-3.25-8.45-.3-18.27,7.08-23.51,10.83-7.71,25.88-3.17,30.64,9.25,3.24,8.45,.27,18.26-7.11,23.5Z"/>
      <path class="cls-3" d="M58.29,162.16c.88,.51,1.37,1.48,1.32,2.5-.01,.28-.02,.55-.02,.83s0,.56,.02,.84c.05,1.02-.43,1.98-1.31,2.49l-3.01,1.74,5.66,9.81,3.01-1.74c.88-.51,1.97-.46,2.82,.1,.47,.31,.96,.59,1.46,.85,.91,.46,1.49,1.38,1.49,2.39v3.47h11.33v-3.47c0-1.02,.58-1.93,1.49-2.39,.5-.26,.99-.54,1.46-.85,.85-.56,1.94-.61,2.82-.1l3.01,1.74,5.66-9.81-3.02-1.75c-.88-.51-1.36-1.47-1.31-2.49,.01-.28,.02-.55,.02-.83s0-.56-.02-.83c-.05-1.02,.43-1.99,1.32-2.5l3.02-1.74-5.66-9.81-3,1.73c-.88,.51-1.97,.46-2.82-.1-.47-.31-.96-.59-1.47-.85-.91-.46-1.49-1.38-1.49-2.39v-3.47h-11.33v3.47c0,1.02-.58,1.93-1.49,2.39-.51,.26-1,.54-1.47,.85-.85,.56-1.94,.61-2.82,.1l-3-1.73-5.66,9.81,3.01,1.74Zm17.1-5.95c5.12,0,9.28,4.16,9.28,9.28s-4.16,9.28-9.28,9.28-9.28-4.15-9.28-9.28,4.15-9.28,9.28-9.28Z"/>
      <path class="cls-3" d="M657.51,135.61c.88,.51,1.37,1.48,1.32,2.5-.01,.28-.02,.55-.02,.83s0,.56,.02,.84c.05,1.02-.43,1.98-1.31,2.49l-3.01,1.74,5.66,9.81,3.01-1.74c.88-.51,1.97-.46,2.82,.1,.47,.31,.96,.59,1.46,.85,.91,.46,1.49,1.38,1.49,2.39v3.47h11.33v-3.47c0-1.02,.58-1.93,1.49-2.39,.5-.26,.99-.54,1.46-.85,.85-.56,1.94-.61,2.82-.1l3.01,1.74,5.66-9.81-3.02-1.75c-.88-.51-1.36-1.47-1.31-2.49,.01-.28,.02-.55,.02-.83s0-.56-.02-.83c-.05-1.02,.43-1.99,1.32-2.5l3.02-1.74-5.66-9.81-3,1.73c-.88,.51-1.97,.46-2.82-.1-.47-.31-.96-.59-1.47-.85-.91-.46-1.49-1.38-1.49-2.39v-3.47h-11.33v3.47c0,1.02-.58,1.93-1.49,2.39-.51,.26-1,.54-1.47,.85-.85,.56-1.94,.61-2.82,.1l-3-1.73-5.66,9.81,3.01,1.74Zm17.1-5.95c5.12,0,9.28,4.16,9.28,9.28s-4.16,9.28-9.28,9.28-9.28-4.15-9.28-9.28,4.15-9.28,9.28-9.28Z"/>
    </g>
    <g>
      <g>
        <polygon class="cls-3" points="666.92 115.25 665.45 115.25 665.45 114.27 665.94 114.27 665.94 113.78 666.92 113.78 666.92 115.25"/>
        <path class="cls-3" d="M663.5,115.25h-1.95v-.98h1.95v.98Zm-3.9,0h-1.95v-.98h1.95v.98Zm-3.9,0h-1.95v-.98h1.95v.98Zm-3.9,0h-1.95v-.98h1.95v.98Zm-3.9,0h-1.95v-.98h1.95v.98Zm-3.9,0h-1.95v-.98h1.95v.98Zm-3.9,0h-1.95v-.98h1.95v.98Zm-3.9,0h-1.95v-.98h1.95v.98Zm-3.9,0h-1.95v-.98h1.95v.98Zm-3.9,0h-1.95v-.98h1.95v.98Zm-3.9,0h-1.95v-.98h1.95v.98Zm-3.9,0h-1.95v-.98h1.95v.98Zm-3.9,0h-1.95v-.98h1.95v.98Zm-3.9,0h-1.95v-.98h1.95v.98Zm-3.9,0h-1.95v-.98h1.95v.98Zm-3.9,0h-1.95v-.98h1.95v.98Zm-3.9,0h-1.95v-.98h1.95v.98Z"/>
        <polygon class="cls-3" points="597.22 115.25 595.75 115.25 595.75 113.78 596.73 113.78 596.73 114.27 597.22 114.27 597.22 115.25"/>
        <path class="cls-3" d="M596.73,111.83h-.98v-1.95h.98v1.95Zm0-3.9h-.98v-1.95h.98v1.95Zm0-3.9h-.98v-1.95h.98v1.95Zm0-3.9h-.98v-1.95h.98v1.95Zm0-3.9h-.98v-1.95h.98v1.95Zm0-3.9h-.98v-1.95h.98v1.95Zm0-3.9h-.98v-1.95h.98v1.95Zm0-3.9h-.98v-1.95h.98v1.95Zm0-3.9h-.98v-1.95h.98v1.95Zm0-3.9h-.98v-1.95h.98v1.95Zm0-3.9h-.98v-1.95h.98v1.95Zm0-3.9h-.98v-1.95h.98v1.95Zm0-3.9h-.98v-1.95h.98v1.95Zm0-3.9h-.98v-1.95h.98v1.95Zm0-3.9h-.98v-1.95h.98v1.95Zm0-3.9h-.98v-1.95h.98v1.95Zm0-3.9h-.98v-1.95h.98v1.95Z"/>
        <polygon class="cls-3" points="596.73 45.55 595.75 45.55 595.75 44.08 597.22 44.08 597.22 45.06 596.73 45.06 596.73 45.55"/>
        <path class="cls-3" d="M663.5,45.06h-1.95v-.98h1.95v.98Zm-3.9,0h-1.95v-.98h1.95v.98Zm-3.9,0h-1.95v-.98h1.95v.98Zm-3.9,0h-1.95v-.98h1.95v.98Zm-3.9,0h-1.95v-.98h1.95v.98Zm-3.9,0h-1.95v-.98h1.95v.98Zm-3.9,0h-1.95v-.98h1.95v.98Zm-3.9,0h-1.95v-.98h1.95v.98Zm-3.9,0h-1.95v-.98h1.95v.98Zm-3.9,0h-1.95v-.98h1.95v.98Zm-3.9,0h-1.95v-.98h1.95v.98Zm-3.9,0h-1.95v-.98h1.95v.98Zm-3.9,0h-1.95v-.98h1.95v.98Zm-3.9,0h-1.95v-.98h1.95v.98Zm-3.9,0h-1.95v-.98h1.95v.98Zm-3.9,0h-1.95v-.98h1.95v.98Zm-3.9,0h-1.95v-.98h1.95v.98Z"/>
        <polygon class="cls-3" points="666.92 45.55 665.94 45.55 665.94 45.06 665.45 45.06 665.45 44.08 666.92 44.08 666.92 45.55"/>
        <path class="cls-3" d="M666.92,111.84h-.98v-1.95h.98v1.95Zm0-3.9h-.98v-1.95h.98v1.95Zm0-3.9h-.98v-1.95h.98v1.95Zm0-3.9h-.98v-1.95h.98v1.95Zm0-3.9h-.98v-1.95h.98v1.95Zm0-3.9h-.98v-1.95h.98v1.95Zm0-3.9h-.98v-1.95h.98v1.95Zm0-3.9h-.98v-1.95h.98v1.95Zm0-3.9h-.98v-1.95h.98v1.95Zm0-3.9h-.98v-1.95h.98v1.95Zm0-3.9h-.98v-1.95h.98v1.95Zm0-3.9h-.98v-1.95h.98v1.95Zm0-3.9h-.98v-1.95h.98v1.95Zm0-3.9h-.98v-1.95h.98v1.95Zm0-3.9h-.98v-1.95h.98v1.95Zm0-3.9h-.98v-1.95h.98v1.95Zm0-3.9h-.98v-1.95h.98v1.95Z"/>
      </g>
      <g>
        <rect class="cls-5" x="591.87" y="110.39" width="8.75" height="8.75"/>
        <path class="cls-3" d="M601.1,119.62h-9.72v-9.72h9.72v9.72Zm-8.75-.98h7.77v-7.77h-7.77v7.77Z"/>
      </g>
      <g>
        <rect class="cls-5" x="591.9" y="75.29" width="8.75" height="8.75"/>
        <path class="cls-3" d="M601.1,84.53h-9.72v-9.72h9.72v9.72Zm-8.75-.98h7.77v-7.77h-7.77v7.77Z"/>
      </g>
      <g>
        <rect class="cls-5" x="591.9" y="40.2" width="8.75" height="8.75"/>
        <path class="cls-3" d="M601.1,49.43h-9.72v-9.72h9.72v9.72Zm-8.75-.98h7.77v-7.77h-7.77v7.77Z"/>
      </g>
      <g>
        <rect class="cls-5" x="662.09" y="110.39" width="8.75" height="8.75"/>
        <path class="cls-3" d="M671.29,119.62h-9.72v-9.72h9.72v9.72Zm-8.75-.98h7.77v-7.77h-7.77v7.77Z"/>
      </g>
      <g>
        <rect class="cls-5" x="662.09" y="75.29" width="8.75" height="8.75"/>
        <path class="cls-3" d="M671.29,84.53h-9.72v-9.72h9.72v9.72Zm-8.75-.98h7.77v-7.77h-7.77v7.77Z"/>
      </g>
      <g>
        <rect class="cls-5" x="662.09" y="40.2" width="8.75" height="8.75"/>
        <path class="cls-3" d="M671.29,49.43h-9.72v-9.72h9.72v9.72Zm-8.75-.98h7.77v-7.77h-7.77v7.77Z"/>
      </g>
      <g>
        <rect class="cls-5" x="627" y="40.2" width="8.75" height="8.75"/>
        <path class="cls-3" d="M636.19,49.43h-9.72v-9.72h9.72v9.72Zm-8.75-.98h7.77v-7.77h-7.77v7.77Z"/>
      </g>
      <g>
        <rect class="cls-5" x="626.96" y="110.39" width="8.75" height="8.75"/>
        <path class="cls-3" d="M636.19,119.62h-9.72v-9.72h9.72v9.72Zm-8.75-.98h7.77v-7.77h-7.77v7.77Z"/>
      </g>
    </g>
  </g>
  <g id="Floor">
    <polygon class="cls-17" points="60.01 475.47 138.75 475.38 217.5 475.34 375 475.28 532.5 475.34 611.25 475.38 689.99 475.47 611.25 475.57 532.5 475.6 375 475.67 217.5 475.6 138.75 475.57 60.01 475.47"/>
  </g>
  <g id="Screen">
    <g>
      <g>
        <g>
          <rect class="cls-5" x="117.19" y="80.2" width="513.61" height="310.64"/>
          <path class="cls-13" d="M630.8,390.84l-513.61,.37h-.37s0-.37,0-.37l-.13-310.64v-.5s.5,0,.5,0l513.61,.21h.29s0,.29,0,.29l-.29,310.64Zm0,0l-.29-310.64,.29,.29-513.61,.21,.5-.5-.13,310.64-.37-.37,513.61,.37Z"/>
        </g>
        <rect class="cls-17" x="117.19" y="80.2" width="513.61" height="50.61"/>
        <g>
          <g>
            <rect class="cls-5" x="138.5" y="113.09" width="10.56" height="1.76"/>
            <rect class="cls-5" x="138.5" y="120.99" width="10.56" height="1.76"/>
            <rect class="cls-5" x="138.5" y="117.09" width="10.56" height="1.76"/>
          </g>
          <g>
            <rect class="cls-1" x="510.47" y="112.94" width="99.01" height="9.97"/>
            <rect class="cls-5" x="599.51" y="112.94" width="9.97" height="9.97"/>
            <g>
              <path class="cls-12" d="M607.66,120.72l-.92,.7-1.71-2.25-.62-.82c.12-.05,.25-.12,.36-.2,.22-.17,.37-.38,.47-.61l.66,.87,1.76,2.32Z"/>
              <path class="cls-12" d="M605.84,115.41c-.84-1.1-2.42-1.31-3.53-.46-1.1,.84-1.31,2.42-.46,3.53,.76,.99,2.11,1.26,3.18,.69,.12-.07,.24-.14,.35-.22,.21-.16,.38-.34,.52-.54,.62-.88,.63-2.09-.06-2.98Zm-1.08,2.72c-.11,.09-.23,.15-.36,.2-.61,.24-1.33,.07-1.75-.48-.51-.66-.38-1.6,.28-2.11,.66-.51,1.6-.38,2.11,.28,.34,.44,.39,1.01,.19,1.49-.1,.23-.26,.45-.47,.61Z"/>
            </g>
            <rect class="cls-5" x="512.56" y="114.9" width=".54" height="6.05"/>
          </g>
          <rect class="cls-21" x="188.7" y="113.09" width="47.44" height="9.67"/>
          <rect class="cls-21" x="246.56" y="113.09" width="47.44" height="9.67"/>
          <rect class="cls-15" x="304.42" y="113.09" width="47.44" height="9.67"/>
          <rect class="cls-21" x="362.28" y="113.09" width="47.44" height="9.67"/>
          <rect class="cls-21" x="420.14" y="113.09" width="47.44" height="9.67"/>
        </g>
      </g>
      <g>
        <rect class="cls-15" x="117.19" y="80.2" width="513.61" height="8.04"/>
        <g>
          <path class="cls-13" d="M123.58,84.22c0,1.1-.89,1.99-1.99,1.99s-1.99-.89-1.99-1.99,.89-1.99,1.99-1.99,1.99,.89,1.99,1.99Z"/>
          <path class="cls-5" d="M131.72,84.22c0,1.1-.89,1.99-1.99,1.99s-1.99-.89-1.99-1.99,.89-1.99,1.99-1.99,1.99,.89,1.99,1.99Z"/>
          <path class="cls-12" d="M139.86,84.22c0,1.1-.89,1.99-1.99,1.99s-1.99-.89-1.99-1.99,.89-1.99,1.99-1.99,1.99,.89,1.99,1.99Z"/>
        </g>
      </g>
      <g>
        <rect class="cls-14" x="621.97" y="130.82" width="8.82" height="260.03"/>
        <path class="cls-10" d="M626.38,220.96h0c-1.26,0-2.28-.88-2.28-1.96v-84.71c0-1.08,1.02-1.96,2.28-1.96h0c1.26,0,2.28,.88,2.28,1.96v84.71c0,1.08-1.02,1.96-2.28,1.96Z"/>
      </g>
      <g>
        <path class="cls-3" d="M138.69,143.37v38.11h38.11v-38.11h-38.11Zm2.88,35.23v-32.35h32.35v32.35h-32.35Z"/>
        <path class="cls-3" d="M580.45,343.55v38.11h38.11v-38.11h-38.11Zm2.88,35.23v-32.35h32.35v32.35h-32.35Z"/>
      </g>
      <g>
        <g>
          <rect class="cls-14" x="315.64" y="158.94" width="135.83" height="4.62"/>
          <rect class="cls-14" x="315.64" y="169.1" width="135.83" height="4.62"/>
          <rect class="cls-14" x="315.64" y="179.26" width="135.83" height="4.62"/>
          <rect class="cls-14" x="315.64" y="189.43" width="135.83" height="4.62"/>
          <rect class="cls-14" x="315.64" y="202.94" width="135.83" height="4.62"/>
          <rect class="cls-14" x="315.64" y="213.1" width="135.83" height="4.62"/>
        </g>
        <g>
          <g>
            <rect class="cls-5" x="315.88" y="235.73" width="134.77" height="74.1"/>
            <path class="cls-14" d="M315.67,310.03v-.19s-.03-74.29-.03-74.29h.23s134.99-.03,134.99-.03l.03,74.48h-.23s-134.99,.03-134.99,.03Zm.43-74.1l.03,73.73,134.31-.03-.03-73.72-134.31,.03Z"/>
          </g>
          <path class="cls-14" d="M316.1,235.93c11.34,5.96,22.6,12.02,33.85,18.09l33.67,18.32,33.51,18.52,16.7,9.33,16.62,9.42-16.96-9-16.89-9.09-33.66-18.32-33.5-18.52c-11.14-6.21-22.27-12.44-33.32-18.75Z"/>
          <path class="cls-14" d="M450.44,235.93c-11.05,6.32-22.18,12.54-33.32,18.75l-33.5,18.52-33.66,18.32-16.89,9.09-16.96,9,16.62-9.42,16.7-9.33,33.51-18.52,33.67-18.32c11.25-6.07,22.51-12.13,33.85-18.09Z"/>
        </g>
        <g>
          <g>
            <rect class="cls-5" x="152.43" y="245.17" width="64.83" height="64.68"/>
            <path class="cls-14" d="M152.33,310.03v-.16s-.01-64.85-.01-64.85h.11s64.93-.03,64.93-.03v65.01s-.1,0-.1,0l-64.93,.03Zm.21-64.68v64.35s64.62-.03,64.62-.03v-64.35s-64.62,.03-64.62,.03Z"/>
          </g>
          <path class="cls-14" d="M152.53,245.35c5.45,5.2,10.87,10.49,16.28,15.79l16.19,15.99,16.12,16.17,8.03,8.15,8,8.23-8.16-7.86-8.12-7.94-16.19-15.99-16.12-16.17c-5.36-5.42-10.71-10.85-16.03-16.37Z"/>
          <path class="cls-14" d="M217.15,245.35c-5.32,5.52-10.67,10.95-16.03,16.37l-16.12,16.17-16.19,15.99-8.12,7.94-8.16,7.86,8-8.23,8.03-8.15,16.12-16.17,16.19-15.99c5.41-5.3,10.83-10.59,16.28-15.79Z"/>
        </g>
        <g>
          <g>
            <rect class="cls-5" x="229.06" y="245.17" width="64.83" height="64.68"/>
            <path class="cls-14" d="M228.96,310.03v-65.01s.1,0,.1,0l64.93-.03v65.01s-.1,0-.1,0l-64.93,.03Zm.21-64.68v64.35s64.62-.03,64.62-.03v-64.35s-64.62,.03-64.62,.03Z"/>
          </g>
          <path class="cls-14" d="M229.16,245.35c5.45,5.2,10.87,10.49,16.28,15.79l16.19,15.99,16.12,16.17,8.03,8.15,8,8.23-8.16-7.86-8.12-7.94-16.19-15.99-16.12-16.17c-5.36-5.42-10.71-10.85-16.03-16.37Z"/>
          <path class="cls-14" d="M293.78,245.35c-5.32,5.52-10.67,10.95-16.03,16.37l-16.12,16.17-16.19,15.99-8.12,7.94-8.16,7.86,8-8.23,8.03-8.15,16.12-16.17,16.19-15.99c5.41-5.3,10.83-10.59,16.28-15.79Z"/>
        </g>
        <g>
          <g>
            <rect class="cls-5" x="274.01" y="227.8" width="55.41" height="297.39" transform="translate(-74.79 678.21) rotate(-90)"/>
            <path class="cls-12" d="M450.89,348.64v55.72H152.53v-55.72H450.89Zm-.97,55.41v-55.1H153.5v55.1H449.92Z"/>
          </g>
          <g>
            <rect class="cls-14" x="170.2" y="359.04" width="124.85" height="4.59"/>
            <rect class="cls-14" x="170.2" y="369.15" width="124.85" height="4.59"/>
            <rect class="cls-14" x="170.2" y="379.25" width="124.85" height="4.59"/>
            <rect class="cls-14" x="170.2" y="389.36" width="124.85" height="4.59"/>
          </g>
          <g>
            <rect class="cls-14" x="309.37" y="359.04" width="123.85" height="4.59"/>
            <rect class="cls-14" x="309.37" y="369.15" width="123.85" height="4.59"/>
            <rect class="cls-14" x="309.37" y="379.25" width="123.85" height="4.59"/>
            <rect class="cls-14" x="309.37" y="389.36" width="123.85" height="4.59"/>
          </g>
        </g>
      </g>
    </g>
  </g>
  <g id="Windows">
    <g>
      <g>
        <rect class="cls-17" x="543.76" y="155.89" width="120.9" height="12.58"/>
        <g>
          <g>
            <rect class="cls-5" x="544.1" y="168.58" width="120.26" height="197.23"/>
            <path class="cls-14" d="M664.69,366.13h-120.93V168.25h120.93v197.88Zm-120.26-.65h119.59V168.91h-119.59v196.57Z"/>
          </g>
          <polygon class="cls-14" points="544.41 365.93 543.79 365.68 664.04 168.46 664.67 168.7 544.41 365.93"/>
          <polygon class="cls-14" points="664.04 365.93 543.79 168.7 544.41 168.46 664.67 365.68 664.04 365.93"/>
        </g>
      </g>
      <g>
        <rect class="cls-12" x="97.28" y="148.98" width="132.2" height="84.22" transform="translate(326.75 382.18) rotate(180)"/>
        <g>
          <polyline class="cls-24" points="89.61 239.13 89.61 240.63 91.11 240.63"/>
          <line class="cls-22" x1="94.06" y1="240.63" x2="234.17" y2="240.63"/>
          <polyline class="cls-24" points="235.64 240.63 237.14 240.63 237.14 239.13"/>
          <line class="cls-19" x1="237.14" y1="236.22" x2="237.14" y2="144.51"/>
          <polyline class="cls-24" points="237.14 143.05 237.14 141.55 235.64 141.55"/>
          <line class="cls-22" x1="232.69" y1="141.55" x2="92.58" y2="141.55"/>
          <polyline class="cls-24" points="91.11 141.55 89.61 141.55 89.61 143.05"/>
          <line class="cls-19" x1="89.61" y1="145.97" x2="89.61" y2="237.67"/>
        </g>
        <rect class="cls-15" x="85.31" y="137.26" width="8.59" height="8.59"/>
        <rect class="cls-15" x="85.31" y="236.33" width="8.59" height="8.59"/>
        <rect class="cls-15" x="86.54" y="188.02" width="6.14" height="6.14"/>
        <rect class="cls-18" x="160.31" y="138.49" width="6.14" height="6.14"/>
        <rect class="cls-18" x="160.31" y="237.56" width="6.14" height="6.14"/>
        <rect class="cls-15" x="234.08" y="188.02" width="6.14" height="6.14"/>
        <rect class="cls-15" x="232.85" y="137.26" width="8.59" height="8.59"/>
        <rect class="cls-15" x="232.85" y="236.33" width="8.59" height="8.59"/>
        <g>
          <path class="cls-1" d="M180.05,173.87c0,5.38-4.36,9.75-9.75,9.75s-9.75-4.36-9.75-9.75,4.36-9.75,9.75-9.75,9.75,4.36,9.75,9.75Z"/>
          <polygon class="cls-1" points="106.75 223.15 220.01 223.15 186.95 192.86 169.7 206.69 142.44 171.93 106.75 223.15"/>
        </g>
      </g>
      <g>
        <polygon class="cls-15" points="249.25 263.81 253.98 275.22 249.26 277.17 244.51 265.69 236.71 271.74 236.71 239.6 259.21 262.33 249.25 263.81"/>
        <g>
          <path class="cls-18" d="M236.99,235.33c-.68-1.41-.69-2.85,0-4.26,.69,1.41,.68,2.85,0,4.26h0Z"/>
          <path class="cls-18" d="M233.32,236.85c-1.48-.51-2.51-1.53-3.01-3.01,1.48,.51,2.5,1.53,3.01,3.01h0Z"/>
          <path class="cls-18" d="M231.8,240.52c-1.41,.68-2.85,.69-4.26,0,1.41-.69,2.85-.68,4.26,0h0Z"/>
          <path class="cls-18" d="M233.32,244.19c-.51,1.48-1.53,2.51-3.01,3.01,.51-1.48,1.53-2.5,3.01-3.01h0Z"/>
          <path class="cls-18" d="M242.18,240.52c1.41-.68,2.85-.69,4.26,0-1.41,.69-2.85,.68-4.26,0h0Z"/>
          <path class="cls-18" d="M240.66,236.85c.51-1.48,1.53-2.51,3.01-3.01-.51,1.48-1.53,2.5-3.01,3.01h0Z"/>
        </g>
      </g>
    </g>
  </g>
  <g id="UX">
    <g>
      <rect class="cls-15" x="618.96" y="177.75" width="64.53" height="64.53"/>
      <g>
        <path class="cls-5" d="M638.06,224.71c-6.76,0-12.13-5.46-12.13-12.13v-14.94c0-1.3,1.01-2.31,2.31-2.31s2.35,1.01,2.35,2.31v14.94c0,4.12,3.36,7.47,7.47,7.47s7.47-3.36,7.47-7.47v-14.94c0-1.3,1.05-2.31,2.35-2.31s2.31,1.01,2.31,2.31v14.94c0,6.68-5.41,12.13-12.13,12.13Z"/>
        <path class="cls-5" d="M676.1,199.31l-7.98,10.83,7.98,10.91c.71,1.01,.55,2.48-.5,3.19-.42,.29-.88,.46-1.34,.46-.76,0-1.43-.38-1.89-.97l-7.05-9.7-7.09,9.7c-.46,.59-1.13,.97-1.85,.97-.5,0-.97-.17-1.34-.46-1.05-.71-1.26-2.18-.55-3.19l7.98-10.91-7.98-10.83c-.71-1.05-.5-2.48,.55-3.19,1.01-.8,2.48-.59,3.19,.5l7.09,9.65,7.05-9.65c.8-1.09,2.18-1.3,3.23-.5,1.05,.71,1.22,2.14,.5,3.19Z"/>
      </g>
    </g>
  </g>
  <g id="UI">
    <g>
      <rect class="cls-15" x="73.02" y="39.36" width="64.53" height="64.53"/>
      <g>
        <path class="cls-5" d="M98.98,86.18c-6.7,0-12.02-5.41-12.02-12.02v-14.8c0-1.29,1-2.29,2.29-2.29s2.33,1,2.33,2.29v14.8c0,4.08,3.33,7.4,7.4,7.4s7.4-3.33,7.4-7.4v-14.8c0-1.29,1.04-2.29,2.33-2.29s2.29,1,2.29,2.29v14.8c0,6.61-5.36,12.02-12.02,12.02Z"/>
        <path class="cls-5" d="M119,59.36c0-1.29,1-2.29,2.29-2.29s2.33,1,2.33,2.29v24.54c0,1.29-1.08,2.29-2.33,2.29s-2.29-1-2.29-2.29v-24.54Z"/>
      </g>
    </g>
  </g>
  <g id="Character_3" data-name="Character 3">
    <g>
      <g>
        <g>
          <g>
            <g>
              <path class="cls-11" d="M497.29,366.45c2.63-.34,67.33-31.78,69.04-34.54,.65-1.04-3.38-10.73-8.58-22.3-1.12-2.5-2.3-5.07-3.51-7.68-7.82-16.93-16.51-34.72-16.51-34.72l-43.35,20.91,17.71,34.15,3.88,7.5s-19.39,23.12-20.94,26.34c-1.54,3.22-.38,10.69,2.25,10.35Z"/>
              <path class="cls-5" d="M497.29,366.45c2.63-.34,67.33-31.78,69.04-34.54,.79-1.27-5.32-15.31-12.08-29.98l-42.15,20.33,3.88,7.5s-19.39,23.12-20.94,26.34c-1.54,3.22-.38,10.69,2.25,10.35Z"/>
              <g>
                <path class="cls-12" d="M497.29,366.45c2.63-.34,67.33-31.78,69.04-34.54,.65-1.04-3.38-10.73-8.58-22.3l-41.78,20.15s-19.39,23.12-20.94,26.34c-1.54,3.22-.38,10.69,2.25,10.35Z"/>
                <g>
                  <path class="cls-17" d="M496.96,363.41c10.72-5.54,54.47-26.86,65.48-31.51,.09-.04,.12,.02,.03,.07-10.5,5.72-54.42,26.68-65.43,31.62-.23,.1-.31-.06-.09-.18Z"/>
                  <path class="cls-17" d="M498.07,351.75c2.52-1.35,5.63-1.35,7.78-.5,2.06,.82,4.22,2.33,5.24,4.61,.03,.07-.09,.13-.13,.06-2.68-3.94-8.35-5.8-12.82-4.04-.09,.04-.15-.09-.07-.14Z"/>
                  <path class="cls-17" d="M512.3,332.88c4.31-2.17,10.09-3.08,14.51-.84,.17,.09,.05,.33-.12,.33-4.91-.12-9.37,.19-14.21,1.09-.34,.06-.49-.42-.18-.57Z"/>
                  <path class="cls-17" d="M509.58,335.81c4.31-2.17,10.09-3.08,14.51-.84,.17,.09,.05,.33-.12,.33-4.91-.12-9.37,.19-14.21,1.09-.34,.06-.49-.42-.18-.57Z"/>
                  <path class="cls-17" d="M506.86,338.75c4.31-2.17,10.09-3.08,14.51-.84,.17,.09,.05,.33-.12,.33-4.91-.12-9.37,.19-14.21,1.09-.34,.06-.49-.42-.18-.57Z"/>
                  <path class="cls-17" d="M504.15,341.68c4.31-2.17,10.09-3.08,14.51-.84,.17,.09,.05,.33-.12,.33-4.91-.12-9.37,.19-14.21,1.09-.34,.06-.49-.42-.18-.57Z"/>
                </g>
              </g>
            </g>
            <g>
              <path class="cls-17" d="M525.08,228.8c.51,12.37,32.87,78.09,32.87,78.09l-45.78,20.77s-38.22-72.84-35.28-100.23c2.5-23.24,43.99-51.05,69.92-78.8l38.86-.28c-14.27,30.86-57.34,68.07-60.47,78.92-.11,.39-.15,.9-.12,1.52v.02Z"/>
              <g>
                <path class="cls-15" d="M512.48,318.69c7.51-3.65,5.3-2.7,12.85-6.27,3.69-1.75,22.23-10.57,25.95-11.63,.08-.02,.14,.1,.07,.15-3.21,2.14-21.94,10.56-25.66,12.24-7.61,3.43-5.46,2.37-13.11,5.72-.14,.06-.24-.14-.1-.21Z"/>
                <path class="cls-15" d="M576.14,154.9c-11.39,17.51-23.94,34.19-37.94,49.71-3.41,3.78-6.92,7.46-10.44,11.14-2.98,3.12-6,6.57-6.72,10.97-.8,4.9,1.16,9.77,2.71,14.31,1.71,5.01,3.44,10.03,5.26,15,1.97,5.37,4.04,10.69,6.37,15.91,1.19,2.67,8.41,15.77,9.73,18.38,.66,1.3,1.34,2.6,2.04,3.89,.35,.64,2.8,5.07,3.16,5.71,.12,.21,.43,.47,.13-.07-.67-1.21-3.41-6.22-4.04-7.46-2.47-4.86-10.63-20.31-12.69-25.35-2.09-5.11-4-10.29-5.84-15.5-1.81-5.14-3.7-10.29-5.26-15.52-.8-2.67-1.43-5.48-1.17-8.28,.26-2.75,1.45-5.21,3.07-7.42,3.04-4.13,7.02-7.64,10.49-11.41,7.19-7.82,14.05-15.94,20.56-24.34,7.38-9.51,14.34-19.38,20.7-29.61,.05-.08-.08-.16-.13-.08Z"/>
              </g>
            </g>
          </g>
          <g>
            <g>
              <path class="cls-11" d="M526.04,425.14c2.54,.76,74.44-1.67,77.12-3.49,1.02-.69,1.28-11.18,1.23-23.87,0-2.74-.04-5.57-.08-8.44-.26-18.65-.98-38.44-.98-38.44l-48.1,1.48,2.3,38.4,.5,8.43s-27.11,13.24-29.84,15.56c-2.71,2.32-4.69,9.62-2.15,10.37Z"/>
              <path class="cls-5" d="M526.04,425.14c2.54,.76,74.44-1.67,77.12-3.49,1.24-.84,1.36-16.16,1.15-32.31l-46.78,1.44,.5,8.43s-27.11,13.24-29.84,15.56c-2.71,2.32-4.69,9.62-2.15,10.37Z"/>
              <g>
                <path class="cls-12" d="M526.04,425.14c2.54,.76,74.44-1.67,77.12-3.49,1.02-.69,1.28-11.18,1.23-23.87l-46.36,1.43s-27.11,13.24-29.84,15.56c-2.71,2.32-4.69,9.62-2.15,10.37Z"/>
                <g>
                  <path class="cls-17" d="M526.98,422.23c12.04-.7,60.68-2.4,72.64-2.18,.1,0,.1,.07,0,.08-11.92,.96-60.57,2.26-72.63,2.3-.25,0-.26-.18,0-.2Z"/>
                  <path class="cls-17" d="M532.73,412.03c2.85-.21,5.69,1.05,7.31,2.7,1.55,1.59,2.91,3.84,2.91,6.34,0,.07-.13,.08-.15,0-.85-4.69-5.28-8.69-10.07-8.9-.1,0-.1-.14,0-.15Z"/>
                  <path class="cls-17" d="M553.4,400.57c4.82-.23,10.47,1.28,13.6,5.13,.12,.15-.09,.32-.24,.25-4.44-2.1-8.64-3.64-13.43-4.78-.34-.08-.28-.58,.06-.6Z"/>
                  <path class="cls-17" d="M549.73,402.15c4.82-.23,10.47,1.28,13.6,5.13,.12,.15-.09,.32-.24,.25-4.44-2.1-8.64-3.64-13.43-4.78-.34-.08-.28-.58,.06-.6Z"/>
                  <path class="cls-17" d="M546.05,403.72c4.82-.23,10.47,1.28,13.6,5.13,.12,.15-.09,.32-.24,.25-4.44-2.1-8.64-3.64-13.43-4.78-.34-.08-.28-.58,.06-.6Z"/>
                  <path class="cls-17" d="M542.38,405.3c4.82-.23,10.47,1.28,13.6,5.13,.12,.15-.09,.32-.24,.25-4.44-2.1-8.64-3.64-13.43-4.78-.34-.08-.28-.58,.06-.6Z"/>
                </g>
              </g>
            </g>
            <g>
              <path class="cls-17" d="M553.36,398.44l54.91-1.09s-14.51-196.68-10.64-203.8c5.94-10.92,9.99-25.65,1.52-45.4l-42.5,.31s2.4,21.12,2.21,22c-12.63,57.1-5.5,227.98-5.5,227.98Z"/>
              <g>
                <path class="cls-15" d="M555.86,388.87c10.92-.89,45.06-1.39,48.7-.91,.08,.01,.08,.15,0,.16-3.6,.72-21.56,1.24-48.69,.98-.15,0-.16-.22,0-.23Z"/>
                <path class="cls-15" d="M555.9,151.22c.46,5.38,.32,14.56,3.43,14.68,3.02,.12,2.49-11.11,2.55-13.7,.06-2.34,.87-2.03,.98,.73,.29,7.49,.15,14.1-3.84,13.82-4.06-.28-4.03-11.89-3.96-14.54,.04-1.37,.68-2.7,.83-1Z"/>
                <path class="cls-15" d="M559.13,166.26c.19,1.04,.19,4.88-.08,5.67-.05,.15-.65,.04-.71-.08-.38-.78-.11-4.46-.22-5.45-.07-.66,.89-.78,1.01-.14Z"/>
                <path class="cls-15" d="M557.86,172.9c-1.29,4.72-2.59,13.73-2.25,16.1,.03,.21,.35,.28,.39,.06,.41-2.53,2.2-14.67,2.38-15.95,.19-1.36-.16-1.52-.52-.21Z"/>
                <path class="cls-15" d="M566.06,176.55c-.58-.63-1.32-1.14-2-1.66-.7-.54-1.4-1.07-2.13-1.58-1.48-1.03-3.01-1.97-4.57-2.88-1.52-.89-3.08-1.7-4.66-2.49-1.66-.82-3.42-1.44-5.07-2.26-.09-.05-.18,.09-.09,.14,1.58,.85,3.03,1.93,4.56,2.86,1.54,.94,3.05,1.91,4.59,2.85,1.5,.92,2.98,1.86,4.49,2.77,.79,.48,1.58,.94,2.38,1.4,.74,.43,1.46,.91,2.26,1.24,.23,.1,.39-.24,.24-.4Z"/>
                <path class="cls-15" d="M598.42,349.98c-.75-7.6-1.44-15.21-2.07-22.82-1.27-15.23-2.31-30.47-3.11-45.73-.8-15.26-1.37-22.91-1.71-38.19-.17-7.64-.28-15.28-.33-22.92-.05-7.58-.18-17.7,.16-25.28,.17-3.85,6.93-6.87,8.23-18.09,.81-7.01,.38-12.92-1.62-19.03-.49-1.5-1.07-2.96-1.73-4.39-.04-.1-.18-.01-.14,.08,2.77,6.26,3.94,13.15,3.43,19.97-.25,3.42-.75,6.84-2.03,10.08-1.79,4.53-6.24,8.23-6.46,10.64-.32,3.59-.36,6.69-.38,10.29-.02,3.75-.03,7.49-.02,11.24,.02,7.64,.09,15.28,.23,22.92,.28,15.2,.78,30.4,1.53,45.59,.75,15.19,1.74,22.75,2.95,37.9,1.22,15.16,2.77,42.56,4.47,57.67,.19,1.73,.41,3.46,.68,5.18,.03,.19,.35,.14,.33-.05-.57-7.61-1.67-27.46-2.42-35.06Z"/>
              </g>
            </g>
          </g>
        </g>
        <g>
          <g>
            <path class="cls-15" d="M552.47,49.15s-4.84-2.24-8.21,.13-2.53,4.91-4.48,6.51c-1.95,1.6-6.91,3.61-7.96,7.09-1.05,3.48,2.32,7.39,2.03,9.31s-3.67,4.14-2.58,7.87c1.27,4.34,4.94,5.24,5.96,7.27,1.7,3.37,.97,7.33,4.97,10.1,4.31,2.99,7.84,.82,10.96,.79,2.99-.02,5.97,4.05,11.19,1.4,5.23-2.65,4.69-6.62,6.99-9.49,2.29-2.87,7.7-3.37,9.63-7.35,1.92-3.98-.86-6.48-.92-8.61-.06-2.13,2.45-3.67,1.79-7.09-.66-3.42-4.67-4.52-5.51-5.52-1.44-1.71-.74-3.51-2.77-5.96-2.03-2.45-6.44-2.43-7.58-2.88-2.73-1.08-3.59-6.15-7.18-6.5-4.56-.43-6.34,2.92-6.34,2.92Z"/>
            <path class="cls-18" d="M531.84,65.97c.92,2.11,2.28,4.54,.97,6.8-2.1,3.07-3.59,6.95-.88,10.12,1.35,1.86,3.94,2.53,5.23,4.59,.8,2.15,.79,4.51,2,6.66,.67,1.37,1.73,2.51,3.06,3.3-3.01-1.19-4.48-4.48-5.19-7.44-.1-.38-.34-1.3-.44-1.66-.25-.84-.96-1.33-1.72-1.86-4.74-2.55-7.1-7.22-3.89-12.11,.78-1.29,1.91-2.39,1.91-3.97,0-1.47-.65-2.95-1.04-4.43h0Z"/>
            <path class="cls-18" d="M578.86,85.31c4.45-3.94,3.9-5.33,1.91-10.48-.21-.66,.01-1.41,.27-2,.98-2.08,1.85-4.17,.78-6.34-.75-2.15-3.03-3.22-4.96-4.5,1.09,.45,2.15,.92,3.19,1.52,2.09,1.22,3.55,3.86,3.1,6.31-.22,1.64-1.21,2.92-1.49,4.43,1.75,5.45,2.71,7.49-2.8,11.06h0Z"/>
          </g>
          <g>
            <g>
              <path class="cls-11" d="M561.91,98.96c-1.93,6.54-17.1,33.84-31.53,40.49-5.49,2.53-34.28-14.32-39.94-18.75-2.31-1.81,8.51-23.91,11.59-23.3,4.13,.81,23.83,16.54,26.17,16.32,2.34-.22,17.45-13.8,27.6-20.45,6.01-3.94,7.46,1.08,6.1,5.69Z"/>
              <path class="cls-1" d="M561.91,98.96c-1.93,6.54-17.1,33.84-31.53,40.49-5.49,2.53-34.28-14.32-39.94-18.75-2.31-1.81,8.51-23.91,11.59-23.3,4.13,.81,23.83,16.54,26.17,16.32,2.34-.22,17.45-13.8,27.6-20.45,6.01-3.94,7.46,1.08,6.1,5.69Z"/>
              <g>
                <g>
                  <path class="cls-11" d="M494.59,123.05c-2.71-.99-14.71-6.61-17.7-8.92-2.99-2.31-11.12-9.59-9.58-12.06,1.54-2.47,4.09-.53,4.09-.53,0,0-2.94-3.62-1.17-5.96,1.77-2.35,5.64,.8,5.64,.8,0,0-2.75-3.93-.82-6.15,1.94-2.21,5.29,1.6,5.29,1.6,0,0-2.69-3.48-.32-4.63,2.84-1.39,7.07,5.59,10.56,7.89,.79,.52,16.84,9.46,16.84,9.46l-12.83,18.49Z"/>
                  <path class="cls-1" d="M494.59,123.05c-2.71-.99-14.71-6.61-17.7-8.92-2.99-2.31-11.12-9.59-9.58-12.06,1.54-2.47,4.09-.53,4.09-.53,0,0-2.94-3.62-1.17-5.96,1.77-2.35,5.64,.8,5.64,.8,0,0-2.75-3.93-.82-6.15,1.94-2.21,5.29,1.6,5.29,1.6,0,0-2.69-3.48-.32-4.63,2.84-1.39,7.07,5.59,10.56,7.89,.79,.52,16.84,9.46,16.84,9.46l-12.83,18.49Z"/>
                  <g>
                    <path class="cls-18" d="M480.05,91.52c3.12,5.12,5.37,6.82,10.66,9.45,.1,.05,.05,.22-.06,.17-5.41-2.1-8.54-3.82-10.85-9.48-.11-.28,.11-.38,.26-.14Z"/>
                    <path class="cls-18" d="M475.62,95.97c3.7,5.04,6.13,6.9,11.47,10.06,.08,.04,0,.18-.07,.14-5.49-2.66-8.58-4.45-11.62-9.97-.14-.25,.06-.46,.22-.23Z"/>
                    <path class="cls-18" d="M471.67,101.7c3.94,4.62,6.51,6.78,12.08,9.18,.13,.06,.06,.25-.08,.21-5.92-1.89-9.15-4.57-12.13-9.25-.2-.32-.12-.43,.13-.13Z"/>
                  </g>
                </g>
                <g>
                  <path class="cls-11" d="M512.12,103.76s-3.54-6.63-5.74-9.19c-2.2-2.57-13.91-9.12-15.47-6.67-2.01,3.16,4,8.28,7.28,10.4,0,0-4.66,7.31-1.14,11.92,3.52,4.61,15.07-6.45,15.07-6.45Z"/>
                  <path class="cls-1" d="M512.12,103.76s-3.54-6.63-5.74-9.19c-2.2-2.57-13.91-9.12-15.47-6.67-2.01,3.16,4,8.28,7.28,10.4,0,0-4.66,7.31-1.14,11.92,3.52,4.61,15.07-6.45,15.07-6.45Z"/>
                  <path class="cls-18" d="M490.64,88.95c.25,4.21,4.72,6.71,7.75,9.01,.23,.17,.17,.42,0,.57-1.75,3.2-3.29,8.21-1.58,11.66,.05,.1-.09,.19-.15,.09-2.34-3.44-1.23-8.5,.91-11.87-3.14-2.3-7.52-5.01-6.98-9.45,0-.03,.04-.03,.04,0Z"/>
                </g>
              </g>
            </g>
            <g>
              <path class="cls-12" d="M531.13,111.48l17.55,12.68s9.31-13.99,13.33-23.34c4.03-9.34,1.83-14.01-10.37-5.5-12.2,8.51-20.52,16.16-20.52,16.16Z"/>
              <path class="cls-15" d="M549.85,120.45c-2.29-2.01-4.64-3.96-7.03-5.85-1.18-.93-2.35-1.88-3.54-2.79-1.24-.94-2.54-1.79-3.77-2.74-.09-.07-.2,.06-.11,.13,1.16,.95,2.25,1.98,3.41,2.94,1.19,.99,2.42,1.93,3.63,2.89,2.4,1.9,4.84,3.74,7.33,5.51,.07,.05,.16-.04,.09-.1Z"/>
              <path class="cls-1" d="M562.02,100.83c-4.03,9.34-13.34,23.33-13.34,23.33l-11.34-8.2,25.32-24.76c1.87,1.09,1.47,4.72-.64,9.63Z"/>
            </g>
          </g>
          <g>
            <path class="cls-12" d="M599.89,150.02l-53.51-.78-.5-15.59s-4.19-4.93-3.79-11.72c.42-7.22,14.13-27.28,15.26-28.33,4.51-4.21,11.87-4.47,15.45-1.41,19.16,16.39,27.09,57.82,27.09,57.82Z"/>
            <g>
              <path class="cls-18" d="M564.79,128.74c-2.82,.05-5.67,.21-8.47,.74-1.4,.27-2.77,.6-4.15,.98-.69,.19-1.38,.34-2.07,.5-.71,.16-1.47,.3-2.19,.25-.06,0-.07,.11-.01,.12,.7,.09,1.36,.18,2.07,.17,.67-.01,1.34-.11,2.01-.23,1.42-.25,2.82-.58,4.24-.85,2.85-.55,5.71-1.09,8.58-1.4,.13-.01,.13-.27,0-.27Z"/>
              <path class="cls-15" d="M571.4,132.32c-2.26-.51-4.59-.89-6.9-1.09-1.16-.1-2.32-.13-3.49-.11-.56,0-1.12,.02-1.67,.05-.61,.03-1.23,.15-1.84,.17-.06,0-.08,.12-.01,.12,.58,0,1.16,.12,1.73,.16,.58,.04,1.16,.08,1.74,.12,1.16,.09,2.32,.19,3.48,.26,2.32,.14,4.63,.32,6.95,.55,.13,.01,.14-.2,.02-.22Z"/>
            </g>
          </g>
          <g>
            <g>
              <path class="cls-11" d="M568,92.09c0,1.08-3.4,8.85-8.15,9.69-1.55,.27-3.4-8.1-3.4-8.1l-.28-.59-3.89-8.21,8.69-8.81,1.27-1.19s.92,2.32,2.03,5.21c.05,.13,.1,.27,.16,.41,.07,.16,.13,.31,.19,.47,.17,.43,.34,.87,.51,1.31,.13,.34,.25,.66,.37,1.02,.13,.36,.25,.7,.38,1.06,1.19,3.54,2.12,7.27,2.13,7.72Z"/>
              <path class="cls-18" d="M564.27,80.1c-.92,7.44-5.79,11.49-8.1,13.01l-3.89-8.21,8.69-8.81,1.27-1.19s.92,2.32,2.03,5.21Z"/>
            </g>
            <g>
              <path class="cls-11" d="M537.44,74.65c1.91,15.83,11.61,16.47,15.02,16.06,3.1-.38,13.6-2.06,13.34-18-.27-15.94-8.23-20.06-15.36-19.57-7.13,.49-14.91,5.68-12.99,21.52Z"/>
              <g>
                <path class="cls-18" d="M539.3,72.81c.36-.12,.67-.29,1.02-.45,.39-.18,.72-.28,.95-.66,.13-.2,.04-.54-.15-.68-.43-.33-.96-.23-1.44-.03-.52,.21-.86,.51-1.13,1-.26,.47,.27,.99,.75,.83Z"/>
                <path class="cls-18" d="M550.01,70.22c-.38,.04-.73,0-1.11,0-.43,0-.77,.04-1.14-.21-.2-.13-.26-.48-.14-.68,.26-.48,.79-.6,1.3-.62,.56-.02,.99,.11,1.44,.45,.43,.33,.16,1.02-.34,1.06Z"/>
                <g>
                  <g>
                    <path class="cls-18" d="M548.38,73.75s.09,.04,.1,.08c.14,1.09,.47,2.31,1.51,2.52,.03,0,.04,.06,0,.06-1.22,.02-1.66-1.61-1.61-2.67Z"/>
                    <path class="cls-18" d="M549.17,72.47c1.72-.41,2.41,3.07,.81,3.45-1.57,.37-2.26-3.11-.81-3.45Z"/>
                  </g>
                  <path class="cls-18" d="M549.89,72.52c.34,.14,.71,.43,1.08,.39,.43-.04,.68-.47,.89-.87,.02-.04,.06-.02,.07,.03,.14,.66,.02,1.4-.67,1.64-.63,.22-1.22-.28-1.52-.92-.06-.12,.02-.32,.15-.27Z"/>
                </g>
                <g>
                  <g>
                    <path class="cls-18" d="M542.02,74.56s-.07,.07-.06,.11c.29,1.06,.44,2.32-.44,2.91-.03,.02-.01,.07,.02,.06,1.14-.45,.92-2.12,.48-3.08Z"/>
                    <path class="cls-18" d="M540.8,73.67c-1.75,.28-1.06,3.75,.56,3.5,1.59-.25,.91-3.73-.56-3.5Z"/>
                  </g>
                  <path class="cls-18" d="M540.12,74.04c-.24,.24-.44,.63-.77,.71-.38,.1-.73-.22-1.04-.53-.03-.03-.05,0-.05,.05,.11,.67,.47,1.32,1.13,1.32,.61,0,.92-.65,.95-1.35,0-.13-.13-.3-.22-.2Z"/>
                </g>
                <path class="cls-18" d="M549.96,82.84c-.18,.32-.34,.73-.72,.87-.36,.13-.84,.09-1.21,.05-.04,0-.06,.04-.03,.07,.39,.33,1.04,.42,1.5,.2,.46-.22,.58-.7,.57-1.17,0-.07-.09-.07-.11-.02Z"/>
                <path class="cls-18" d="M544.63,79.94s.13,1.65,.29,2.41c.02,.07,.21,.06,.47,.02,.01,0,.02,0,.03,0,1.38-.08,2.62-.83,3.2-2.1,.04-.09-.08-.14-.14-.08-.84,.95-1.9,1.38-3.08,1.65-.1-.2-.12-2.83-.24-2.82-.42,.05-1.17,.51-1.63,.76-.36-3.43-.18-6.89-.59-10.3-.02-.12-.2-.12-.21,0-.45,3.61-.12,7.57,.16,11.12,.03,.44,1.46-.46,1.74-.66Z"/>
                <g>
                  <path class="cls-18" d="M545.4,82.07s.9,.89,1.97,1.09c.4,.08,.81,.07,1.21-.11,.83-.36,.73-1.16,.47-1.82-.22-.54-.55-.98-.55-.98,0,0-1.08,1.39-3.1,1.83Z"/>
                  <path class="cls-7" d="M547.38,83.16c.4,.08,.81,.07,1.21-.11,.83-.36,.73-1.16,.47-1.82-.92,.24-1.74,1.02-1.68,1.93Z"/>
                </g>
              </g>
              <path class="cls-15" d="M564.85,72.5c-2.52,.61-3.97-4.64-3.97-4.64,0,0-5.18,.86-8.1-6.31,0,0,.68,3.45,3.3,5.78,0,0-9.29,.52-14.38-6.49,0,0,2.17,3.64,3.83,4.79,0,0-4.01-.44-6.38-3.25,0,0-.88,4.67-1.91,6.09,0,0-2.23-16.04,12.85-16.76,0,0,9.37-.9,13.9,5.9,4.53,6.79,.87,14.88,.87,14.88Z"/>
              <g>
                <path class="cls-11" d="M562.3,73.79s2.38-5.59,4.85-4.84c2.47,.75,1.39,8.35-1.01,9.86s-3.83-.68-3.83-.68v-4.35Z"/>
                <path class="cls-18" d="M566.78,71.13s.06,.04,.03,.07c-1.66,1.12-2.27,3.01-2.57,4.9,.4-.79,1.06-1.31,2.1-.86,.05,.02,.02,.11-.03,.11-.78,0-1.29,.24-1.67,.94-.27,.5-.4,1.08-.55,1.62-.05,.18-.36,.16-.34-.05,0-.01,0-.03,0-.05-.53-2.31,.59-5.94,3.03-6.69Z"/>
              </g>
            </g>
          </g>
          <path class="cls-12" d="M491.33,118.63l14.31-24.52-7.56-4.4c-2.2-1.28-3.4-3.72-3.26-6.26,.08-1.38,.09-2.76,.02-4.14-.12-2.57,1.12-5.02,3.35-6.3l7.55-4.31-14.1-24.66-7.54,4.31c-2.17,1.24-4.86,1.19-6.95-.19-1.26-.83-2.57-1.59-3.91-2.28-2.23-1.13-3.61-3.46-3.6-5.96l.04-8.69-28.39-.11-.03,8.72c0,2.52-1.44,4.8-3.69,5.93-.66,.33-1.3,.68-1.95,1.04-.64,.37-1.27,.75-1.88,1.15-2.1,1.36-4.78,1.44-6.95,.18l-7.56-4.41-14.31,24.52,7.58,4.42c2.2,1.28,3.4,3.71,3.25,6.25-.08,1.37-.09,2.75-.03,4.14,.12,2.57-1.12,5.01-3.35,6.29l-7.55,4.31,14.1,24.66,7.55-4.31c2.23-1.28,4.97-1.1,7.12,.3,1.16,.76,2.35,1.45,3.58,2.07,2.27,1.16,3.75,3.42,3.75,5.97l-.03,8.77,28.39,.11,.03-8.72c.01-2.55,1.51-4.81,3.78-5.96,.62-.32,1.24-.65,1.86-1,.61-.35,1.21-.71,1.79-1.09,2.15-1.38,4.87-1.53,7.08-.24l7.52,4.39Zm-21.97-18.93c-12.26,9.22-29.71,4.47-35.59-9.7-4.01-9.64-.91-21.06,7.43-27.34,12.25-9.23,29.75-4.46,35.63,9.71,4,9.65,.88,21.05-7.47,27.33Zm-14.08-36.66c-10.02,0-18.14,8.12-18.14,18.14s8.12,18.15,18.14,18.15,18.15-8.13,18.15-18.15-8.12-18.14-18.15-18.14Zm0,24.52c-3.52,0-6.38-2.86-6.38-6.38s2.86-6.38,6.38-6.38,6.38,2.86,6.38,6.38-2.85,6.38-6.38,6.38Z"/>
          <g>
            <g>
              <path class="cls-11" d="M570.21,112.8c-10.14,21.42-27.02,47.13-36.58,45.8-9.55-1.34-30.32-9.54-41.42-20.6-2.26-2.25,16.55-22.4,19.3-20.38,7.06,5.19,19.96,12.71,21.79,12.99,.88,.13,18.51-16.42,28.39-25.51,11.93-10.98,14.59-5.11,8.52,7.7Z"/>
              <g>
                <path class="cls-11" d="M513.98,121.18s-5.42-9.26-9.24-15.15c-2.13-3.29-6.3-8.59-8.97-10.29-4-2.54-22.34-10.6-24.39-6.2-1.86,3.99,14.78,8.91,14.78,8.91,0,0-16.35-6.46-17.7-1.24-1.35,5.21,18.19,8.28,18.19,8.28,0,0-16.95-6.26-17.49-.66-.41,4.23,17.13,8,17.13,8,0,0-14.6-5.28-15.21-.95-.67,4.79,15.3,9.28,15.3,9.28,.3,11.27,4.21,15.86,8.42,19.18,.96,.76,19.2-19.17,19.2-19.17Z"/>
                <g>
                  <path class="cls-18" d="M491.95,100.32c-1.89-.83-3.8-1.68-5.76-2.34-1.96-.66-3.94-1.25-5.96-1.72-4.94-1.16-8.21-1.11-8-1.09,4.79,.45,11.84,2.69,13.8,3.35,1.96,.66,3.95,1.21,5.9,1.87,.05,.02,.07-.06,.02-.08Z"/>
                  <path class="cls-18" d="M489.71,107.44c-2.46-.95-4.87-1.99-7.38-2.83-2.49-.84-4.93-1.42-7.48-2.08-.2-.05-.16,.07,.04,.13,2.52,.77,4.78,1.67,7.29,2.47,2.5,.79,5.05,1.5,7.51,2.38,.04,.01,.06-.05,.02-.06Z"/>
                  <path class="cls-18" d="M488.89,113.9c-3.69-1.65-7.68-2.61-11.61-3.47-.2-.04-.13,.11,.07,.17,3.88,1.08,6.94,1.9,11.49,3.43,.07,.02,.13-.09,.06-.13Z"/>
                </g>
              </g>
            </g>
            <g>
              <path class="cls-12" d="M543.22,120.69l19.26,11.36s7.83-14.87,10.88-24.58c3.05-9.71,.39-14.13-10.88-4.41-11.27,9.71-19.25,17.64-19.25,17.64Z"/>
              <path class="cls-15" d="M563.26,128.23c-2.49-1.76-5.02-3.46-7.59-5.1-1.27-.81-2.53-1.63-3.81-2.41-1.33-.81-2.71-1.52-4.03-2.34-.09-.06-.19,.08-.1,.14,1.25,.83,2.44,1.74,3.69,2.58,1.29,.86,2.61,1.67,3.91,2.51,2.58,1.64,5.2,3.22,7.85,4.74,.08,.04,.15-.06,.08-.11Z"/>
              <g>
                <path class="cls-23" d="M557.2,107.68c-2.61,2.31-13.98,13-13.98,13l3.3,1.94"/>
                <path class="cls-15" d="M555.38,108.14s-1.04,.82-2.54,3.51"/>
              </g>
              <g>
                <path class="cls-20" d="M570.83,114.64c-1.37,3.21-8.36,17.4-8.36,17.4l-1.93-1.14"/>
                <path class="cls-15" d="M570.97,116.51s-.44,1.25-2.52,3.52"/>
              </g>
            </g>
          </g>
        </g>
      </g>
      <g>
        <g>
          <g>
            <polygon class="cls-9" points="478.37 210.67 505.09 475.67 511.6 475.67 485.54 217.16 541.42 217.16 588.56 475.67 595.15 475.67 546.83 210.67 478.37 210.67"/>
            <rect class="cls-9" x="486.4" y="267.64" width="66.03" height="6.48"/>
            <rect class="cls-9" x="495.79" y="320.19" width="66.03" height="6.48"/>
            <rect class="cls-9" x="500.93" y="372.74" width="72.06" height="6.48"/>
            <rect class="cls-9" x="504.91" y="425.28" width="76.68" height="6.48"/>
          </g>
          <g class="cls-26">
            <polygon points="478.37 210.67 505.09 475.67 511.6 475.67 485.54 217.16 541.42 217.16 588.56 475.67 595.15 475.67 546.83 210.67 478.37 210.67"/>
            <rect x="486.4" y="267.64" width="66.03" height="6.48"/>
            <rect x="495.79" y="320.19" width="66.03" height="6.48"/>
            <rect x="500.93" y="372.74" width="72.06" height="6.48"/>
            <rect x="504.91" y="425.28" width="76.68" height="6.48"/>
          </g>
        </g>
        <g>
          <polygon class="cls-9" points="423.81 475.67 430.41 475.67 483.71 215.49 539.57 215.49 507.38 475.67 513.89 475.67 546.83 209.77 478.34 209.77 423.81 475.67"/>
          <polygon class="cls-27" points="423.81 475.67 430.41 475.67 483.71 215.49 539.57 215.49 507.38 475.67 513.89 475.67 546.83 209.77 478.34 209.77 423.81 475.67"/>
          <g>
            <rect class="cls-9" x="475.2" y="203.85" width="75.93" height="6.82" transform="translate(1026.33 414.53) rotate(180)"/>
            <rect class="cls-25" x="475.2" y="203.85" width="75.93" height="6.82" transform="translate(1026.33 414.53) rotate(180)"/>
          </g>
        </g>
      </g>
    </g>
  </g>
  <g id="Character_2" data-name="Character 2">
    <g>
      <g>
        <g>
          <g>
            <path class="cls-8" d="M441.2,472.37c-2.32,.84-71.14,2.2-73.73,.62-.3-.16-1.42-22.93-1.42-22.93,.08-.32-1.07-2.52-2.82-5.57-4.91-8.56-14.5-23.9-14.5-23.9l40.84-12.35,16.78,33.61,4.28,8.58s9.38,3.67,17.56,7.32c.01,.01,.02,.01,.02,.02,5.04,2.24,9.43,4.3,10.45,5.07,2.63,2.02,4.87,8.71,2.54,9.53Z"/>
            <path class="cls-5" d="M441.2,472.37c-2.32,.84-71.14,2.2-73.73,.62-.3-.16-1.42-22.93-1.42-22.93,.08-.32-1.07-2.52-2.82-5.57l43.12-2.64,4.28,8.58s9.38,3.67,17.56,7.32c.01,.01,.02,.01,.02,.02,5.04,2.24,9.43,4.3,10.45,5.07,2.63,2.02,4.87,8.71,2.54,9.53Z"/>
            <g>
              <g>
                <path class="cls-12" d="M441.49,472.63c-2.39,.85-71.3,2.03-73.96,.41-1.01-.61-2.23-11.21-1.48-22.98l44.43-.71s25.73,11.37,28.45,13.46c2.71,2.09,4.96,8.97,2.56,9.82Z"/>
                <path class="cls-1" d="M367.53,473.04c.97,.59,10.76,.81,22.92,.81l-23.32-23.8h0s-1.08,.02-1.08,.02c-.74,11.76,.48,22.37,1.49,22.98Z"/>
              </g>
              <g>
                <g>
                  <path class="cls-17" d="M440.45,469.89c-11.56-.09-58.17,.66-69.6,1.45-.09,0-.09,.07,0,.07,11.45,.33,58.06-.79,69.61-1.34,.24-.01,.24-.19,0-.19Z"/>
                  <path class="cls-18" d="M434.45,460.41c-2.74-.06-5.4,1.28-6.86,2.94-1.41,1.59-2.6,3.82-2.48,6.21,0,.07,.13,.07,.14,0,.58-4.53,4.63-8.57,9.2-9,.09,0,.09-.14,0-.14Z"/>
                  <path class="cls-18" d="M414.12,450.45c-4.62,.01-9.96,1.74-12.76,5.57-.11,.15,.1,.3,.24,.23,4.14-2.23,8.09-3.9,12.61-5.23,.32-.09,.24-.57-.09-.57Z"/>
                  <path class="cls-18" d="M417.71,451.78c-4.62,.02-9.96,1.74-12.77,5.57-.11,.15,.1,.3,.24,.23,4.14-2.23,8.09-3.9,12.61-5.23,.32-.09,.24-.57-.09-.57Z"/>
                  <path class="cls-18" d="M421.3,453.11c-4.62,.02-9.96,1.74-12.77,5.57-.11,.15,.1,.3,.24,.23,4.14-2.23,8.09-3.9,12.61-5.23,.32-.09,.24-.57-.09-.57Z"/>
                  <path class="cls-18" d="M424.89,454.44c-4.62,.02-9.96,1.74-12.76,5.57-.11,.15,.1,.3,.24,.23,4.14-2.23,8.09-3.9,12.61-5.23,.32-.09,.24-.57-.09-.57Z"/>
                  <path class="cls-17" d="M373.6,460.32c-5.19,.1-5.03,8.17,.16,8.06,5.19-.1,5.03-8.17-.16-8.06Z"/>
                </g>
                <path class="cls-18" d="M418.9,438.03c-2.37-1.9-5.29,.05-6.7,2.09-2.28,3.3-3.81,7.91-4,11.89,0,.1,.07,.14,.15,.13,.1,.33,.5,.6,.84,.36,3.25-2.33,7.02-4.42,9.46-7.69,1.42-1.9,2.5-4.99,.25-6.78Zm-5.5,9.92c-1.57,1.19-3.19,2.29-4.72,3.53,.79-2.32,1.47-4.66,2.49-6.9,.49-1.07,1.01-2.16,1.64-3.15,.98-1.54,5.45-5.49,6-.46,.3,2.77-3.53,5.56-5.4,6.97Z"/>
                <path class="cls-18" d="M396.75,453.92c4.04,.55,8.17-.67,12.11-1.35,.41-.07,.49-.54,.33-.85,.06-.05,.08-.13,.01-.2-2.98-2.66-7.33-4.8-11.28-5.49-2.44-.43-5.87,.29-6.19,3.31-.29,2.86,2.66,4.26,5.01,4.58Zm-2.84-2.58c-3.2-3.91,2.75-4.33,4.54-3.95,1.15,.25,2.29,.64,3.39,1.04,2.31,.84,4.46,2,6.66,3.06-1.96,.22-3.88,.6-5.83,.89-2.32,.34-7,1.11-8.76-1.04Z"/>
              </g>
            </g>
          </g>
          <g>
            <path class="cls-17" d="M360.11,444.05l48.45-7.34s-23.29-46.42-37.71-71.61c-8.02-14.01-29.95-14.69-40.61,2.09-14.25,22.42-25.31,43.43-31.64,55.07l-10.99,.94,2.37,17.96,36.53,8.18c13.99,1.67,23.81-23.24,24.04-22.81,1.77,3.27,9.56,17.53,9.56,17.53Z"/>
            <g>
              <path class="cls-15" d="M350.81,426.63c-1.38-2.82-2.45-5.82-3.68-8.71-1.18-2.8-2.38-5.59-3.55-8.39-2.38-5.66-4.84-11.29-7.14-16.98-1.29-3.19-2.48-6.43-3.69-9.66-.03-.08-.15-.04-.12,.04,.93,3.05,1.91,6.09,2.93,9.11-.27-.52-.54-1.04-.82-1.55-.78-1.39-1.58-2.77-2.39-4.14-.03-.05-.11,0-.08,.05,.74,1.38,1.49,2.76,2.26,4.12,.38,.68,.8,1.35,1.21,2.03,2.87,8.46,6.13,16.79,10.05,24.83,1.54,3.16,3.34,6.19,4.89,9.35,.05,.1,.2,0,.15-.09Z"/>
              <path class="cls-15" d="M361.2,435.44c-2.34-3.6-7.9-14.52-9.89-18.29-4.03-7.63-7.72-15.42-11.21-23.31-1.97-4.46-3.81-8.96-5.64-13.48-.01-.03-.06-.02-.05,.02,2.74,8.14,6.01,16.12,9.56,23.94,3.55,7.83,15.01,28.93,17.08,31.21,.07,.08,.21,0,.15-.09Z"/>
              <path class="cls-18" d="M331.12,386.39c-4.18,7.46-8.44,14.86-12.64,22.31-2.12,3.76-4.24,7.53-6.33,11.3-.99,1.78-1.94,3.57-2.97,5.33-.97,1.66-2.12,3.04-3.83,3.97-1.88,1.03-4.04,1.52-6.08,2.12-2.36,.69-4.7,1.43-7.07,2.08-.11,.03-.06,.19,.05,.17,2.11-.56,4.24-1.05,6.36-1.57,1.93-.48,3.91-.88,5.77-1.56,1.69-.62,3.15-1.54,4.28-2.96,1.21-1.52,2.07-3.31,3-5.01,4.19-7.66,8.33-15.34,12.45-23.04,2.34-4.38,4.66-8.76,7.02-13.12,.01-.02-.02-.05-.04-.02Z"/>
              <path class="cls-15" d="M359.01,437.25c2.9-.53,5.88-.78,8.8-1.16,2.94-.38,5.87-.76,8.81-1.14,5.85-.76,25.79-3.94,27.29-4.44,.1-.03,.06-.19-.03-.19-1.43-.04-14.48,1.69-17.41,2.12-5.86,.86-11.67,1.9-17.51,2.88-1.67,.28-3.33,.6-4.99,.89-1.66,.29-3.32,.65-4.99,.87-.1,.01-.07,.18,.03,.16Z"/>
            </g>
          </g>
        </g>
        <g>
          <g>
            <rect class="cls-16" x="344.3" y="472.37" width="76.89" height="3.1"/>
            <rect class="cls-10" x="344.3" y="472.37" width="42.55" height="3.1"/>
          </g>
          <g>
            <polygon class="cls-10" points="385.56 475.47 452.95 475.47 462.47 429.7 395.08 429.7 385.56 475.47"/>
            <polygon class="cls-13" points="388.61 475.47 456 475.47 465.52 429.7 398.13 429.7 388.61 475.47"/>
            <path class="cls-3" d="M422.58,453.61c-.26,2.48,1.54,4.49,4.02,4.49,2.48,0,4.7-2.01,4.96-4.49,.26-2.48-1.54-4.49-4.02-4.49s-4.7,2.01-4.96,4.49Z"/>
          </g>
        </g>
        <g>
          <g>
            <path class="cls-8" d="M389.68,482.74c-.88-2.31-44.76-55.34-47.64-56.27-.33-.12-18.31,13.88-18.31,13.88-.72,1.05-36.31-4.86-36.31-4.86l1.5,42.55,64.17-4.16s8.9,4.72,17.01,8.53c.01,0,.02,0,.03,0,5,2.36,9.41,4.34,10.66,4.61,3.25,.68,9.77-1.99,8.88-4.29Z"/>
            <path class="cls-5" d="M380.8,487.03c-1.25-.26-5.66-2.25-10.66-4.61,0,.01-.02,0-.03,0-8.11-3.81-17.01-8.54-17.01-8.54l-14.28,.93-23.95-35.14c4.95,.66,8.64,1.02,8.87,.68,0,0,17.97-14.01,18.3-13.88,2.88,.93,46.76,53.96,47.64,56.27,.89,2.3-5.63,4.98-8.88,4.29Z"/>
            <g>
              <path class="cls-12" d="M390.06,482.8c-.92-2.37-44.99-55.35-47.95-56.31-1.12-.37-9.95,5.63-18.38,13.87l28.45,34.13s25.41,12.08,28.76,12.78c3.35,.69,10.03-2.1,9.11-4.46Z"/>
              <g>
                <g>
                  <path class="cls-17" d="M387.31,483.8c-7.61-8.7-37.46-44.51-44.32-53.69-.06-.07,0-.12,.06-.05,7.73,8.46,37.29,44.51,44.41,53.62,.15,.19,.01,.3-.15,.12Z"/>
                  <path class="cls-17" d="M376.21,485.44c-1.84-2.04-2.55-4.93-2.25-7.12,.29-2.11,1.2-4.46,3.09-5.93,.05-.04,.14,.05,.09,.11-3.05,3.4-3.48,9.1-.82,12.85,.05,.08-.05,.16-.11,.09Z"/>
                  <path class="cls-18" d="M355.4,476.53c-3.01-3.51-5.18-8.68-4.11-13.31,.04-.18,.3-.12,.33,.03,1.02,4.59,2.32,8.67,4.27,12.97,.14,.3-.27,.55-.49,.3Z"/>
                  <path class="cls-17" d="M358.75,478.38c-3.01-3.51-5.18-8.68-4.11-13.31,.04-.18,.3-.12,.33,.03,1.02,4.59,2.32,8.67,4.27,12.97,.14,.3-.27,.55-.49,.3Z"/>
                  <path class="cls-17" d="M362.1,480.24c-3.01-3.51-5.18-8.68-4.11-13.31,.04-.18,.3-.12,.33,.03,1.02,4.59,2.32,8.67,4.27,12.97,.14,.3-.27,.55-.49,.3Z"/>
                  <path class="cls-17" d="M365.45,482.09c-3.01-3.51-5.18-8.68-4.11-13.31,.04-.18,.3-.12,.33,.03,1.02,4.59,2.32,8.67,4.27,12.97,.14,.3-.27,.55-.49,.3Z"/>
                  <path class="cls-17" d="M336.44,439.39c-3.31-4,2.9-9.14,6.21-5.14,3.31,4-2.9,9.14-6.21,5.14Z"/>
                </g>
                <path class="cls-17" d="M354.08,483.64c.88-3.98,0-8.2-.35-12.18-.04-.41-.5-.54-.82-.4-.04-.06-.12-.09-.19-.03-2.9,2.75-5.39,6.91-6.4,10.79-.63,2.4-.2,5.88,2.79,6.44,2.83,.53,4.46-2.3,4.97-4.62Zm-2.81,2.61c-4.16,2.86-4.09-3.1-3.56-4.85,.34-1.12,.83-2.23,1.32-3.29,1.03-2.23,2.36-4.28,3.6-6.38,.05,1.97,.28,3.92,.4,5.88,.15,2.34,.53,7.06-1.76,8.64Z"/>
                <path class="cls-17" d="M339.95,460.29c-2.09,2.21-.39,5.28,1.53,6.85,3.1,2.55,7.56,4.45,11.53,4.96,.1,.01,.14-.06,.14-.14,.34-.08,.64-.45,.43-.81-2.06-3.43-3.83-7.36-6.88-10.06-1.78-1.58-4.76-2.9-6.74-.81Zm9.44,6.3c1.05,1.66,2.02,3.37,3.13,4.99-2.25-.97-4.52-1.85-6.67-3.05-1.02-.57-2.06-1.18-3-1.89-1.46-1.1-5.02-5.88,.03-6.01,2.78-.07,5.25,3.97,6.51,5.96Z"/>
              </g>
            </g>
          </g>
          <g>
            <path class="cls-17" d="M308.11,424.74s-55.03-7.39-73.04-2.54c-25.12,6.77-28,36.94-8.65,48.43,24.51,14.55,109.54,6.44,109.54,6.44l-23.73-40.01s-35.62-6.64-67.55-4.06l64.43,7.97-.98-16.23Z"/>
            <g>
              <path class="cls-15" d="M313.87,439.76c-.03-.05-.04-.16-.06-.22-.02-.06-.03-.12-.05-.18-.04-.14-.08-.27-.12-.41-.09-.28-.19-.55-.3-.83-.11-.27-.23-.54-.36-.8-.13-.27-.3-.49-.46-.74-.02-.03-.04-.03-.06-.04-.01-.01-.03-.02-.04-.03-.02,0-.04-.02-.06-.02-.02,0-.04-.02-.06-.02-3.91-.63-30.45-3.63-34.39-3.95-3.97-.32-7.95-.56-11.93-.75-7.93-.39-15.9-.4-23.82,.09-.74,.05-1.48,.11-2.23,.17-.16-.05-.33-.07-.49-.11-.38-.08-.77-.17-1.16-.24-.72-.12-1.45-.2-2.17-.29-1.51-.19-3.02-.3-4.53-.54-.09-.01-.12,.14-.03,.16,1.52,.3,3.01,.72,4.53,1.01,.44,.08,.88,.17,1.31,.25-2.9,.29-5.79,.67-8.68,1.08-.09,.01-.09,.17,0,.16,3.94-.43,7.92-.63,11.88-.73,3.93-.1,7.86-.17,11.8-.1,7.96,.16,15.92,.59,23.86,1.16,4.46,.32,31.52,3.47,35.98,3.48,.02,0,.04,0,.05-.01,.04,.11,.08,.22,.14,.33,.13,.26,.27,.52,.41,.77,.14,.25,.27,.49,.43,.72,.08,.12,.15,.23,.23,.35,.04,.06,.08,.11,.12,.17,.03,.05,.1,.12,.12,.18,.04,.11,.19,.03,.13-.07Z"/>
              <path class="cls-15" d="M323.76,474.59c-1.4-2.3-2.62-4.77-3.91-7.15-1.3-2.39-2.6-4.77-3.9-7.16-2.6-4.76-11.88-20.73-12.78-21.83-.06-.07-.16,.02-.13,.1,.46,1.25,6.28,11.84,7.62,14.19,2.67,4.72,5.47,9.34,8.23,13.99,.79,1.33,1.6,2.64,2.4,3.96,.8,1.32,1.64,2.62,2.38,3.97,.04,.08,.16,0,.11-.08Z"/>
              <path class="cls-15" d="M301.72,442.83c-2.37-.52-4.78-.81-7.17-1.2-2.39-.39-4.78-.78-7.18-1.16-4.79-.76-9.58-1.49-14.37-2.16-9.57-1.35-19.16-2.39-28.78-2.99-5.43-.34-10.87-.48-16.31-.68-.11,0-.1,.2,.01,.2,9.67,.06,19.37,1.08,28.99,2.17,9.53,1.08,19.04,2.32,28.54,3.66,2.68,.38,5.36,.77,8.05,1.16,2.72,.4,5.45,.92,8.19,1.18,.1,0,.14-.15,.03-.18Z"/>
            </g>
          </g>
        </g>
      </g>
      <g>
        <g>
          <path class="cls-15" d="M297.28,318.34s-9.65-4.34-17.42,1.44c-7.78,5.78-10.64,18.67-8.37,29.1,2.27,10.43-5.75,18.11-6.03,26.02-.28,7.91,5.16,11.11,7.22,15.08,2.36,4.54-4.18,21.92,16.3,24.14,25.6,2.77,33.97-13.52,30.34-26.13-1.78-6.17-5.68-10.34-6.03-15.43-.35-5.08,2.9-9.43,.5-15.71-2.4-6.29-4.81-5.21-6.67-15.23-1.86-10.03-.77-22.29-9.83-23.27Z"/>
          <path class="cls-15" d="M281.58,319.4c-5.16,4.01-8.83,9.33-10.73,15.32-.97,3.04-1.44,6.2-1.38,9.35,.08,4.14,1.03,7.95-.17,12.07-1.93,6.61-6.4,12.36-5.58,19.47,.38,3.28,1.68,6.43,3.8,9.06,2.44,3.04,5.76,5.33,7.86,8.63,.09,.14,.3,0,.22-.14-1.77-2.94-4.43-5.08-6.71-7.66-2.72-3.08-4.43-6.88-4.65-10.91-.36-6.8,4.05-12.41,5.8-18.78,.79-2.88,.64-5.6,.3-8.52-.39-3.46-.3-6.89,.47-10.31,1.52-6.75,5.44-12.8,10.85-17.51,.05-.04-.03-.12-.08-.08Z"/>
          <path class="cls-18" d="M277.33,397.3s-.03,.05,0,.05c.03,0,.03-.05,0-.05Z"/>
          <path class="cls-15" d="M319.08,386.18c-.88-2.98-2.7-5.6-3.58-8.57-1.06-3.58-.44-7.27-.04-10.9,.57-5.18,.06-9.98-2.58-14.59-1.71-2.98-3.72-5.74-5.07-8.91-1.46-3.44-2.42-7.09-2.83-10.79,0-.08-.14-.07-.13,.01,.41,5.47,1.86,10.55,4.66,15.34,1.61,2.75,3.54,5.3,4.59,8.33,1.26,3.64,1.18,7.26,.84,11.04-.23,2.52-.54,5.08-.31,7.61,.24,2.63,1.26,4.9,2.39,7.28,2.94,6.17,3.44,12.69,1.47,19.24-.03,.11,.17,.17,.21,.06,1.67-4.92,1.87-10.16,.39-15.14Z"/>
          <path class="cls-15" d="M264.7,374.05c-.24-5.6,3.34-9.72,5.31-14.76,1.48-3.81,2.37-7.81,1.45-11.79-.02-.07-.13-.04-.12,.03,.78,5.81-1.23,11.3-4.06,16.46-1.88,3.43-3.4,6.69-3.1,10.61,.3,3.83,2.09,6.93,4.54,9.92,1.74,2.13,3.44,4.11,4.32,6.73,.87,2.6,.96,5.4,1.05,8.11,0,.14,.23,.12,.23-.02,.03-4.21-.25-8.28-2.67-11.92-2.97-4.48-6.72-7.66-6.96-13.35Z"/>
          <path class="cls-18" d="M319.72,382.14c-1-1.85-2.33-3.5-3.66-5.14-2.4-2.96-2.96-5.48-2.56-9.27,0-.09-.12-.11-.14-.02-.77,3.16-.8,5.73,1.25,8.41,2.87,3.74,5.65,7.13,6.56,11.8,1.62,8.29-2.47,16.48-9.78,21.34-.1,.07,0,.21,.11,.15,6.17-3.7,10.2-9.79,10.58-16.63,.2-3.67-.61-7.37-2.38-10.63Z"/>
        </g>
        <g>
          <g>
            <path class="cls-8" d="M301.82,372.43c9.56,4.34,42.86,14.98,48.71,11.92,6.09-3.19,25.39-21.13,28.69-26.4,1.84-2.93-18.83-19.94-20.91-16.88-2.08,3.06-16.47,19.82-18.94,21.1-2.46,1.28-33.11-3.18-42.48-2.16-16.16,1.77-.22,10.09,4.93,12.42Z"/>
            <g>
              <path class="cls-8" d="M385.94,347.77c-1.82,5.1-9.63,14.07-12.34,15.51-2.72,1.44-18.41-11.32-18.33-14.48,.08-3.15,7.54-19.85,12.25-22.75,4.7-2.9,20.32,16.43,18.43,21.71Z"/>
              <g>
                <path class="cls-8" d="M361.18,331.98c1.87,2.18,3.56,.53,3.56,.53,0,0-3.51,4.32-1.8,6.99,1.66,2.57,5.17-.32,5.42-.52-.18,.23-3.3,4.29-1.31,6.79,2.08,2.6,5.1-.9,5.3-1.13-.1,.27-1.43,3.89,.52,5.45,3.35,2.68,7-6.48,10.24-7.72,0,0,2.72,5.26,2.84,5.4,0,0,3.65-8.64,1.74-12.92-1.01-2.26-3.31-1.76-3.31-1.76,0,0,1.48-2.66-.02-4.68-.78-1.04-3.13-.72-3.13-.72,0,0,1.1-2.18-.35-3.89-1.16-1.37-3.33-.84-3.33-.84,0,0,7.72-9.75,5.4-12.07-4-4-19.35,17.78-21.85,17.78-1.24,0-.72,2.36,.09,3.31Z"/>
                <g>
                  <path class="cls-18" d="M377.17,322.99s.02-.09-.03-.07c-4.88,1.82-9.68,5.32-12.58,9.69-.1,.14-.09,.94,.02,.79,2.91-3.84,7.79-7.68,12.59-10.4Z"/>
                  <path class="cls-18" d="M381.26,327.62c.05-.03,0-.12-.06-.09-5.02,1.91-10.32,6-13.07,11.42-.09,.19,0,.45,.13,.24,2.1-3.47,8.65-9.14,12.99-11.57Z"/>
                  <path class="cls-18" d="M372.29,345.09c2.84-5.1,7.03-8.78,11.87-11.94,.06-.04,0-.13-.06-.11-2.79,.9-5.67,3.24-7.75,5.24-2,1.92-3.41,4.06-4.23,6.7-.03,.1,.12,.21,.18,.1Z"/>
                </g>
                <path class="cls-18" d="M364.64,332.51c-.11,.17,.52,.12,.41,.3-1.16,1.92-3.08,5.45-1.74,6.75,1.08,1.04,3.23,.31,3.94-.29l1.8-1.52-1.16,2.05c-.51,.9-.92,1.91-1.1,2.92-.19,1-.11,2.05,.47,2.78,.59,.77,1.49,1.08,2.37,.71,.89-.32,1.72-1.06,2.35-1.83l1.77-2.15-.97,2.6c-.26,.7-.45,1.49-.52,2.25-.07,.76-.01,1.53,.32,2.13,.33,.58,.98,1,1.61,.94,.67-.05,1.36-.49,1.97-.97,1.23-1,2.26-2.27,3.35-3.49,.54-.61,1.08-1.23,1.65-1.82,.57-.57,1.18-1.18,1.95-1.47-.74,.37-1.25,1.02-1.78,1.63-.52,.62-1.01,1.27-1.5,1.93-.98,1.3-1.99,2.6-3.23,3.74-.64,.54-1.35,1.1-2.32,1.24-1.01,.13-1.97-.47-2.43-1.29-.48-.84-.53-1.77-.47-2.63,.07-.87,.26-1.68,.55-2.51l.81,.45c-.74,.92-1.58,1.72-2.76,2.19-.58,.23-1.29,.29-1.93,.07-.64-.22-1.15-.63-1.53-1.14-.79-1.05-.82-2.4-.59-3.51,.24-1.15,.68-2.19,1.26-3.19l.64,.53c-.93,.74-3.25,1.81-5.12,.41-2.17-2.19,1.26-6.96,1.95-7.79Z"/>
              </g>
              <g>
                <path class="cls-8" d="M355.27,348.81s-2.94-14.68-.37-19.05c2.57-4.36,13.8-4.7,17.92-4.17,5.68,.73,4.58,4.73,1.85,6.19-3.16,1.69-8.54,2.55-8.92,2.62,0,0,5.38,6.94,3.15,12.93-2.24,5.99-13.63,1.48-13.63,1.48Z"/>
                <path class="cls-18" d="M364.69,325.65c2.24-.36,4.52-.56,6.79-.47,1.69,.08,3.7,.18,5.03,1.49,4.04,5.24-7.13,8.02-10.74,8.18,0,0,.3-.75,.3-.75,.74,.86,1.32,1.78,1.82,2.76,1.5,2.89,2.06,6.28,1.31,9.46,.07-1.07,.13-2.13,0-3.18-.36-3.41-2-6.64-4.35-9.09,2.48-.19,4.97-.74,7.31-1.67,1.03-.42,2.07-.84,2.9-1.46,1.96-1.39,1.92-3.55-.4-4.5-3.12-1.04-6.66-.8-9.96-.77h0Z"/>
              </g>
            </g>
          </g>
          <g>
            <path class="cls-12" d="M354.26,344.88l22.57,22.31s-19.26,16.2-26.55,18.78c-7.28,2.57-41.3-9.2-53.01-15.12-11.71-5.92-9.22-11.48,3.82-11.94,13.04-.45,36.66,2.58,38.07,1.65,1.41-.93,15.1-15.68,15.1-15.68Z"/>
            <path class="cls-17" d="M360.26,360.9c-1.57-1.62-7.81-8.17-9.23-9.91-.02-.03,.01-.07,.04-.05,1.68,1.4,8.03,7.67,9.6,9.3,3.14,3.24,6.37,6.43,9.14,10,.05,.06-.03,.17-.1,.11-3.36-2.93-6.36-6.25-9.46-9.45Z"/>
            <path class="cls-1" d="M354.31,383.72c-1.52,1.05-2.89,1.84-4.03,2.25-7.28,2.58-41.3-9.2-53.01-15.12-10.23-5.17-9.63-10.07-.62-11.53l57.66,24.4Z"/>
          </g>
        </g>
        <g>
          <path class="cls-12" d="M263.22,424.37l61.49-2.69-5.36-23.77s5.36-6.87,1.71-13.87c-2.62-5.02-9.76-15.85-14.54-20.64-11.66-11.67-18.35-4.64-20.96-1.13-9.99,13.42-22.33,62.1-22.33,62.1Z"/>
          <g>
            <path class="cls-18" d="M299.17,396.46c2.66-.05,5.34-.01,7.98,.33,1.31,.17,2.61,.4,3.91,.66,.65,.13,1.3,.24,1.95,.34,.67,.11,1.38,.19,2.06,.13,.06,0,.07,.09,0,.09-.65,.1-1.28,.19-1.95,.2-.63,.01-1.27-.05-1.89-.12-1.33-.16-2.66-.38-3.99-.56-2.69-.35-5.38-.7-8.08-.86-.12,0-.12-.22,0-.22Z"/>
            <path class="cls-18" d="M292.95,399.59c2.13-.48,4.32-.88,6.5-1.12,1.09-.12,2.19-.18,3.29-.2,.53-.01,1.05-.02,1.58-.01,.58,0,1.16,.08,1.73,.08,.06,0,.07,.09,0,.09-.54,.02-1.09,.13-1.63,.19-.54,.05-1.09,.1-1.64,.16-1.09,.11-2.18,.23-3.27,.32-2.19,.19-4.36,.41-6.54,.68-.12,.01-.13-.15-.02-.18Z"/>
          </g>
        </g>
        <g>
          <g>
            <path class="cls-8" d="M280.77,365.93c-15.76,19.38-32.99,51.57-24.55,57.8,7.7,5.69,34.34-1.53,50.93-9.06,3.16-1.43-11.44-29.26-14.64-27.39-5.61,3.29-10.04,5.25-10.46,5.4-.92,.3,3.85-6.19,8.72-21.44,4.95-15.5-.98-16.39-9.99-5.31Z"/>
            <g>
              <path class="cls-8" d="M333.56,382.96c.19,3.31-8.02,3.1-8.02,3.1,0,0,2.01,1.1,2.67,3.2,.75,2.41-2.7,4.64-2.7,4.64,0,0,1.81,1.53,2.27,3.82,.48,2.38-2.68,5.12-2.68,5.12,0,0,.9,2.35-.12,4.62-1.74,3.88-8.27,4.31-12.26,5.37-4.28,1.14-10.47,3.64-13.01,4.92l-9.09-29.39s16.95-11.33,21.86-11.35c4.13-.02,20.79,.87,21.09,5.94Z"/>
              <g>
                <path class="cls-18" d="M325.47,385.97c-4.4-1.03-9.04-1-13.51-.93-.1,0-.1,.16,0,.15,4.45-.13,9.04,.94,13.48,.99,.12,0,.14-.19,.02-.21Z"/>
                <path class="cls-18" d="M325.37,393.57c-1-.2-2.07-.07-3.08,0-1.09,.07-2.18,.16-3.26,.27-2.17,.22-4.34,.48-6.5,.81-.1,.01-.1,.16,0,.15,2.17-.21,4.34-.39,6.51-.51,1.09-.06,2.18-.11,3.27-.16,1.01-.04,2.09,0,3.07-.27,.15-.04,.14-.27,0-.3Z"/>
                <path class="cls-18" d="M325.01,402.86c-.86-.21-1.9,.04-2.77,.14-.99,.12-1.98,.23-2.97,.34-1.98,.22-3.96,.43-5.95,.58-.1,0-.1,.16,0,.15,2.02-.14,4.04-.25,6.06-.41,.99-.08,1.98-.16,2.97-.25,.84-.07,1.9-.07,2.67-.46,.04-.02,.03-.09-.01-.1Z"/>
              </g>
            </g>
          </g>
          <g>
            <path class="cls-12" d="M289.81,388.08l8.16,31.7s-39.55,12.6-44.25,2.67c-4.7-9.93,16.88-48.86,29.9-60.34,13.02-11.47,8.83,5.74,8.49,7.11-1.52,6.11-9.23,22.26-9.23,22.26l6.94-3.41Z"/>
            <g>
              <path class="cls-17" d="M289.12,388.15c-4.52,1.87-16.27,8.53-18.79,11.14-.07,.08,.02,.2,.1,.13,2.51-1.98,17.04-10.07,19.32-11.09,0,0,.13,.28,.18,.35,.08,.11,.14,.04,.13-.06,0-.07-.18-.73-.21-.77,0,0-.24,.1-.74,.3Z"/>
              <path class="cls-17" d="M286.64,406.25c-.55-2.21-2.7-11.08-3.07-13.32,0-.04,.05-.06,.06-.02,.77,2.07,3.15,10.76,3.71,12.97,1.11,4.42,2.32,8.84,2.95,13.36,.01,.08-.11,.13-.14,.05-1.46-4.26-2.41-8.67-3.5-13.03Z"/>
              <path class="cls-17" d="M282.56,391.7c1.11-2.79,2.51-5.48,3.75-8.22,1.23-2.73,2.53-5.45,3.67-8.22,.01-.04,.08-.01,.06,.02-.68,1.88-1.37,3.76-2.1,5.62,.24-.3,.46-.61,.68-.92,.39-.57,.76-1.16,1.11-1.76,.02-.04,.08,0,.06,.03-.26,.67-.61,1.28-1.02,1.87-.3,.44-.65,.84-1.01,1.23-.3,.76-.62,1.51-.95,2.26-1.22,2.77-2.15,5.5-3.78,8.06-.05,.08-.5,.11-.47,.02Z"/>
              <path class="cls-18" d="M259.6,425.77c8.17,1.15,33.84-4.8,38.22-5.94-.08-.47-.07-.63-.19-1.29-.01-.09,.12-.13,.14-.04,.16,.62,.65,1.85,.47,1.93-2.08,.95-30.68,7.47-38.64,5.54-.12-.03-.13-.22,0-.2Z"/>
            </g>
          </g>
        </g>
        <g>
          <g>
            <path class="cls-8" d="M292.2,360.39c.31,1.05,5.8,7.65,10.65,7.13,1.58-.17,1.02-8.83,1.02-8.83l.11-.65,1.46-9.08-10.93-6.12-1.57-.8s-.24,2.51-.5,5.64c-.01,.15-.03,.29-.04,.45-.02,.18-.04,.34-.05,.51-.05,.47-.09,.94-.12,1.42-.03,.36-.06,.71-.07,1.1-.02,.38-.04,.75-.07,1.14-.16,3.77-.02,7.66,.11,8.11Z"/>
            <path class="cls-17" d="M292.44,347.68c3,6.97,8.87,9.54,11.54,10.36l1.46-9.08-10.93-6.12-1.57-.8s-.24,2.51-.5,5.64Z"/>
          </g>
          <g>
            <path class="cls-8" d="M312.45,329.83c8.04,13.99,.56,20.39-2.46,22.12-2.74,1.57-12.27,6.57-21.71-6.52-9.44-13.09-5.47-21.25,.61-25.17,6.08-3.92,15.53-4.42,23.56,9.58Z"/>
            <g>
              <path class="cls-18" d="M309.09,328.55c-.35,.14-.7,.22-1.07,.32-.41,.12-.73,.25-1.15,.12-.23-.07-.38-.39-.33-.62,.12-.53,.58-.8,1.07-.96,.53-.18,.98-.18,1.51,.02,.51,.19,.44,.93-.03,1.12Z"/>
              <path class="cls-18" d="M299.14,333.71c.31-.22,.56-.47,.85-.72,.32-.28,.61-.47,.72-.9,.06-.23-.12-.53-.34-.61-.51-.19-.99,.06-1.39,.38-.44,.35-.68,.73-.8,1.28-.11,.53,.54,.87,.96,.58Z"/>
              <g>
                <g>
                  <path class="cls-18" d="M303.57,336.36s-.05,.09-.02,.13c.58,.93,1.08,2.1,.4,2.91-.02,.03,0,.07,.04,.05,.97-.75,.28-2.3-.42-3.09Z"/>
                  <path class="cls-18" d="M302.15,335.85c-1.6,.77,.05,3.91,1.53,3.2,1.46-.7-.19-3.84-1.53-3.2Z"/>
                </g>
                <path class="cls-18" d="M301.62,336.34c-.18,.32-.28,.78-.6,.98-.36,.24-.82,.06-1.24-.12-.04-.02-.06,.02-.03,.06,.31,.61,.86,1.1,1.55,.85,.63-.23,.77-.98,.61-1.67-.03-.13-.22-.24-.29-.11Z"/>
              </g>
              <g>
                <g>
                  <path class="cls-18" d="M308.8,333.03s.1,0,.12,.05c.47,.99,1.18,2.05,2.23,1.92,.03,0,.06,.05,.02,.06-1.16,.4-2.08-1.01-2.37-2.03Z"/>
                  <path class="cls-18" d="M309.15,331.56c1.51-.93,3.26,2.16,1.86,3.02-1.38,.85-3.12-2.24-1.86-3.02Z"/>
                </g>
                <path class="cls-18" d="M309.9,331.4c.34,.03,.75,.19,1.05,.04,.35-.17,.41-.64,.45-1.09,0-.05,.04-.03,.07,0,.35,.58,.5,1.31,0,1.74-.46,.4-1.12,.1-1.6-.4-.09-.09-.1-.31,.04-.3Z"/>
              </g>
              <path class="cls-18" d="M307.58,344.12c.35,.12,.74,.33,1.11,.19,.36-.13,.69-.48,.95-.75,.03-.03,.07,0,.07,.03-.08,.5-.51,1-1.01,1.13-.49,.13-.89-.15-1.19-.51-.04-.05,.02-.11,.07-.09Z"/>
              <path class="cls-18" d="M309.73,338.44s.98,1.34,1.35,2.02c.03,.06-.11,.18-.34,.32,0,0-.01,.02-.03,.02-1.1,.84-2.54,1.08-3.8,.49-.08-.04-.03-.16,.05-.15,1.25,.17,2.34-.19,3.41-.75-.05-.21-1.75-2.23-1.65-2.3,.36-.23,1.23-.38,1.74-.49-1.96-2.84-4.36-5.35-6.27-8.21-.07-.1,.07-.22,.15-.14,2.7,2.45,5.03,5.67,7.13,8.55,.27,.36-1.41,.6-1.75,.63Z"/>
              <g>
                <path class="cls-18" d="M310.47,340.5s-.09,1.27-.77,2.14c-.25,.32-.57,.59-.99,.72-.87,.28-1.33-.39-1.56-1.07-.2-.55-.24-1.11-.24-1.11,0,0,1.74,.33,3.56-.68Z"/>
                <path class="cls-4" d="M309.7,342.64c-.25,.32-.57,.59-.99,.72-.87,.28-1.33-.39-1.56-1.07,.85-.43,1.99-.39,2.56,.35Z"/>
              </g>
            </g>
            <g>
              <path class="cls-15" d="M289.72,345.64c2.8-.9,.66-7.28,.66-7.28,0,0,10.39-7.16,7.07-16.79,0,0,5.31,4.44,12.45,4.34,0,0-6.8-10.66-15.69-8.9,0,0-10.23,.98-12.63,11.53-2.45,10.82,6.25,17.69,8.14,17.09Z"/>
              <path class="cls-18" d="M297.17,320.88c.8,1.33,1.27,2.86,1.45,4.43,.18,1.56,.07,3.18-.4,4.7-.09,.39-.27,.74-.41,1.12l-.22,.55c-.09,.18-.18,.35-.28,.52-.2,.34-.38,.69-.59,1.03-.23,.32-.47,.64-.71,.95-.12,.15-.23,.32-.36,.47l-.41,.42-.81,.84c-.59,.51-1.21,.98-1.83,1.44,.52-.58,1.08-1.11,1.58-1.68l.72-.89,.36-.44c.11-.16,.21-.32,.31-.48,.2-.32,.41-.64,.62-.95,.19-.33,.34-.67,.52-1.01l.26-.5,.2-.53c.12-.35,.29-.69,.37-1.06,.46-1.43,.59-2.95,.54-4.46-.03-.76-.13-1.51-.28-2.26-.14-.75-.36-1.49-.63-2.21Z"/>
            </g>
            <g>
              <path class="cls-17" d="M305.78,335.76l-.65-.28c.37-.99,1.55-2.67,3.32-2.01l-.22,.68c-1.59-.59-2.42,1.53-2.45,1.62Z"/>
              <path class="cls-17" d="M286.08,349.73l-.71,.13c-.06-.33-.57-3.29,.56-4.49,1.05-1.12,9.31-6.36,9.67-6.58l.39,.61c-2.37,1.5-8.71,5.6-9.52,6.47-.74,.79-.52,3.06-.37,3.87Z"/>
              <path class="cls-17" d="M301.91,341.9c-1.14,.41-2.25,.61-3.01,.42-2.1-.52-4.96-4.54-5.08-4.71l-.28-.39,.44-.19c.34-.14,8.32-3.48,10.89-2.5,1.39,.53,1.86,3.08,1.5,4.06-.45,1.21-2.5,2.6-4.47,3.31Zm-7.18-4.35c.96,1.28,2.99,3.68,4.35,4.02,1.83,.45,6.04-1.83,6.57-3.25,.25-.68-.16-2.73-1.05-3.07-1.78-.68-7.35,1.29-9.87,2.31Z"/>
              <path class="cls-17" d="M312.3,335.81c-.76,.28-1.63,.39-2.33,.09-.87-.38-2.16-1.79-2.23-3.33-.1-2.28,4.38-5.17,4.89-5.49l.39-.25,.17,.43c.07,.18,1.75,4.37,1.64,5.99-.05,.77-.64,1.55-1.6,2.13-.27,.16-.58,.32-.92,.44Zm.34-7.83c-1.46,.99-4.21,3.14-4.14,4.55,.06,1.26,1.19,2.4,1.77,2.66,.6,.26,1.65,.06,2.55-.48,.74-.45,1.2-1.01,1.23-1.53,.08-1.07-.87-3.8-1.41-5.2Z"/>
            </g>
            <g>
              <path class="cls-8" d="M291.89,350.32c.29-.02,.53-.07,.76-.14,.27-.07,.5-.18,.7-.3,.31-.18,.55-.42,.72-.66,.16-.22,.28-.46,.35-.68,.2-.58,.17-1.08,.17-1.08l-2.63-3.53s-5.32-3.08-6.86-.98c-1.55,2.1,3.93,7.61,6.78,7.39Z"/>
              <path class="cls-18" d="M286.71,344.47s-.02,.07,.02,.07c2.03-.1,3.66,1.06,5.05,2.41-.8-.4-1.65-.42-2.22,.58-.03,.05,.05,.1,.09,.07,.63-.47,1.19-.59,1.92-.25,.52,.24,.98,.64,1.43,.98,.15,.12,.39-.09,.25-.24-.01-.01-.02-.02-.03-.03-.97-2.2-4.07-4.46-6.51-3.59Z"/>
            </g>
          </g>
        </g>
      </g>
    </g>
  </g>
  <g id="Character_1" data-name="Character 1">
    <g>
      <g>
        <g>
          <path class="cls-2" d="M146.14,168.65c-21.59,13.07-41.4,29.68-41.6,37.4-.27,10.39,10.28,32.55,16.82,43.55,1.92,3.23,26.77-12.23,24.72-15.69-2.48-4.18-15.64-25.59-15.75-26.06-.24-1.02,16.29-24.89,20.37-30.5,6.82-9.36,5.02-14.5-4.56-8.7Z"/>
          <g>
            <path class="cls-2" d="M132.02,265.6c-4.8-4.01-11.41-16.04-11.89-19.56-.48-3.52,19.61-15.44,23-14.1,3.39,1.34,18.5,16.09,19.77,22.34,1.27,6.25-25.9,15.47-30.88,11.32Z"/>
            <g>
              <path class="cls-2" d="M159.02,245.06c-3.27-.5-1.99,3.65-1.99,3.65,0,0-3.29-5.52-6.86-4.73-3.44,.77-1.72,5.72-1.6,6.08-.18-.29-3.33-5.29-6.84-4.12-3.65,1.21-1.06,5.89-.89,6.19-.25-.22-3.64-3.1-6.11-1.61-4.24,2.56,4.23,10.17,4.28,14.18,0,0-6.79,.86-6.98,.92,0,0,7.91,7.4,13.31,7.03,2.85-.19,3.23-2.89,3.23-2.89,0,0,2.29,2.67,5.08,1.84,1.43-.43,2.02-3.1,2.02-3.1,0,0,1.92,2.06,4.36,1.17,1.95-.71,2.24-3.28,2.24-3.28,0,0,2.76,1.12,4.52-.25,3.55-2.75-.75-19.99-7.77-21.07Z"/>
              <g>
                <path class="cls-18" d="M162.38,265.98c0,.06,.09,.06,.09,0-.03-6.02-1.91-12.62-5.49-17.5-.12-.16-.43-.04-.33,.16,2.72,5.74,4.68,11.05,5.72,17.34Z"/>
                <path class="cls-18" d="M155.73,268.56c.01,.07,.12,.05,.12-.02-.07-6.2-2.39-13.58-7.17-18.72-.16-.18-.49-.17-.31,.05,2.92,3.66,6.45,13.02,7.36,18.69Z"/>
                <path class="cls-18" d="M140.38,251.87c4.4,5.11,6.71,11.11,8.21,17.62,.02,.08,.14,.05,.14-.03,.14-3.38-1.25-7.43-2.59-10.49-1.29-2.93-3.04-5.32-5.58-7.26-.1-.07-.27,.04-.18,.15Z"/>
              </g>
              <path class="cls-18" d="M157.03,248.7c-.74-1-1.55-1.94-2.44-2.78-.89-.82-1.92-1.58-3.05-1.81-.55-.11-1.11-.04-1.58,.24-.47,.29-.9,.69-1.16,1.16-.54,.95-.46,2.21-.09,3.22l.93,2.55-1.76-2.08c-.77-.91-1.71-1.75-2.72-2.36-1.01-.6-2.18-.94-3.19-.6-1.07,.33-1.76,1.19-1.72,2.29,0,1.09,.47,2.28,1.05,3.28l1.62,2.78-2.43-2.08c-.66-.56-1.44-1.09-2.23-1.47-.79-.37-1.66-.62-2.43-.5-.76,.12-1.47,.66-1.66,1.37-.22,.75-.01,1.67,.27,2.52,.59,1.73,1.56,3.36,2.44,5.02,.45,.83,.9,1.66,1.31,2.51,.39,.85,.81,1.75,.82,2.7-.1-.94-.61-1.76-1.05-2.58-.47-.81-.98-1.6-1.49-2.39-1.02-1.58-2.03-3.19-2.76-4.99-.33-.9-.66-1.9-.42-3.01,.26-1.14,1.29-1.94,2.37-2.12,1.1-.19,2.13,.13,3.04,.53,.91,.42,1.72,.95,2.5,1.59l-.81,.69c-.7-1.17-1.24-2.4-1.28-3.86-.02-.72,.2-1.51,.69-2.12,.49-.61,1.14-.99,1.84-1.21,1.45-.44,2.93,.07,4.04,.76,1.15,.71,2.1,1.6,2.95,2.64l-.83,.48c-.43-1.31-.42-2.77,.32-3.98,.37-.59,.91-1.04,1.51-1.36,.62-.33,1.38-.38,2.03-.22,1.32,.35,2.29,1.26,3.15,2.15,.86,.92,1.59,1.94,2.21,3.02Z"/>
            </g>
            <g>
              <path class="cls-2" d="M146.15,234.01s25.41,7.61,17.57,16.09c-2.33,2.52-14.91,10.08-16.47,7.58-2.02-3.22,2.64-7.36,5.98-9.49,0,0-9.01-1.37-9.92-7.93-.57-4.11,2.85-6.25,2.85-6.25Z"/>
              <path class="cls-18" d="M164.33,249.35c-.75,1.13-1.79,2.03-2.83,2.89-1.05,.86-2.18,1.61-3.33,2.32-2.33,1.39-4.67,2.7-7.26,3.68-.65,.24-1.32,.45-2.1,.51-.38,.03-.81,0-1.22-.16-.21-.08-.38-.16-.59-.33-.18-.16-.33-.33-.44-.51-.47-.72-.54-1.57-.44-2.32,.13-.76,.42-1.45,.77-2.08,.72-1.25,1.71-2.26,2.76-3.15,1.04-.91,2.17-1.67,3.32-2.41l.19,.86c-1.05-.19-2.02-.49-2.99-.87-.96-.37-1.89-.84-2.75-1.4-.86-.57-1.64-1.26-2.3-2.05-.66-.79-1.16-1.7-1.47-2.66,.44,.91,1.02,1.74,1.72,2.44,.7,.71,1.51,1.28,2.37,1.77,.86,.49,1.76,.88,2.7,1.19,.93,.3,1.91,.54,2.85,.66l1.2,.15-1,.71c-1.08,.76-2.17,1.52-3.12,2.42-.96,.88-1.88,1.82-2.49,2.91-.6,1.05-.92,2.37-.36,3.24,.43,.81,1.87,.5,3.06,.09,1.23-.42,2.45-.97,3.66-1.52,1.21-.56,2.42-1.13,3.59-1.76,2.31-1.3,4.68-2.62,6.51-4.6Z"/>
            </g>
          </g>
        </g>
        <g>
          <path class="cls-17" d="M134.23,201.69l-18-14.38s21.57-18.28,33.18-22.11c11.61-3.82,7.22,5.1,3.21,11.43-4.01,6.33-18.39,25.06-18.39,25.06Z"/>
          <path class="cls-15" d="M152.62,176.64c-4.01,6.33-18.39,25.06-18.39,25.06l-13.33-10.65,30.88-26.5c8.58-1.84,4.55,6.23,.84,12.09Z"/>
          <path class="cls-17" d="M136.64,197.14c-2.33-2.23-4.96-4.19-7.47-6.19-2.58-2.06-5.3-3.93-7.92-5.94-.07-.06-.18,.07-.11,.13,2.49,2.08,4.88,4.25,7.45,6.23,2.59,2,5.2,4.12,8,5.84,.04,.02,.09-.03,.05-.06Z"/>
        </g>
      </g>
      <g>
        <g>
          <g>
            <path class="cls-2" d="M105.15,386.82s-20.5,36.26-20.52,36.29c-3.29,7.31-6.05,13.78-7.17,17.26,0,.02-.02,.03-.02,.06-.42,1.31-.61,2.19-.48,2.5,0,.03,0,.05,.02,.07,1.51,2.45,59.18,30.48,61.52,30.78,2.34,.31,3.38-6.35,2.01-9.22-1.39-2.88-18.66-23.48-18.66-23.48l20.13-36.41-36.85-17.85Z"/>
            <path class="cls-3" d="M137.6,473.56c-2.34-.3-59.09-28.12-60.6-30.57-.01-.02-.02-.05-.03-.07-.13-.31,.06-1.19,.47-2.5,0-.03,0-.04,.02-.06,1.12-3.48,3.87-9.95,7.16-17.27,0,0,3.46-6.34,4.83-8.54l36.68,18.96-4.27,7.55s16.35,20.39,17.73,23.27c1.38,2.88,.34,9.53-2.01,9.22Z"/>
            <g>
              <path class="cls-12" d="M138.65,472.78c-2.36-.36-59.82-29.96-61.29-32.48-.58-.95,3.25-9.57,8.17-19.86,.05-.11,.1-.21,.16-.32l37.28,18.68-.34,.62s16.93,21.17,18.25,24.11c1.31,2.92,.11,9.61-2.24,9.24Z"/>
              <g>
                <path class="cls-5" d="M139.15,470.22c-9.56-5.23-48.63-25.41-58.48-29.85-.08-.04-.11,.02-.03,.06,9.37,5.39,48.6,25.25,58.43,29.95,.21,.1,.28-.05,.08-.16Z"/>
                <path class="cls-17" d="M125.7,441.14c-3.45-2.67-8.41-4.49-12.72-3.28-.17,.05-.1,.28,.05,.31,4.37,.75,8.28,1.8,12.41,3.44,.29,.12,.51-.28,.26-.47Z"/>
                <path class="cls-17" d="M127.6,444.22c-3.45-2.68-8.41-4.49-12.72-3.28-.17,.05-.1,.28,.05,.31,4.37,.75,8.27,1.8,12.41,3.44,.29,.12,.51-.28,.26-.47Z"/>
                <path class="cls-17" d="M129.49,447.3c-3.44-2.68-8.41-4.49-12.72-3.28-.17,.05-.1,.28,.05,.31,4.37,.75,8.27,1.8,12.41,3.44,.29,.12,.51-.28,.26-.47Z"/>
              </g>
              <path class="cls-5" d="M91.87,431.45c-3.09-4.23-9.67,.57-6.57,4.81,3.09,4.23,9.67-.57,6.57-4.81Z"/>
              <path class="cls-1" d="M125.17,442.6l4.13,25.8c5.2,2.59,8.79,4.29,9.35,4.37,2.35,.37,3.56-6.32,2.25-9.25-1.01-2.22-10.96-14.91-15.73-20.93Z"/>
              <path class="cls-9" d="M140.59,471.17c.82,.93-1.18,4.27-2.06,4.16-.89-.11-63.39-32.66-64.34-33.45-.94-.79,1.42-4.41,2.76-3.97,1.34,.44,63.64,33.25,63.64,33.25Z"/>
              <path class="cls-25" d="M140.59,471.17c.82,.93-1.18,4.27-2.06,4.16-.89-.11-63.39-32.66-64.34-33.45-.94-.79,1.42-4.41,2.76-3.97,1.34,.44,63.64,33.25,63.64,33.25Z"/>
            </g>
          </g>
          <g>
            <path class="cls-15" d="M89.38,411.17l41.33,22.07s52.17-74.34,53.21-93.88c1.44-26.98-21.59-112.62-21.59-112.62l-36.74-.25s14.93,88.07,13.72,103.1c-.63,7.86-49.93,81.57-49.93,81.57Z"/>
            <g>
              <path class="cls-17" d="M134.31,424.7c-2.13-1.53-21.72-12.89-36.63-20.13-.1-.05-.17,.09-.08,.15,4.52,2.99,33.76,19.01,36.6,20.14,.09,.04,.21-.09,.11-.16Z"/>
              <path class="cls-17" d="M144.41,310.78c-1.71-12.89-3.58-25.76-5.73-38.58-2.15-12.88-4.42-25.75-7.11-38.53-.33-1.56-.67-3.12-1.01-4.68-.05-.24-.42-.17-.38,.07,2.26,12.68,4.59,25.35,6.68,38.06,2.08,12.71,4.03,25.44,5.77,38.2,.43,3.16,.85,6.32,1.26,9.48,.42,3.27,.9,6.54,.94,9.84,.04,3.17-.46,6.25-1.57,9.22-1.09,2.92-2.65,5.62-4.23,8.29-6.65,11.24-36.41,60.38-37.19,61.81-.05,.09,.08,.19,.14,.1,7.14-11.08,29.3-46.49,36.04-57.91,3.04-5.15,6.53-10.37,7.52-16.39,1.03-6.25-.3-12.79-1.12-19Z"/>
            </g>
          </g>
        </g>
        <g>
          <g>
            <path class="cls-2" d="M133.82,411.17s-.41,41.92-.41,41.94c.22,8.02,.56,15.04,1.07,18.66,0,.02,0,.04,0,.06,.19,1.37,.41,2.23,.66,2.46,.02,.02,.03,.04,.05,.05,2.43,1.55,66.55,1.65,68.79,.9,2.25-.74,.28-7.18-2.21-9.17-2.5-1.99-27.03-13.01-27.03-13.01l.02-41.88h-40.95Z"/>
            <path class="cls-3" d="M133.49,444.51s-.08,8.58-.09,8.61c.22,8.02,.56,15.04,1.07,18.66,0,.02,0,.04,0,.06,.27,1.35,.51,2.23,.66,2.46,.02,.02,.03,.04,.05,.05,2.43,1.55,66.55,1.65,68.79,.9,2.25-.74,.28-7.18-2.21-9.17-2.5-1.99-27.03-13.01-27.03-13.01v-8.74s-41.26,.19-41.26,.19Z"/>
            <g>
              <path class="cls-12" d="M204.02,475.16c-2.27,.72-66.9-.42-69.33-2.02-.93-.59-1.32-10.02-1.45-21.42,0-.12,0-.24,0-.36l41.7,.27-.03,.71s24.54,11.5,27.03,13.55c2.47,2.04,4.35,8.57,2.08,9.28Z"/>
              <g>
                <path class="cls-5" d="M203.33,472.65c-10.89-.46-54.85-1.28-65.65-.91-.09,0-.09,.06,0,.07,10.78,.69,54.75,1.16,65.65,1.02,.23,0,.23-.17,0-.18Z"/>
                <path class="cls-17" d="M178.41,452.52c-4.27-.88-9.53-.31-12.86,2.69-.13,.12,.04,.3,.18,.26,4.25-1.26,8.22-2.05,12.65-2.4,.31-.02,.33-.48,.03-.54Z"/>
                <path class="cls-17" d="M181.47,454.44c-4.27-.88-9.53-.31-12.86,2.69-.13,.12,.04,.3,.18,.26,4.25-1.26,8.22-2.05,12.65-2.4,.31-.02,.33-.48,.03-.54Z"/>
                <path class="cls-17" d="M184.53,456.36c-4.27-.88-9.53-.31-12.86,2.69-.13,.12,.04,.3,.18,.26,4.25-1.26,8.22-2.05,12.65-2.4,.31-.03,.33-.48,.03-.54Z"/>
              </g>
              <path class="cls-9" d="M205.04,472.87c1.15,.47,.83,4.35,0,4.64-.84,.3-71.3-1.25-72.49-1.54-1.19-.29-.68-4.58,.72-4.77,1.39-.2,71.79,1.68,71.79,1.68Z"/>
              <path class="cls-25" d="M205.04,472.87c1.15,.47,.83,4.35,0,4.64-.84,.3-71.3-1.25-72.49-1.54-1.19-.29-.68-4.58,.72-4.77,1.39-.2,71.79,1.68,71.79,1.68Z"/>
              <path class="cls-5" d="M143.78,458.79c-4.64-2.43-8.42,4.79-3.77,7.22,4.64,2.43,8.42-4.79,3.77-7.22Z"/>
            </g>
          </g>
          <g>
            <path class="cls-15" d="M161.86,226.67s0,0-.01,.04c-.24,.76-13.45,36.94-14.69,37.52-1.41,.65,29.17,52.01,30.98,75.87,1.16,15.26-1.11,101.62-1.11,101.62h-44.7s2.15-77.64,3.17-102.24c.4-9.54-30.69-57.04-31.07-86.61-.12-9.32,6.58-26.36,6.58-26.36l50.87,.17Z"/>
            <g>
              <path class="cls-17" d="M135.75,338.8c0-.4-.31-.52-.34-.12-1.01,13.31-1.25,26.56-1.88,39.89-.63,13.3-.27,16.5-.87,29.8-.34,7.53-.02,15.07-.19,22.6,0,.12,.17,.13,.18,.01,1.39-13.27,3.09-84.65,3.1-92.19Z"/>
              <path class="cls-17" d="M178.13,340.61c-.1-3.28-.31-6.57-.9-9.8-.58-3.16-1.58-6.22-2.76-9.2-2.47-6.23-5.39-12.3-8.18-18.39-2.83-6.17-5.71-12.31-8.69-18.4-1.68-3.43-3.36-6.85-5.06-10.26-1.72-3.45-3.57-6.85-5.37-10.26-.07-.13-.28-.04-.21,.1,2.86,6.15,5.69,12.32,8.56,18.47,2.86,6.15,5.68,12.33,8.49,18.5,2.77,6.07,5.54,12.15,8.15,18.29,1.25,2.94,2.42,5.93,3.19,9.04,.79,3.19,1.12,6.46,1.31,9.74,.43,7.64,.64,15.29,1.39,22.91,0,.1,.17,.09,.17,0,.23-6.89,.12-13.83-.09-20.73Z"/>
              <path class="cls-17" d="M173.78,432.71c-2.6-.32-22.41-.84-38.98,0-.11,0-.1,.16,0,.17,5.4,.44,35.92,.39,38.95,.02,.1-.01,.14-.18,.02-.19Z"/>
              <g>
                <path class="cls-17" d="M153.33,262.21c-4.78,1.12-9.47,2.92-13.98,4.85-.18,.08-.09,.35,.1,.29,4.69-1.47,9.46-2.85,14.07-4.57,.36-.14,.18-.65-.19-.56Z"/>
                <path class="cls-17" d="M157.84,231.57c0-.16-.27-.22-.28-.05-.51,5.34-1.33,10-2.29,14.94-.45,2.29-3.62,14.9-7.54,13.55-.66-.23-.93-.92-.93-1.95,0-1.23,.61-2.68,.94-3.87,.72-2.63,1.35-5.28,1.86-7.96,.95-5.01,1.49-10.05,1.39-15.15,0-.17-.24-.18-.26-.01-.71,6.99-1.61,13.95-3.36,20.77-.84,3.28-3.03,8.11,.4,8.98,3.49,.88,6.64-7.27,7.31-9.52,1.86-6.28,2.62-13.19,2.78-19.72Z"/>
                <path class="cls-17" d="M147.8,260.36c-.45,.82-.83,1.69-1.17,2.56-.26,.68-.6,1.41-.6,2.14,0,.14,.19,.18,.27,.09,.53-.55,.81-1.34,1.15-2.03,.39-.79,.8-1.57,1.16-2.37,.24-.53-.53-.9-.81-.39Z"/>
              </g>
              <path class="cls-17" d="M140.32,351.94c.23-6.35,.93-13.02-1.15-19.15-1.03-3.04-2.6-5.86-4.08-8.7-1.55-2.99-3.07-5.99-4.56-9.01-5.97-12.06-11.6-24.32-16.63-36.81-2.42-6.01-4.59-12.19-5.45-18.64-.91-6.75-.26-13.66,1.25-20.28,.38-1.65,.78-3.3,1.23-4.94,.03-.12-.15-.19-.18-.07-2.01,6.27-3.4,12.79-3.49,19.39-.09,6.36,1.31,12.54,3.36,18.53,2.14,6.24,4.83,12.31,7.47,18.34,2.72,6.23,5.55,12.41,8.49,18.53,2.93,6.1,6.04,12.09,9.13,18.1,1.49,2.91,2.85,5.89,3.43,9.13,.59,3.3,.49,6.67,.37,10-.53,14.06-1.74,60.85-1.92,74.87-.02,1.78-.04,3.56-.06,5.34,0,.16,.24,.18,.25,.02,.89-13.99,2.03-60.67,2.54-74.69Z"/>
              <path class="cls-17" d="M130.3,235.77c0-.1-.16-.08-.17,0-.53,3.87-.83,7.88-2.7,11.39-1.71,3.22-4.7,5.3-7.96,6.75-1.88,.84-3.84,1.5-5.8,2.14-.14,.05-.11,.27,.04,.23,3.7-.77,7.46-1.63,10.67-3.71,3.44-2.22,5.21-5.78,5.78-9.76,.33-2.34,.3-4.71,.14-7.06Z"/>
            </g>
          </g>
        </g>
      </g>
      <g>
        <path class="cls-17" d="M102.44,242.2l67.58,13.2c1.05-.82,5.02-67.94-3.3-84.78-2.08-4.21-14.27-8.3-18.48-4.57-25.07,22.21-46.24,75.39-45.8,76.14Z"/>
        <g>
          <g>
            <path class="cls-15" d="M154.65,149.12s-2.08,3.35-3.14,4.28c-1.06,.93-4.41,.38-4.41,.38,0,0,2.19,3,3.15,3.36,.96,.37,3.72-.84,3.72-.84,0,0-3.52,2.54-4.82,1.91-.8-.39,1.7,1.36,1.7,1.36,0,0,1.38,.87,2.9,.48,1.52-.38,.9-10.95,.9-10.95Z"/>
            <g>
              <path class="cls-2" d="M160.83,179.05c-2.9-.44-7.82-6.99-9.26-11.97-.1-.34,1.09-3.45,2.35-7.3,.76-2.34,1.54-4.96,2.09-7.4l14.49,7.14s-2.65,4.78-3.57,9.05c-.07,.36-.11,.7-.12,1.03,0,.05,0,.11-.01,.17-.11,1.97-1.41,9.97-5.95,9.29Z"/>
              <path class="cls-18" d="M154.12,159.11c2.06,5.31,5.8,10.88,12.56,11.64,.05-.41,.09-.75,.1-.99,0-.06,0-.12,.01-.17,0-.33,.04-.67,.12-1.03,.92-4.27,3.56-9.05,3.56-9.05l-14.49-7.13c-.48,2.21-1.18,4.57-1.87,6.72Z"/>
            </g>
            <g>
              <path class="cls-2" d="M156.3,134.43c-3.02,4.97-4.14,21.27-1.19,25.73,4.28,6.45,13.26,9.25,19.24,3.66,5.8-5.42,6.89-26.69,3.41-30.94-5.12-6.26-16.99-5.79-21.45,1.55Z"/>
              <g>
                <g>
                  <path class="cls-18" d="M168.73,148.96s-.09,.05-.09,.09c-.04,1.1-.27,2.35-1.29,2.65-.03,0-.03,.06,0,.06,1.22-.09,1.52-1.75,1.38-2.8Z"/>
                  <path class="cls-18" d="M167.83,147.74c-1.76-.26-2.14,3.28-.51,3.51,1.6,.23,1.99-3.3,.51-3.51Z"/>
                </g>
                <g>
                  <path class="cls-18" d="M175.23,149.44s.08,.06,.07,.11c-.15,1.09-.15,2.36,.8,2.84,.03,.01,.02,.07-.02,.06-1.19-.3-1.18-1.99-.86-3Z"/>
                  <path class="cls-18" d="M176.33,148.4c1.77,.06,1.53,3.6-.12,3.55-1.62-.05-1.37-3.6,.12-3.55Z"/>
                </g>
                <path class="cls-18" d="M166.61,145.98c.49-.07,.94-.21,1.42-.33,.54-.13,.99-.18,1.38-.62,.21-.23,.18-.69-.02-.92-.48-.53-1.19-.53-1.85-.39-.72,.15-1.23,.44-1.7,1.01-.45,.55,.11,1.34,.76,1.25Z"/>
                <path class="cls-18" d="M177.71,147.16c-.48-.13-.9-.34-1.36-.52-.52-.2-.96-.31-1.29-.79-.18-.26-.09-.71,.14-.91,.54-.46,1.24-.37,1.88-.15,.69,.24,1.16,.6,1.55,1.22,.37,.6-.28,1.32-.92,1.14Z"/>
                <path class="cls-18" d="M166.61,159c.23,.28,.46,.67,.85,.74,.38,.07,.84-.05,1.21-.15,.04,0,.07,.03,.04,.06-.33,.39-.96,.59-1.45,.44-.49-.14-.68-.6-.76-1.06,0-.07,.08-.08,.11-.04Z"/>
                <path class="cls-18" d="M168.12,155.85c.51,1.02,1.35,1.63,2.31,1.93,.43,.13,.88,.2,1.33,.21,.09,0,.18,0,.26,0,.08,0,.15,0,.24-.01,.13,0,.21-.1,.25-.22h0s0-.08,0-.12h0s0-.1,0-.1c.11-.84,.17-2.13,.17-2.13,.29,.19,1.78,1.07,1.81,.62,.18-3.67,.38-7.75-.22-11.43-.01-.12-.2-.12-.2,0-.31,3.52,0,7.07-.26,10.61-.48-.24-1.26-.69-1.7-.73-.12,.02-.07,2.5-.15,2.87,0,0,0,.02-.01,.04-1.44,.03-2.46-.52-3.73-1.62-.07-.07-.17,0-.11,.09Z"/>
                <g>
                  <path class="cls-18" d="M171.31,157.51s-.86,.93-1.92,1.18c-.39,.09-.8,.1-1.22-.06-.85-.32-.78-1.13-.55-1.8,.19-.55,.51-1.01,.51-1.01,0,0,1.15,1.33,3.18,1.68Z"/>
                  <path class="cls-6" d="M169.39,158.69c-.39,.09-.8,.1-1.22-.06-.85-.32-.78-1.13-.55-1.8,.93,.2,1.78,.94,1.76,1.85Z"/>
                </g>
              </g>
              <path class="cls-15" d="M153.86,149.03c3.01-.2,6.47-9.41,6.47-9.41l-.57,5.34s2.56-1.3,4.08-3.42c1.09-1.52,1.36-3.91,1.33-5.12,0,0,2.77,3.34,6.19,5.07,1.26,.64,9.85,2.64,9.98,2.03,.39-1.82-.92-8.59-3.03-10.8-2.43-2.54-8.56-6.52-14.91-5.53-5.08,.8-5.4,4.52-6.96,6.84,0,0-4,2.02-4.46,3.38-1,2.95,.77,11.69,1.87,11.61Z"/>
              <g>
                <path class="cls-2" d="M156.39,147.97s-2.36-5.89-4.95-5.16c-2.59,.73-1.64,8.68,.82,10.32,2.46,1.63,4.02-.62,4.02-.62l.11-4.54Z"/>
                <path class="cls-18" d="M151.77,145.08s-.06,.04-.03,.07c1.71,1.21,2.3,3.19,2.57,5.17-.4-.83-1.07-1.39-2.17-.94-.06,.02-.03,.11,.03,.11,.81,.02,1.34,.28,1.72,1.02,.27,.53,.39,1.14,.54,1.71,.05,.19,.38,.17,.36-.04,0-.02,0-.03,0-.05,.61-2.4-.47-6.21-3.01-7.06Z"/>
              </g>
            </g>
          </g>
          <path class="cls-17" d="M167.15,172.13s-.05-.03-.05,0c-.14,3.11-.67,10.31-5.47,9.35-1.93-.39-3.59-1.8-4.94-3.15-1.4-1.39-2.6-2.96-3.67-4.62-1.18-1.84-2.39-3.76-3.26-5.77-.04-.09-.17-.01-.13,.07,.95,2.01,1.7,4.08,2.84,6,1.1,1.85,2.39,3.6,3.95,5.1,1.46,1.4,3.23,2.82,5.29,3.13,1.96,.29,3.52-.77,4.29-2.52,1.01-2.31,1.28-5.11,1.16-7.6Z"/>
        </g>
        <g>
          <path class="cls-2" d="M156.26,181.28c3.23,8.13,14.59,34.49,18.12,38.4,.93,1.03,13.75,2.75,18.8,3.45,4.1,.56-.06,31.25-3.87,30.28-6-1.53-31.45-6.94-35.6-11.69-5.27-6.04-8.34-40.42-9.31-57.77-.83-14.89,5.6-18.4,11.86-2.66Z"/>
          <g>
            <path class="cls-17" d="M146.05,212.09l22.89-2.59s-8.52-26.96-16.31-36.38c-7.79-9.42-8.82,.47-8.8,7.97,.02,7.5,2.22,31,2.22,31Z"/>
            <g>
              <path class="cls-15" d="M146.44,206.95c3.16-.65,6.43-.91,9.63-1.26,3.28-.37,6.58-.51,9.87-.81,.09,0,.12,.15,.02,.16-3.21,.43-6.4,1-9.63,1.31-3.26,.32-6.6,.72-9.88,.68-.05,0-.06-.07-.01-.08Z"/>
              <path class="cls-17" d="M143.39,192.78c.29,1.37,.6,2.74,.92,4.11-.17-2.88-.31-5.76-.34-8.63,0-.07,.12-.08,.13,0,.49,3.98,.85,7.99,1.18,11.99,.32,3.84,.74,7.74,.79,11.6,.29,.01,.58,.02,.87,.02,.13,0,.14,.21,.01,.23-.35,.05-.7,.12-1.05,.18-.12,.02-.24-.06-.26-.18-.65-3.94-.86-8.03-1.13-12.01-.04-.65-.07-1.31-.12-1.96-.49-1.75-.92-3.51-1.2-5.31-.02-.14,.18-.18,.21-.04Z"/>
              <path class="cls-17" d="M168.11,209.6l.83-.16-.06,.09c-.73-1.66-1.39-3.35-2.06-5.04-.65-1.69-1.28-3.4-1.88-5.1-.6-1.71-1.19-3.43-1.73-5.16-.55-1.73-1.08-3.46-1.54-5.23,.75,1.66,1.43,3.34,2.1,5.03,.68,1.68,1.29,3.39,1.91,5.09,.61,1.71,1.2,3.42,1.76,5.15,.54,1.73,1.09,3.46,1.58,5.21l.02,.09h-.08s-.85,.03-.85,.03Z"/>
              <path class="cls-15" d="M163.76,190.84c.29,.85,.42,1.71,.52,2.57,.08,.87,.12,1.74,0,2.62-.29-.85-.43-1.71-.52-2.57-.08-.87-.11-1.74,0-2.62Z"/>
            </g>
          </g>
          <g>
            <path class="cls-2" d="M237.15,237.55c-1.34,3.34-9.28-.66-9.28-.66,0,0,1.47,2,1.14,4.36-.38,2.71-4.79,3.3-4.79,3.3,0,0,1.07,2.33,.47,4.79-.62,2.55-4.99,3.78-4.99,3.78,0,0-.2,2.72-2.25,4.47-3.5,3-10.09,.41-14.49-.39-4.71-.86-12.16-3.42-16.19-4.55l5.81-29.59s21.83-3.28,26.64-1.05c4.06,1.88,19.97,10.44,17.92,15.53Z"/>
            <g>
              <path class="cls-18" d="M227.84,236.76c-3.84-3.03-8.39-5.15-12.81-7.13-.1-.04-.17,.11-.07,.15,4.42,1.93,8.42,5.08,12.75,7.18,.12,.06,.22-.12,.12-.2Z"/>
              <path class="cls-18" d="M224.24,244.16c-.89-.66-1.99-1.03-3.01-1.43-1.1-.43-2.21-.84-3.32-1.24-2.23-.79-4.48-1.53-6.75-2.2-.1-.03-.17,.12-.07,.15,2.22,.79,4.43,1.61,6.62,2.5,1.09,.44,2.18,.89,3.27,1.35,1.01,.43,2.04,.96,3.13,1.15,.16,.03,.26-.2,.13-.3Z"/>
              <path class="cls-18" d="M219.61,253.09c-.75-.61-1.88-.84-2.78-1.14-1.02-.34-2.05-.68-3.06-1.03-2.04-.7-4.08-1.4-6.09-2.17-.1-.04-.17,.11-.07,.15,2.04,.79,4.07,1.61,6.12,2.39,1.01,.38,2.01,.76,3.02,1.13,.86,.31,1.9,.8,2.83,.78,.05,0,.07-.07,.03-.1Z"/>
            </g>
          </g>
        </g>
      </g>
    </g>
  </g>
</svg>