<?xml version="1.0" encoding="UTF-8"?>
<svg xmlns="http://www.w3.org/2000/svg" viewBox="0 0 500 500">
  <defs>
    <style>
      .cls-1 {
        fill: #ebebeb;
      }

      .cls-2 {
        fill: #fff;
      }

      .cls-3 {
        fill: #ffc727;
      }

      .cls-4 {
        fill: #ff98b9;
      }

      .cls-5 {
        fill: #a6a6a6;
      }

      .cls-6 {
        fill: #ca8d3b;
      }

      .cls-7 {
        fill: #c7c7c7;
      }

      .cls-8 {
        fill: #d3766a;
      }

      .cls-9 {
        fill: #dbdbdb;
      }

      .cls-10 {
        fill: #37474f;
      }

      .cls-11 {
        fill: #455a64;
      }

      .cls-12 {
        fill: #263238;
      }

      .cls-13 {
        fill: #3d3d3d;
      }

      .cls-14 {
        fill: #272726;
      }
    </style>
  </defs>
  <g id="Background_Complete" data-name="Background Complete">
    <g>
      <path class="cls-1" d="M43.3,42.45l-5.89,9.49,2.91,1.8c.85,.53,1.32,1.5,1.23,2.5-.05,.55-.07,1.11-.05,1.67,.02,1-.5,1.94-1.39,2.41l-3.01,1.62,5.28,9.84,3.01-1.62c.88-.47,1.95-.39,2.77,.18,.46,.32,.93,.61,1.42,.88,.88,.48,1.43,1.4,1.4,2.41l-.11,3.42,11.16,.35,.1-3.43c.03-1.01,.65-1.88,1.56-2.31,.25-.12,.49-.24,.73-.37,.24-.13,.48-.27,.71-.41,.86-.52,1.92-.55,2.77-.02l2.93,1.81,5.89-9.49-2.91-1.81c-.85-.53-1.32-1.5-1.23-2.5,.05-.55,.07-1.11,.05-1.66-.02-1,.5-1.93,1.39-2.41l3.01-1.62-5.28-9.84-3.01,1.62c-.88,.47-1.95,.39-2.77-.18-.46-.32-.93-.61-1.42-.87-.88-.48-1.43-1.4-1.4-2.41l.11-3.42-11.16-.35-.11,3.43c-.03,1-.65,1.87-1.55,2.3-.25,.12-.49,.24-.74,.37-.24,.13-.48,.27-.71,.41-.86,.52-1.93,.55-2.79,.02l-2.91-1.8Zm9.45,7.05c4.45-2.39,9.99-.72,12.38,3.74,2.39,4.45,.72,10-3.73,12.39-4.45,2.39-10,.71-12.39-3.74-2.39-4.45-.71-9.99,3.74-12.38Z"/>
      <path class="cls-1" d="M98.4,65.03l-6.78,3.91,1.2,2.07c.35,.61,.32,1.36-.07,1.95-.21,.33-.41,.66-.59,1.01-.32,.63-.95,1.03-1.65,1.03h-2.39v7.82h2.39c.7,0,1.33,.4,1.65,1.03,.18,.35,.37,.69,.59,1.01,.38,.59,.42,1.34,.07,1.95l-1.2,2.07,6.78,3.91,1.2-2.08c.35-.61,1.02-.95,1.73-.91,.19,0,.38,.01,.58,.01s.38,0,.58-.01c.7-.04,1.37,.3,1.72,.91l1.21,2.09,6.78-3.91-1.2-2.08c-.35-.61-.32-1.36,.07-1.95,.21-.32,.41-.66,.58-1.01,.32-.63,.95-1.03,1.65-1.03h2.4v-7.82h-2.4c-.7,0-1.33-.4-1.65-1.03-.18-.35-.37-.68-.58-1.01-.39-.59-.42-1.34-.07-1.95l1.2-2.08-6.78-3.91-1.2,2.08c-.35,.61-1.02,.94-1.72,.91-.19,0-.39-.01-.58-.01s-.38,0-.58,.01c-.7,.04-1.37-.3-1.73-.91l-1.2-2.08Zm3.5,7.48c3.54,0,6.4,2.87,6.4,6.4s-2.87,6.41-6.4,6.41-6.41-2.87-6.41-6.41,2.87-6.4,6.41-6.4Z"/>
      <path class="cls-1" d="M435.13,303.14l3.91,6.78,2.07-1.2c.61-.35,1.36-.32,1.95,.07,.33,.21,.66,.41,1.01,.59,.63,.32,1.03,.95,1.03,1.65v2.39h7.83v-2.39c0-.7,.4-1.33,1.03-1.65,.35-.18,.69-.37,1.01-.59,.59-.38,1.34-.42,1.95-.07l2.07,1.2,3.91-6.78-2.08-1.2c-.61-.35-.95-1.02-.91-1.73,0-.19,.01-.38,.01-.58s0-.38-.01-.58c-.04-.7,.3-1.37,.91-1.72l2.09-1.21-3.91-6.78-2.08,1.2c-.61,.35-1.36,.32-1.95-.07-.32-.21-.66-.41-1.01-.58-.63-.32-1.03-.95-1.03-1.65v-2.4h-7.83v2.4c0,.7-.4,1.33-1.03,1.65-.35,.18-.68,.37-1.01,.58-.59,.39-1.34,.42-1.95,.07l-2.08-1.2-3.91,6.78,2.08,1.2c.61,.35,.94,1.02,.91,1.72,0,.19-.01,.39-.01,.58s0,.38,.01,.58c.04,.7-.3,1.37-.91,1.73l-2.08,1.2Zm7.48-3.5c0-3.54,2.87-6.4,6.4-6.4s6.41,2.87,6.41,6.4-2.87,6.41-6.41,6.41-6.4-2.87-6.4-6.41Z"/>
    </g>
    <g>
      <polygon class="cls-1" points="43.43 395.83 171.54 395.83 175.66 314.54 39.31 314.54 43.43 395.83"/>
      <g>
        <path class="cls-9" d="M162.15,351.75H49.33l-1.55-28.22h116.19l-1.81,28.22Zm-111.88-1h110.94l1.68-26.22H48.83l1.44,26.22Z"/>
        <path class="cls-9" d="M160.62,384.22H52.57l-1.27-25.47h110.91l-1.59,25.47Zm-107.1-1h106.16l1.47-23.47H52.36l1.17,23.47Z"/>
        <path class="cls-9" d="M118.71,340.7h-23.92l-.88-6.81h25.67l-.88,6.81Zm-23.04-1h22.16l.62-4.81h-23.4l.62,4.81Z"/>
        <path class="cls-9" d="M118.71,374.88h-23.92l-.88-6.81h25.67l-.88,6.81Zm-23.04-1h22.16l.62-4.81h-23.4l.62,4.81Z"/>
      </g>
      <g>
        <polygon class="cls-1" points="61.2 395.83 59.96 404.68 57.45 422.48 52.56 422.48 52.56 395.83 61.2 395.83"/>
        <polygon class="cls-9" points="61.2 395.83 59.96 404.68 52.56 404.68 52.56 395.83 61.2 395.83"/>
      </g>
      <g>
        <polygon class="cls-1" points="153.77 395.83 155.02 404.68 157.52 422.48 162.41 422.48 162.41 395.83 153.77 395.83"/>
        <polygon class="cls-9" points="153.77 395.83 155.02 404.68 162.41 404.68 162.41 395.83 153.77 395.83"/>
      </g>
    </g>
  </g>
  <g id="Shadow">
    <ellipse class="cls-1" cx="220.3" cy="451.92" rx="183.2" ry="18.45"/>
  </g>
  <g id="Floor">
    <polygon class="cls-12" points="35.07 422.48 88.8 422.24 142.53 422.15 250 421.98 357.47 422.15 411.2 422.23 464.93 422.48 411.2 422.72 357.47 422.81 250 422.98 142.53 422.81 88.8 422.72 35.07 422.48"/>
  </g>
  <g id="Screens">
    <g>
      <g>
        <g>
          <g>
            <path class="cls-2" d="M436.81,89.23v231.25c0,6.54-4.9,11.82-10.93,11.82h-107.93c-6.05,0-10.95-5.29-10.95-11.82V89.23c0-13.32,4.9-13.97,10.95-13.97h21.62c1.26,0,2.28,1.43,2.28,3.2v.76c0,4.15,2.27,4.16,5.05,4.16h50c2.81,0,5.07-.01,5.07-4.16v-.76c0-1.77,1.01-3.2,2.29-3.2h21.62c6.04,0,10.93,1.77,10.93,13.97Z"/>
            <path class="cls-9" d="M437.31,89.23h0c-.03-1.82-.11-3.94-.53-6.06-.47-2.35-1.34-4.24-2.59-5.61-1.28-1.44-3.28-2.38-5.62-2.66-1.06-.15-2.13-.16-3.06-.17l-20.93-.03c-.68-.06-1.33,.14-1.79,.52-.44,.35-.8,.84-1.04,1.41-.35,.79-.35,1.59-.36,2.36,0,.26,0,.53-.02,.79-.07,1.12-.35,1.89-.85,2.34-.61,.54-1.54,.64-2.45,.68-1.28,.02-2.57,.01-3.85,.01-.71,0-1.42,0-2.12,0l-35.94-.05h-9.49c-.82-.02-1.6-.02-2.34-.2-.78-.16-1.39-.73-1.6-1.5-.23-.7-.23-1.47-.23-2.28v-.51c-.06-1.31-.58-2.45-1.46-3.14-.27-.2-.58-.35-.88-.43-.28-.08-.54-.08-.76-.08l-20.68-.03c-1.65,0-3.35-.01-5.06,.3-1.19,.25-2.18,.63-3.03,1.17-.92,.64-1.69,1.46-2.23,2.37-.21,.33-.37,.68-.53,1.01l-.22,.46-.17,.5c-.11,.32-.22,.64-.32,.98l-.36,1.51-.23,1.51c-.26,2.19-.29,4.39-.28,6.06l-.29,221.62v6c.01,.35,.01,.7,0,1.05,0,.65,0,1.3,.03,1.97,.02,1.14,.27,2.25,.51,3.19,1.25,4.35,4.73,7.77,8.87,8.69,1.07,.23,2.09,.29,2.85,.29,.12,0,.24,0,.34,0l104.83-.14c.35,0,.7,0,1.05,0,.66,0,1.31,0,1.97-.03,.99-.03,2.03-.24,3.16-.64,.88-.31,1.78-.78,2.86-1.52,1-.78,1.73-1.49,2.29-2.21,1.29-1.59,2.19-3.58,2.62-5.77,.16-.98,.24-2.06,.22-3.12l-.3-230.61Zm-1.5,233.44c-.38,1.91-1.17,3.65-2.31,5.05-.49,.63-1.1,1.22-1.98,1.91-.95,.64-1.7,1.04-2.46,1.3-1.46,.58-3.06,.57-4.74,.56l-105.71-.14c-1.01,.02-1.87-.06-2.75-.25-3.45-.78-6.36-3.66-7.41-7.34-.22-.86-.42-1.78-.43-2.74-.03-.61-.03-1.24-.02-1.88,0-.36,0-.72,0-1.06v-5.99s-.28-221.62-.28-221.62c-.01-1.63,0-3.77,.26-5.89,.18-1.48,.54-3.64,1.61-5.42,.45-.76,1.06-1.41,1.81-1.94,.69-.44,1.52-.76,2.53-.97,1.56-.29,3.22-.29,4.82-.29l20.53-.03c.42-.03,.72,.05,.98,.24,.56,.43,.92,1.24,.95,2.14v.5c.01,.87,.02,1.76,.3,2.64,.17,.59,.51,1.15,.95,1.55,.42,.39,.96,.66,1.61,.82,.88,.21,1.75,.21,2.59,.21h.54s44.92-.06,44.92-.06c.7,0,1.4,0,2.1,0,1.3,0,2.6,0,3.91-.02,1.13-.04,2.29-.19,3.17-.97,.74-.66,1.13-1.68,1.22-3.11,.02-.29,.02-.57,.02-.86,0-.69,0-1.34,.27-1.93,.26-.7,.92-1.34,1.75-1.24l20.96-.03c.87,0,1.92,.01,2.93,.15,2.09,.24,3.86,1.06,4.99,2.31,1.13,1.23,1.92,2.96,2.36,5.12,.41,2.03,.5,4.1,.52,5.86l-.3,227.6c-.01,.59,0,1.18,0,1.77,.01,1.43,.02,2.77-.2,4.07Z"/>
          </g>
          <g>
            <g id="u5Zjqx">
              <g>
                <path class="cls-5" d="M335.84,80.25c-.07,.07-.14,.14-.21,.21-.04,.04-.08,.08-.12,.12-.56-.54-1.23-.84-2.01-.84-.78,0-1.45,.29-2.02,.84-.04-.04-.07-.08-.11-.12-.07-.07-.14-.14-.21-.21,0,0,0,0,0,0h0s.01-.01,.02-.02c.09-.08,.17-.16,.26-.23,.19-.15,.39-.28,.61-.39,.26-.13,.53-.22,.81-.27,.13-.02,.27-.04,.4-.05,.05,0,.34,0,.35,0,.09,0,.18,.01,.28,.02,.25,.03,.5,.09,.74,.18,.17,.06,.34,.14,.5,.23,.17,.1,.33,.21,.48,.34,.08,.06,.15,.13,.22,.2h0Z"/>
                <path class="cls-5" d="M332.14,81.23c-.11-.11-.22-.22-.33-.33,.38-.37,.82-.6,1.34-.67,.78-.11,1.45,.13,2.02,.67-.11,.11-.22,.22-.33,.33-.37-.36-.82-.56-1.35-.56-.53,0-.97,.2-1.35,.56Z"/>
                <path class="cls-5" d="M334.52,81.56c-.11,.11-.22,.22-.33,.33-.19-.18-.42-.29-.69-.29-.27,0-.5,.1-.69,.29-.11-.11-.22-.22-.33-.33,.52-.55,1.46-.59,2.04,0Z"/>
              </g>
              <path class="cls-5" d="M333.79,82.19c0,.16-.13,.3-.3,.3s-.3-.13-.3-.3,.13-.3,.3-.3,.3,.13,.3,.3Z"/>
            </g>
            <g>
              <path class="cls-5" d="M315.47,80.88c0-.48,.39-.86,.86-.86s.86,.39,.86,.86-.39,.86-.86,.86-.86-.39-.86-.86Z"/>
              <path class="cls-5" d="M318.18,80.88c0-.48,.39-.86,.86-.86s.86,.39,.86,.86-.39,.86-.86,.86-.86-.39-.86-.86Z"/>
              <path class="cls-5" d="M320.89,80.88c0-.48,.39-.86,.86-.86s.86,.39,.86,.86-.39,.86-.86,.86-.86-.39-.86-.86Z"/>
              <path class="cls-5" d="M323.6,80.88c0-.48,.39-.86,.86-.86s.86,.39,.86,.86-.39,.86-.86,.86-.86-.39-.86-.86Z"/>
              <path class="cls-5" d="M326.31,80.88c0-.48,.39-.86,.86-.86s.86,.39,.86,.86-.39,.86-.86,.86-.86-.39-.86-.86Z"/>
            </g>
            <g>
              <path class="cls-5" d="M427.07,82.76h-7v-3.24h7v3.24Zm-6.65-.36h6.29v-2.53h-6.29v2.53Z"/>
              <rect class="cls-5" x="420.65" y="80.07" width="4.51" height="2.14"/>
              <rect class="cls-5" x="427.08" y="80.27" width=".62" height="1.74"/>
            </g>
          </g>
          <g>
            <path class="cls-9" d="M363.27,317.93c0,1.04-.85,1.89-1.89,1.89s-1.89-.85-1.89-1.89,.85-1.89,1.89-1.89,1.89,.85,1.89,1.89Z"/>
            <path class="cls-6" d="M385.3,317.93c0,1.58-1.28,2.86-2.86,2.86s-2.86-1.28-2.86-2.86,1.28-2.86,2.86-2.86,2.86,1.28,2.86,2.86Z"/>
            <path class="cls-9" d="M373.8,317.93c0,1.04-.85,1.89-1.89,1.89s-1.89-.85-1.89-1.89,.85-1.89,1.89-1.89,1.89,.85,1.89,1.89Z"/>
          </g>
        </g>
        <g>
          <g>
            <g>
              <path class="cls-1" d="M324.14,110.74c-.4,.25-.83,.43-1.31,.55-1.23,.3-2.47,.07-3.47-.55-.98-.6-1.73-1.58-2.03-2.79-.59-2.44,.9-4.9,3.34-5.5,2.44-.6,4.9,.9,5.5,3.34,.48,1.96-.4,3.94-2.03,4.95Z"/>
              <g>
                <path class="cls-2" d="M323.13,106.35c0,.76-.62,1.38-1.38,1.38s-1.38-.62-1.38-1.38,.62-1.38,1.38-1.38,1.38,.62,1.38,1.38Z"/>
                <path class="cls-2" d="M324.14,110.17v.57c-.4,.25-.83,.43-1.31,.55-1.23,.3-2.47,.07-3.47-.55v-.57c0-1.32,1.07-2.39,2.39-2.39s2.39,1.07,2.39,2.39Z"/>
              </g>
            </g>
            <g>
              <rect class="cls-1" x="417.05" y="102.32" width="9.16" height="1.8"/>
              <rect class="cls-1" x="417.05" y="105.97" width="9.16" height="1.8"/>
              <rect class="cls-1" x="417.05" y="109.61" width="9.16" height="1.8"/>
            </g>
          </g>
          <rect class="cls-1" x="317.2" y="124.19" width="109.01" height="142.8"/>
          <g>
            <path class="cls-6" d="M371.71,295.14c-5.59,0-10.14-4.55-10.14-10.14s4.55-10.14,10.14-10.14,10.14,4.55,10.14,10.14-4.55,10.14-10.14,10.14Zm0-18.56c-4.64,0-8.42,3.78-8.42,8.42s3.78,8.42,8.42,8.42,8.42-3.78,8.42-8.42-3.78-8.42-8.42-8.42Z"/>
            <path class="cls-6" d="M377.98,285c0,3.46-2.81,6.27-6.27,6.27s-6.27-2.81-6.27-6.27,2.81-6.27,6.27-6.27,6.27,2.81,6.27,6.27Z"/>
          </g>
          <path class="cls-6" d="M326.32,285.82c-.22-.13-.34-.36-.32-.61,0-.07,0-.14,0-.2s0-.14,0-.21c-.01-.25,.11-.49,.32-.61l.74-.43-1.39-2.4-.74,.43c-.22,.12-.48,.11-.69-.02-.12-.08-.23-.14-.36-.21-.22-.11-.36-.34-.36-.59v-.85h-2.78v.85c0,.25-.14,.47-.36,.59-.12,.06-.24,.13-.36,.21-.21,.14-.48,.15-.69,.02l-.74-.43-1.39,2.4,.74,.43c.22,.12,.33,.36,.32,.61,0,.07,0,.14,0,.2s0,.14,0,.2c.01,.25-.11,.49-.32,.61l-.74,.43,1.39,2.4,.74-.43c.22-.13,.48-.11,.69,.02,.12,.08,.24,.14,.36,.21,.22,.11,.37,.34,.37,.59v.85h2.78v-.85c0-.25,.14-.47,.37-.59,.12-.06,.24-.13,.36-.21,.21-.14,.48-.15,.69-.02l.74,.43,1.39-2.4-.74-.43Zm-4.19,1.46c-1.26,0-2.28-1.02-2.28-2.28s1.02-2.27,2.28-2.27,2.27,1.02,2.27,2.27-1.02,2.28-2.27,2.28Z"/>
          <g>
            <path class="cls-6" d="M426.21,289.89h-11.28v-9.78h11.28v9.78Zm-10.55-.73h9.81v-8.31h-9.81v8.31Z"/>
            <polygon class="cls-6" points="415.3 289.53 418.36 286.59 421.13 289.53 415.3 289.53"/>
            <polygon class="cls-6" points="419.23 289.53 422.86 284.93 425.84 289.53 419.23 289.53"/>
            <path class="cls-6" d="M419.3,284.66c0,.6-.49,1.08-1.08,1.08s-1.08-.49-1.08-1.08,.49-1.08,1.08-1.08,1.08,.49,1.08,1.08Z"/>
          </g>
          <g>
            <polygon class="cls-2" points="353.54 124.19 353.66 195.59 353.54 266.99 353.41 195.59 353.54 124.19"/>
            <polygon class="cls-2" points="389.87 124.19 390 195.59 389.87 266.99 389.75 195.59 389.87 124.19"/>
          </g>
          <g>
            <polygon class="cls-2" points="426.21 171.79 371.71 171.91 317.2 171.79 371.71 171.66 426.21 171.79"/>
            <polygon class="cls-2" points="426.21 219.39 371.71 219.51 317.2 219.39 371.71 219.26 426.21 219.39"/>
          </g>
        </g>
      </g>
      <g>
        <g>
          <g>
            <path class="cls-2" d="M193.4,89.23v231.25c0,6.54-4.9,11.82-10.93,11.82H74.54c-6.05,0-10.95-5.29-10.95-11.82V89.23c0-13.32,4.9-13.97,10.95-13.97h21.62c1.26,0,2.28,1.43,2.28,3.2v.76c0,4.15,2.27,4.16,5.05,4.16h50c2.81,0,5.07-.01,5.07-4.16v-.76c0-1.77,1.01-3.2,2.29-3.2h21.62c6.04,0,10.93,1.77,10.93,13.97Z"/>
            <path class="cls-9" d="M193.9,89.23h0c-.02-1.81-.11-3.94-.53-6.06-.47-2.35-1.34-4.24-2.59-5.61-1.28-1.44-3.28-2.38-5.62-2.66-1.06-.15-2.13-.16-3.06-.17l-20.93-.03c-.67-.05-1.33,.14-1.79,.52-.44,.35-.8,.84-1.04,1.41-.35,.78-.35,1.59-.36,2.36,0,.27,0,.53-.02,.79-.07,1.12-.35,1.89-.85,2.33-.61,.54-1.54,.64-2.45,.68-1.28,.02-2.57,.02-3.85,.01-.71,0-1.42,0-2.12,0l-35.94-.05h-9.49c-.82-.02-1.6-.02-2.34-.2-.78-.16-1.39-.73-1.6-1.5-.23-.7-.23-1.47-.23-2.28v-.51c-.06-1.31-.58-2.45-1.46-3.14-.27-.2-.57-.35-.88-.43-.28-.08-.55-.08-.76-.08l-20.68-.03c-1.65,0-3.35-.01-5.06,.3-1.19,.25-2.18,.63-3.03,1.17-.92,.64-1.69,1.46-2.23,2.37-.21,.33-.37,.67-.52,1-.06,.13-.13,.27-.22,.47l-.17,.49c-.11,.32-.23,.64-.33,.99l-.36,1.51-.23,1.51c-.26,2.19-.29,4.39-.28,6.06l-.29,221.62v6c.01,.35,.01,.7,0,1.05,0,.65,0,1.3,.03,1.97,.02,1.14,.27,2.25,.51,3.19,1.25,4.35,4.73,7.77,8.87,8.69,1.07,.23,2.09,.29,2.85,.29,.12,0,.24,0,.34,0l104.83-.14c.35,0,.7,0,1.05,0,.65,0,1.31,0,1.97-.03,.99-.03,2.03-.24,3.16-.64,.88-.31,1.78-.78,2.86-1.52,1-.78,1.73-1.49,2.29-2.21,1.29-1.59,2.19-3.58,2.62-5.77,.16-.98,.24-2.06,.22-3.12l-.3-230.61Zm-1.5,233.44c-.38,1.91-1.17,3.66-2.31,5.05-.48,.63-1.1,1.22-1.98,1.91-.94,.64-1.7,1.04-2.46,1.3-1.46,.58-3.05,.57-4.74,.56l-105.72-.14c-.99,.02-1.87-.06-2.75-.25-3.45-.78-6.36-3.67-7.41-7.34-.22-.86-.42-1.79-.43-2.75-.03-.6-.03-1.24-.02-1.88,0-.36,0-.72,0-1.07v-5.99s-.28-221.62-.28-221.62c0-1.63,.01-3.78,.26-5.89,.18-1.48,.54-3.64,1.61-5.42,.45-.76,1.06-1.41,1.81-1.94,.69-.44,1.52-.76,2.53-.97,1.56-.29,3.21-.28,4.82-.29l20.53-.03c.43-.03,.72,.05,.98,.24,.56,.43,.91,1.24,.95,2.14v.5c.01,.87,.02,1.76,.3,2.64,.17,.59,.51,1.15,.94,1.55,.41,.39,.95,.66,1.61,.82,.88,.21,1.77,.22,2.59,.21h.54s44.93-.06,44.93-.06c.7,0,1.4,0,2.1,0,1.3,0,2.6,0,3.91-.02,1.13-.04,2.29-.19,3.17-.97,.74-.66,1.13-1.68,1.22-3.11,.02-.29,.02-.57,.02-.86,0-.69,0-1.34,.27-1.93,.25-.68,.89-1.35,1.75-1.24l20.96-.03c.94,0,1.92,.01,2.93,.15,2.1,.24,3.87,1.06,4.99,2.31,1.13,1.23,1.92,2.96,2.36,5.12,.41,2.03,.5,4.1,.52,5.86l-.3,227.6c-.01,.59,0,1.18,0,1.77,.01,1.42,.02,2.77-.21,4.06Z"/>
          </g>
          <g>
            <g id="u5Zjqx-2" data-name="u5Zjqx">
              <g>
                <path class="cls-5" d="M92.43,80.25c-.07,.07-.14,.14-.21,.21-.04,.04-.08,.08-.12,.12-.56-.54-1.23-.84-2.01-.84-.78,0-1.45,.29-2.02,.84-.04-.04-.07-.08-.11-.12-.07-.07-.14-.14-.21-.21,0,0,0,0,0,0h0s.01-.01,.02-.02c.09-.08,.17-.16,.26-.23,.19-.15,.39-.28,.61-.39,.26-.13,.53-.22,.81-.27,.13-.02,.27-.04,.4-.05,.05,0,.34,0,.35,0,.09,0,.18,.01,.28,.02,.25,.03,.5,.09,.74,.18,.17,.06,.34,.14,.5,.23,.17,.1,.33,.21,.48,.34,.08,.06,.15,.13,.22,.2h0Z"/>
                <path class="cls-5" d="M88.73,81.23c-.11-.11-.22-.22-.33-.33,.38-.37,.82-.6,1.34-.67,.78-.11,1.45,.13,2.02,.67-.11,.11-.22,.22-.33,.33-.37-.36-.82-.56-1.35-.56-.53,0-.97,.2-1.35,.56Z"/>
                <path class="cls-5" d="M91.11,81.56c-.11,.11-.22,.22-.33,.33-.19-.18-.42-.29-.69-.29-.27,0-.5,.1-.69,.29-.11-.11-.22-.22-.33-.33,.52-.55,1.46-.59,2.04,0Z"/>
              </g>
              <path class="cls-5" d="M90.38,82.19c0,.16-.13,.3-.3,.3s-.3-.13-.3-.3,.13-.3,.3-.3,.3,.13,.3,.3Z"/>
            </g>
            <g>
              <path class="cls-5" d="M72.06,80.88c0-.48,.39-.86,.86-.86s.86,.39,.86,.86-.39,.86-.86,.86-.86-.39-.86-.86Z"/>
              <path class="cls-5" d="M74.77,80.88c0-.48,.39-.86,.86-.86s.86,.39,.86,.86-.39,.86-.86,.86-.86-.39-.86-.86Z"/>
              <path class="cls-5" d="M77.48,80.88c0-.48,.39-.86,.86-.86s.86,.39,.86,.86-.39,.86-.86,.86-.86-.39-.86-.86Z"/>
              <path class="cls-5" d="M80.19,80.88c0-.48,.39-.86,.86-.86s.86,.39,.86,.86-.39,.86-.86,.86-.86-.39-.86-.86Z"/>
              <path class="cls-5" d="M82.89,80.88c0-.48,.39-.86,.86-.86s.86,.39,.86,.86-.39,.86-.86,.86-.86-.39-.86-.86Z"/>
            </g>
            <g>
              <path class="cls-5" d="M183.66,82.76h-7v-3.24h7v3.24Zm-6.65-.36h6.29v-2.53h-6.29v2.53Z"/>
              <rect class="cls-5" x="177.24" y="80.07" width="4.51" height="2.14"/>
              <rect class="cls-5" x="183.66" y="80.27" width=".62" height="1.74"/>
            </g>
          </g>
          <g>
            <path class="cls-3" d="M120.83,317.93c0,1.58-1.28,2.86-2.86,2.86s-2.86-1.28-2.86-2.86,1.28-2.86,2.86-2.86,2.86,1.28,2.86,2.86Z"/>
            <path class="cls-9" d="M140.92,317.93c0,1.04-.85,1.89-1.89,1.89s-1.89-.85-1.89-1.89,.85-1.89,1.89-1.89,1.89,.85,1.89,1.89Z"/>
            <path class="cls-9" d="M130.39,317.93c0,1.04-.85,1.89-1.89,1.89s-1.89-.85-1.89-1.89,.85-1.89,1.89-1.89,1.89,.85,1.89,1.89Z"/>
          </g>
        </g>
        <g>
          <g>
            <g>
              <rect class="cls-6" x="79.2" y="246.66" width="97.76" height="15.92"/>
              <g>
                <path class="cls-2" d="M118.78,257v-4.35c0-.22,.18-.41,.41-.41s.41,.18,.41,.41v3.93h2c.21,0,.41,.18,.41,.41s-.19,.41-.41,.41h-2.41c-.23,0-.41-.18-.41-.41Z"/>
                <path class="cls-2" d="M123.11,256.87c-.32-.32-.51-.78-.51-1.3s.19-.94,.51-1.29c.33-.35,.76-.56,1.27-.56s.93,.21,1.23,.56c.33,.35,.52,.79,.52,1.29s-.18,.97-.52,1.3c-.3,.35-.74,.56-1.23,.56s-.94-.21-1.27-.56Zm.29-1.3c0,.32,.1,.57,.27,.78,.18,.18,.43,.27,.71,.27,.26,0,.49-.1,.68-.27,.18-.21,.29-.46,.29-.78s-.1-.57-.29-.77c-.18-.16-.42-.28-.68-.28-.28,0-.52,.12-.71,.28-.17,.2-.27,.46-.27,.77Z"/>
                <path class="cls-2" d="M130.67,255.58v1.37c0,.96-.79,1.77-1.77,1.77-.27,0-.55-.07-.77-.18-.19-.09-.28-.33-.18-.53,.1-.2,.32-.27,.53-.18,.12,.07,.27,.1,.42,.1,.48,0,.87-.34,.97-.79-.27,.18-.6,.29-.97,.29-.49,0-.94-.21-1.25-.56-.32-.32-.52-.78-.52-1.3s.2-.96,.52-1.31c.32-.33,.77-.54,1.25-.54,.38,0,.72,.12,.99,.31,.04-.18,.2-.31,.39-.31,.22,0,.39,.18,.39,.39v1.47h0Zm-.79,0c0-.29-.12-.57-.28-.75-.19-.21-.42-.32-.7-.32-.26,0-.5,.11-.68,.32-.18,.18-.29,.46-.29,.75,0,.31,.12,.59,.29,.76,.18,.2,.42,.3,.68,.3,.28,0,.51-.1,.7-.3,.16-.17,.28-.45,.28-.76Z"/>
                <path class="cls-2" d="M133.04,252.8c0,.22-.17,.41-.4,.41s-.4-.18-.4-.41v-.15c0-.22,.18-.4,.4-.4s.4,.18,.4,.4v.15Zm0,1.33v2.87c0,.22-.17,.4-.4,.4s-.4-.18-.4-.4v-2.87c0-.24,.18-.41,.4-.41s.4,.17,.4,.41Z"/>
                <path class="cls-2" d="M137.38,255.25v1.76c0,.21-.17,.39-.38,.39s-.39-.18-.39-.39v-1.76c0-.41-.35-.74-.77-.74s-.74,.33-.74,.74v1.76s0,.04-.01,.07c-.04,.18-.2,.32-.39,.32-.22,0-.39-.18-.39-.39v-2.9c0-.21,.17-.39,.39-.39,.15,0,.29,.09,.36,.23,.22-.14,.49-.23,.78-.23,.85,0,1.54,.7,1.54,1.53Z"/>
              </g>
            </g>
            <g>
              <path class="cls-6" d="M177.33,286.89H78.82v-16.67h98.51v16.67Zm-97.76-.75h97.01v-15.17H79.57v15.17Z"/>
              <g>
                <path class="cls-6" d="M100.61,278.68c0-1.46,1.23-2.65,2.7-2.65,.65,0,1.24,.21,1.7,.58,.18,.15,.21,.41,.07,.59-.15,.18-.42,.21-.59,.08-.32-.27-.73-.41-1.19-.41-.51,0-.98,.21-1.33,.53-.33,.34-.54,.78-.54,1.28s.21,.96,.54,1.28c.35,.32,.82,.53,1.33,.53,.46,0,.85-.14,1.19-.41,.17-.13,.44-.1,.59,.08,.13,.18,.1,.45-.07,.59-.46,.36-1.05,.58-1.7,.58-1.47,0-2.7-1.19-2.7-2.65Z"/>
                <path class="cls-6" d="M108.71,278.04c0,.21-.17,.39-.39,.39-.17,0-.32,.04-.44,.14-.14,.09-.25,.21-.34,.35-.18,.24-.27,.52-.3,.62v1.4c0,.21-.18,.39-.41,.39s-.39-.18-.39-.39v-2.9c0-.21,.18-.38,.39-.38s.41,.17,.41,.38v.05c.04-.05,.1-.11,.15-.15,.24-.16,.56-.29,.93-.29,.22,0,.39,.17,.39,.38Z"/>
                <path class="cls-6" d="M109.05,279.49c0-1,.79-1.84,1.8-1.84s1.72,.71,1.78,1.71v.04s0,.05,0,.07c-.02,.18-.18,.29-.38,.29h-2.34c.04,.17,.12,.36,.25,.49,.15,.18,.45,.31,.71,.33,.27,.02,.58-.04,.77-.18,.15-.16,.46-.14,.55-.02,.1,.1,.17,.32,0,.48-.36,.33-.8,.49-1.32,.49-1.01,0-1.79-.84-1.8-1.84Zm.8-.36h2.09c-.07-.29-.45-.73-1.09-.78-.63,.03-.94,.48-.99,.78Z"/>
                <path class="cls-6" d="M116.91,279.5v1.44c0,.21-.18,.39-.39,.39-.19,0-.34-.14-.38-.32-.28,.2-.61,.32-.98,.32-.5,0-.94-.21-1.25-.54-.32-.34-.5-.8-.5-1.3s.18-.97,.5-1.3c.32-.34,.75-.55,1.25-.55,.37,0,.7,.12,.98,.32,.04-.18,.19-.32,.38-.32,.21,0,.39,.18,.39,.4v1.45Zm-.78,0c0-.31-.11-.58-.29-.76-.18-.2-.43-.3-.69-.3s-.52,.1-.69,.3c-.18,.18-.28,.45-.28,.76s.1,.57,.28,.76c.17,.18,.42,.29,.69,.29s.51-.1,.69-.29c.18-.19,.29-.46,.29-.76Z"/>
                <path class="cls-3" d="M120.01,278.06c0,.22-.19,.41-.41,.41h-.18v2.06c.23,0,.41,.18,.41,.41s-.18,.41-.41,.41c-.45,0-.82-.37-.82-.82v-2.06h-.21c-.23,0-.41-.18-.41-.41s.18-.41,.41-.41h.21v-1.07c0-.23,.18-.41,.41-.41s.41,.18,.41,.41v1.07h.18c.22,0,.41,.18,.41,.41Z"/>
                <path class="cls-3" d="M120.75,279.49c0-1,.79-1.84,1.8-1.84s1.72,.71,1.78,1.71v.04s0,.05,0,.07c-.02,.18-.18,.29-.38,.29h-2.34c.04,.17,.12,.36,.25,.49,.15,.18,.45,.31,.71,.33,.27,.02,.58-.04,.77-.18,.15-.16,.46-.14,.55-.02,.1,.1,.17,.32,0,.48-.36,.33-.8,.49-1.32,.49-1.01,0-1.79-.84-1.8-1.84Zm.8-.36h2.09c-.07-.29-.45-.73-1.09-.78-.63,.03-.94,.48-.99,.78Z"/>
                <path class="cls-3" d="M130.41,280.12h-1.79l-.36,.96c-.07,.16-.22,.26-.38,.26-.05,0-.1,0-.14-.02-.21-.08-.32-.32-.24-.53l1.63-4.34c.07-.16,.23-.27,.39-.26,.17,0,.32,.1,.39,.26l1.63,4.34c.07,.21-.03,.45-.24,.53-.04,.01-.09,.02-.14,.02-.16,0-.32-.1-.38-.26l-.36-.96Zm-.3-.81l-.6-1.59-.6,1.59h1.19Z"/>
                <path class="cls-3" d="M132.02,279.5c0-1.02,.85-1.84,1.87-1.85,.44,0,.85,.16,1.17,.41,.17,.13,.2,.38,.08,.55-.15,.18-.38,.21-.55,.07-.19-.14-.43-.24-.7-.24-.6,0-1.09,.49-1.09,1.06s.49,1.05,1.09,1.05c.27,0,.51-.1,.7-.24,.16-.13,.41-.1,.55,.08,.12,.16,.09,.4-.08,.54-.32,.23-.73,.39-1.17,.39-1.02,0-1.87-.83-1.87-1.83Z"/>
                <path class="cls-3" d="M136.12,279.5c0-1.02,.85-1.84,1.87-1.85,.44,0,.85,.16,1.17,.41,.17,.13,.2,.38,.08,.55-.15,.18-.38,.21-.55,.07-.19-.14-.43-.24-.7-.24-.6,0-1.09,.49-1.09,1.06s.49,1.05,1.09,1.05c.27,0,.51-.1,.7-.24,.16-.13,.41-.1,.55,.08,.12,.16,.09,.4-.08,.54-.32,.23-.73,.39-1.17,.39-1.02,0-1.87-.83-1.87-1.83Z"/>
                <path class="cls-3" d="M140.81,280.8c-.32-.32-.51-.78-.51-1.3s.19-.94,.51-1.29c.33-.35,.76-.56,1.27-.56s.93,.21,1.23,.56c.33,.35,.52,.79,.52,1.29s-.18,.97-.52,1.3c-.3,.35-.74,.56-1.23,.56s-.94-.21-1.27-.56Zm.29-1.3c0,.32,.1,.57,.27,.78,.18,.18,.43,.27,.71,.27,.26,0,.49-.1,.68-.27,.18-.21,.29-.46,.29-.78s-.1-.57-.29-.77c-.18-.16-.42-.28-.68-.28-.28,0-.52,.12-.71,.28-.17,.2-.27,.46-.27,.77Z"/>
                <path class="cls-3" d="M146.42,281.34c-.84,0-1.53-.69-1.53-1.53v-1.76c0-.21,.18-.39,.39-.39s.39,.18,.39,.39v1.76c0,.42,.33,.75,.75,.75s.77-.33,.77-.75v-1.76c0-.21,.16-.39,.38-.39,.21,0,.4,.18,.4,.39v1.76c0,.84-.71,1.53-1.56,1.53Z"/>
                <path class="cls-3" d="M152.37,279.18v1.76c0,.21-.17,.39-.38,.39s-.39-.18-.39-.39v-1.76c0-.41-.35-.74-.77-.74s-.74,.33-.74,.74v1.76s0,.04-.01,.07c-.04,.18-.2,.32-.39,.32-.22,0-.39-.18-.39-.39v-2.9c0-.21,.17-.39,.39-.39,.15,0,.29,.09,.36,.23,.22-.14,.49-.23,.78-.23,.85,0,1.54,.7,1.54,1.53Z"/>
                <path class="cls-3" d="M155.47,278.06c0,.22-.19,.41-.41,.41h-.18v2.06c.23,0,.41,.18,.41,.41s-.18,.41-.41,.41c-.45,0-.82-.37-.82-.82v-2.06h-.21c-.23,0-.41-.18-.41-.41s.18-.41,.41-.41h.21v-1.07c0-.23,.18-.41,.41-.41s.41,.18,.41,.41v1.07h.18c.22,0,.41,.18,.41,.41Z"/>
              </g>
            </g>
          </g>
          <g>
            <rect class="cls-6" x="90.49" y="131.26" width="75.16" height="75.16"/>
            <g>
              <path class="cls-2" d="M128.07,193.72c-13.72,0-24.88-11.16-24.88-24.88s11.16-24.88,24.88-24.88,24.88,11.16,24.88,24.88-11.16,24.88-24.88,24.88Zm0-45.56c-11.4,0-20.67,9.27-20.67,20.67s9.27,20.67,20.67,20.67,20.67-9.27,20.67-20.67-9.27-20.67-20.67-20.67Z"/>
              <circle class="cls-2" cx="128.07" cy="168.83" r="16.52" transform="translate(-65.81 254.37) rotate(-76.62)"/>
              <path class="cls-6" d="M139.47,162.91c0,3.05-2.47,5.52-5.52,5.52s-5.52-2.47-5.52-5.52,2.47-5.52,5.52-5.52,5.52,2.47,5.52,5.52Z"/>
              <rect class="cls-2" x="138.37" y="163.7" width="4.21" height="35.07" transform="translate(-87.01 152.41) rotate(-45)"/>
            </g>
            <g>
              <path class="cls-6" d="M116.99,223.08c-.71,.55-1.45,.82-2.14,.82h-.04c-.91,0-1.68-.36-2.38-.78-.26-.14-.53-.19-.79-.19-.43,0-.87,.18-.92,.22-.26,.14-.56,.12-.75-.04-.01-.01-.04-.01-.08-.03t-.03-.01c-.07-.09-.14-.17-.18-.3-.19-.39-.01-.82,.35-1l.04-.03c-.52-.25-1.01-.59-1.44-.99-.79-.88-1.3-2.08-1.3-3.39s.51-2.48,1.3-3.35c.83-.9,1.97-1.44,3.25-1.44s2.43,.55,3.22,1.44c.83,.87,1.33,2.05,1.33,3.35s-.49,2.51-1.33,3.39c-.4,.41-.9,.77-1.44,1.03l-.3,.12c.55,.3,1.04,.47,1.46,.47,.38,0,.74-.09,1.27-.49,.33-.26,.79-.19,1.05,.13,.26,.33,.21,.79-.14,1.08Zm-7.24-3.38c.53,.58,1.27,.93,2.12,.93s1.57-.35,2.14-.93c.56-.6,.9-1.42,.9-2.34s-.34-1.74-.9-2.31c-.57-.6-1.31-.95-2.14-.95s-1.59,.35-2.12,.95c-.56,.57-.9,1.39-.9,2.31s.34,1.74,.9,2.34Z"/>
              <path class="cls-6" d="M122.55,221.8c-2.09,0-3.76-1.69-3.76-3.76v-4.63c0-.4,.31-.71,.71-.71s.73,.31,.73,.71v4.63c0,1.27,1.04,2.31,2.31,2.31s2.31-1.04,2.31-2.31v-4.63c0-.4,.32-.71,.73-.71s.71,.31,.71,.71v4.63c0,2.07-1.68,3.76-3.76,3.76Z"/>
              <path class="cls-3" d="M128.79,213.41c0-.4,.31-.71,.71-.71s.73,.31,.73,.71v7.67c0,.4-.34,.71-.73,.71s-.71-.31-.71-.71v-7.67Z"/>
              <path class="cls-3" d="M134.09,221.08c0,.39-.33,.71-.7,.71-.4,0-.71-.33-.71-.71v-7.55h0c-.01-.23,.09-.47,.29-.61,.32-.22,.77-.16,.99,.16l4.2,5.81v-5.35c0-.38,.31-.7,.7-.7s.71,.32,.71,.7v7.55c0,.39-.32,.71-.71,.71-.21,0-.4-.1-.53-.26-.03-.03-.05-.05-.06-.08l-4.16-5.77v5.39Z"/>
              <path class="cls-3" d="M148.11,214.14h-2.07v6.94c0,.4-.31,.71-.71,.71s-.71-.31-.71-.71v-6.94h-2.05c-.4,0-.71-.34-.71-.73s.31-.71,.71-.71h5.55c.39,0,.71,.31,.71,.71s-.33,.73-.71,.73Z"/>
            </g>
          </g>
        </g>
      </g>
      <g>
        <g>
          <g>
            <path class="cls-2" d="M324.1,74.13V335.86c0,7.4-5.54,13.38-12.37,13.38h-122.15c-6.85,0-12.39-5.98-12.39-13.38V74.13c0-15.07,5.54-15.81,12.39-15.81h24.47c1.42,0,2.58,1.62,2.58,3.62v.86c0,4.69,2.57,4.71,5.72,4.71h56.59c3.18,0,5.73-.02,5.73-4.71v-.86c0-2,1.15-3.62,2.59-3.62h24.46c6.83,0,12.37,2,12.37,15.81Z"/>
            <path class="cls-9" d="M324.6,74.13h0c-.03-2.05-.12-4.45-.6-6.84-.53-2.65-1.51-4.78-2.92-6.32-1.44-1.61-3.69-2.67-6.32-2.98-1.19-.17-2.41-.18-3.46-.19l-23.78-.03c-.28,0-.61,0-.94,.09-.33,.1-.64,.25-.94,.48-.49,.38-.89,.93-1.15,1.57-.39,.87-.39,1.77-.4,2.64,0,.3,0,.6-.02,.9-.08,1.29-.4,2.17-.99,2.7-.71,.63-1.78,.75-2.82,.78-1.45,.02-2.91,.02-4.37,.01-.8,0-1.61,0-2.4,0l-40.68-.05h-10.74c-.93-.02-1.82-.02-2.65-.22-.51-.12-.91-.33-1.21-.6-.32-.3-.56-.7-.69-1.16-.26-.81-.26-1.68-.27-2.61v-.58c-.06-1.45-.65-2.72-1.62-3.49-.3-.22-.63-.38-.97-.47-.3-.09-.6-.08-.84-.09l-22.21-.03c-.39,0-.79,0-1.19,0-1.87,0-3.79-.01-5.71,.34-1.34,.28-2.44,.7-3.4,1.31-1.03,.72-1.9,1.64-2.5,2.65-.23,.37-.41,.75-.58,1.12-.07,.15-.14,.31-.25,.52l-.19,.56c-.13,.36-.25,.72-.37,1.11l-.4,1.71-.26,1.7c-.3,2.47-.33,4.96-.32,6.85l-.29,250.83v6.79c.01,.4,.01,.8,0,1.19,0,.72,0,1.47,.03,2.22,.03,1.28,.3,2.52,.58,3.59,.76,2.47,2.02,4.62,3.64,6.19,1.72,1.75,3.89,2.98,6.3,3.55,.98,.22,2.08,.33,3.19,.33,.13,0,.26,0,.39,0l118.64-.14c.4,0,.79,0,1.19,0,.72,0,1.47,0,2.23-.04,1.11-.04,2.27-.27,3.55-.72,.99-.34,2-.88,3.21-1.71,1.12-.88,1.94-1.67,2.57-2.49,1.45-1.79,2.46-4.02,2.94-6.48,.19-1.12,.27-2.3,.25-3.51l-.3-261ZM178.18,334.34c0-.41,0-.81,0-1.2v-6.78s-.28-250.83-.28-250.83c-.01-1.97,.02-4.3,.29-6.67l.24-1.62,.37-1.61c.1-.33,.21-.66,.33-.99l.17-.51c.08-.16,.15-.32,.23-.48,.16-.34,.31-.67,.5-.97,.52-.87,1.22-1.62,2.08-2.22,.79-.51,1.75-.87,2.9-1.11,1.77-.33,3.65-.32,5.46-.33l23.24-.03c.5-.03,.86,.06,1.17,.29,.65,.51,1.07,1.44,1.11,2.49v.56c.01,.97,.02,1.98,.34,2.96,.19,.66,.56,1.27,1.05,1.72,.46,.43,1.06,.73,1.78,.91,.99,.23,1.97,.23,2.92,.23h.6s50.85-.06,50.85-.06c.8,0,1.6,0,2.41,0,1.46,0,2.92,0,4.39-.02,1.26-.05,2.56-.21,3.54-1.08,1.09-.98,1.29-2.45,1.35-3.47,.02-.32,.02-.65,.02-.97,0-.79,0-1.53,.31-2.21,.3-.81,1.08-1.57,2.05-1.45l23.73-.03c1,0,2.18,.01,3.32,.17,2.39,.28,4.41,1.21,5.69,2.64,1.28,1.4,2.19,3.37,2.69,5.83,.47,2.31,.56,4.65,.59,6.64l-.3,261.01c.02,1.13-.06,2.19-.23,3.22-.43,2.18-1.34,4.17-2.63,5.76-.55,.72-1.26,1.4-2.26,2.18-1.08,.73-1.94,1.19-2.81,1.49-1.67,.67-3.48,.66-5.41,.64-.25,0-.5,0-.75,0-.08,0-.17,0-.25,0l-118.65-.14c-1.14,.02-2.14-.07-3.14-.28-3.95-.89-7.28-4.19-8.48-8.39-.25-.98-.48-2.04-.49-3.13-.04-.69-.03-1.42-.03-2.14Z"/>
          </g>
          <g>
            <g id="u5Zjqx-3" data-name="u5Zjqx">
              <g>
                <path class="cls-5" d="M209.82,63.97c-.08,.08-.16,.16-.24,.23-.04,.04-.09,.09-.13,.13-.64-.62-1.39-.95-2.28-.95-.89,0-1.64,.33-2.28,.95-.04-.04-.08-.09-.13-.13-.08-.08-.16-.16-.23-.23,0,0,0,0,0,0h0s.01-.01,.02-.02c.1-.09,.2-.18,.3-.26,.21-.18,.44-.32,.69-.44,.29-.14,.6-.25,.92-.31,.15-.03,.3-.04,.46-.06,.05,0,.39,0,.4,0,.1,0,.21,.01,.31,.02,.29,.03,.57,.1,.84,.2,.2,.07,.39,.16,.57,.27,.19,.11,.37,.24,.54,.38,.09,.07,.17,.15,.25,.22h0Z"/>
                <path class="cls-5" d="M205.64,65.08c-.12-.12-.25-.25-.37-.37,.43-.42,.93-.68,1.52-.76,.88-.12,1.64,.15,2.29,.76-.13,.13-.25,.25-.38,.37-.42-.41-.93-.63-1.53-.63-.6,0-1.1,.22-1.53,.63Z"/>
                <path class="cls-5" d="M208.32,65.46c-.12,.12-.25,.25-.37,.37-.22-.21-.48-.32-.78-.32-.31,0-.57,.12-.78,.33-.12-.12-.25-.25-.37-.37,.59-.62,1.65-.67,2.31,0Z"/>
              </g>
              <path class="cls-5" d="M207.5,66.16c0,.19-.15,.34-.34,.34s-.34-.15-.34-.34,.15-.34,.34-.34,.34,.15,.34,.34Z"/>
            </g>
            <g>
              <path class="cls-5" d="M186.76,64.68c0-.54,.44-.97,.97-.97s.97,.44,.97,.97-.44,.97-.97,.97-.97-.44-.97-.97Z"/>
              <path class="cls-5" d="M189.83,64.68c0-.54,.44-.97,.97-.97s.97,.44,.97,.97-.44,.97-.97,.97-.97-.44-.97-.97Z"/>
              <path class="cls-5" d="M192.9,64.68c0-.54,.44-.97,.97-.97s.97,.44,.97,.97-.44,.97-.97,.97-.97-.44-.97-.97Z"/>
              <circle class="cls-5" cx="196.94" cy="64.68" r=".97"/>
              <path class="cls-5" d="M199.03,64.68c0-.54,.44-.97,.97-.97s.97,.44,.97,.97-.44,.97-.97,.97-.97-.44-.97-.97Z"/>
            </g>
            <g>
              <path class="cls-5" d="M313.08,66.81h-7.93v-3.67h7.93v3.67Zm-7.52-.4h7.12v-2.86h-7.12v2.86Z"/>
              <rect class="cls-5" x="305.81" y="63.76" width="5.11" height="2.42"/>
              <rect class="cls-5" x="313.08" y="63.99" width=".71" height="1.96"/>
            </g>
          </g>
          <g>
            <path class="cls-9" d="M240.86,332.98c0,1.18-.96,2.14-2.14,2.14s-2.14-.96-2.14-2.14,.96-2.14,2.14-2.14,2.14,.96,2.14,2.14Z"/>
            <path class="cls-6" d="M253.88,332.98c0,1.79-1.45,3.23-3.23,3.23s-3.23-1.45-3.23-3.23,1.45-3.23,3.23-3.23,3.23,1.45,3.23,3.23Z"/>
            <path class="cls-9" d="M264.7,332.98c0,1.18-.96,2.14-2.14,2.14s-2.14-.96-2.14-2.14,.96-2.14,2.14-2.14,2.14,.96,2.14,2.14Z"/>
          </g>
        </g>
        <g>
          <g>
            <path class="cls-9" d="M238.96,187.51v-4.24c0-.22,.17-.4,.4-.4s.4,.18,.4,.4v3.84h1.95c.21,0,.4,.18,.4,.4s-.19,.4-.4,.4h-2.35c-.22,0-.4-.18-.4-.4Z"/>
            <path class="cls-9" d="M246.69,183.5c.45,.47,.73,1.11,.73,1.82s-.28,1.35-.73,1.82c-.42,.47-1.06,.77-1.72,.77s-1.32-.3-1.76-.77c-.45-.47-.71-1.11-.71-1.82s.27-1.34,.71-1.82c.44-.47,1.07-.77,1.76-.77s1.29,.3,1.72,.77Zm-.09,1.82c0-.49-.19-.94-.49-1.26-.3-.32-.7-.51-1.14-.51-.46,0-.86,.19-1.16,.51-.3,.32-.49,.77-.49,1.26s.19,.94,.49,1.25c.3,.32,.7,.52,1.16,.52,.43,0,.83-.19,1.14-.52,.29-.31,.49-.76,.49-1.25Z"/>
            <path class="cls-9" d="M248.61,185.33c0-1.44,1.19-2.6,2.65-2.6,.61,0,1.19,.21,1.64,.56,.19,.14,.22,.4,.08,.58-.14,.17-.4,.21-.58,.06-.31-.24-.7-.39-1.14-.39-.52,0-.97,.19-1.29,.52-.34,.32-.54,.76-.54,1.25s.2,.91,.54,1.24c.32,.33,.78,.52,1.29,.52,.36,0,.7-.11,.98-.27v-.98h-1.03c-.22,0-.41-.19-.41-.41s.19-.4,.41-.4h1.43c.23,0,.42,.17,.42,.4v1.59s-.01,.08-.02,.12c0,.01,0,.02-.01,.04h0c-.02,.07-.06,.13-.14,.18-.45,.35-1.02,.56-1.63,.56-1.46,0-2.65-1.14-2.65-2.58Z"/>
            <path class="cls-9" d="M254.74,183.27c0-.22,.17-.4,.4-.4s.4,.17,.4,.4v4.24c0,.22-.19,.4-.4,.4s-.4-.17-.4-.4v-4.24Z"/>
            <path class="cls-9" d="M257.67,187.51c0,.22-.18,.4-.39,.4-.22,0-.4-.18-.4-.4v-4.18h0c0-.13,.05-.26,.16-.34,.18-.12,.42-.09,.55,.09l2.32,3.21v-2.96c0-.21,.17-.39,.39-.39s.4,.18,.4,.39v4.18c0,.22-.18,.4-.4,.4-.12,0-.22-.06-.29-.14-.01-.01-.03-.03-.04-.04l-2.3-3.19v2.98Z"/>
          </g>
          <g>
            <path class="cls-12" d="M195.01,211.61v-3.49c0-.18,.14-.33,.33-.33h1.94c.17,0,.33,.14,.33,.33s-.15,.33-.33,.33h-1.6v1.08h1.38c.18,0,.33,.15,.33,.33,0,.18-.15,.33-.33,.33h-1.38v1.09h1.6c.17,0,.33,.15,.33,.33s-.15,.33-.33,.33h-1.92s-.01,0-.01,0h0c-.18,0-.33-.14-.33-.32Z"/>
            <path class="cls-12" d="M200.92,210.21v1.42c0,.17-.14,.31-.31,.31s-.32-.14-.32-.31v-1.42c0-.33-.28-.59-.61-.59s-.6,.27-.6,.61v1.4s0,.03,0,.04v.02s0,.02-.02,.04v.03c-.05,.11-.17,.19-.3,.19-.02,0-.04,0-.06,0-.14-.04-.25-.15-.25-.31v-1.4h0v-.92c0-.18,.14-.32,.31-.32,.12,0,.24,.07,.28,.18,.19-.11,.41-.18,.63-.18,.37,0,.7,.15,.93,.41,.22-.25,.56-.41,.93-.41,.68,0,1.23,.56,1.23,1.24v1.4c0,.17-.14,.31-.31,.31s-.32-.14-.32-.31v-1.4c0-.34-.27-.61-.6-.61s-.6,.27-.62,.59Z"/>
            <path class="cls-12" d="M206.58,210.47v1.16c0,.17-.14,.31-.31,.31-.15,0-.27-.11-.31-.25-.22,.16-.49,.25-.79,.25-.4,0-.75-.17-1.01-.43-.25-.27-.4-.64-.4-1.04s.15-.78,.4-1.04c.25-.27,.6-.44,1.01-.44,.3,0,.56,.1,.79,.26,.04-.15,.15-.26,.31-.26,.17,0,.31,.14,.31,.32v1.17Zm-.63,0c0-.25-.09-.46-.23-.61-.14-.16-.34-.24-.55-.24s-.41,.08-.55,.24c-.14,.15-.22,.36-.22,.61s.08,.46,.22,.61c.14,.15,.34,.23,.55,.23s.41-.08,.55-.23c.14-.15,.23-.37,.23-.61Z"/>
            <path class="cls-12" d="M208.38,208.24c0,.18-.14,.33-.32,.33s-.32-.15-.32-.33v-.12c0-.18,.14-.32,.32-.32s.32,.14,.32,.32v.12Zm0,1.07v2.31c0,.18-.14,.32-.32,.32s-.32-.14-.32-.32v-2.31c0-.19,.14-.33,.32-.33s.32,.14,.32,.33Z"/>
            <path class="cls-12" d="M209.64,207.8c.18,0,.33,.15,.33,.33v3.49c0,.18-.15,.33-.33,.33s-.33-.15-.33-.33v-3.49c0-.18,.15-.33,.33-.33Z"/>
          </g>
          <rect class="cls-1" x="194.39" y="216.15" width="112.04" height="9.92"/>
          <g>
            <path class="cls-12" d="M196.39,234.28h-.73v1.28c0,.18-.15,.33-.33,.33s-.33-.15-.33-.33v-3.49c0-.18,.15-.33,.33-.33h1.06c.7,0,1.27,.57,1.27,1.27s-.57,1.26-1.27,1.26Zm-.73-.66h.73c.34,0,.61-.27,.62-.6,0-.34-.27-.62-.62-.62h-.73v1.22Z"/>
            <path class="cls-12" d="M200.89,234.42v1.16c0,.17-.14,.31-.31,.31-.15,0-.27-.11-.31-.25-.22,.16-.49,.25-.79,.25-.4,0-.75-.17-1.01-.43-.25-.27-.4-.64-.4-1.04s.15-.78,.4-1.04c.25-.27,.6-.44,1.01-.44,.3,0,.56,.1,.79,.26,.04-.15,.15-.26,.31-.26,.17,0,.31,.14,.31,.32v1.17Zm-.63,0c0-.25-.09-.46-.23-.61-.14-.16-.34-.24-.55-.24s-.41,.08-.55,.24c-.14,.15-.22,.36-.22,.61s.08,.46,.22,.61c.14,.15,.34,.23,.55,.23s.41-.08,.55-.23c.14-.15,.23-.37,.23-.61Z"/>
            <path class="cls-12" d="M201.91,235.04c.11-.14,.31-.16,.44-.05,.15,.13,.42,.27,.65,.26,.16,0,.31-.05,.4-.11,.08-.07,.11-.13,.11-.18,0-.03,0-.04-.02-.06,0-.02-.03-.04-.08-.07-.08-.06-.26-.12-.47-.17h0c-.18-.04-.36-.08-.51-.15-.16-.08-.3-.18-.41-.34-.07-.11-.1-.24-.1-.37,0-.27,.15-.5,.35-.65,.21-.14,.46-.22,.73-.22,.41,0,.7,.2,.89,.33,.14,.09,.18,.29,.09,.44-.09,.14-.29,.18-.44,.08-.19-.12-.35-.22-.54-.22-.15,0-.28,.05-.36,.11-.08,.05-.09,.11-.09,.14,0,.02,0,.03,.01,.05,0,.01,.02,.04,.07,.06,.08,.05,.23,.11,.43,.14h0s0,0,0,0c.2,.04,.38,.09,.55,.17,.16,.07,.32,.18,.42,.35,.07,.12,.11,.25,.11,.39,0,.29-.16,.53-.37,.69-.21,.15-.48,.24-.77,.24-.46,0-.82-.22-1.05-.41-.13-.11-.15-.31-.04-.44Z"/>
            <path class="cls-12" d="M204.76,235.04c.11-.14,.31-.16,.44-.05,.15,.13,.42,.27,.65,.26,.16,0,.31-.05,.4-.11,.08-.07,.11-.13,.11-.18,0-.03,0-.04-.02-.06,0-.02-.03-.04-.08-.07-.08-.06-.26-.12-.47-.17h0c-.18-.04-.36-.08-.51-.15-.16-.08-.3-.18-.41-.34-.07-.11-.1-.24-.1-.37,0-.27,.15-.5,.35-.65,.21-.14,.46-.22,.73-.22,.41,0,.7,.2,.89,.33,.14,.09,.18,.29,.09,.44-.09,.14-.29,.18-.44,.08-.19-.12-.35-.22-.54-.22-.15,0-.28,.05-.36,.11-.08,.05-.09,.11-.09,.14,0,.02,0,.03,.01,.05,0,.01,.02,.04,.07,.06,.08,.05,.23,.11,.43,.14h0s0,0,0,0c.2,.04,.38,.09,.55,.17,.16,.07,.32,.18,.42,.35,.07,.12,.11,.25,.11,.39,0,.29-.16,.53-.37,.69-.21,.15-.48,.24-.77,.24-.46,0-.82-.22-1.05-.41-.13-.11-.15-.31-.04-.44Z"/>
            <path class="cls-12" d="M211.53,233.4l-.98,2.3s-.01,.03-.02,.05c0,0,0,0,0,0,0,.01-.02,.02-.03,.04,0,0-.01,0-.01,0-.01,.01-.02,.02-.04,.03,0,0,0,0,0,.01-.02,.01-.03,.02-.05,.03,0,0,0,0,0,0-.01,0-.03,0-.05,.01h-.01s-.04,0-.06,0c-.02,0-.04,0-.05,0h-.01s-.02-.01-.04-.01h-.01s-.04-.02-.05-.04h0s-.02-.02-.04-.04c0,0-.01,0-.01,0-.01-.01-.02-.02-.03-.04,0,0,0,0,0,0-.01-.02-.02-.04-.02-.05l-.43-1.02-.42,1.02s-.02,.03-.03,.05h0s-.02,.03-.04,.04c0,0,0,0,0,0-.01,.01-.02,.02-.04,.04-.02,.02-.04,.03-.05,.04h-.01s0,0,0,0c-.01,0-.03,0-.04,.01h-.01s-.04,0-.06,0c-.02,0-.04,0-.06,0h-.02s-.02-.01-.04-.01t-.01,0s-.04-.02-.05-.04t0,0s-.02-.02-.04-.03h-.01s-.02-.03-.02-.04t0,0s-.02-.04-.03-.05l-.97-2.3c-.07-.16,0-.34,.17-.41,.14-.07,.33,0,.39,.18l.7,1.59,.41-.99c.05-.12,.17-.19,.29-.19,.13,0,.24,.07,.29,.19l.42,.99,.7-1.59c.06-.17,.25-.24,.4-.18,.16,.07,.24,.25,.17,.41Z"/>
            <path class="cls-12" d="M212.94,235.46c-.25-.26-.41-.63-.41-1.04s.15-.75,.41-1.04c.27-.28,.61-.45,1.02-.45s.75,.17,.99,.45c.27,.28,.41,.63,.41,1.04s-.15,.78-.41,1.04c-.24,.28-.6,.45-.99,.45s-.75-.17-1.02-.45Zm.24-1.04c0,.25,.08,.46,.21,.63,.15,.14,.34,.22,.57,.22,.21,0,.4-.08,.54-.22,.15-.17,.23-.37,.23-.63s-.08-.46-.23-.62c-.15-.13-.34-.22-.54-.22-.22,0-.42,.09-.57,.22-.14,.16-.21,.37-.21,.62Z"/>
            <path class="cls-12" d="M218.07,233.24c0,.17-.14,.31-.31,.31-.14,0-.25,.04-.36,.11-.11,.07-.2,.17-.27,.28-.14,.19-.21,.41-.24,.5v1.12c0,.17-.15,.31-.33,.31s-.31-.14-.31-.31v-2.33c0-.17,.14-.31,.31-.31s.33,.14,.33,.31v.04s.08-.09,.12-.12c.2-.13,.45-.24,.75-.23,.18,0,.31,.14,.31,.31Z"/>
            <path class="cls-12" d="M221.38,235.57c0,.17-.14,.32-.32,.32-.16,0-.28-.11-.31-.25-.22,.15-.51,.25-.8,.25-.8,0-1.44-.67-1.44-1.47s.64-1.49,1.44-1.49c.29,0,.57,.09,.79,.25v-1.11c0-.17,.14-.32,.33-.32s.32,.15,.32,.32v2.34h0v1.16Zm-1.44-1.99c-.21,0-.41,.09-.56,.24-.15,.15-.24,.36-.24,.6s.09,.44,.24,.59c.15,.15,.34,.24,.56,.24s.41-.09,.56-.24c.15-.15,.24-.36,.24-.59,0-.24-.09-.45-.24-.6-.15-.15-.34-.24-.56-.24Z"/>
          </g>
          <rect class="cls-1" x="194.39" y="240.1" width="112.04" height="9.92"/>
          <polygon class="cls-1" points="194.39 261.91 208.4 261.79 222.4 261.75 250.41 261.67 278.42 261.75 292.43 261.79 306.43 261.91 292.43 262.04 278.42 262.08 250.41 262.16 222.4 262.08 208.4 262.04 194.39 261.91"/>
          <polygon class="cls-1" points="194.39 202.22 208.4 202.1 222.4 202.05 250.41 201.97 278.42 202.05 292.43 202.1 306.43 202.22 292.43 202.34 278.42 202.39 250.41 202.47 222.4 202.39 208.4 202.34 194.39 202.22"/>
          <g>
            <path class="cls-1" d="M266.9,161.97c-2.73,1.69-5.75,2.99-9.04,3.79-8.51,2.08-17.04,.48-23.94-3.8-6.75-4.17-11.94-10.9-13.97-19.22-4.1-16.84,6.19-33.81,23.03-37.91,16.82-4.12,33.8,6.19,37.91,23.03,3.3,13.55-2.74,27.18-13.99,34.11Z"/>
            <g>
              <circle class="cls-2" cx="250.41" cy="131.7" r="9.54" transform="translate(-11.74 25.27) rotate(-5.64)"/>
              <path class="cls-2" d="M266.9,158.03v3.94c-2.73,1.69-5.75,2.99-9.04,3.79-8.51,2.08-17.04,.48-23.94-3.8v-3.92c0-9.09,7.38-16.49,16.49-16.49s16.49,7.41,16.49,16.49Z"/>
            </g>
          </g>
          <g>
            <path class="cls-1" d="M194.39,302.81c3.82-.09,7.65-.16,11.47-.19l11.47-.06,11.47,.06c3.82,.03,7.65,.1,11.47,.19-3.82,.09-7.65,.16-11.47,.19l-11.47,.06-11.47-.06c-3.82-.03-7.65-.1-11.47-.19Z"/>
            <path class="cls-1" d="M260.55,302.81c3.82-.09,7.65-.16,11.47-.19l11.47-.06,11.47,.06c3.82,.03,7.65,.1,11.47,.19-3.82,.09-7.65,.16-11.47,.19l-11.47,.06-11.47-.06c-3.82-.03-7.65-.1-11.47-.19Z"/>
            <g>
              <path class="cls-9" d="M247.59,303.88c-.26-.27-.42-.64-.42-1.06s.16-.77,.42-1.05c.27-.28,.62-.46,1.04-.46s.76,.17,1.01,.46c.27,.29,.42,.64,.42,1.05s-.15,.8-.42,1.06c-.25,.28-.61,.46-1.01,.46s-.77-.17-1.04-.46Zm.24-1.06c0,.26,.08,.47,.22,.64,.15,.14,.35,.22,.58,.22,.21,0,.4-.08,.55-.22,.15-.17,.23-.38,.23-.64s-.08-.46-.23-.63c-.15-.13-.34-.23-.55-.23-.23,0-.43,.1-.58,.23-.14,.16-.22,.38-.22,.63Z"/>
              <path class="cls-9" d="M252.82,301.62c0,.17-.14,.32-.32,.32-.14,0-.26,.04-.36,.11-.11,.07-.2,.17-.28,.29-.14,.19-.22,.42-.25,.51v1.15c0,.17-.15,.32-.33,.32s-.32-.14-.32-.32v-2.37c0-.17,.14-.31,.32-.31s.33,.14,.33,.31v.04s.08-.09,.13-.12c.2-.13,.46-.24,.76-.23,.18,0,.32,.14,.32,.31Z"/>
            </g>
          </g>
          <g>
            <rect class="cls-14" x="245.57" y="310.64" width="8.87" height="8.87"/>
            <path class="cls-2" d="M248.68,316.03h-1.18v-1.36h1.16c0-.1,.01-.18,.01-.26,0-.36,0-.71,.03-1.07,.07-.78,.55-1.33,1.32-1.44,.48-.07,.98-.01,1.48-.01v1.24c-.18,0-.36,0-.54,0-.16,0-.32,0-.48,.03-.22,.05-.37,.2-.38,.43-.01,.35,0,.69,0,1.07h1.35c-.06,.44-.11,.86-.17,1.27,0,.04-.11,.09-.17,.09-.33,0-.65,0-1,0v3.48h-1.44v-3.48Z"/>
          </g>
          <g>
            <rect class="cls-6" x="221.13" y="273.48" width="57.65" height="18.33"/>
            <g>
              <path class="cls-2" d="M237.23,285.21v-4.97c0-.25,.2-.46,.46-.46s.47,.21,.47,.46v4.49h2.28c.24,0,.46,.21,.46,.47s-.22,.46-.46,.46h-2.75c-.26,0-.46-.21-.46-.46Z"/>
              <path class="cls-2" d="M246.28,280.51c.52,.56,.85,1.3,.85,2.13s-.33,1.58-.85,2.13c-.5,.55-1.24,.9-2.01,.9s-1.55-.35-2.06-.9c-.52-.55-.83-1.3-.83-2.13s.31-1.57,.83-2.13c.51-.56,1.25-.9,2.06-.9s1.52,.35,2.01,.9Zm-.11,2.13c0-.57-.23-1.1-.57-1.47-.35-.38-.82-.6-1.33-.6-.54,0-1.01,.22-1.36,.6-.35,.37-.57,.9-.57,1.47s.22,1.1,.57,1.46c.35,.38,.82,.61,1.36,.61,.51,0,.98-.23,1.33-.61,.34-.36,.57-.89,.57-1.46Z"/>
              <path class="cls-2" d="M248.53,282.65c0-1.69,1.4-3.04,3.11-3.04,.72,0,1.4,.24,1.92,.66,.22,.16,.25,.47,.09,.68-.16,.2-.47,.24-.68,.08-.36-.28-.83-.45-1.33-.45-.61,0-1.14,.23-1.52,.61-.4,.38-.63,.89-.63,1.46s.24,1.07,.63,1.45c.38,.39,.91,.61,1.52,.61,.42,0,.82-.13,1.15-.32v-1.15h-1.2c-.26,0-.48-.22-.48-.48s.22-.47,.48-.47h1.67c.27,0,.49,.2,.49,.47v1.86c0,.06-.02,.09-.02,.14,0,.02,0,.02-.02,.04h0c-.02,.08-.07,.15-.16,.21-.53,.41-1.2,.66-1.91,.66-1.71,0-3.11-1.34-3.11-3.02Z"/>
              <path class="cls-2" d="M255.7,280.25c0-.26,.2-.46,.46-.46s.47,.2,.47,.46v4.97c0,.26-.22,.46-.47,.46s-.46-.2-.46-.46v-4.97Z"/>
              <path class="cls-2" d="M259.14,285.21c0,.25-.21,.46-.45,.46-.26,0-.46-.21-.46-.46v-4.89h0c0-.15,.06-.3,.18-.4,.21-.14,.5-.1,.64,.1l2.72,3.76v-3.47c0-.24,.2-.45,.45-.45s.46,.21,.46,.45v4.89c0,.25-.21,.46-.46,.46-.13,0-.26-.07-.35-.17-.02-.02-.03-.03-.04-.05l-2.69-3.74v3.49Z"/>
            </g>
          </g>
        </g>
      </g>
    </g>
  </g>
  <g id="Icons">
    <g>
      <g>
        <g>
          <path class="cls-6" d="M316.43,411.04l12.85-3.59s-1.58-6.35-1.58-6.6,.92-7.29,.92-8.62-2.62-10.02-3.21-11.11c-.92-1.68-1.84-2.14-3.36-1.94-1.53,.2-1.84,1.38-1.84,1.38,0,0-.83-1.59-2.55-1.4-1.72,.19-2.36,2.13-2.36,2.13,0,0-1.16-1.08-2.46-.75-.75,.2-1.7,1.01-1.94,2.01,0,0-3.52-8.48-4.46-10.85-.94-2.37-4-1.53-3.66,1.41,.34,2.94,5.35,17.66,5.47,18.28,.11,.61,.57,3.02,.57,3.02,0,0-2.68-5.7-4.51-8.03-1.84-2.33-4.51-.84-3.14,2.14,1.38,2.98,3.48,8.83,4.36,10.02,.88,1.19,8.33,6.65,8.56,6.84,.23,.19,2.33,5.66,2.33,5.66Z"/>
          <path class="cls-6" d="M309.57,372.55c.01,1.26-.48,2.51-1.35,3.44-.86,.94-2.11,1.55-3.44,1.6-1.32,.07-2.69-.41-3.69-1.35-1-.93-1.6-2.3-1.6-3.69,0-1.39,.59-2.76,1.6-3.69,1-.94,2.37-1.41,3.69-1.35,1.32,.06,2.58,.67,3.44,1.6,.87,.93,1.36,2.18,1.35,3.44Zm0,0c0-1.26-.54-2.5-1.45-3.34-.91-.84-2.15-1.27-3.34-1.2-2.43,.09-4.34,2.28-4.29,4.54-.05,2.26,1.85,4.45,4.29,4.54,1.19,.06,2.43-.36,3.34-1.2,.91-.84,1.45-2.08,1.45-3.34Z"/>
          <path class="cls-6" d="M311.22,372.55c.01,1.69-.66,3.36-1.83,4.6-1.16,1.24-2.84,2.03-4.6,2.08-1.75,.07-3.55-.59-4.85-1.83-1.31-1.23-2.08-3.03-2.08-4.85,0-1.82,.77-3.62,2.08-4.85,1.3-1.24,3.1-1.9,4.85-1.83,1.75,.05,3.44,.84,4.6,2.09,1.18,1.23,1.85,2.91,1.83,4.6Zm0,0c0-1.69-.71-3.35-1.93-4.5-1.21-1.15-2.88-1.75-4.5-1.68-1.62,.06-3.17,.79-4.24,1.94-1.08,1.14-1.7,2.69-1.69,4.24-.01,1.56,.6,3.1,1.69,4.24,1.07,1.15,2.62,1.88,4.24,1.94,1.62,.07,3.29-.53,4.5-1.68,1.22-1.14,1.93-2.81,1.93-4.5Z"/>
        </g>
        <path class="cls-6" d="M339.66,414.43l-25.78,.17-25.92,.08h-.25s0-.25,0-.25l-.13-51.7v-.38s.37,0,.37,0l51.7,.12h.25s0,.25,0,.25l-.08,25.92-.17,25.78Zm0,0l-.17-25.92-.08-25.78,.25,.25-51.7,.12,.37-.37-.13,51.7-.25-.25,25.78,.08,25.92,.17Z"/>
        <polygon class="cls-6" points="287.97 388.83 249.81 388.83 249.81 297.8 250.31 297.8 250.31 388.33 287.97 388.33 287.97 388.83"/>
        <path class="cls-6" d="M251.89,297.8c0,1.01-.82,1.83-1.83,1.83s-1.83-.82-1.83-1.83,.82-1.83,1.83-1.83,1.83,.82,1.83,1.83Z"/>
      </g>
      <g>
        <path class="cls-6" d="M397.86,91.68l-25.78,.17-25.92,.08h-.25s0-.25,0-.25l-.13-51.7v-.38s.37,0,.37,0l51.7,.12h.25s0,.25,0,.25l-.08,25.92-.17,25.78Zm0,0l-.17-25.92-.08-25.78,.25,.25-51.7,.12,.37-.37-.13,51.7-.25-.25,25.78,.08,25.92,.17Z"/>
        <g>
          <path class="cls-6" d="M375.96,87l13.4-3.66s-2.13-6.29-2.13-6.54,.92-7.29,.92-8.62-2.62-10.02-3.21-11.11c-.92-1.68-1.84-2.14-3.36-1.94-1.53,.2-1.84,1.38-1.84,1.38,0,0-.83-1.59-2.55-1.4-1.72,.19-2.36,2.13-2.36,2.13,0,0-3.18-8.91-4.91-11.75-1.04-1.71-3.54-.57-3.24,1.43,.33,2.12,3.77,11.48,3.67,11.88,0,0-3.43-8.77-4.38-11.14-.94-2.37-4-1.53-3.66,1.41s5.35,17.66,5.47,18.28c.11,.61,.57,3.02,.57,3.02,0,0-2.68-5.7-4.51-8.03-1.84-2.33-4.51-.84-3.14,2.14,1.38,2.98,3.48,8.83,4.36,10.02,.88,1.19,8.33,6.65,8.56,6.84,.23,.19,2.33,5.66,2.33,5.66Z"/>
          <g>
            <g>
              <path class="cls-6" d="M354.67,63.62c-.33-2.49-.45-4.98-.48-7.47-.04-2.49,0-4.98,.19-7.47h.59c.18,2.49,.23,4.98,.19,7.47-.04,2.49-.16,4.98-.48,7.47Z"/>
              <polygon class="cls-6" points="356.67 49.27 354.67 45.81 352.68 49.27 356.67 49.27"/>
            </g>
            <g>
              <path class="cls-6" d="M358.15,45.81c.33,2.49,.45,4.98,.48,7.47,.04,2.49,0,4.98-.19,7.47h-.59c-.18-2.49-.23-4.98-.19-7.47,.04-2.49,.16-4.98,.48-7.47Z"/>
              <polygon class="cls-6" points="356.15 60.16 358.15 63.62 360.14 60.16 356.15 60.16"/>
            </g>
          </g>
        </g>
        <rect class="cls-6" x="371.77" y="91.68" width=".5" height="114.78"/>
        <path class="cls-6" d="M370.18,206.45c0-1.01,.82-1.83,1.83-1.83s1.83,.82,1.83,1.83-.82,1.83-1.83,1.83-1.83-.82-1.83-1.83Z"/>
      </g>
    </g>
  </g>
  <g id="Plant">
    <g>
      <g>
        <path class="cls-6" d="M422.08,332.01c.67,4.57,.42,9.28-.7,13.75-.52,2.09-1.24,4.11-2.11,6.08-1.09,2.51-2.24,4.97-1.96,7.72,.27,.18-.65,.15-.68-.12-7.35-4.19-16.78-4.95-22.44-11.8-2.68-3.24-4.03-7.35-4.67-11.46-.7-4.47-.89-9.43,.27-13.84,.97-3.73,3.15-7.33,6.66-9.16,3.62-1.88,8.36-1.72,12.17-.54,8.22,2.55,12.3,11.42,13.47,19.37Z"/>
        <g>
          <path class="cls-12" d="M425.86,386.45c-1-3.34-2.01-6.69-3.04-10.03-2.02-6.54-4.12-13.05-6.44-19.48-1.39-3.85-2.86-7.67-4.4-11.45,.26-2.37,.37-4.74,.88-7.11,.62-2.85,1.51-5.6,2.34-8.39,.05-.17-.23-.26-.3-.1-1.65,3.84-3.81,8.76-3.86,13.31-1.8-4.28-3.71-8.5-5.78-12.65-.12-3.54-.25-6.97,.32-10.54,.03-.16-.22-.21-.25-.05-.55,2.99-.94,6.2-.72,9.3-1.58-3.12-3.25-6.2-5.02-9.24-.16-.27-.54,0-.4,.28,2.76,5.32,5.33,10.75,7.73,16.26-3.33-2.95-7.37-5.19-11.53-6.68-.18-.07-.32,.2-.13,.28,4.74,1.98,8.72,4.78,12.47,8.26,1.73,4.03,3.38,8.1,4.94,12.19-4.6-4.51-10.9-7.48-16.99-9.07-.21-.05-.26,.26-.06,.32,7.05,2.12,12.52,6.12,17.88,10.92,.62,1.66,1.23,3.31,1.83,4.98,2.27,6.3,4.42,12.65,6.49,19.02,.99,3.05,1.96,6.11,2.92,9.18,1.03,3.3,1.83,6.78,3.17,9.96,.13,.3,.67,.23,.6-.13-.6-3.16-1.75-6.26-2.68-9.34Z"/>
          <path class="cls-12" d="M413.66,325.58c-1.32,2.02-2.2,4.24-2.65,6.6-.01,.06,.08,.1,.11,.04,.82-2.22,1.78-4.37,2.87-6.48,.11-.21-.2-.35-.33-.16Z"/>
          <path class="cls-12" d="M400.54,340.9c-1.9-1.08-4.43-1.94-6.6-2.22-.06,0-.1,.08-.04,.11,1.06,.44,2.18,.75,3.25,1.16,1.08,.41,2.13,.92,3.22,1.3,.23,.08,.38-.22,.17-.34Z"/>
          <path class="cls-12" d="M396.85,322.47c-.67-.44-1.38-1.01-2.12-1.31-.12-.05-.22,.1-.12,.19,.59,.54,1.41,.94,2.09,1.36,.13,.08,.29-.14,.15-.23Z"/>
        </g>
      </g>
      <g>
        <path class="cls-6" d="M446.87,356.99c-5.3,1.57-10.62,3.03-15.92,4.58-.46,.14-9.41-17.02-6.18-25.86,2.99-8.18,9.84-14.3,18-17.08,3.78-1.28,8.43-2.36,12.43-1.48,3.55,.79,6.06,3.69,7.22,7.03,1.57,4.54,1.05,9.96,.19,14.59-.79,4.3-2.37,8.53-5.21,11.91-2.81,3.34-6.4,5.08-10.53,6.31Z"/>
        <g>
          <path class="cls-12" d="M454.55,340.68c-3.37,1.7-6.79,2.93-10.38,4.09-2.25,.72-4.77,1.38-6.93,2.51,2.24-4.99,4.69-9.87,7.3-14.71,3.42-.99,7.02-2.53,9.6-4.96,.14-.13-.04-.33-.19-.22-2.82,1.99-5.93,3.19-9.06,4.54,.71-1.3,1.41-2.6,2.14-3.9,.2-.36-.29-.72-.54-.37-2.78,4.01-5.27,8.25-7.53,12.64-.56-3.87-.76-7.64-.54-11.58,0-.1-.14-.11-.15-.01-.65,4.16-.62,8.57,.13,12.72-1.86,3.71-3.55,7.51-5.07,11.35-.6-2.31-1.39-4.58-1.91-6.91-.75-3.35-1.11-6.77-.76-10.2,.01-.1-.14-.11-.15-.01-1.03,6.08-.09,12.94,2.22,18.72-.89,2.31-1.73,4.64-2.5,6.97-3.95,11.92-6.39,24.2-7.03,36.75-.01,.29,.41,.32,.45,.03,1.44-12.31,3.98-24.55,7.89-36.32,1.54-4.62,3.3-9.1,5.24-13.5,3.13-.92,6.24-2.18,9.32-3.24,3-1.04,6.07-2.24,8.59-4.21,.1-.08,0-.23-.12-.18Z"/>
          <path class="cls-12" d="M459.49,335.7c-3.24,1.15-6.31,2.76-9.55,3.93-.15,.05-.06,.29,.09,.26,3.42-.71,6.82-1.77,9.58-4.01,.11-.09-.01-.23-.12-.19Z"/>
          <path class="cls-12" d="M433.04,328.71c.04-.17-.21-.27-.26-.09-.89,2.99-1.5,6.15-.64,9.21,.03,.12,.22,.12,.23-.01,.16-3.07-.02-6.07,.67-9.1Z"/>
          <path class="cls-12" d="M446.43,321.81c-1.09,1.39-1.48,3.35-1.41,5.08,0,.11,.19,.18,.22,.05,.39-1.71,1.05-3.26,1.58-4.92,.08-.24-.24-.4-.39-.2Z"/>
        </g>
      </g>
      <g>
        <path class="cls-6" d="M383.88,364.56c1.55,4.93,5.24,11.74,11.09,11.79,3.79,.04,7.6-.41,11.4-.47,4.07-.06,8.14-.05,12.2,.19,.33,.02-.49-12.18-10.26-18.11-2.74-1.66-6.09-2.19-9.19-2.86-3.55-.77-7.22-1.29-10.86-1.13-2.24,.09-4.11,.57-4.91,2.86-.83,2.41-.21,5.39,.54,7.73Z"/>
        <g>
          <path class="cls-12" d="M388.08,358.39c2.37,.61,4.77,1.31,7.15,2.07-.64-.66-1.26-1.33-1.97-1.92-1.02-.85-2.15-1.53-3.25-2.28-.09-.06-.04-.24,.08-.19,2.17,.85,4.42,2.63,5.76,4.58,2.97,.96,5.91,2.02,8.74,3.18,2.01,.82,3.86,1.81,5.6,2.95-.62-1.21-1.19-2.44-2.03-3.52-1.3-1.68-3.05-2.62-4.75-3.81-.16-.11-.02-.34,.15-.26,3.83,1.7,6.17,4.47,7.62,8.26,2,1.43,3.84,3.1,5.54,5.03,6.47,7.34,11.56,17.12,11.58,27.09,0,.24-.38,.31-.43,.06-1.83-9.9-5.75-18.8-12.33-26.48-.46-.54-.94-1.05-1.42-1.55-1.78-.19-3.54-.42-5.34-.4-2.08,.03-4.14,.31-6.22,.47-3.41,.28-7.18,.32-10.26-1.4-.14-.08-.04-.31,.11-.26,6.86,2.49,14.05-.67,20.93,.82-2.93-2.81-6.27-4.93-10.14-6.54-.21-.09-.42-.17-.63-.25-4.4,.53-9.05,1.68-13.34,.25-.13-.04-.08-.24,.06-.2,4.14,1.03,8.12-.27,12.2-.47-4.45-1.73-8.99-3.11-13.46-4.83-.38-.14-.38-.49,.02-.38Z"/>
          <path class="cls-12" d="M386.14,362.72c2.15,.35,4.25,.36,6.41,.49,.05,0,.06,.08,.01,.09-2.11,.47-4.41,.18-6.46-.41-.11-.03-.06-.18,.04-.16Z"/>
          <path class="cls-12" d="M400.61,358.5c1.17,.4,2.26,1.4,3.17,2.21,.11,.1-.04,.3-.16,.21-.54-.39-1.09-.76-1.65-1.12-.51-.33-1.08-.59-1.54-.98-.15-.12,.01-.38,.18-.32Z"/>
        </g>
      </g>
      <g>
        <path class="cls-6" d="M435.12,374.36c-.07,.16,.16,.31,.25,.14t0,0s.08,.09,.15,.1c3.95,.85,7.92,1.72,11.94,2.08,3.23,.29,6.96,.47,9.78-1.41,3.83-2.54,6.35-9.33,4.28-13.65-2.45-5.13-9.84-2.34-13.54-.52-5.7,2.78-10.28,7.49-12.87,13.27Z"/>
        <g>
          <path class="cls-12" d="M432.25,376.73c2.17-2.13,4.58-3.9,7.13-5.43,1.75-2.97,4.43-5.43,7.23-7.37,.14-.1,.26,.12,.13,.22-2.41,1.86-4.3,4.04-6.09,6.41,2.85-1.59,5.87-2.9,8.94-4.07,1.07-1.96,2.82-3.8,4.8-4.81,.04-.02,.09,.03,.05,.07-1.73,1.36-3.13,2.77-4.34,4.55,1.82-.68,3.65-1.31,5.49-1.92,.17-.05,.23,.2,.07,.26-3.26,1.28-6.6,2.62-9.84,4.17,4.08,.55,7.76,.67,11.91-.03,.11-.02,.16,.14,.05,.17-4.01,1.14-8.6,1.36-12.64,.19-2.06,1.01-4.08,2.12-6,3.36,1.61-.21,3.22,.07,4.85,.4,2.84,.56,5.61,1.06,8.52,.96,.11,0,.14,.17,.03,.19-4.94,.85-9.61-1.4-14.51-.81-1.81,1.25-3.53,2.62-5.1,4.17-3.08,3.02-5.54,6.63-7.44,10.49-2.06,4.2-3.18,8.64-4.85,12.98-.07,.19-.34,.12-.3-.08,1.43-8.55,5.68-17.97,11.91-24.07Z"/>
          <path class="cls-12" d="M447.15,365.01c.29-.59,.79-1.09,1.27-1.54,.41-.39,.92-.89,1.46-1.09,.05-.02,.08,.05,.05,.08-.4,.46-.97,.8-1.41,1.24-.44,.44-.8,.96-1.25,1.4-.06,.06-.15-.02-.12-.09Z"/>
          <path class="cls-12" d="M455.3,367.67c.73-.18,1.51-.17,2.25-.32,.75-.15,1.45-.42,2.18-.65,.1-.03,.15,.11,.07,.16-1.2,.71-3.1,1.32-4.5,1.05-.12-.02-.11-.2,0-.23Z"/>
        </g>
      </g>
      <g>
        <g>
          <polygon class="cls-14" points="411.89 390.27 412.54 397.63 414.74 422.5 434.21 422.5 436.96 397.63 437.78 390.27 411.89 390.27"/>
          <polygon class="cls-13" points="411.89 390.27 412.54 397.63 436.96 397.63 437.78 390.27 411.89 390.27"/>
        </g>
        <rect class="cls-14" x="409.96" y="388.26" width="29.74" height="5.97" transform="translate(849.67 782.49) rotate(180)"/>
      </g>
    </g>
  </g>
  <g id="Character">
    <g>
      <g>
        <g>
          <g>
            <path class="cls-8" d="M154.38,396.32s-2.86,39.72-2.86,39.75c-.04,7.78,.06,14.6,.45,18.12,0,.02,0,.04,0,.06,.14,1.33,.33,2.18,.56,2.41,.02,.02,.03,.04,.05,.05,2.31,1.58,64.46,3.71,66.65,3.05,2.2-.65,.5-6.96-1.85-8.96-2.37-2.01-25.79-13.47-25.79-13.47l2.48-39.7-39.69-1.3Z"/>
            <path class="cls-2" d="M151.52,427.71s0,8.32,0,8.35c-.04,7.78,.06,14.6,.45,18.12,0,.02,0,.04,0,.06,.22,1.31,.42,2.18,.56,2.41,.02,.02,.03,.04,.05,.05,2.31,1.58,64.46,3.71,66.65,3.05,2.2-.65,.5-6.96-1.85-8.96-2.37-2.01-25.79-13.47-25.79-13.47l.11-8.47-40.19-1.13Z"/>
            <g>
              <path class="cls-6" d="M219.24,459.75c-2.2,.66-64.35-1.47-66.66-3.06-.89-.59-1.11-9.66-1.06-20.63,0-.11,0-.23,0-.34l40.11,.92-.04,.68s23.43,11.45,25.79,13.47c2.34,2,4.05,8.31,1.85,8.96Z"/>
              <g>
                <path class="cls-12" d="M218.61,457.32c-10.47-.62-52.75-2.11-63.14-1.93-.08,0-.09,.06,0,.07,10.36,.84,52.65,1.99,63.14,2.03,.22,0,.23-.16,0-.17Z"/>
                <path class="cls-12" d="M194.96,437.56c-4.1-.91-9.16-.45-12.41,2.38-.13,.11,.03,.29,.17,.25,4.11-1.14,7.94-1.84,12.21-2.11,.3-.02,.33-.45,.03-.52Z"/>
                <path class="cls-12" d="M197.88,439.46c-4.1-.91-9.16-.45-12.41,2.38-.13,.11,.03,.29,.17,.25,4.11-1.14,7.94-1.84,12.21-2.11,.3-.02,.33-.45,.03-.52Z"/>
                <path class="cls-12" d="M200.79,441.35c-4.1-.91-9.16-.45-12.41,2.38-.13,.11,.03,.29,.17,.25,4.11-1.14,7.94-1.84,12.21-2.11,.3-.02,.33-.46,.03-.52Z"/>
              </g>
            </g>
          </g>
          <g>
            <path class="cls-14" d="M149.12,437.78l43.51-.87s5.31-78.29,4.32-104.39c-1.07-28.35-13.25-112.71-13.25-112.71h-36.74s9.39,84.69,9.59,113.05c.18,26.29-7.42,104.92-7.42,104.92Z"/>
            <g>
              <path class="cls-13" d="M176.48,219.81l-22.07,76.36c-2.61-36.14-7.45-76.36-7.45-76.36h29.52Z"/>
              <path class="cls-13" d="M158.2,284.71l1.99-8.53,.4,13.71c1.38,16.8,.53,18.06,1.53,34.9,.24,4.21,.39,8.44,.33,12.67-.09,4.22-.26,8.44-.47,12.65-.43,8.42-.98,16.84-1.62,25.24-.64,8.41-1.32,16.81-2.04,25.21l-2.35,25.18,1.88-25.22c.63-8.41,1.22-16.81,1.77-25.22,.53-8.41,1.1-16.82,1.49-25.23,.2-4.21,.35-8.42,.43-12.62,.05-4.2-.12-8.4-.37-12.6-.92-16.82-1.74-23.32-2.97-40.13h0Z"/>
              <path class="cls-13" d="M190.81,429.65c-6.79-.06-4.84-.14-11.64-.12-3.32,0-25.17,.08-28.27,.63-.07,.01-.07,.13,0,.14,3.11,.48,24.95,.02,28.27-.05,6.79-.15,4.84-.18,11.63-.4,.13,0,.13-.2,0-.2Z"/>
            </g>
          </g>
        </g>
        <g>
          <g>
            <path class="cls-8" d="M83.66,375.01s-20.99,34.11-21,34.14c-3.41,6.99-6.27,13.18-7.45,16.52,0,.02-.02,.03-.02,.05-.45,1.26-.65,2.1-.54,2.41,0,.03,0,.05,.02,.06,1.39,2.42,56.48,31.29,58.74,31.65,2.26,.37,3.46-6.05,2.22-8.88-1.26-2.83-17.4-23.32-17.4-23.32l20.63-34.26-35.2-18.39Z"/>
            <path class="cls-2" d="M54.65,428.14s0,.04,.01,.06c1.4,2.42,56.48,31.29,58.75,31.66,2.26,.37,3.46-6.06,2.22-8.88-1.27-2.84-17.4-23.32-17.4-23.32l3.68-6.12c-9-4.8-25.37-13.23-35.53-18.45-2.21,3.59-3.72,6.05-3.72,6.06-3.41,6.99-6.28,13.18-7.45,16.52-.01,.02-.02,.04-.02,.06-.45,1.26-.65,2.1-.53,2.41Z"/>
            <g>
              <path class="cls-6" d="M113.41,459.86c-2.26-.36-57.34-29.23-58.74-31.66-.55-.91,3.19-9.19,8-19.05,.05-.1,.1-.21,.15-.31l35.74,18.23-.33,.6s16.14,20.48,17.4,23.32c1.24,2.82,.04,9.25-2.22,8.88Z"/>
              <g>
                <path class="cls-12" d="M113.9,457.39c-9.17-5.09-46.61-24.78-56.06-29.11-.08-.04-.1,.02-.03,.06,8.97,5.25,46.58,24.62,56.01,29.21,.2,.1,.27-.04,.08-.15Z"/>
                <path class="cls-12" d="M101.16,429.34c-3.3-2.6-8.06-4.38-12.21-3.24-.16,.04-.1,.27,.04,.3,4.2,.75,7.95,1.79,11.92,3.39,.28,.11,.49-.27,.26-.45Z"/>
                <path class="cls-12" d="M102.96,432.31c-3.3-2.6-8.06-4.38-12.21-3.24-.16,.04-.1,.27,.04,.3,4.2,.75,7.95,1.79,11.92,3.39,.28,.11,.49-.27,.26-.45Z"/>
                <path class="cls-12" d="M104.77,435.28c-3.3-2.6-8.06-4.38-12.22-3.24-.16,.04-.1,.27,.04,.3,4.2,.75,7.95,1.79,11.92,3.4,.28,.11,.49-.27,.26-.45Z"/>
              </g>
            </g>
          </g>
          <g>
            <path class="cls-14" d="M179.94,219.77s0,0,0,.04c-.16,.76-2.73,12.68-5.39,22.92-1.94,7.48-3.93,14.06-5.07,14.74-1.29,.77-7.6,3.56-9.72,4.44,0,0-14.19,70.84-21.68,92.8-6.91,20.27-35.52,74.45-35.52,74.45l-41.5-20.97s32.41-54.99,35.82-64.85c5.28-15.29,25.08-89.97,25.08-89.97,0,0-.15-23.38,7.72-33.59h50.28Z"/>
            <g>
              <path class="cls-13" d="M101.93,421.06c-5.93-3.31-4.18-2.45-10.15-5.69-2.92-1.59-22.12-12.01-25.1-13.02-.07-.02-.12,.08-.06,.12,2.5,1.91,21.88,12,24.83,13.53,6.03,3.13,4.33,2.17,10.39,5.23,.11,.06,.2-.11,.09-.18Z"/>
              <path class="cls-13" d="M132.58,246.86c1.14-.29,2.35-.38,3.51-.57,.94-.15,1.87-.31,2.79-.52,1.74-.38,3.51-.97,4.93-2.08,1.61-1.25,2.42-3.15,3.2-4.97,.46-1.08,.94-2.16,1.42-3.23,.23-.52,.47-1.04,.71-1.56,.28-.6,.67-1.23,.88-1.87,.03-.09,.18-.04,.14,.04-.18,.42-.26,.9-.39,1.34-.16,.52-.31,1.05-.47,1.57-.29,.93-.57,1.86-.88,2.78-.55,1.66-1.04,3.4-1.98,4.89-1.71,2.73-4.78,3.83-7.84,4.21-.88,.11-1.76,.17-2.65,.22-1.09,.06-2.26,.16-3.35,.03-.17-.02-.21-.26-.03-.31Z"/>
              <g>
                <path class="cls-13" d="M172.82,255.79c-4.5,1.55-8.85,3.75-13.01,6.06-.16,.09-.06,.34,.12,.27,4.38-1.88,8.85-3.68,13.12-5.8,.34-.17,.11-.64-.24-.52Z"/>
                <path class="cls-13" d="M174.14,225.78c-.01-.15-.28-.18-.28-.02,.04,5.2-.3,9.78-.73,14.64-.2,2.26-2.02,14.73-5.93,13.82-.66-.15-.99-.8-1.09-1.78-.12-1.19,.32-2.64,.52-3.83,.43-2.61,.78-5.23,1.01-7.87,.42-4.92,.44-9.85-.16-14.76-.02-.16-.25-.15-.25,.01,0,6.82-.17,13.62-1.19,20.37-.49,3.24-2.12,8.13,1.27,8.63,3.46,.51,5.69-7.67,6.11-9.91,1.18-6.24,1.22-12.99,.73-19.31Z"/>
                <path class="cls-13" d="M167.3,254.55c-.35,.84-.64,1.71-.88,2.59-.19,.68-.44,1.42-.37,2.13,.01,.14,.2,.15,.27,.06,.46-.58,.65-1.38,.91-2.07,.3-.8,.61-1.59,.89-2.4,.18-.54-.6-.82-.82-.3Z"/>
              </g>
              <path class="cls-13" d="M72.24,401.3c5.91-11.12,12-22.14,18.11-33.15,3.01-5.43,6.16-10.79,9.03-16.29,2.84-5.43,4.77-11.14,6.57-16.99,3.65-11.88,7.12-23.82,10.38-35.81,3.27-11.99,6.32-24.04,9.2-36.13,.72-3.02,1.51-6.05,2.09-9.1,.6-3.17,.42-6.14-.01-9.32-.4-2.91-.51-5.77-.07-8.67,.44-2.88,1.16-5.7,2.03-8.48,.46-1.46,.95-2.91,1.46-4.36,.06-.16,.31-.09,.26,.08-1.79,5.85-3.62,11.77-3.23,17.97,.18,2.98,.97,5.91,.92,8.91-.05,2.98-.84,5.91-1.51,8.8-2.82,12.16-5.86,24.27-9.09,36.34-3.23,12.06-6.65,24.07-10.27,36.02-1.76,5.81-3.41,11.71-5.91,17.26-2.5,5.56-5.67,10.81-8.66,16.11-6.17,10.97-12.38,21.91-18.74,32.76-.81,1.38-1.62,2.75-2.43,4.12-.05,.09-.18,0-.13-.08Z"/>
            </g>
          </g>
        </g>
      </g>
      <g>
        <g>
          <path class="cls-8" d="M158.19,162.04c5.59,10.49,30.55,33.79,39.71,34.79,6.62,.72,30.62-16.34,37.14-22.43,6.29-5.88-14.52-23.79-18.46-20.6-5.55,4.51-17.86,17.69-20.45,18-1.82,.22-12.64-5.55-29.35-16.24-9.24-5.91-11.93,.22-8.59,6.48Z"/>
          <g>
            <path class="cls-8" d="M224.82,144.52c3.8-1.9,8.01-4.37,12.44-4.84,4.43-.46,8.82,4.92,9.02,6.59,.21,1.67-.18,12.3-4.6,12.84-4.42,.54-2.74-7.79-3.02-8.69-.28-.9-.59-2.05-1.41-1.86-.82,.19-14.56,8.91-14.56,8.91l2.13-12.96Z"/>
            <g>
              <path class="cls-8" d="M225.18,145.1c.25-.03,11.52-6.16,15.95-6.62,4.43-.46,8.82,4.92,9.02,6.59,.21,1.67-.18,12.3-4.6,12.84-4.42,.54-2.74-7.79-3.02-8.69-.28-.9-.59-2.05-1.41-1.86-.82,.19-14.56,8.91-14.56,8.91l-1.38-11.17Z"/>
              <path class="cls-12" d="M243.98,157.54c-.63-.63-.85-1.67-1.06-2.52-.22-.93-.26-1.89-.19-2.84,.06-.82,.31-1.67,.24-2.5-.07-.77-.46-1.64-.9-2.26-.42-.58-1.04-.29-1.57-.02-.79,.39-1.54,.9-2.27,1.38-.79,.52-1.57,1.06-2.36,1.6-.81,.55-1.66,1.08-2.39,1.73-.05,.05,0,.15,.07,.11,.74-.36,1.42-.85,2.12-1.28,.79-.5,1.59-.99,2.39-1.47,.75-.45,1.47-.94,2.23-1.38,.27-.15,.79-.52,1.12-.49,.35,.03,.62,.84,.72,1.1,.34,.82,.27,1.55,.14,2.41-.13,.82-.2,1.65-.16,2.48,.03,.76,.16,1.57,.47,2.28,.3,.68,.85,1.19,1.29,1.77,.06,.08,.19-.03,.12-.1Z"/>
            </g>
            <g>
              <path class="cls-8" d="M212.59,158.42s10.87-12.67,13.15-15.2c4.57-5.08,25.02-16.53,27.99-17.21,2.96-.69,4.8,5.33-9.03,13.53-7.29,4.32-8.12,8.9-7.67,11.33,.45,2.43,3.34,6.7,7.44,6.08,4.1-.62,6.03-6.95,9.73-8.08,3.7-1.13,2.06,6.1-.12,10.43-2.18,4.33-6.61,8.23-10,10-3.39,1.77-13.82,7.87-13.82,7.87l-17.66-18.74Z"/>
              <path class="cls-12" d="M249.22,153.42c-1.4,1.39-2.97,3.16-4.99,3.49-2.1,.34-3.64-.86-4.82-2.46-1.2-1.61-2.02-3.51-1.78-5.56,.21-1.84,1.08-3.55,2.25-4.96,1.45-1.75,3.24-3.14,5.12-4.39,.08-.06-.01-.18-.1-.12-1.79,1.08-7.38,4.21-7.92,9.56-.22,2.18,.65,4,1.86,5.66,1.11,1.52,2.63,2.94,4.65,2.86,2.45-.1,4.3-2.34,5.87-4.03,.07-.08-.05-.12-.13-.04Z"/>
            </g>
          </g>
          <g>
            <path class="cls-7" d="M216.12,154.15l15.25,31.16s-25.88,13.53-33.95,12.31c-8.07-1.22-30.75-21.63-39.36-34.65-5.24-7.93-.95-14.2,9.74-7.91,10.98,6.46,26.39,15.37,27.51,15.62,1.12,.25,20.82-16.53,20.82-16.53Z"/>
            <path class="cls-12" d="M216.8,173.82c-.98-2.36-4.84-11.81-5.62-14.23-.01-.04,.05-.07,.07-.03,1.2,2.17,5.28,11.39,6.27,13.74,1.97,4.7,4.05,9.39,5.49,14.29,.03,.09-.1,.16-.15,.07-2.32-4.47-4.12-9.2-6.05-13.84Z"/>
            <path class="cls-5" d="M158.05,162.97c6.98,10.56,23.2,25.96,33.38,32.07l-30.05-42.46h-.01c-5.76-.78-7.34,4.32-3.33,10.4Z"/>
          </g>
        </g>
        <g>
          <path class="cls-2" d="M129.66,219.77c.15,.17,53.46,.71,54.04,.03,.81-.96-11.68-54.57-16.33-64.51-1.98-4.24-12.43-5.36-16.78-1.68-10.87,9.23-21.48,65.55-20.93,66.15Z"/>
          <path class="cls-7" d="M151.51,152.5s5.88,27.57,6.43,29.56c.55,2,2.65,52.35,2.65,52.35l-36.58-4.43s7.81-28.05,8.67-29.32c.86-1.27,7.82-31.03,13.49-41.81,2.55-4.86,5.33-6.35,5.33-6.35Z"/>
          <path class="cls-7" d="M166.07,153.7s2.89,22.05,3.03,23.36c.14,1.31,10,55.86,10,55.86l9.46-5.06s-10.1-35.91-10.56-37.58-8.18-29.85-9.45-32.92c-1.27-3.08-2.47-3.67-2.47-3.67Z"/>
        </g>
        <g>
          <g>
            <g>
              <path class="cls-10" d="M192.25,199.85l-12.97,29.82c-.48,.86-.15,1.68,.75,1.82l16.06,2.65c.9,.15,2.02-.43,2.5-1.29l12.97-29.82c.48-.86,.15-1.68-.75-1.82l-16.06-2.65c-.9-.15-2.02,.43-2.5,1.29Z"/>
              <path class="cls-11" d="M194.16,200.15l-12.97,29.82c-.48,.86-.15,1.68,.75,1.82l16.06,2.65c.9,.15,2.02-.43,2.5-1.29l12.97-29.82c.48-.86,.15-1.68-.75-1.82l-16.06-2.65c-.9-.15-2.02,.43-2.5,1.29Z"/>
              <path class="cls-12" d="M198.32,202.3c-.14,.75-.86,1.24-1.61,1.1-.75-.14-1.24-.86-1.1-1.61,.14-.75,.86-1.24,1.61-1.1,.75,.14,1.24,.86,1.1,1.61Z"/>
            </g>
            <path class="cls-8" d="M144.74,159.81c-10.4,13.03-32.88,42.84-27.07,50.29,9.54,12.25,33.76,23.79,41.39,26.5,3.29,1.17,16.51-22.53,13.46-24.69-3.66-2.59-27.42-13.35-27.48-14.53-.06-1.3,5.32-17.7,7.48-30.75,2.68-16.2-3.44-12.27-7.78-6.83Z"/>
            <g>
              <path class="cls-8" d="M160.41,209.59s10.35-2.47,17.19-3.77c3.82-.72,10.47-1.38,13.52-.63,4.56,1.12,22.91,8.74,21.16,13.22-1.58,4.06-16.52-4.48-16.52-4.48,0,0,15.83,7.29,13.02,11.83-2.81,4.54-18.39-7.35-18.39-7.35,0,0,16.1,7.85,12.46,12.08-2.75,3.19-17.47-6.78-17.47-6.78,0,0,13.79,6.84,11.1,10.25-2.97,3.76-17.14-4.59-17.14-4.59-8.28,7.51-15.17,8.21-20.3,7.24-1.2-.23,1.36-27.01,1.36-27.01Z"/>
              <g>
                <path class="cls-12" d="M191.19,211.44c12.07,4.48,16.62,10.37,16.46,10.24-3.6-3.12-10.04-6.64-11.86-7.59-1.81-.95-2.83-1.63-4.64-2.58-.05-.02,0-.08,.04-.07Z"/>
                <path class="cls-12" d="M186.88,217.56c5.85,1.75,11.85,5.62,13.7,7.27,.15,.13,.06,.16-.12,.06-2.27-1.28-11.29-6.12-13.62-7.28-.04-.02,0-.07,.03-.05Z"/>
                <path class="cls-12" d="M182.82,222.58c5.11,1.96,7.21,3.35,10.44,5.94,.16,.12,.01,.17-.16,.07-3.43-2.04-6.11-3.67-10.33-5.88-.07-.03-.03-.16,.05-.13Z"/>
              </g>
            </g>
          </g>
          <g>
            <path class="cls-7" d="M165.24,207.77l-15.13,28.4s-31.64-19.19-33.67-27.56c-2.04-8.37,21.94-43.46,29.03-50.51,7.1-7.05,9.12-3.91,8.5,4.52-.62,8.42-8.59,34.37-8.45,34.87,.14,.5,19.72,10.28,19.72,10.28Z"/>
            <path class="cls-12" d="M148.58,185.2c.54-1.95,1.07-3.9,1.59-5.85,.27-1.02,.53-2.03,.82-3.04,.13-.47,.26-.93,.39-1.4,.06-.23,.15-.46,.2-.7,.19-.86,.02-.1,.28-.92,.02-.05,.11-.04,.1,.02-.08,.54,.04,.33-.09,.74-.09,.3-.15,.61-.21,.93-.09,.47-.2,.95-.3,1.42-.21,.97-.43,1.93-.67,2.9-.03,.13-.07,.25-.1,.38,.01-.03,.03-.07,.04-.1,.42-1.04,.84-2.07,1.27-3.1,.02-.05,.09-.02,.07,.03-.31,1.08-.65,2.13-1.05,3.18-.23,.6-.5,1.19-.78,1.78-.32,1.29-.64,2.57-.98,3.85-1.05,3.97-2.13,7.95-3.5,11.82,1.66,.86,3.37,1.65,5.03,2.52,1.67,.87,3.32,1.77,4.98,2.66,1.65,.89,3.31,1.78,4.95,2.7,.78,.44,1.56,.89,2.33,1.34,.85,.49,1.64,1.07,2.49,1.54,.09,.05,0,.17-.09,.13-.89-.47-1.85-.82-2.75-1.27-.79-.39-1.59-.78-2.38-1.18-1.68-.86-3.34-1.74-5-2.63-1.66-.88-3.33-1.76-4.98-2.66-1.65-.9-3.25-1.88-4.89-2.78-.06-.03-.09-.08-.1-.13-.06-.05-.11-.13-.08-.23,1.05-3.99,2.27-7.94,3.38-11.92Z"/>
            <path class="cls-12" d="M151.09,218.56c1.12-2.06,5.68-10.25,6.96-12.2,.02-.03,.08,0,.06,.03-.86,2.1-5.12,10.32-6.24,12.38-2.24,4.11-4.4,8.29-7.08,12.14-.05,.07-.18,.02-.14-.06,1.87-4.23,4.22-8.23,6.43-12.28Z"/>
            <path class="cls-12" d="M126.24,219.62c1.77,1.07,17.36,12.55,21.02,14.71,.21,.12-.06,.19-.27,.06-3.71-2.24-17.64-11.6-20.83-14.62-.13-.12-.07-.25,.08-.16Z"/>
          </g>
        </g>
        <g>
          <g>
            <path class="cls-8" d="M162.8,162.69c-3.33,.39-8.96-5.7-10.69-9.97-.12-.29,.64-3.14,1.41-6.64,.45-2.13,.91-4.51,1.17-6.71l13.41,4.97s-1.9,4.45-2.32,8.3c-.03,.32-.04,.62-.01,.91,0,.04,0,.09,0,.15,.08,1.75,.25,8.61-2.96,8.98Z"/>
            <path class="cls-12" d="M165.76,153.55s0,.09,0,.15c-.44,.02-.91-.02-1.43-.08-7.97-1.12-8.7-11.12-8.75-13.91l3.35,1.24,9.16,3.4s-1.9,4.46-2.32,8.3c-.04,.32-.04,.62-.02,.91Z"/>
          </g>
          <g>
            <path class="cls-8" d="M152.85,125.86c-1.13,5.03,2.52,19.03,6.26,21.94,5.41,4.21,13.74,4.03,17.18-2.35,3.34-6.19-1.75-24.35-5.87-26.94-6.07-3.81-15.9-.07-17.57,7.36Z"/>
            <g>
              <g>
                <path class="cls-12" d="M167.52,134.03s-.06,.06-.05,.1c.27,.94,.42,2.06-.35,2.59-.02,.02,0,.06,.02,.05,1.01-.41,.79-1.9,.38-2.74Z"/>
                <path class="cls-12" d="M166.42,133.26c-1.55,.27-.89,3.35,.55,3.1,1.41-.25,.75-3.33-.55-3.1Z"/>
              </g>
              <g>
                <path class="cls-12" d="M172.89,132.69s.08,.03,.09,.07c.17,.96,.54,2.03,1.47,2.16,.03,0,.04,.05,0,.05-1.08,.08-1.55-1.35-1.56-2.28Z"/>
                <path class="cls-12" d="M173.53,131.51c1.51-.45,2.29,2.6,.89,3.02-1.37,.41-2.16-2.64-.89-3.02Z"/>
              </g>
              <path class="cls-12" d="M164.91,132.11c.4-.2,.73-.44,1.1-.68,.42-.26,.78-.43,.99-.9,.11-.25-.04-.63-.27-.76-.55-.31-1.14-.11-1.66,.18-.56,.32-.91,.71-1.15,1.32-.23,.59,.46,1.1,.99,.84Z"/>
              <path class="cls-12" d="M174.38,129.71c-.44,.02-.85-.03-1.29-.05-.5-.03-.89,0-1.31-.31-.22-.17-.27-.57-.13-.8,.33-.54,.94-.66,1.54-.65,.65,0,1.15,.18,1.64,.6,.48,.4,.13,1.19-.45,1.22Z"/>
              <path class="cls-12" d="M168.09,142.78c.28,.17,.57,.43,.92,.39,.34-.04,.69-.28,.97-.46,.03-.02,.06,0,.05,.04-.17,.42-.64,.76-1.1,.78-.45,.02-.74-.31-.93-.68-.03-.05,.04-.09,.08-.06Z"/>
              <path class="cls-12" d="M168.48,139.71c.71,.71,1.59,1,2.48,.98,.4,0,.8-.08,1.18-.2,.08-.02,.15-.04,.22-.07,.07-.02,.13-.04,.2-.08,.11-.04,.15-.15,.15-.25h0s-.01-.07-.03-.1h0s-.02-.09-.02-.09c-.14-.74-.45-1.84-.45-1.84,.3,.08,1.8,.4,1.69,.02-.87-3.13-1.84-6.62-3.37-9.55-.05-.1-.2-.04-.17,.06,.72,3.04,1.97,5.94,2.74,8.99-.47-.07-1.25-.23-1.63-.14-.1,.05,.64,2.12,.67,2.45,0,0,0,.01,0,.04-1.2,.42-2.21,.25-3.58-.32-.08-.04-.14,.04-.07,.1Z"/>
              <g>
                <path class="cls-12" d="M171.62,140.21s-.46,1.02-1.29,1.53c-.3,.19-.65,.31-1.04,.29-.8-.04-.97-.73-.96-1.36,0-.52,.14-.99,.14-.99,0,0,1.33,.8,3.14,.53Z"/>
                <path class="cls-4" d="M170.34,141.74c-.3,.19-.65,.31-1.04,.29-.8-.04-.97-.73-.96-1.36,.83-.09,1.76,.29,2,1.07Z"/>
              </g>
            </g>
            <g>
              <path class="cls-14" d="M157.91,132.95c.71-2.85-1.27-7.35,0-8.71,2.77-2.94,9.33,1.7,13.54,1.37,4.08-.32,5.22-3.06,4.21-6.3-1.02-3.25-4.01-5.23-8.65-5.53-4.79-.31-8.95,1.96-11.17,3.67,0,0,.89-1.74,.46-2.22-.43-.48-2.29,1.28-2.85,2-.56,.74-.83,2.05-.83,2.05,0,0-.76-.16-1.88-.04-1.03,.11-2.27,1.04-2.33,1.29-.05,.25,1.45,.31,2.49,.28,0,0-1.72,2.74-1.49,4.94,.23,2.2,4.54,12.39,5.38,12.43,1.07,.06,2.82-4.07,3.11-5.23Z"/>
              <path class="cls-12" d="M151.3,120.5s.09,.02,.06,.06c-.92,.94-1.64,2.01-1.94,3.31-.35,1.51-.12,3.09,.34,4.55,.89,2.84,2.53,5.35,3.98,7.92,.04,.08-.08,.15-.13,.08-1.72-2.62-3.48-5.48-4.3-8.53-.7-2.6-.34-5.69,2-7.37Z"/>
              <path class="cls-12" d="M157.66,123.18c1.18-.27,2.52-.27,3.72-.07,1.18,.19,2.22,.83,3.3,1.3,2.42,1.06,5.05,1.82,7.71,1.43,.03,0,.04,.05,0,.05-2.42,.51-4.88-.01-7.14-.91-1.14-.45-2.24-1.15-3.43-1.46-1.35-.36-2.76-.22-4.14-.13-.14,0-.17-.19-.03-.22Z"/>
              <path class="cls-12" d="M158.26,116.06c1.57-.98,3.31-1.68,5.09-2.17,1.71-.47,3.49-.77,5.26-.63,3.06,.24,6,1.93,6.97,4.97,.49,1.54,.47,3.28-.22,4.76-.05,.1-.19,.04-.16-.07,1.01-2.82,.25-6.07-2.23-7.88-2.66-1.94-6.15-1.81-9.2-1.06-1.92,.47-3.73,1.23-5.5,2.09-.01,0-.02-.01-.01-.02Z"/>
            </g>
            <g>
              <path class="cls-3" d="M166.3,139.1c-1.82,.15-3.59-.95-4.21-2.77-.73-2.14,.42-4.48,2.56-5.21,2.14-.73,4.48,.42,5.21,2.56h0c.73,2.14-.42,4.48-2.56,5.21-.33,.11-.67,.18-1,.21Zm-.61-7.63c-.29,.02-.58,.08-.86,.18-1.85,.63-2.85,2.66-2.22,4.51,.63,1.85,2.66,2.85,4.51,2.22,1.85-.63,2.85-2.66,2.22-4.51-.54-1.57-2.06-2.52-3.65-2.4Z"/>
              <path class="cls-3" d="M175.53,137.22c-1.56,.12-3.11-1.36-3.53-3.46-.21-1.06-.11-2.12,.29-2.98,.41-.89,1.09-1.48,1.9-1.64,.82-.16,1.66,.12,2.39,.78,.7,.65,1.2,1.58,1.41,2.64,.44,2.22-.54,4.29-2.19,4.62-.09,.02-.18,.03-.27,.04Zm-1.02-7.57c-.07,0-.14,.01-.21,.03-.64,.13-1.18,.6-1.51,1.33-.35,.76-.44,1.7-.25,2.65,.38,1.92,1.79,3.27,3.15,3,1.35-.27,2.15-2.05,1.76-3.97-.19-.95-.63-1.78-1.24-2.35-.53-.49-1.12-.72-1.7-.68Z"/>
              <path class="cls-3" d="M169.82,134.18l-.43-.34c.51-.63,1.78-1.6,2.97-.75l-.32,.45c-1.07-.77-2.18,.59-2.23,.65Z"/>
              <path class="cls-3" d="M152.1,138.78l-.53-.15c.07-.25,.73-2.41,1.89-2.85,1.09-.4,8.43-1.16,8.74-1.19l.06,.55c-2.11,.22-7.77,.85-8.61,1.16-.77,.29-1.38,1.89-1.55,2.49Z"/>
            </g>
            <g>
              <path class="cls-8" d="M156.75,137.2s-3.64-4.28-5.61-2.94c-1.97,1.34,1.07,7.76,3.6,8.43,2.53,.68,3.2-1.65,3.2-1.65l-1.19-3.84Z"/>
              <path class="cls-12" d="M152.06,136.08s-.04,.06,0,.07c1.78,.53,2.83,2.03,3.62,3.62-.57-.59-1.3-.87-2.09-.18-.04,.04,0,.1,.06,.09,.69-.22,1.2-.14,1.73,.37,.37,.37,.65,.85,.93,1.28,.09,.15,.36,.04,.29-.13,0-.01-.01-.03-.02-.04-.16-2.19-2.15-5.08-4.52-5.08Z"/>
            </g>
          </g>
        </g>
        <g>
          <path class="cls-2" d="M165.83,153.47l-3.8,7.97-9.52-10.98-3.09,3.14s8.91,17.06,9.02,16.32l3.81-6.84,4.56,5.21,.38-12.34-1.37-2.49Z"/>
          <path class="cls-12" d="M167.35,162.2c0-2.04,.04-4.09-.06-6.13,0-.07-.11-.11-.14-.03-.53,1.94-.46,9.73-.59,11.59,0,0-.01-.02-.02-.02-.19-.22-4.24-4.6-4.29-4.54-.8,1.07-3.6,6.05-3.79,6.51-1.41-2.71-6.84-12.58-8.55-15.17-.05-.07-.16-.02-.13,.06,1.22,2.84,8.39,16.13,8.52,16.1,.08,.07,3.55-6.06,3.99-7.23,.67,.94,4.73,5.84,4.76,5.54,.23-2.03,.29-4.65,.29-6.69Z"/>
        </g>
      </g>
    </g>
  </g>
</svg>